M48
; DRILL file {KiCad (5.1.6)-1} date 10/17/20 00:26:56
; FORMAT={-:-/ absolute / metric / decimal}
; #@! TF.CreationDate,2020-10-17T00:26:56-04:00
; #@! TF.GenerationSoftware,Kicad,Pcbnew,(5.1.6)-1
FMAT,2
METRIC
T1C0.400
T2C0.750
T3C0.900
T4C0.914
T5C1.000
T6C1.100
T7C3.200
%
G90
G05
T1
X128.27Y-51.338
X129.286Y-59.182
X131.445Y-80.01
X131.953Y-77.343
X132.715Y-64.135
X137.414Y-74.676
X141.478Y-45.466
X141.605Y-46.99
X143.51Y-73.152
X143.891Y-76.327
X145.034Y-87.122
X145.669Y-76.708
X146.304Y-47.715
X146.812Y-43.434
X146.812Y-71.374
X147.066Y-67.31
X147.865Y-52.705
X147.955Y-48.477
X147.985Y-54.58
X149.225Y-59.69
X150.105Y-86.732
X150.495Y-51.435
X150.495Y-54.61
X150.847Y-88.465
X150.934Y-46.891
X151.13Y-56.515
X151.815Y-86.487
X153.67Y-52.07
X154.713Y-81.788
X154.788Y-83.91
X154.813Y-86.36
X156.845Y-50.165
X157.48Y-55.88
T2
X145.415Y-68.58
X149.225Y-68.58
T3
X122.428Y-41.402
X124.968Y-41.402
T4
X155.575Y-72.898
X155.575Y-74.93
X155.575Y-76.962
T5
X146.685Y-81.915
X149.225Y-81.915
X151.765Y-81.915
X151.13Y-60.325
X151.13Y-62.865
X151.13Y-65.405
X151.13Y-67.945
X153.67Y-60.325
X153.67Y-62.865
X153.67Y-65.405
X153.67Y-67.945
X135.382Y-97.155
X137.922Y-97.155
X140.462Y-97.155
X143.002Y-97.155
X129.09Y-76.49
X129.09Y-78.99
X129.09Y-87.09
X129.09Y-89.59
X147.59Y-76.49
X147.59Y-78.99
X147.59Y-87.09
X147.59Y-89.59
X155.092Y-43.18
X155.092Y-45.72
X155.092Y-48.26
X155.092Y-50.8
X155.092Y-53.34
X155.092Y-55.88
X128.016Y-38.354
X130.556Y-38.354
X133.096Y-38.354
X135.636Y-38.354
X138.176Y-38.354
X140.716Y-38.354
X143.256Y-38.354
X145.796Y-38.354
X148.336Y-38.354
X150.876Y-38.354
X123.8Y-50.648
X123.8Y-53.188
X123.8Y-55.728
X123.8Y-58.268
X123.8Y-60.808
X123.8Y-63.348
X123.8Y-65.888
X123.8Y-68.428
X123.8Y-70.968
X123.8Y-73.508
X123.8Y-76.048
X123.8Y-78.588
X123.8Y-81.128
X123.8Y-83.668
X123.8Y-86.208
X139.04Y-50.648
X139.04Y-53.188
X139.04Y-55.728
X139.04Y-58.268
X139.04Y-60.808
X139.04Y-63.348
X139.04Y-65.888
X139.04Y-68.428
X139.04Y-70.968
X139.04Y-73.508
X139.04Y-76.048
X139.04Y-78.588
X139.04Y-81.128
X139.04Y-83.668
X139.04Y-86.208
X145.085Y-52.705
X145.085Y-55.245
X145.085Y-57.785
X145.085Y-60.325
X145.085Y-62.865
T6
X126.314Y-50.648
X126.314Y-53.188
X126.314Y-55.728
X126.314Y-58.268
X126.314Y-60.808
X126.314Y-63.348
X126.314Y-65.888
X126.314Y-68.428
X126.314Y-70.968
X126.314Y-73.508
X126.314Y-76.048
X126.314Y-78.588
X126.314Y-81.128
X126.314Y-83.668
X141.554Y-50.648
X141.554Y-53.188
X141.554Y-55.728
X141.554Y-58.268
X141.554Y-60.808
X141.554Y-63.348
X141.554Y-65.888
X141.554Y-68.428
X141.554Y-70.968
X141.554Y-73.508
X141.554Y-76.048
X141.554Y-78.588
X141.554Y-81.128
X141.554Y-83.668
T7
X154.305Y-95.885
X124.46Y-95.885
T4
G00X155.998Y-70.739
M15
G01X155.152Y-70.739
M16
G05
G00X155.998Y-79.121
M15
G01X155.152Y-79.121
M16
G05
T0
M30
