M48
; DRILL file {KiCad (5.1.6)-1} date 01/03/21 15:30:32
; FORMAT={-:-/ absolute / metric / decimal}
; #@! TF.CreationDate,2021-01-03T15:30:32-05:00
; #@! TF.GenerationSoftware,Kicad,Pcbnew,(5.1.6)-1
FMAT,2
METRIC
T1C0.400
T2C0.850
T3C0.900
T4C0.914
T5C1.000
T6C1.100
T7C1.200
T8C3.200
%
G90
G05
T1
X139.214Y-133.531
X139.51Y-135.23
X139.954Y-92.964
X141.483Y-131.611
X141.656Y-114.3
X141.681Y-104.369
X141.986Y-101.092
X142.545Y-118.389
X143.307Y-111.658
X143.789Y-123.952
X144.45Y-78.74
X144.755Y-95.402
X145.009Y-133.35
X145.39Y-101.854
X145.415Y-103.911
X146.843Y-141.89
X147.955Y-105.588
X148.234Y-97.815
X148.971Y-104.648
X149.123Y-98.704
X149.225Y-93.345
X149.86Y-106.045
X150.012Y-91.973
X150.622Y-123.952
X151.13Y-85.09
X151.13Y-108.585
X151.409Y-143.688
X151.994Y-115.875
X152.4Y-133.858
X153.035Y-87.376
X153.06Y-116.459
X153.111Y-129.616
X153.162Y-139.554
X153.416Y-126.035
X153.67Y-137.033
X154.483Y-95.758
X154.559Y-140.843
X154.686Y-88.392
X154.838Y-143.281
X155.175Y-138.938
X155.702Y-135.89
X156.845Y-101.6
X156.845Y-104.14
X156.972Y-133.604
X157.425Y-129.667
X157.48Y-76.2
X157.485Y-130.805
X157.614Y-105.036
X157.632Y-125.578
X157.734Y-127.889
X158.295Y-86.995
X158.369Y-116.549
X158.877Y-120.523
X160.147Y-106.172
X160.147Y-141.478
X160.401Y-101.473
X161.104Y-134.425
X161.163Y-77.216
X162.052Y-135.89
X162.382Y-128.168
X163.105Y-134.366
X163.414Y-137.76
X163.703Y-138.938
X163.83Y-99.785
X164.211Y-142.24
X164.77Y-127.787
X165.163Y-84.645
X165.354Y-138.938
X165.481Y-121.031
X165.735Y-145.669
X166.079Y-134.366
X166.37Y-103.895
X166.497Y-110.973
X166.61Y-130.15
X166.7Y-92.126
X166.751Y-96.85
X167.386Y-126.467
X167.737Y-128.63
X167.742Y-134.518
X167.925Y-139.096
X168.475Y-108.585
X168.529Y-114.554
X168.692Y-88.456
X168.692Y-105.41
X169.037Y-110.998
X169.762Y-84.672
X169.799Y-77.343
X170.942Y-83.185
X171.667Y-102.235
X171.704Y-136.652
X171.831Y-85.725
X173.761Y-131.775
X173.99Y-81.697
X174.244Y-136.42
X175.387Y-115.443
X175.514Y-117.856
X175.895Y-86.36
X176.251Y-133.883
X176.276Y-135.723
X176.632Y-139.802
X176.784Y-142.748
X176.825Y-137.922
T2
X160.376Y-90.018
X160.376Y-92.558
X160.376Y-95.098
T3
X139.7Y-83.82
X142.24Y-83.82
T4
X163.195Y-108.839
X163.195Y-110.871
X163.195Y-112.903
X175.26Y-122.428
X175.26Y-124.46
X175.26Y-126.492
T5
X153.67Y-146.304
X156.21Y-146.304
X158.75Y-146.304
X161.29Y-146.304
X144.78Y-108.585
X144.78Y-111.125
X144.78Y-113.665
X144.78Y-116.205
X147.32Y-108.585
X147.32Y-111.125
X147.32Y-113.665
X147.32Y-116.205
X173.99Y-88.9
X173.99Y-91.44
X173.99Y-93.98
X173.99Y-96.52
X173.99Y-99.06
X173.99Y-101.6
X173.99Y-104.14
X173.99Y-106.68
X173.99Y-109.22
X173.99Y-111.76
X146.05Y-74.041
X148.59Y-74.041
X151.13Y-74.041
X153.67Y-74.041
X156.21Y-74.041
X158.75Y-74.041
X161.29Y-74.041
X163.83Y-74.041
X166.37Y-74.041
X168.91Y-74.041
X146.685Y-86.995
X146.685Y-89.535
X146.685Y-92.075
X146.685Y-94.615
X146.685Y-97.155
X146.685Y-99.695
X169.291Y-140.335
X171.831Y-140.335
X174.371Y-140.335
X170.18Y-134.62
X172.72Y-134.62
T6
X140.335Y-97.79
X140.335Y-100.33
X140.335Y-102.87
X140.335Y-105.41
X140.335Y-107.95
X140.335Y-110.49
X140.335Y-113.03
X140.335Y-115.57
X140.335Y-118.11
X140.335Y-120.65
X140.335Y-123.19
X140.335Y-125.73
X140.335Y-128.27
X140.335Y-130.81
X155.575Y-97.79
X155.575Y-100.33
X155.575Y-102.87
X155.575Y-105.41
X155.575Y-107.95
X155.575Y-110.49
X155.575Y-113.03
X155.575Y-115.57
X155.575Y-118.11
X155.575Y-120.65
X155.575Y-123.19
X155.575Y-125.73
X155.575Y-128.27
X155.575Y-130.81
T7
X163.83Y-119.38
X167.64Y-119.38
T8
X173.99Y-75.184
X140.97Y-75.184
X142.24Y-145.796
X172.212Y-145.796
T4
G00X163.618Y-106.68
M15
G01X162.772Y-106.68
M16
G05
G00X163.618Y-115.062
M15
G01X162.772Y-115.062
M16
G05
G00X175.683Y-120.269
M15
G01X174.837Y-120.269
M16
G05
G00X175.683Y-128.651
M15
G01X174.837Y-128.651
M16
G05
T0
M30
