%TF.GenerationSoftware,KiCad,Pcbnew,(5.1.6)-1*%
%TF.CreationDate,2021-10-22T11:30:52-04:00*%
%TF.ProjectId,main_board,6d61696e-5f62-46f6-9172-642e6b696361,rev?*%
%TF.SameCoordinates,Original*%
%TF.FileFunction,Paste,Top*%
%TF.FilePolarity,Positive*%
%FSLAX46Y46*%
G04 Gerber Fmt 4.6, Leading zero omitted, Abs format (unit mm)*
G04 Created by KiCad (PCBNEW (5.1.6)-1) date 2021-10-22 11:30:52*
%MOMM*%
%LPD*%
G01*
G04 APERTURE LIST*
%ADD10R,3.800000X2.000000*%
%ADD11R,1.500000X2.000000*%
G04 APERTURE END LIST*
%TO.C,C1*%
G36*
G01*
X162296000Y-97586500D02*
X161046000Y-97586500D01*
G75*
G02*
X160796000Y-97336500I0J250000D01*
G01*
X160796000Y-96411500D01*
G75*
G02*
X161046000Y-96161500I250000J0D01*
G01*
X162296000Y-96161500D01*
G75*
G02*
X162546000Y-96411500I0J-250000D01*
G01*
X162546000Y-97336500D01*
G75*
G02*
X162296000Y-97586500I-250000J0D01*
G01*
G37*
G36*
G01*
X162296000Y-100561500D02*
X161046000Y-100561500D01*
G75*
G02*
X160796000Y-100311500I0J250000D01*
G01*
X160796000Y-99386500D01*
G75*
G02*
X161046000Y-99136500I250000J0D01*
G01*
X162296000Y-99136500D01*
G75*
G02*
X162546000Y-99386500I0J-250000D01*
G01*
X162546000Y-100311500D01*
G75*
G02*
X162296000Y-100561500I-250000J0D01*
G01*
G37*
%TD*%
%TO.C,C2*%
G36*
G01*
X165554500Y-134706000D02*
X166804500Y-134706000D01*
G75*
G02*
X167054500Y-134956000I0J-250000D01*
G01*
X167054500Y-135881000D01*
G75*
G02*
X166804500Y-136131000I-250000J0D01*
G01*
X165554500Y-136131000D01*
G75*
G02*
X165304500Y-135881000I0J250000D01*
G01*
X165304500Y-134956000D01*
G75*
G02*
X165554500Y-134706000I250000J0D01*
G01*
G37*
G36*
G01*
X165554500Y-137681000D02*
X166804500Y-137681000D01*
G75*
G02*
X167054500Y-137931000I0J-250000D01*
G01*
X167054500Y-138856000D01*
G75*
G02*
X166804500Y-139106000I-250000J0D01*
G01*
X165554500Y-139106000D01*
G75*
G02*
X165304500Y-138856000I0J250000D01*
G01*
X165304500Y-137931000D01*
G75*
G02*
X165554500Y-137681000I250000J0D01*
G01*
G37*
%TD*%
%TO.C,C3*%
G36*
G01*
X162773000Y-117211000D02*
X162773000Y-115961000D01*
G75*
G02*
X163023000Y-115711000I250000J0D01*
G01*
X163948000Y-115711000D01*
G75*
G02*
X164198000Y-115961000I0J-250000D01*
G01*
X164198000Y-117211000D01*
G75*
G02*
X163948000Y-117461000I-250000J0D01*
G01*
X163023000Y-117461000D01*
G75*
G02*
X162773000Y-117211000I0J250000D01*
G01*
G37*
G36*
G01*
X165748000Y-117211000D02*
X165748000Y-115961000D01*
G75*
G02*
X165998000Y-115711000I250000J0D01*
G01*
X166923000Y-115711000D01*
G75*
G02*
X167173000Y-115961000I0J-250000D01*
G01*
X167173000Y-117211000D01*
G75*
G02*
X166923000Y-117461000I-250000J0D01*
G01*
X165998000Y-117461000D01*
G75*
G02*
X165748000Y-117211000I0J250000D01*
G01*
G37*
%TD*%
%TO.C,C4*%
G36*
G01*
X165875000Y-122926000D02*
X165875000Y-121676000D01*
G75*
G02*
X166125000Y-121426000I250000J0D01*
G01*
X167050000Y-121426000D01*
G75*
G02*
X167300000Y-121676000I0J-250000D01*
G01*
X167300000Y-122926000D01*
G75*
G02*
X167050000Y-123176000I-250000J0D01*
G01*
X166125000Y-123176000D01*
G75*
G02*
X165875000Y-122926000I0J250000D01*
G01*
G37*
G36*
G01*
X162900000Y-122926000D02*
X162900000Y-121676000D01*
G75*
G02*
X163150000Y-121426000I250000J0D01*
G01*
X164075000Y-121426000D01*
G75*
G02*
X164325000Y-121676000I0J-250000D01*
G01*
X164325000Y-122926000D01*
G75*
G02*
X164075000Y-123176000I-250000J0D01*
G01*
X163150000Y-123176000D01*
G75*
G02*
X162900000Y-122926000I0J250000D01*
G01*
G37*
%TD*%
%TO.C,D1*%
G36*
G01*
X175174000Y-127708500D02*
X175174000Y-128958500D01*
G75*
G02*
X174924000Y-129208500I-250000J0D01*
G01*
X173999000Y-129208500D01*
G75*
G02*
X173749000Y-128958500I0J250000D01*
G01*
X173749000Y-127708500D01*
G75*
G02*
X173999000Y-127458500I250000J0D01*
G01*
X174924000Y-127458500D01*
G75*
G02*
X175174000Y-127708500I0J-250000D01*
G01*
G37*
G36*
G01*
X172199000Y-127708500D02*
X172199000Y-128958500D01*
G75*
G02*
X171949000Y-129208500I-250000J0D01*
G01*
X171024000Y-129208500D01*
G75*
G02*
X170774000Y-128958500I0J250000D01*
G01*
X170774000Y-127708500D01*
G75*
G02*
X171024000Y-127458500I250000J0D01*
G01*
X171949000Y-127458500D01*
G75*
G02*
X172199000Y-127708500I0J-250000D01*
G01*
G37*
%TD*%
%TO.C,F1*%
G36*
G01*
X171643500Y-131271000D02*
X171643500Y-131746000D01*
G75*
G02*
X171406000Y-131983500I-237500J0D01*
G01*
X170831000Y-131983500D01*
G75*
G02*
X170593500Y-131746000I0J237500D01*
G01*
X170593500Y-131271000D01*
G75*
G02*
X170831000Y-131033500I237500J0D01*
G01*
X171406000Y-131033500D01*
G75*
G02*
X171643500Y-131271000I0J-237500D01*
G01*
G37*
G36*
G01*
X169893500Y-131271000D02*
X169893500Y-131746000D01*
G75*
G02*
X169656000Y-131983500I-237500J0D01*
G01*
X169081000Y-131983500D01*
G75*
G02*
X168843500Y-131746000I0J237500D01*
G01*
X168843500Y-131271000D01*
G75*
G02*
X169081000Y-131033500I237500J0D01*
G01*
X169656000Y-131033500D01*
G75*
G02*
X169893500Y-131271000I0J-237500D01*
G01*
G37*
%TD*%
%TO.C,R1*%
G36*
G01*
X142738000Y-90274500D02*
X141488000Y-90274500D01*
G75*
G02*
X141238000Y-90024500I0J250000D01*
G01*
X141238000Y-89099500D01*
G75*
G02*
X141488000Y-88849500I250000J0D01*
G01*
X142738000Y-88849500D01*
G75*
G02*
X142988000Y-89099500I0J-250000D01*
G01*
X142988000Y-90024500D01*
G75*
G02*
X142738000Y-90274500I-250000J0D01*
G01*
G37*
G36*
G01*
X142738000Y-87299500D02*
X141488000Y-87299500D01*
G75*
G02*
X141238000Y-87049500I0J250000D01*
G01*
X141238000Y-86124500D01*
G75*
G02*
X141488000Y-85874500I250000J0D01*
G01*
X142738000Y-85874500D01*
G75*
G02*
X142988000Y-86124500I0J-250000D01*
G01*
X142988000Y-87049500D01*
G75*
G02*
X142738000Y-87299500I-250000J0D01*
G01*
G37*
%TD*%
%TO.C,R2*%
G36*
G01*
X170360500Y-136131000D02*
X169110500Y-136131000D01*
G75*
G02*
X168860500Y-135881000I0J250000D01*
G01*
X168860500Y-134956000D01*
G75*
G02*
X169110500Y-134706000I250000J0D01*
G01*
X170360500Y-134706000D01*
G75*
G02*
X170610500Y-134956000I0J-250000D01*
G01*
X170610500Y-135881000D01*
G75*
G02*
X170360500Y-136131000I-250000J0D01*
G01*
G37*
G36*
G01*
X170360500Y-139106000D02*
X169110500Y-139106000D01*
G75*
G02*
X168860500Y-138856000I0J250000D01*
G01*
X168860500Y-137931000D01*
G75*
G02*
X169110500Y-137681000I250000J0D01*
G01*
X170360500Y-137681000D01*
G75*
G02*
X170610500Y-137931000I0J-250000D01*
G01*
X170610500Y-138856000D01*
G75*
G02*
X170360500Y-139106000I-250000J0D01*
G01*
G37*
%TD*%
%TO.C,R3*%
G36*
G01*
X151437500Y-130470000D02*
X150187500Y-130470000D01*
G75*
G02*
X149937500Y-130220000I0J250000D01*
G01*
X149937500Y-129295000D01*
G75*
G02*
X150187500Y-129045000I250000J0D01*
G01*
X151437500Y-129045000D01*
G75*
G02*
X151687500Y-129295000I0J-250000D01*
G01*
X151687500Y-130220000D01*
G75*
G02*
X151437500Y-130470000I-250000J0D01*
G01*
G37*
G36*
G01*
X151437500Y-127495000D02*
X150187500Y-127495000D01*
G75*
G02*
X149937500Y-127245000I0J250000D01*
G01*
X149937500Y-126320000D01*
G75*
G02*
X150187500Y-126070000I250000J0D01*
G01*
X151437500Y-126070000D01*
G75*
G02*
X151687500Y-126320000I0J-250000D01*
G01*
X151687500Y-127245000D01*
G75*
G02*
X151437500Y-127495000I-250000J0D01*
G01*
G37*
%TD*%
%TO.C,R4*%
G36*
G01*
X148643500Y-127495000D02*
X147393500Y-127495000D01*
G75*
G02*
X147143500Y-127245000I0J250000D01*
G01*
X147143500Y-126320000D01*
G75*
G02*
X147393500Y-126070000I250000J0D01*
G01*
X148643500Y-126070000D01*
G75*
G02*
X148893500Y-126320000I0J-250000D01*
G01*
X148893500Y-127245000D01*
G75*
G02*
X148643500Y-127495000I-250000J0D01*
G01*
G37*
G36*
G01*
X148643500Y-130470000D02*
X147393500Y-130470000D01*
G75*
G02*
X147143500Y-130220000I0J250000D01*
G01*
X147143500Y-129295000D01*
G75*
G02*
X147393500Y-129045000I250000J0D01*
G01*
X148643500Y-129045000D01*
G75*
G02*
X148893500Y-129295000I0J-250000D01*
G01*
X148893500Y-130220000D01*
G75*
G02*
X148643500Y-130470000I-250000J0D01*
G01*
G37*
%TD*%
%TO.C,R5*%
G36*
G01*
X140198000Y-90274500D02*
X138948000Y-90274500D01*
G75*
G02*
X138698000Y-90024500I0J250000D01*
G01*
X138698000Y-89099500D01*
G75*
G02*
X138948000Y-88849500I250000J0D01*
G01*
X140198000Y-88849500D01*
G75*
G02*
X140448000Y-89099500I0J-250000D01*
G01*
X140448000Y-90024500D01*
G75*
G02*
X140198000Y-90274500I-250000J0D01*
G01*
G37*
G36*
G01*
X140198000Y-87299500D02*
X138948000Y-87299500D01*
G75*
G02*
X138698000Y-87049500I0J250000D01*
G01*
X138698000Y-86124500D01*
G75*
G02*
X138948000Y-85874500I250000J0D01*
G01*
X140198000Y-85874500D01*
G75*
G02*
X140448000Y-86124500I0J-250000D01*
G01*
X140448000Y-87049500D01*
G75*
G02*
X140198000Y-87299500I-250000J0D01*
G01*
G37*
%TD*%
%TO.C,DS3231*%
G36*
G01*
X163489000Y-99210000D02*
X163489000Y-98910000D01*
G75*
G02*
X163639000Y-98760000I150000J0D01*
G01*
X165389000Y-98760000D01*
G75*
G02*
X165539000Y-98910000I0J-150000D01*
G01*
X165539000Y-99210000D01*
G75*
G02*
X165389000Y-99360000I-150000J0D01*
G01*
X163639000Y-99360000D01*
G75*
G02*
X163489000Y-99210000I0J150000D01*
G01*
G37*
G36*
G01*
X163489000Y-100480000D02*
X163489000Y-100180000D01*
G75*
G02*
X163639000Y-100030000I150000J0D01*
G01*
X165389000Y-100030000D01*
G75*
G02*
X165539000Y-100180000I0J-150000D01*
G01*
X165539000Y-100480000D01*
G75*
G02*
X165389000Y-100630000I-150000J0D01*
G01*
X163639000Y-100630000D01*
G75*
G02*
X163489000Y-100480000I0J150000D01*
G01*
G37*
G36*
G01*
X163489000Y-101750000D02*
X163489000Y-101450000D01*
G75*
G02*
X163639000Y-101300000I150000J0D01*
G01*
X165389000Y-101300000D01*
G75*
G02*
X165539000Y-101450000I0J-150000D01*
G01*
X165539000Y-101750000D01*
G75*
G02*
X165389000Y-101900000I-150000J0D01*
G01*
X163639000Y-101900000D01*
G75*
G02*
X163489000Y-101750000I0J150000D01*
G01*
G37*
G36*
G01*
X163489000Y-103020000D02*
X163489000Y-102720000D01*
G75*
G02*
X163639000Y-102570000I150000J0D01*
G01*
X165389000Y-102570000D01*
G75*
G02*
X165539000Y-102720000I0J-150000D01*
G01*
X165539000Y-103020000D01*
G75*
G02*
X165389000Y-103170000I-150000J0D01*
G01*
X163639000Y-103170000D01*
G75*
G02*
X163489000Y-103020000I0J150000D01*
G01*
G37*
G36*
G01*
X163489000Y-104290000D02*
X163489000Y-103990000D01*
G75*
G02*
X163639000Y-103840000I150000J0D01*
G01*
X165389000Y-103840000D01*
G75*
G02*
X165539000Y-103990000I0J-150000D01*
G01*
X165539000Y-104290000D01*
G75*
G02*
X165389000Y-104440000I-150000J0D01*
G01*
X163639000Y-104440000D01*
G75*
G02*
X163489000Y-104290000I0J150000D01*
G01*
G37*
G36*
G01*
X163489000Y-105560000D02*
X163489000Y-105260000D01*
G75*
G02*
X163639000Y-105110000I150000J0D01*
G01*
X165389000Y-105110000D01*
G75*
G02*
X165539000Y-105260000I0J-150000D01*
G01*
X165539000Y-105560000D01*
G75*
G02*
X165389000Y-105710000I-150000J0D01*
G01*
X163639000Y-105710000D01*
G75*
G02*
X163489000Y-105560000I0J150000D01*
G01*
G37*
G36*
G01*
X163489000Y-106830000D02*
X163489000Y-106530000D01*
G75*
G02*
X163639000Y-106380000I150000J0D01*
G01*
X165389000Y-106380000D01*
G75*
G02*
X165539000Y-106530000I0J-150000D01*
G01*
X165539000Y-106830000D01*
G75*
G02*
X165389000Y-106980000I-150000J0D01*
G01*
X163639000Y-106980000D01*
G75*
G02*
X163489000Y-106830000I0J150000D01*
G01*
G37*
G36*
G01*
X163489000Y-108100000D02*
X163489000Y-107800000D01*
G75*
G02*
X163639000Y-107650000I150000J0D01*
G01*
X165389000Y-107650000D01*
G75*
G02*
X165539000Y-107800000I0J-150000D01*
G01*
X165539000Y-108100000D01*
G75*
G02*
X165389000Y-108250000I-150000J0D01*
G01*
X163639000Y-108250000D01*
G75*
G02*
X163489000Y-108100000I0J150000D01*
G01*
G37*
G36*
G01*
X172789000Y-108100000D02*
X172789000Y-107800000D01*
G75*
G02*
X172939000Y-107650000I150000J0D01*
G01*
X174689000Y-107650000D01*
G75*
G02*
X174839000Y-107800000I0J-150000D01*
G01*
X174839000Y-108100000D01*
G75*
G02*
X174689000Y-108250000I-150000J0D01*
G01*
X172939000Y-108250000D01*
G75*
G02*
X172789000Y-108100000I0J150000D01*
G01*
G37*
G36*
G01*
X172789000Y-106830000D02*
X172789000Y-106530000D01*
G75*
G02*
X172939000Y-106380000I150000J0D01*
G01*
X174689000Y-106380000D01*
G75*
G02*
X174839000Y-106530000I0J-150000D01*
G01*
X174839000Y-106830000D01*
G75*
G02*
X174689000Y-106980000I-150000J0D01*
G01*
X172939000Y-106980000D01*
G75*
G02*
X172789000Y-106830000I0J150000D01*
G01*
G37*
G36*
G01*
X172789000Y-105560000D02*
X172789000Y-105260000D01*
G75*
G02*
X172939000Y-105110000I150000J0D01*
G01*
X174689000Y-105110000D01*
G75*
G02*
X174839000Y-105260000I0J-150000D01*
G01*
X174839000Y-105560000D01*
G75*
G02*
X174689000Y-105710000I-150000J0D01*
G01*
X172939000Y-105710000D01*
G75*
G02*
X172789000Y-105560000I0J150000D01*
G01*
G37*
G36*
G01*
X172789000Y-104290000D02*
X172789000Y-103990000D01*
G75*
G02*
X172939000Y-103840000I150000J0D01*
G01*
X174689000Y-103840000D01*
G75*
G02*
X174839000Y-103990000I0J-150000D01*
G01*
X174839000Y-104290000D01*
G75*
G02*
X174689000Y-104440000I-150000J0D01*
G01*
X172939000Y-104440000D01*
G75*
G02*
X172789000Y-104290000I0J150000D01*
G01*
G37*
G36*
G01*
X172789000Y-103020000D02*
X172789000Y-102720000D01*
G75*
G02*
X172939000Y-102570000I150000J0D01*
G01*
X174689000Y-102570000D01*
G75*
G02*
X174839000Y-102720000I0J-150000D01*
G01*
X174839000Y-103020000D01*
G75*
G02*
X174689000Y-103170000I-150000J0D01*
G01*
X172939000Y-103170000D01*
G75*
G02*
X172789000Y-103020000I0J150000D01*
G01*
G37*
G36*
G01*
X172789000Y-101750000D02*
X172789000Y-101450000D01*
G75*
G02*
X172939000Y-101300000I150000J0D01*
G01*
X174689000Y-101300000D01*
G75*
G02*
X174839000Y-101450000I0J-150000D01*
G01*
X174839000Y-101750000D01*
G75*
G02*
X174689000Y-101900000I-150000J0D01*
G01*
X172939000Y-101900000D01*
G75*
G02*
X172789000Y-101750000I0J150000D01*
G01*
G37*
G36*
G01*
X172789000Y-100480000D02*
X172789000Y-100180000D01*
G75*
G02*
X172939000Y-100030000I150000J0D01*
G01*
X174689000Y-100030000D01*
G75*
G02*
X174839000Y-100180000I0J-150000D01*
G01*
X174839000Y-100480000D01*
G75*
G02*
X174689000Y-100630000I-150000J0D01*
G01*
X172939000Y-100630000D01*
G75*
G02*
X172789000Y-100480000I0J150000D01*
G01*
G37*
G36*
G01*
X172789000Y-99210000D02*
X172789000Y-98910000D01*
G75*
G02*
X172939000Y-98760000I150000J0D01*
G01*
X174689000Y-98760000D01*
G75*
G02*
X174839000Y-98910000I0J-150000D01*
G01*
X174839000Y-99210000D01*
G75*
G02*
X174689000Y-99360000I-150000J0D01*
G01*
X172939000Y-99360000D01*
G75*
G02*
X172789000Y-99210000I0J150000D01*
G01*
G37*
%TD*%
%TO.C,INA219*%
G36*
G01*
X159344500Y-139149500D02*
X159044500Y-139149500D01*
G75*
G02*
X158894500Y-138999500I0J150000D01*
G01*
X158894500Y-137349500D01*
G75*
G02*
X159044500Y-137199500I150000J0D01*
G01*
X159344500Y-137199500D01*
G75*
G02*
X159494500Y-137349500I0J-150000D01*
G01*
X159494500Y-138999500D01*
G75*
G02*
X159344500Y-139149500I-150000J0D01*
G01*
G37*
G36*
G01*
X160614500Y-139149500D02*
X160314500Y-139149500D01*
G75*
G02*
X160164500Y-138999500I0J150000D01*
G01*
X160164500Y-137349500D01*
G75*
G02*
X160314500Y-137199500I150000J0D01*
G01*
X160614500Y-137199500D01*
G75*
G02*
X160764500Y-137349500I0J-150000D01*
G01*
X160764500Y-138999500D01*
G75*
G02*
X160614500Y-139149500I-150000J0D01*
G01*
G37*
G36*
G01*
X161884500Y-139149500D02*
X161584500Y-139149500D01*
G75*
G02*
X161434500Y-138999500I0J150000D01*
G01*
X161434500Y-137349500D01*
G75*
G02*
X161584500Y-137199500I150000J0D01*
G01*
X161884500Y-137199500D01*
G75*
G02*
X162034500Y-137349500I0J-150000D01*
G01*
X162034500Y-138999500D01*
G75*
G02*
X161884500Y-139149500I-150000J0D01*
G01*
G37*
G36*
G01*
X163154500Y-139149500D02*
X162854500Y-139149500D01*
G75*
G02*
X162704500Y-138999500I0J150000D01*
G01*
X162704500Y-137349500D01*
G75*
G02*
X162854500Y-137199500I150000J0D01*
G01*
X163154500Y-137199500D01*
G75*
G02*
X163304500Y-137349500I0J-150000D01*
G01*
X163304500Y-138999500D01*
G75*
G02*
X163154500Y-139149500I-150000J0D01*
G01*
G37*
G36*
G01*
X163154500Y-134199500D02*
X162854500Y-134199500D01*
G75*
G02*
X162704500Y-134049500I0J150000D01*
G01*
X162704500Y-132399500D01*
G75*
G02*
X162854500Y-132249500I150000J0D01*
G01*
X163154500Y-132249500D01*
G75*
G02*
X163304500Y-132399500I0J-150000D01*
G01*
X163304500Y-134049500D01*
G75*
G02*
X163154500Y-134199500I-150000J0D01*
G01*
G37*
G36*
G01*
X161884500Y-134199500D02*
X161584500Y-134199500D01*
G75*
G02*
X161434500Y-134049500I0J150000D01*
G01*
X161434500Y-132399500D01*
G75*
G02*
X161584500Y-132249500I150000J0D01*
G01*
X161884500Y-132249500D01*
G75*
G02*
X162034500Y-132399500I0J-150000D01*
G01*
X162034500Y-134049500D01*
G75*
G02*
X161884500Y-134199500I-150000J0D01*
G01*
G37*
G36*
G01*
X160614500Y-134199500D02*
X160314500Y-134199500D01*
G75*
G02*
X160164500Y-134049500I0J150000D01*
G01*
X160164500Y-132399500D01*
G75*
G02*
X160314500Y-132249500I150000J0D01*
G01*
X160614500Y-132249500D01*
G75*
G02*
X160764500Y-132399500I0J-150000D01*
G01*
X160764500Y-134049500D01*
G75*
G02*
X160614500Y-134199500I-150000J0D01*
G01*
G37*
G36*
G01*
X159344500Y-134199500D02*
X159044500Y-134199500D01*
G75*
G02*
X158894500Y-134049500I0J150000D01*
G01*
X158894500Y-132399500D01*
G75*
G02*
X159044500Y-132249500I150000J0D01*
G01*
X159344500Y-132249500D01*
G75*
G02*
X159494500Y-132399500I0J-150000D01*
G01*
X159494500Y-134049500D01*
G75*
G02*
X159344500Y-134199500I-150000J0D01*
G01*
G37*
%TD*%
D10*
%TO.C,5V*%
X172021500Y-116357000D03*
D11*
X172021500Y-122657000D03*
X174321500Y-122657000D03*
X169721500Y-122657000D03*
%TD*%
M02*
