M48
; DRILL file {KiCad (5.1.6)-1} date 10/22/21 11:31:16
; FORMAT={-:-/ absolute / metric / decimal}
; #@! TF.CreationDate,2021-10-22T11:31:16-04:00
; #@! TF.GenerationSoftware,Kicad,Pcbnew,(5.1.6)-1
FMAT,2
METRIC
T1C0.400
T2C0.900
T3C0.914
T4C1.000
T5C1.200
T6C3.200
%
G90
G05
T1
X139.573Y-86.587
X140.335Y-137.986
X140.97Y-93.929
X141.541Y-127.0
X141.689Y-112.669
X142.113Y-89.562
X142.235Y-111.247
X142.523Y-113.885
X143.51Y-129.921
X145.288Y-77.724
X146.177Y-74.993
X146.875Y-136.652
X148.018Y-126.782
X148.463Y-145.859
X149.758Y-97.485
X149.796Y-114.236
X150.812Y-126.782
X152.4Y-139.497
X156.108Y-80.874
X156.718Y-85.026
X156.845Y-129.132
X156.845Y-130.746
X157.988Y-115.343
X158.242Y-131.127
X158.496Y-89.713
X158.496Y-120.777
X159.195Y-133.286
X160.02Y-103.06
X160.655Y-108.267
X161.226Y-101.854
X161.607Y-93.472
X161.734Y-138.174
X163.004Y-138.174
X164.514Y-101.6
X166.179Y-135.382
X166.522Y-113.487
X167.767Y-143.32
X169.736Y-138.393
X171.26Y-110.807
X173.814Y-99.06
X173.814Y-100.33
X175.451Y-81.026
T2
X139.573Y-83.185
X142.113Y-83.185
T3
X174.815Y-133.35
X174.815Y-135.382
X174.815Y-137.414
X149.352Y-83.82
X149.352Y-85.852
X149.352Y-87.884
T4
X145.351Y-104.076
X145.351Y-106.617
X145.351Y-109.156
X145.351Y-111.697
X147.891Y-104.076
X147.891Y-106.617
X147.891Y-109.156
X147.891Y-111.697
X139.891Y-96.837
X139.891Y-99.377
X139.891Y-101.917
X139.891Y-104.457
X139.891Y-106.997
X139.891Y-109.537
X139.891Y-112.078
X139.891Y-114.617
X139.891Y-117.157
X139.891Y-119.697
X139.891Y-122.237
X139.891Y-124.777
X139.891Y-127.317
X139.891Y-129.857
X139.891Y-132.398
X155.13Y-96.837
X155.13Y-99.377
X155.13Y-101.917
X155.13Y-104.457
X155.13Y-106.997
X155.13Y-109.537
X155.13Y-112.078
X155.13Y-114.617
X155.13Y-117.157
X155.13Y-119.697
X155.13Y-122.237
X155.13Y-124.777
X155.13Y-127.317
X155.13Y-129.857
X155.13Y-132.398
X145.478Y-81.978
X145.478Y-84.519
X145.478Y-87.058
X145.478Y-89.599
X145.478Y-92.138
X145.478Y-94.678
X149.86Y-73.914
X152.4Y-73.914
X154.94Y-73.914
X157.48Y-73.914
X160.02Y-73.914
X162.56Y-73.914
X165.1Y-73.914
X153.67Y-146.05
X156.21Y-146.05
X158.75Y-146.05
X161.29Y-146.05
T5
X164.274Y-128.588
X168.084Y-128.588
T6
X174.053Y-75.438
X172.275Y-145.796
X142.24Y-145.796
X140.843Y-75.438
T3
G00X174.392Y-131.191
M15
G01X175.238Y-131.191
M16
G05
G00X174.392Y-139.573
M15
G01X175.238Y-139.573
M16
G05
G00X149.775Y-81.661
M15
G01X148.929Y-81.661
M16
G05
G00X149.775Y-90.043
M15
G01X148.929Y-90.043
M16
G05
T0
M30
