%TF.GenerationSoftware,KiCad,Pcbnew,(5.1.6)-1*%
%TF.CreationDate,2021-10-22T11:30:52-04:00*%
%TF.ProjectId,main_board,6d61696e-5f62-46f6-9172-642e6b696361,rev?*%
%TF.SameCoordinates,Original*%
%TF.FileFunction,Legend,Top*%
%TF.FilePolarity,Positive*%
%FSLAX46Y46*%
G04 Gerber Fmt 4.6, Leading zero omitted, Abs format (unit mm)*
G04 Created by KiCad (PCBNEW (5.1.6)-1) date 2021-10-22 11:30:52*
%MOMM*%
%LPD*%
G01*
G04 APERTURE LIST*
%ADD10C,0.150000*%
%ADD11C,0.300000*%
%ADD12C,0.120000*%
G04 APERTURE END LIST*
D10*
X152803504Y-82443580D02*
X152803504Y-81443580D01*
X153041600Y-81443580D01*
X153184457Y-81491200D01*
X153279695Y-81586438D01*
X153327314Y-81681676D01*
X153374933Y-81872152D01*
X153374933Y-82015009D01*
X153327314Y-82205485D01*
X153279695Y-82300723D01*
X153184457Y-82395961D01*
X153041600Y-82443580D01*
X152803504Y-82443580D01*
X153803504Y-81919771D02*
X154136838Y-81919771D01*
X154279695Y-82443580D02*
X153803504Y-82443580D01*
X153803504Y-81443580D01*
X154279695Y-81443580D01*
X155041600Y-81919771D02*
X155184457Y-81967390D01*
X155232076Y-82015009D01*
X155279695Y-82110247D01*
X155279695Y-82253104D01*
X155232076Y-82348342D01*
X155184457Y-82395961D01*
X155089219Y-82443580D01*
X154708266Y-82443580D01*
X154708266Y-81443580D01*
X155041600Y-81443580D01*
X155136838Y-81491200D01*
X155184457Y-81538819D01*
X155232076Y-81634057D01*
X155232076Y-81729295D01*
X155184457Y-81824533D01*
X155136838Y-81872152D01*
X155041600Y-81919771D01*
X154708266Y-81919771D01*
X155708266Y-81443580D02*
X155708266Y-82253104D01*
X155755885Y-82348342D01*
X155803504Y-82395961D01*
X155898742Y-82443580D01*
X156089219Y-82443580D01*
X156184457Y-82395961D01*
X156232076Y-82348342D01*
X156279695Y-82253104D01*
X156279695Y-81443580D01*
X157279695Y-81491200D02*
X157184457Y-81443580D01*
X157041600Y-81443580D01*
X156898742Y-81491200D01*
X156803504Y-81586438D01*
X156755885Y-81681676D01*
X156708266Y-81872152D01*
X156708266Y-82015009D01*
X156755885Y-82205485D01*
X156803504Y-82300723D01*
X156898742Y-82395961D01*
X157041600Y-82443580D01*
X157136838Y-82443580D01*
X157279695Y-82395961D01*
X157327314Y-82348342D01*
X157327314Y-82015009D01*
X157136838Y-82015009D01*
X152673371Y-90215980D02*
X152673371Y-89215980D01*
X152911466Y-89215980D01*
X153054323Y-89263600D01*
X153149561Y-89358838D01*
X153197180Y-89454076D01*
X153244800Y-89644552D01*
X153244800Y-89787409D01*
X153197180Y-89977885D01*
X153149561Y-90073123D01*
X153054323Y-90168361D01*
X152911466Y-90215980D01*
X152673371Y-90215980D01*
X153673371Y-89692171D02*
X154006704Y-89692171D01*
X154149561Y-90215980D02*
X153673371Y-90215980D01*
X153673371Y-89215980D01*
X154149561Y-89215980D01*
X154578133Y-90215980D02*
X154578133Y-89215980D01*
X154959085Y-89215980D01*
X155054323Y-89263600D01*
X155101942Y-89311219D01*
X155149561Y-89406457D01*
X155149561Y-89549314D01*
X155101942Y-89644552D01*
X155054323Y-89692171D01*
X154959085Y-89739790D01*
X154578133Y-89739790D01*
X156054323Y-90215980D02*
X155578133Y-90215980D01*
X155578133Y-89215980D01*
X156578133Y-89215980D02*
X156768609Y-89215980D01*
X156863847Y-89263600D01*
X156959085Y-89358838D01*
X157006704Y-89549314D01*
X157006704Y-89882647D01*
X156959085Y-90073123D01*
X156863847Y-90168361D01*
X156768609Y-90215980D01*
X156578133Y-90215980D01*
X156482895Y-90168361D01*
X156387657Y-90073123D01*
X156340038Y-89882647D01*
X156340038Y-89549314D01*
X156387657Y-89358838D01*
X156482895Y-89263600D01*
X156578133Y-89215980D01*
X157625752Y-89739790D02*
X157625752Y-90215980D01*
X157292419Y-89215980D02*
X157625752Y-89739790D01*
X157959085Y-89215980D01*
X173863119Y-141311380D02*
X174053595Y-141311380D01*
X174148833Y-141359000D01*
X174244071Y-141454238D01*
X174291690Y-141644714D01*
X174291690Y-141978047D01*
X174244071Y-142168523D01*
X174148833Y-142263761D01*
X174053595Y-142311380D01*
X173863119Y-142311380D01*
X173767880Y-142263761D01*
X173672642Y-142168523D01*
X173625023Y-141978047D01*
X173625023Y-141644714D01*
X173672642Y-141454238D01*
X173767880Y-141359000D01*
X173863119Y-141311380D01*
X175053595Y-141787571D02*
X174720261Y-141787571D01*
X174720261Y-142311380D02*
X174720261Y-141311380D01*
X175196452Y-141311380D01*
X175910738Y-141787571D02*
X175577404Y-141787571D01*
X175577404Y-142311380D02*
X175577404Y-141311380D01*
X176053595Y-141311380D01*
D11*
X138117000Y-141585071D02*
X138117000Y-140085071D01*
X138617000Y-141156500D01*
X139117000Y-140085071D01*
X139117000Y-141585071D01*
X140331285Y-140799357D02*
X140545571Y-140870785D01*
X140617000Y-140942214D01*
X140688428Y-141085071D01*
X140688428Y-141299357D01*
X140617000Y-141442214D01*
X140545571Y-141513642D01*
X140402714Y-141585071D01*
X139831285Y-141585071D01*
X139831285Y-140085071D01*
X140331285Y-140085071D01*
X140474142Y-140156500D01*
X140545571Y-140227928D01*
X140617000Y-140370785D01*
X140617000Y-140513642D01*
X140545571Y-140656500D01*
X140474142Y-140727928D01*
X140331285Y-140799357D01*
X139831285Y-140799357D01*
X142259857Y-140085071D02*
X142759857Y-141585071D01*
X143259857Y-140085071D01*
X144545571Y-141585071D02*
X143688428Y-141585071D01*
X144117000Y-141585071D02*
X144117000Y-140085071D01*
X143974142Y-140299357D01*
X143831285Y-140442214D01*
X143688428Y-140513642D01*
X145188428Y-141442214D02*
X145259857Y-141513642D01*
X145188428Y-141585071D01*
X145117000Y-141513642D01*
X145188428Y-141442214D01*
X145188428Y-141585071D01*
X146117000Y-140727928D02*
X145974142Y-140656500D01*
X145902714Y-140585071D01*
X145831285Y-140442214D01*
X145831285Y-140370785D01*
X145902714Y-140227928D01*
X145974142Y-140156500D01*
X146117000Y-140085071D01*
X146402714Y-140085071D01*
X146545571Y-140156500D01*
X146617000Y-140227928D01*
X146688428Y-140370785D01*
X146688428Y-140442214D01*
X146617000Y-140585071D01*
X146545571Y-140656500D01*
X146402714Y-140727928D01*
X146117000Y-140727928D01*
X145974142Y-140799357D01*
X145902714Y-140870785D01*
X145831285Y-141013642D01*
X145831285Y-141299357D01*
X145902714Y-141442214D01*
X145974142Y-141513642D01*
X146117000Y-141585071D01*
X146402714Y-141585071D01*
X146545571Y-141513642D01*
X146617000Y-141442214D01*
X146688428Y-141299357D01*
X146688428Y-141013642D01*
X146617000Y-140870785D01*
X146545571Y-140799357D01*
X146402714Y-140727928D01*
D12*
%TO.C,switch2*%
X147193000Y-91313000D02*
X147193000Y-80391000D01*
X151638000Y-91313000D02*
X151638000Y-80391000D01*
X147193000Y-80391000D02*
X151638000Y-80391000D01*
X147193000Y-91313000D02*
X151638000Y-91313000D01*
%TO.C,ARDUINO NANO*%
X156530500Y-92897500D02*
X138490500Y-92897500D01*
X156530500Y-136337500D02*
X156530500Y-92897500D01*
X138490500Y-136337500D02*
X156530500Y-136337500D01*
X141160500Y-133667500D02*
X138490500Y-133667500D01*
X141160500Y-98107500D02*
X141160500Y-133667500D01*
X141160500Y-98107500D02*
X138490500Y-98107500D01*
X153860500Y-133667500D02*
X156530500Y-133667500D01*
X153860500Y-95567500D02*
X153860500Y-133667500D01*
X153860500Y-95567500D02*
X156530500Y-95567500D01*
X138490500Y-92897500D02*
X138490500Y-95567500D01*
X138490500Y-98107500D02*
X138490500Y-136337500D01*
X141160500Y-95567500D02*
X138490500Y-95567500D01*
X141160500Y-98107500D02*
X141160500Y-95567500D01*
%TO.C,CR1025*%
X166433500Y-76073000D02*
X166433500Y-76708000D01*
X170243500Y-76073000D02*
X166433500Y-76073000D01*
X170243500Y-76708000D02*
X170243500Y-76073000D01*
X166433500Y-96393000D02*
X166433500Y-95758000D01*
X170243500Y-96393000D02*
X166433500Y-96393000D01*
X170243500Y-95758000D02*
X170243500Y-96393000D01*
X166433500Y-76708000D02*
X166433500Y-80518000D01*
X170243500Y-80518000D02*
X170243500Y-76708000D01*
X166433500Y-95758000D02*
X166433500Y-91948000D01*
X170243500Y-91948000D02*
X170243500Y-95758000D01*
X174053500Y-91948000D02*
X165798500Y-91948000D01*
X168338500Y-80518000D02*
X165798500Y-80518000D01*
X162623500Y-83693000D02*
X165798500Y-80518000D01*
X162623500Y-88773000D02*
X165798500Y-91948000D01*
X162623500Y-83693000D02*
X162623500Y-88773000D01*
X162623500Y-86233000D02*
X162623500Y-83693000D01*
X174053500Y-80518000D02*
X174053500Y-81788000D01*
X174053500Y-91948000D02*
X174053500Y-90678000D01*
X168338500Y-80518000D02*
X174053500Y-80518000D01*
X174053501Y-90677999D02*
G75*
G02*
X174053501Y-81788001I4444999J4444999D01*
G01*
%TO.C,C1*%
X160761000Y-98963564D02*
X160761000Y-97759436D01*
X162581000Y-98963564D02*
X162581000Y-97759436D01*
%TO.C,C2*%
X165269500Y-136303936D02*
X165269500Y-137508064D01*
X167089500Y-136303936D02*
X167089500Y-137508064D01*
%TO.C,C3*%
X164370936Y-117496000D02*
X165575064Y-117496000D01*
X164370936Y-115676000D02*
X165575064Y-115676000D01*
%TO.C,C4*%
X164497936Y-121391000D02*
X165702064Y-121391000D01*
X164497936Y-123211000D02*
X165702064Y-123211000D01*
%TO.C,D1*%
X175434000Y-127198500D02*
X171374000Y-127198500D01*
X175434000Y-129468500D02*
X175434000Y-127198500D01*
X171374000Y-129468500D02*
X175434000Y-129468500D01*
%TO.C,D2*%
X139283000Y-84265000D02*
X139283000Y-84421000D01*
X139283000Y-81949000D02*
X139283000Y-82105000D01*
X142515335Y-82106392D02*
G75*
G03*
X139283000Y-81949484I-1672335J-1078608D01*
G01*
X142515335Y-84263608D02*
G75*
G02*
X139283000Y-84420516I-1672335J1078608D01*
G01*
X141884130Y-82105163D02*
G75*
G03*
X139802039Y-82105000I-1041130J-1079837D01*
G01*
X141884130Y-84264837D02*
G75*
G02*
X139802039Y-84265000I-1041130J1079837D01*
G01*
%TO.C,F1*%
X170414767Y-130998500D02*
X170072233Y-130998500D01*
X170414767Y-132018500D02*
X170072233Y-132018500D01*
%TO.C,R1*%
X143023000Y-88676564D02*
X143023000Y-87472436D01*
X141203000Y-88676564D02*
X141203000Y-87472436D01*
%TO.C,R2*%
X168825500Y-137508064D02*
X168825500Y-136303936D01*
X170645500Y-137508064D02*
X170645500Y-136303936D01*
%TO.C,R3*%
X151722500Y-128872064D02*
X151722500Y-127667936D01*
X149902500Y-128872064D02*
X149902500Y-127667936D01*
%TO.C,R4*%
X147108500Y-128872064D02*
X147108500Y-127667936D01*
X148928500Y-128872064D02*
X148928500Y-127667936D01*
%TO.C,R5*%
X140483000Y-88676564D02*
X140483000Y-87472436D01*
X138663000Y-88676564D02*
X138663000Y-87472436D01*
%TO.C,switch1*%
X176974500Y-129921000D02*
X172529500Y-129921000D01*
X176974500Y-140843000D02*
X172529500Y-140843000D01*
X172529500Y-129921000D02*
X172529500Y-140843000D01*
X176974500Y-129921000D02*
X176974500Y-140843000D01*
%TO.C,DS3231*%
X165304000Y-98500000D02*
X163489000Y-98500000D01*
X165304000Y-98245000D02*
X165304000Y-98500000D01*
X169164000Y-98245000D02*
X165304000Y-98245000D01*
X173024000Y-98245000D02*
X173024000Y-98500000D01*
X169164000Y-98245000D02*
X173024000Y-98245000D01*
X165304000Y-108765000D02*
X165304000Y-108510000D01*
X169164000Y-108765000D02*
X165304000Y-108765000D01*
X173024000Y-108765000D02*
X173024000Y-108510000D01*
X169164000Y-108765000D02*
X173024000Y-108765000D01*
%TO.C,INA219*%
X158539500Y-135699500D02*
X158539500Y-139149500D01*
X158539500Y-135699500D02*
X158539500Y-133749500D01*
X163659500Y-135699500D02*
X163659500Y-137649500D01*
X163659500Y-135699500D02*
X163659500Y-133749500D01*
%TO.C,5V*%
X168611500Y-123607000D02*
X168611500Y-117597000D01*
X175431500Y-121357000D02*
X175431500Y-117597000D01*
X168611500Y-117597000D02*
X169871500Y-117597000D01*
X175431500Y-117597000D02*
X174171500Y-117597000D01*
%TO.C,STAGE*%
X162560000Y-144780000D02*
X162560000Y-147320000D01*
X152400000Y-147320000D02*
X152400000Y-144780000D01*
X152400000Y-144780000D02*
X158750000Y-144780000D01*
X158750000Y-144780000D02*
X162560000Y-144780000D01*
X152400000Y-147320000D02*
X162560000Y-147320000D01*
%TO.C,U1*%
X151130000Y-72644000D02*
X166370000Y-72644000D01*
X151130000Y-75184000D02*
X166370000Y-75184000D01*
X166370000Y-75184000D02*
X166370000Y-72644000D01*
X148590000Y-75184000D02*
X148590000Y-72644000D01*
X151130000Y-75184000D02*
X148590000Y-75184000D01*
X151130000Y-72644000D02*
X148590000Y-72644000D01*
%TO.C,ARDUINO NANO*%
D10*
X142208928Y-120435666D02*
X142685119Y-120435666D01*
X142113690Y-120721380D02*
X142447023Y-119721380D01*
X142780357Y-120721380D01*
X143685119Y-120721380D02*
X143351785Y-120245190D01*
X143113690Y-120721380D02*
X143113690Y-119721380D01*
X143494642Y-119721380D01*
X143589880Y-119769000D01*
X143637500Y-119816619D01*
X143685119Y-119911857D01*
X143685119Y-120054714D01*
X143637500Y-120149952D01*
X143589880Y-120197571D01*
X143494642Y-120245190D01*
X143113690Y-120245190D01*
X144113690Y-120721380D02*
X144113690Y-119721380D01*
X144351785Y-119721380D01*
X144494642Y-119769000D01*
X144589880Y-119864238D01*
X144637500Y-119959476D01*
X144685119Y-120149952D01*
X144685119Y-120292809D01*
X144637500Y-120483285D01*
X144589880Y-120578523D01*
X144494642Y-120673761D01*
X144351785Y-120721380D01*
X144113690Y-120721380D01*
X145113690Y-119721380D02*
X145113690Y-120530904D01*
X145161309Y-120626142D01*
X145208928Y-120673761D01*
X145304166Y-120721380D01*
X145494642Y-120721380D01*
X145589880Y-120673761D01*
X145637500Y-120626142D01*
X145685119Y-120530904D01*
X145685119Y-119721380D01*
X146161309Y-120721380D02*
X146161309Y-119721380D01*
X146637500Y-120721380D02*
X146637500Y-119721380D01*
X147208928Y-120721380D01*
X147208928Y-119721380D01*
X147875595Y-119721380D02*
X148066071Y-119721380D01*
X148161309Y-119769000D01*
X148256547Y-119864238D01*
X148304166Y-120054714D01*
X148304166Y-120388047D01*
X148256547Y-120578523D01*
X148161309Y-120673761D01*
X148066071Y-120721380D01*
X147875595Y-120721380D01*
X147780357Y-120673761D01*
X147685119Y-120578523D01*
X147637500Y-120388047D01*
X147637500Y-120054714D01*
X147685119Y-119864238D01*
X147780357Y-119769000D01*
X147875595Y-119721380D01*
X149494642Y-120721380D02*
X149494642Y-119721380D01*
X150066071Y-120721380D01*
X150066071Y-119721380D01*
X150494642Y-120435666D02*
X150970833Y-120435666D01*
X150399404Y-120721380D02*
X150732738Y-119721380D01*
X151066071Y-120721380D01*
X151399404Y-120721380D02*
X151399404Y-119721380D01*
X151970833Y-120721380D01*
X151970833Y-119721380D01*
X152637500Y-119721380D02*
X152827976Y-119721380D01*
X152923214Y-119769000D01*
X153018452Y-119864238D01*
X153066071Y-120054714D01*
X153066071Y-120388047D01*
X153018452Y-120578523D01*
X152923214Y-120673761D01*
X152827976Y-120721380D01*
X152637500Y-120721380D01*
X152542261Y-120673761D01*
X152447023Y-120578523D01*
X152399404Y-120388047D01*
X152399404Y-120054714D01*
X152447023Y-119864238D01*
X152542261Y-119769000D01*
X152637500Y-119721380D01*
%TO.C,CR1025*%
X175490142Y-88264738D02*
X175537761Y-88312357D01*
X175585380Y-88455214D01*
X175585380Y-88550452D01*
X175537761Y-88693309D01*
X175442523Y-88788547D01*
X175347285Y-88836166D01*
X175156809Y-88883785D01*
X175013952Y-88883785D01*
X174823476Y-88836166D01*
X174728238Y-88788547D01*
X174633000Y-88693309D01*
X174585380Y-88550452D01*
X174585380Y-88455214D01*
X174633000Y-88312357D01*
X174680619Y-88264738D01*
X175585380Y-87264738D02*
X175109190Y-87598071D01*
X175585380Y-87836166D02*
X174585380Y-87836166D01*
X174585380Y-87455214D01*
X174633000Y-87359976D01*
X174680619Y-87312357D01*
X174775857Y-87264738D01*
X174918714Y-87264738D01*
X175013952Y-87312357D01*
X175061571Y-87359976D01*
X175109190Y-87455214D01*
X175109190Y-87836166D01*
X175585380Y-86312357D02*
X175585380Y-86883785D01*
X175585380Y-86598071D02*
X174585380Y-86598071D01*
X174728238Y-86693309D01*
X174823476Y-86788547D01*
X174871095Y-86883785D01*
X174585380Y-85693309D02*
X174585380Y-85598071D01*
X174633000Y-85502833D01*
X174680619Y-85455214D01*
X174775857Y-85407595D01*
X174966333Y-85359976D01*
X175204428Y-85359976D01*
X175394904Y-85407595D01*
X175490142Y-85455214D01*
X175537761Y-85502833D01*
X175585380Y-85598071D01*
X175585380Y-85693309D01*
X175537761Y-85788547D01*
X175490142Y-85836166D01*
X175394904Y-85883785D01*
X175204428Y-85931404D01*
X174966333Y-85931404D01*
X174775857Y-85883785D01*
X174680619Y-85836166D01*
X174633000Y-85788547D01*
X174585380Y-85693309D01*
X174680619Y-84979023D02*
X174633000Y-84931404D01*
X174585380Y-84836166D01*
X174585380Y-84598071D01*
X174633000Y-84502833D01*
X174680619Y-84455214D01*
X174775857Y-84407595D01*
X174871095Y-84407595D01*
X175013952Y-84455214D01*
X175585380Y-85026642D01*
X175585380Y-84407595D01*
X174585380Y-83502833D02*
X174585380Y-83979023D01*
X175061571Y-84026642D01*
X175013952Y-83979023D01*
X174966333Y-83883785D01*
X174966333Y-83645690D01*
X175013952Y-83550452D01*
X175061571Y-83502833D01*
X175156809Y-83455214D01*
X175394904Y-83455214D01*
X175490142Y-83502833D01*
X175537761Y-83550452D01*
X175585380Y-83645690D01*
X175585380Y-83883785D01*
X175537761Y-83979023D01*
X175490142Y-84026642D01*
%TO.C,C1*%
X160208142Y-98528166D02*
X160255761Y-98575785D01*
X160303380Y-98718642D01*
X160303380Y-98813880D01*
X160255761Y-98956738D01*
X160160523Y-99051976D01*
X160065285Y-99099595D01*
X159874809Y-99147214D01*
X159731952Y-99147214D01*
X159541476Y-99099595D01*
X159446238Y-99051976D01*
X159351000Y-98956738D01*
X159303380Y-98813880D01*
X159303380Y-98718642D01*
X159351000Y-98575785D01*
X159398619Y-98528166D01*
X160303380Y-97575785D02*
X160303380Y-98147214D01*
X160303380Y-97861500D02*
X159303380Y-97861500D01*
X159446238Y-97956738D01*
X159541476Y-98051976D01*
X159589095Y-98147214D01*
%TO.C,C2*%
X165949333Y-140692142D02*
X165901714Y-140739761D01*
X165758857Y-140787380D01*
X165663619Y-140787380D01*
X165520761Y-140739761D01*
X165425523Y-140644523D01*
X165377904Y-140549285D01*
X165330285Y-140358809D01*
X165330285Y-140215952D01*
X165377904Y-140025476D01*
X165425523Y-139930238D01*
X165520761Y-139835000D01*
X165663619Y-139787380D01*
X165758857Y-139787380D01*
X165901714Y-139835000D01*
X165949333Y-139882619D01*
X166330285Y-139882619D02*
X166377904Y-139835000D01*
X166473142Y-139787380D01*
X166711238Y-139787380D01*
X166806476Y-139835000D01*
X166854095Y-139882619D01*
X166901714Y-139977857D01*
X166901714Y-140073095D01*
X166854095Y-140215952D01*
X166282666Y-140787380D01*
X166901714Y-140787380D01*
%TO.C,C3*%
X164806333Y-115123142D02*
X164758714Y-115170761D01*
X164615857Y-115218380D01*
X164520619Y-115218380D01*
X164377761Y-115170761D01*
X164282523Y-115075523D01*
X164234904Y-114980285D01*
X164187285Y-114789809D01*
X164187285Y-114646952D01*
X164234904Y-114456476D01*
X164282523Y-114361238D01*
X164377761Y-114266000D01*
X164520619Y-114218380D01*
X164615857Y-114218380D01*
X164758714Y-114266000D01*
X164806333Y-114313619D01*
X165139666Y-114218380D02*
X165758714Y-114218380D01*
X165425380Y-114599333D01*
X165568238Y-114599333D01*
X165663476Y-114646952D01*
X165711095Y-114694571D01*
X165758714Y-114789809D01*
X165758714Y-115027904D01*
X165711095Y-115123142D01*
X165663476Y-115170761D01*
X165568238Y-115218380D01*
X165282523Y-115218380D01*
X165187285Y-115170761D01*
X165139666Y-115123142D01*
%TO.C,C4*%
X164933333Y-120838142D02*
X164885714Y-120885761D01*
X164742857Y-120933380D01*
X164647619Y-120933380D01*
X164504761Y-120885761D01*
X164409523Y-120790523D01*
X164361904Y-120695285D01*
X164314285Y-120504809D01*
X164314285Y-120361952D01*
X164361904Y-120171476D01*
X164409523Y-120076238D01*
X164504761Y-119981000D01*
X164647619Y-119933380D01*
X164742857Y-119933380D01*
X164885714Y-119981000D01*
X164933333Y-120028619D01*
X165790476Y-120266714D02*
X165790476Y-120933380D01*
X165552380Y-119885761D02*
X165314285Y-120600047D01*
X165933333Y-120600047D01*
%TO.C,D1*%
X176982380Y-128944595D02*
X175982380Y-128944595D01*
X175982380Y-128706500D01*
X176030000Y-128563642D01*
X176125238Y-128468404D01*
X176220476Y-128420785D01*
X176410952Y-128373166D01*
X176553809Y-128373166D01*
X176744285Y-128420785D01*
X176839523Y-128468404D01*
X176934761Y-128563642D01*
X176982380Y-128706500D01*
X176982380Y-128944595D01*
X176982380Y-127420785D02*
X176982380Y-127992214D01*
X176982380Y-127706500D02*
X175982380Y-127706500D01*
X176125238Y-127801738D01*
X176220476Y-127896976D01*
X176268095Y-127992214D01*
%TO.C,D2*%
X140104904Y-80677380D02*
X140104904Y-79677380D01*
X140343000Y-79677380D01*
X140485857Y-79725000D01*
X140581095Y-79820238D01*
X140628714Y-79915476D01*
X140676333Y-80105952D01*
X140676333Y-80248809D01*
X140628714Y-80439285D01*
X140581095Y-80534523D01*
X140485857Y-80629761D01*
X140343000Y-80677380D01*
X140104904Y-80677380D01*
X141057285Y-79772619D02*
X141104904Y-79725000D01*
X141200142Y-79677380D01*
X141438238Y-79677380D01*
X141533476Y-79725000D01*
X141581095Y-79772619D01*
X141628714Y-79867857D01*
X141628714Y-79963095D01*
X141581095Y-80105952D01*
X141009666Y-80677380D01*
X141628714Y-80677380D01*
%TO.C,F1*%
X169910166Y-132867071D02*
X169576833Y-132867071D01*
X169576833Y-133390880D02*
X169576833Y-132390880D01*
X170053023Y-132390880D01*
X170957785Y-133390880D02*
X170386357Y-133390880D01*
X170672071Y-133390880D02*
X170672071Y-132390880D01*
X170576833Y-132533738D01*
X170481595Y-132628976D01*
X170386357Y-132676595D01*
%TO.C,POWER*%
X163806476Y-126626880D02*
X163806476Y-125626880D01*
X164187428Y-125626880D01*
X164282666Y-125674500D01*
X164330285Y-125722119D01*
X164377904Y-125817357D01*
X164377904Y-125960214D01*
X164330285Y-126055452D01*
X164282666Y-126103071D01*
X164187428Y-126150690D01*
X163806476Y-126150690D01*
X164996952Y-125626880D02*
X165187428Y-125626880D01*
X165282666Y-125674500D01*
X165377904Y-125769738D01*
X165425523Y-125960214D01*
X165425523Y-126293547D01*
X165377904Y-126484023D01*
X165282666Y-126579261D01*
X165187428Y-126626880D01*
X164996952Y-126626880D01*
X164901714Y-126579261D01*
X164806476Y-126484023D01*
X164758857Y-126293547D01*
X164758857Y-125960214D01*
X164806476Y-125769738D01*
X164901714Y-125674500D01*
X164996952Y-125626880D01*
X165758857Y-125626880D02*
X165996952Y-126626880D01*
X166187428Y-125912595D01*
X166377904Y-126626880D01*
X166616000Y-125626880D01*
X166996952Y-126103071D02*
X167330285Y-126103071D01*
X167473142Y-126626880D02*
X166996952Y-126626880D01*
X166996952Y-125626880D01*
X167473142Y-125626880D01*
X168473142Y-126626880D02*
X168139809Y-126150690D01*
X167901714Y-126626880D02*
X167901714Y-125626880D01*
X168282666Y-125626880D01*
X168377904Y-125674500D01*
X168425523Y-125722119D01*
X168473142Y-125817357D01*
X168473142Y-125960214D01*
X168425523Y-126055452D01*
X168377904Y-126103071D01*
X168282666Y-126150690D01*
X167901714Y-126150690D01*
X168973547Y-127388928D02*
X169735452Y-127388928D01*
X169354500Y-127769880D02*
X169354500Y-127007976D01*
X162623547Y-127388928D02*
X163385452Y-127388928D01*
%TO.C,R1*%
X142009833Y-91828880D02*
X141676500Y-91352690D01*
X141438404Y-91828880D02*
X141438404Y-90828880D01*
X141819357Y-90828880D01*
X141914595Y-90876500D01*
X141962214Y-90924119D01*
X142009833Y-91019357D01*
X142009833Y-91162214D01*
X141962214Y-91257452D01*
X141914595Y-91305071D01*
X141819357Y-91352690D01*
X141438404Y-91352690D01*
X142962214Y-91828880D02*
X142390785Y-91828880D01*
X142676500Y-91828880D02*
X142676500Y-90828880D01*
X142581261Y-90971738D01*
X142486023Y-91066976D01*
X142390785Y-91114595D01*
%TO.C,R2*%
X169568833Y-140723880D02*
X169235500Y-140247690D01*
X168997404Y-140723880D02*
X168997404Y-139723880D01*
X169378357Y-139723880D01*
X169473595Y-139771500D01*
X169521214Y-139819119D01*
X169568833Y-139914357D01*
X169568833Y-140057214D01*
X169521214Y-140152452D01*
X169473595Y-140200071D01*
X169378357Y-140247690D01*
X168997404Y-140247690D01*
X169949785Y-139819119D02*
X169997404Y-139771500D01*
X170092642Y-139723880D01*
X170330738Y-139723880D01*
X170425976Y-139771500D01*
X170473595Y-139819119D01*
X170521214Y-139914357D01*
X170521214Y-140009595D01*
X170473595Y-140152452D01*
X169902166Y-140723880D01*
X170521214Y-140723880D01*
%TO.C,R3*%
X150772833Y-132024380D02*
X150439500Y-131548190D01*
X150201404Y-132024380D02*
X150201404Y-131024380D01*
X150582357Y-131024380D01*
X150677595Y-131072000D01*
X150725214Y-131119619D01*
X150772833Y-131214857D01*
X150772833Y-131357714D01*
X150725214Y-131452952D01*
X150677595Y-131500571D01*
X150582357Y-131548190D01*
X150201404Y-131548190D01*
X151106166Y-131024380D02*
X151725214Y-131024380D01*
X151391880Y-131405333D01*
X151534738Y-131405333D01*
X151629976Y-131452952D01*
X151677595Y-131500571D01*
X151725214Y-131595809D01*
X151725214Y-131833904D01*
X151677595Y-131929142D01*
X151629976Y-131976761D01*
X151534738Y-132024380D01*
X151249023Y-132024380D01*
X151153785Y-131976761D01*
X151106166Y-131929142D01*
%TO.C,R4*%
X147915333Y-132087880D02*
X147582000Y-131611690D01*
X147343904Y-132087880D02*
X147343904Y-131087880D01*
X147724857Y-131087880D01*
X147820095Y-131135500D01*
X147867714Y-131183119D01*
X147915333Y-131278357D01*
X147915333Y-131421214D01*
X147867714Y-131516452D01*
X147820095Y-131564071D01*
X147724857Y-131611690D01*
X147343904Y-131611690D01*
X148772476Y-131421214D02*
X148772476Y-132087880D01*
X148534380Y-131040261D02*
X148296285Y-131754547D01*
X148915333Y-131754547D01*
%TO.C,R5*%
X139469833Y-91828880D02*
X139136500Y-91352690D01*
X138898404Y-91828880D02*
X138898404Y-90828880D01*
X139279357Y-90828880D01*
X139374595Y-90876500D01*
X139422214Y-90924119D01*
X139469833Y-91019357D01*
X139469833Y-91162214D01*
X139422214Y-91257452D01*
X139374595Y-91305071D01*
X139279357Y-91352690D01*
X138898404Y-91352690D01*
X140374595Y-90828880D02*
X139898404Y-90828880D01*
X139850785Y-91305071D01*
X139898404Y-91257452D01*
X139993642Y-91209833D01*
X140231738Y-91209833D01*
X140326976Y-91257452D01*
X140374595Y-91305071D01*
X140422214Y-91400309D01*
X140422214Y-91638404D01*
X140374595Y-91733642D01*
X140326976Y-91781261D01*
X140231738Y-91828880D01*
X139993642Y-91828880D01*
X139898404Y-91781261D01*
X139850785Y-91733642D01*
%TO.C,DS3231*%
X166711642Y-104655880D02*
X166711642Y-103655880D01*
X166949738Y-103655880D01*
X167092595Y-103703500D01*
X167187833Y-103798738D01*
X167235452Y-103893976D01*
X167283071Y-104084452D01*
X167283071Y-104227309D01*
X167235452Y-104417785D01*
X167187833Y-104513023D01*
X167092595Y-104608261D01*
X166949738Y-104655880D01*
X166711642Y-104655880D01*
X167664023Y-104608261D02*
X167806880Y-104655880D01*
X168044976Y-104655880D01*
X168140214Y-104608261D01*
X168187833Y-104560642D01*
X168235452Y-104465404D01*
X168235452Y-104370166D01*
X168187833Y-104274928D01*
X168140214Y-104227309D01*
X168044976Y-104179690D01*
X167854500Y-104132071D01*
X167759261Y-104084452D01*
X167711642Y-104036833D01*
X167664023Y-103941595D01*
X167664023Y-103846357D01*
X167711642Y-103751119D01*
X167759261Y-103703500D01*
X167854500Y-103655880D01*
X168092595Y-103655880D01*
X168235452Y-103703500D01*
X168568785Y-103655880D02*
X169187833Y-103655880D01*
X168854500Y-104036833D01*
X168997357Y-104036833D01*
X169092595Y-104084452D01*
X169140214Y-104132071D01*
X169187833Y-104227309D01*
X169187833Y-104465404D01*
X169140214Y-104560642D01*
X169092595Y-104608261D01*
X168997357Y-104655880D01*
X168711642Y-104655880D01*
X168616404Y-104608261D01*
X168568785Y-104560642D01*
X169568785Y-103751119D02*
X169616404Y-103703500D01*
X169711642Y-103655880D01*
X169949738Y-103655880D01*
X170044976Y-103703500D01*
X170092595Y-103751119D01*
X170140214Y-103846357D01*
X170140214Y-103941595D01*
X170092595Y-104084452D01*
X169521166Y-104655880D01*
X170140214Y-104655880D01*
X170473547Y-103655880D02*
X171092595Y-103655880D01*
X170759261Y-104036833D01*
X170902119Y-104036833D01*
X170997357Y-104084452D01*
X171044976Y-104132071D01*
X171092595Y-104227309D01*
X171092595Y-104465404D01*
X171044976Y-104560642D01*
X170997357Y-104608261D01*
X170902119Y-104655880D01*
X170616404Y-104655880D01*
X170521166Y-104608261D01*
X170473547Y-104560642D01*
X172044976Y-104655880D02*
X171473547Y-104655880D01*
X171759261Y-104655880D02*
X171759261Y-103655880D01*
X171664023Y-103798738D01*
X171568785Y-103893976D01*
X171473547Y-103941595D01*
%TO.C,INA219*%
X158782047Y-131579880D02*
X158782047Y-130579880D01*
X159258238Y-131579880D02*
X159258238Y-130579880D01*
X159829666Y-131579880D01*
X159829666Y-130579880D01*
X160258238Y-131294166D02*
X160734428Y-131294166D01*
X160163000Y-131579880D02*
X160496333Y-130579880D01*
X160829666Y-131579880D01*
X161115380Y-130675119D02*
X161163000Y-130627500D01*
X161258238Y-130579880D01*
X161496333Y-130579880D01*
X161591571Y-130627500D01*
X161639190Y-130675119D01*
X161686809Y-130770357D01*
X161686809Y-130865595D01*
X161639190Y-131008452D01*
X161067761Y-131579880D01*
X161686809Y-131579880D01*
X162639190Y-131579880D02*
X162067761Y-131579880D01*
X162353476Y-131579880D02*
X162353476Y-130579880D01*
X162258238Y-130722738D01*
X162163000Y-130817976D01*
X162067761Y-130865595D01*
X163115380Y-131579880D02*
X163305857Y-131579880D01*
X163401095Y-131532261D01*
X163448714Y-131484642D01*
X163543952Y-131341785D01*
X163591571Y-131151309D01*
X163591571Y-130770357D01*
X163543952Y-130675119D01*
X163496333Y-130627500D01*
X163401095Y-130579880D01*
X163210619Y-130579880D01*
X163115380Y-130627500D01*
X163067761Y-130675119D01*
X163020142Y-130770357D01*
X163020142Y-131008452D01*
X163067761Y-131103690D01*
X163115380Y-131151309D01*
X163210619Y-131198928D01*
X163401095Y-131198928D01*
X163496333Y-131151309D01*
X163543952Y-131103690D01*
X163591571Y-131008452D01*
%TO.C,5V*%
X171831023Y-119149880D02*
X171354833Y-119149880D01*
X171307214Y-119626071D01*
X171354833Y-119578452D01*
X171450071Y-119530833D01*
X171688166Y-119530833D01*
X171783404Y-119578452D01*
X171831023Y-119626071D01*
X171878642Y-119721309D01*
X171878642Y-119959404D01*
X171831023Y-120054642D01*
X171783404Y-120102261D01*
X171688166Y-120149880D01*
X171450071Y-120149880D01*
X171354833Y-120102261D01*
X171307214Y-120054642D01*
X172164357Y-119149880D02*
X172497690Y-120149880D01*
X172831023Y-119149880D01*
%TO.C,STAGE*%
X155432380Y-148994761D02*
X155575238Y-149042380D01*
X155813333Y-149042380D01*
X155908571Y-148994761D01*
X155956190Y-148947142D01*
X156003809Y-148851904D01*
X156003809Y-148756666D01*
X155956190Y-148661428D01*
X155908571Y-148613809D01*
X155813333Y-148566190D01*
X155622857Y-148518571D01*
X155527619Y-148470952D01*
X155480000Y-148423333D01*
X155432380Y-148328095D01*
X155432380Y-148232857D01*
X155480000Y-148137619D01*
X155527619Y-148090000D01*
X155622857Y-148042380D01*
X155860952Y-148042380D01*
X156003809Y-148090000D01*
X156289523Y-148042380D02*
X156860952Y-148042380D01*
X156575238Y-149042380D02*
X156575238Y-148042380D01*
X157146666Y-148756666D02*
X157622857Y-148756666D01*
X157051428Y-149042380D02*
X157384761Y-148042380D01*
X157718095Y-149042380D01*
X158575238Y-148090000D02*
X158480000Y-148042380D01*
X158337142Y-148042380D01*
X158194285Y-148090000D01*
X158099047Y-148185238D01*
X158051428Y-148280476D01*
X158003809Y-148470952D01*
X158003809Y-148613809D01*
X158051428Y-148804285D01*
X158099047Y-148899523D01*
X158194285Y-148994761D01*
X158337142Y-149042380D01*
X158432380Y-149042380D01*
X158575238Y-148994761D01*
X158622857Y-148947142D01*
X158622857Y-148613809D01*
X158432380Y-148613809D01*
X159051428Y-148518571D02*
X159384761Y-148518571D01*
X159527619Y-149042380D02*
X159051428Y-149042380D01*
X159051428Y-148042380D01*
X159527619Y-148042380D01*
X153122380Y-143573333D02*
X154122380Y-143240000D01*
X153122380Y-142906666D01*
X154027142Y-142001904D02*
X154074761Y-142049523D01*
X154122380Y-142192380D01*
X154122380Y-142287619D01*
X154074761Y-142430476D01*
X153979523Y-142525714D01*
X153884285Y-142573333D01*
X153693809Y-142620952D01*
X153550952Y-142620952D01*
X153360476Y-142573333D01*
X153265238Y-142525714D01*
X153170000Y-142430476D01*
X153122380Y-142287619D01*
X153122380Y-142192380D01*
X153170000Y-142049523D01*
X153217619Y-142001904D01*
X154027142Y-141001904D02*
X154074761Y-141049523D01*
X154122380Y-141192380D01*
X154122380Y-141287619D01*
X154074761Y-141430476D01*
X153979523Y-141525714D01*
X153884285Y-141573333D01*
X153693809Y-141620952D01*
X153550952Y-141620952D01*
X153360476Y-141573333D01*
X153265238Y-141525714D01*
X153170000Y-141430476D01*
X153122380Y-141287619D01*
X153122380Y-141192380D01*
X153170000Y-141049523D01*
X153217619Y-141001904D01*
X155662380Y-143763809D02*
X155662380Y-143192380D01*
X156662380Y-143478095D02*
X155662380Y-143478095D01*
X156662380Y-142287619D02*
X156186190Y-142620952D01*
X156662380Y-142859047D02*
X155662380Y-142859047D01*
X155662380Y-142478095D01*
X155710000Y-142382857D01*
X155757619Y-142335238D01*
X155852857Y-142287619D01*
X155995714Y-142287619D01*
X156090952Y-142335238D01*
X156138571Y-142382857D01*
X156186190Y-142478095D01*
X156186190Y-142859047D01*
X156662380Y-141859047D02*
X155662380Y-141859047D01*
X155710000Y-140859047D02*
X155662380Y-140954285D01*
X155662380Y-141097142D01*
X155710000Y-141240000D01*
X155805238Y-141335238D01*
X155900476Y-141382857D01*
X156090952Y-141430476D01*
X156233809Y-141430476D01*
X156424285Y-141382857D01*
X156519523Y-141335238D01*
X156614761Y-141240000D01*
X156662380Y-141097142D01*
X156662380Y-141001904D01*
X156614761Y-140859047D01*
X156567142Y-140811428D01*
X156233809Y-140811428D01*
X156233809Y-141001904D01*
X158678571Y-144001904D02*
X158678571Y-143668571D01*
X159202380Y-143525714D02*
X159202380Y-144001904D01*
X158202380Y-144001904D01*
X158202380Y-143525714D01*
X159107142Y-142525714D02*
X159154761Y-142573333D01*
X159202380Y-142716190D01*
X159202380Y-142811428D01*
X159154761Y-142954285D01*
X159059523Y-143049523D01*
X158964285Y-143097142D01*
X158773809Y-143144761D01*
X158630952Y-143144761D01*
X158440476Y-143097142D01*
X158345238Y-143049523D01*
X158250000Y-142954285D01*
X158202380Y-142811428D01*
X158202380Y-142716190D01*
X158250000Y-142573333D01*
X158297619Y-142525714D01*
X159202380Y-142097142D02*
X158202380Y-142097142D01*
X158678571Y-142097142D02*
X158678571Y-141525714D01*
X159202380Y-141525714D02*
X158202380Y-141525714D01*
X158202380Y-140859047D02*
X158202380Y-140668571D01*
X158250000Y-140573333D01*
X158345238Y-140478095D01*
X158535714Y-140430476D01*
X158869047Y-140430476D01*
X159059523Y-140478095D01*
X159154761Y-140573333D01*
X159202380Y-140668571D01*
X159202380Y-140859047D01*
X159154761Y-140954285D01*
X159059523Y-141049523D01*
X158869047Y-141097142D01*
X158535714Y-141097142D01*
X158345238Y-141049523D01*
X158250000Y-140954285D01*
X158202380Y-140859047D01*
X160790000Y-143001904D02*
X160742380Y-143097142D01*
X160742380Y-143240000D01*
X160790000Y-143382857D01*
X160885238Y-143478095D01*
X160980476Y-143525714D01*
X161170952Y-143573333D01*
X161313809Y-143573333D01*
X161504285Y-143525714D01*
X161599523Y-143478095D01*
X161694761Y-143382857D01*
X161742380Y-143240000D01*
X161742380Y-143144761D01*
X161694761Y-143001904D01*
X161647142Y-142954285D01*
X161313809Y-142954285D01*
X161313809Y-143144761D01*
X161742380Y-142525714D02*
X160742380Y-142525714D01*
X161742380Y-141954285D01*
X160742380Y-141954285D01*
X161742380Y-141478095D02*
X160742380Y-141478095D01*
X160742380Y-141240000D01*
X160790000Y-141097142D01*
X160885238Y-141001904D01*
X160980476Y-140954285D01*
X161170952Y-140906666D01*
X161313809Y-140906666D01*
X161504285Y-140954285D01*
X161599523Y-141001904D01*
X161694761Y-141097142D01*
X161742380Y-141240000D01*
X161742380Y-141478095D01*
%TO.C,U1*%
X165504761Y-78152476D02*
X165552380Y-78009619D01*
X165552380Y-77771523D01*
X165504761Y-77676285D01*
X165457142Y-77628666D01*
X165361904Y-77581047D01*
X165266666Y-77581047D01*
X165171428Y-77628666D01*
X165123809Y-77676285D01*
X165076190Y-77771523D01*
X165028571Y-77962000D01*
X164980952Y-78057238D01*
X164933333Y-78104857D01*
X164838095Y-78152476D01*
X164742857Y-78152476D01*
X164647619Y-78104857D01*
X164600000Y-78057238D01*
X164552380Y-77962000D01*
X164552380Y-77723904D01*
X164600000Y-77581047D01*
X165457142Y-76581047D02*
X165504761Y-76628666D01*
X165552380Y-76771523D01*
X165552380Y-76866761D01*
X165504761Y-77009619D01*
X165409523Y-77104857D01*
X165314285Y-77152476D01*
X165123809Y-77200095D01*
X164980952Y-77200095D01*
X164790476Y-77152476D01*
X164695238Y-77104857D01*
X164600000Y-77009619D01*
X164552380Y-76866761D01*
X164552380Y-76771523D01*
X164600000Y-76628666D01*
X164647619Y-76581047D01*
X165552380Y-75676285D02*
X165552380Y-76152476D01*
X164552380Y-76152476D01*
X162901261Y-78176285D02*
X162948880Y-78033428D01*
X162948880Y-77795333D01*
X162901261Y-77700095D01*
X162853642Y-77652476D01*
X162758404Y-77604857D01*
X162663166Y-77604857D01*
X162567928Y-77652476D01*
X162520309Y-77700095D01*
X162472690Y-77795333D01*
X162425071Y-77985809D01*
X162377452Y-78081047D01*
X162329833Y-78128666D01*
X162234595Y-78176285D01*
X162139357Y-78176285D01*
X162044119Y-78128666D01*
X161996500Y-78081047D01*
X161948880Y-77985809D01*
X161948880Y-77747714D01*
X161996500Y-77604857D01*
X162948880Y-77176285D02*
X161948880Y-77176285D01*
X161948880Y-76938190D01*
X161996500Y-76795333D01*
X162091738Y-76700095D01*
X162186976Y-76652476D01*
X162377452Y-76604857D01*
X162520309Y-76604857D01*
X162710785Y-76652476D01*
X162806023Y-76700095D01*
X162901261Y-76795333D01*
X162948880Y-76938190D01*
X162948880Y-77176285D01*
X162663166Y-76223904D02*
X162663166Y-75747714D01*
X162948880Y-76319142D02*
X161948880Y-75985809D01*
X162948880Y-75652476D01*
X159472380Y-76771476D02*
X159472380Y-77247666D01*
X159948571Y-77295285D01*
X159900952Y-77247666D01*
X159853333Y-77152428D01*
X159853333Y-76914333D01*
X159900952Y-76819095D01*
X159948571Y-76771476D01*
X160043809Y-76723857D01*
X160281904Y-76723857D01*
X160377142Y-76771476D01*
X160424761Y-76819095D01*
X160472380Y-76914333D01*
X160472380Y-77152428D01*
X160424761Y-77247666D01*
X160377142Y-77295285D01*
X159472380Y-76438142D02*
X160472380Y-76104809D01*
X159472380Y-75771476D01*
X156932380Y-78755690D02*
X156932380Y-78136642D01*
X157313333Y-78469976D01*
X157313333Y-78327119D01*
X157360952Y-78231880D01*
X157408571Y-78184261D01*
X157503809Y-78136642D01*
X157741904Y-78136642D01*
X157837142Y-78184261D01*
X157884761Y-78231880D01*
X157932380Y-78327119D01*
X157932380Y-78612833D01*
X157884761Y-78708071D01*
X157837142Y-78755690D01*
X157837142Y-77708071D02*
X157884761Y-77660452D01*
X157932380Y-77708071D01*
X157884761Y-77755690D01*
X157837142Y-77708071D01*
X157932380Y-77708071D01*
X156932380Y-77327119D02*
X156932380Y-76708071D01*
X157313333Y-77041404D01*
X157313333Y-76898547D01*
X157360952Y-76803309D01*
X157408571Y-76755690D01*
X157503809Y-76708071D01*
X157741904Y-76708071D01*
X157837142Y-76755690D01*
X157884761Y-76803309D01*
X157932380Y-76898547D01*
X157932380Y-77184261D01*
X157884761Y-77279500D01*
X157837142Y-77327119D01*
X156932380Y-76422357D02*
X157932380Y-76089023D01*
X156932380Y-75755690D01*
X154440000Y-77850904D02*
X154392380Y-77946142D01*
X154392380Y-78089000D01*
X154440000Y-78231857D01*
X154535238Y-78327095D01*
X154630476Y-78374714D01*
X154820952Y-78422333D01*
X154963809Y-78422333D01*
X155154285Y-78374714D01*
X155249523Y-78327095D01*
X155344761Y-78231857D01*
X155392380Y-78089000D01*
X155392380Y-77993761D01*
X155344761Y-77850904D01*
X155297142Y-77803285D01*
X154963809Y-77803285D01*
X154963809Y-77993761D01*
X155392380Y-77374714D02*
X154392380Y-77374714D01*
X155392380Y-76803285D01*
X154392380Y-76803285D01*
X155392380Y-76327095D02*
X154392380Y-76327095D01*
X154392380Y-76089000D01*
X154440000Y-75946142D01*
X154535238Y-75850904D01*
X154630476Y-75803285D01*
X154820952Y-75755666D01*
X154963809Y-75755666D01*
X155154285Y-75803285D01*
X155249523Y-75850904D01*
X155344761Y-75946142D01*
X155392380Y-76089000D01*
X155392380Y-76327095D01*
X152852380Y-78620761D02*
X151852380Y-78620761D01*
X151852380Y-78239809D01*
X151900000Y-78144571D01*
X151947619Y-78096952D01*
X152042857Y-78049333D01*
X152185714Y-78049333D01*
X152280952Y-78096952D01*
X152328571Y-78144571D01*
X152376190Y-78239809D01*
X152376190Y-78620761D01*
X151852380Y-77716000D02*
X152852380Y-77477904D01*
X152138095Y-77287428D01*
X152852380Y-77096952D01*
X151852380Y-76858857D01*
X152852380Y-76477904D02*
X151852380Y-76477904D01*
X152566666Y-76144571D01*
X151852380Y-75811238D01*
X152852380Y-75811238D01*
X150312380Y-77406404D02*
X149312380Y-77406404D01*
X149312380Y-77025452D01*
X149360000Y-76930214D01*
X149407619Y-76882595D01*
X149502857Y-76834976D01*
X149645714Y-76834976D01*
X149740952Y-76882595D01*
X149788571Y-76930214D01*
X149836190Y-77025452D01*
X149836190Y-77406404D01*
X150217142Y-75834976D02*
X150264761Y-75882595D01*
X150312380Y-76025452D01*
X150312380Y-76120690D01*
X150264761Y-76263547D01*
X150169523Y-76358785D01*
X150074285Y-76406404D01*
X149883809Y-76454023D01*
X149740952Y-76454023D01*
X149550476Y-76406404D01*
X149455238Y-76358785D01*
X149360000Y-76263547D01*
X149312380Y-76120690D01*
X149312380Y-76025452D01*
X149360000Y-75882595D01*
X149407619Y-75834976D01*
%TD*%
M02*
