<?xml version="1.0" encoding="UTF-8" standalone="no"?>
<svg
   xmlns:dc="http://purl.org/dc/elements/1.1/"
   xmlns:cc="http://creativecommons.org/ns#"
   xmlns:rdf="http://www.w3.org/1999/02/22-rdf-syntax-ns#"
   xmlns:svg="http://www.w3.org/2000/svg"
   xmlns="http://www.w3.org/2000/svg"
   xmlns:sodipodi="http://sodipodi.sourceforge.net/DTD/sodipodi-0.dtd"
   xmlns:inkscape="http://www.inkscape.org/namespaces/inkscape"
   id="Layer_1"
   data-name="Layer 1"
   viewBox="0 0 71.866199 35.092958"
   version="1.1"
   sodipodi:docname="grid_uofsc_formal.svg"
   inkscape:version="0.92.3 (2405546, 2018-03-11)"
   inkscape:export-filename="grid_uofsc_formal_0_75in.png"
   inkscape:export-xdpi="500"
   inkscape:export-ydpi="500"
   width="0.7486062in"
   height="0.36555165in">
  <metadata
     id="metadata65">
    <rdf:RDF>
      <cc:Work
         rdf:about="">
        <dc:format>image/svg+xml</dc:format>
        <dc:type
           rdf:resource="http://purl.org/dc/dcmitype/StillImage" />
        <dc:title>grid_uofsc_formal</dc:title>
      </cc:Work>
    </rdf:RDF>
  </metadata>
  <sodipodi:namedview
     pagecolor="#ffffff"
     bordercolor="#666666"
     borderopacity="1"
     objecttolerance="10"
     gridtolerance="10"
     guidetolerance="10"
     inkscape:pageopacity="1"
     inkscape:pageshadow="2"
     inkscape:window-width="1920"
     inkscape:window-height="1017"
     id="namedview63"
     showgrid="false"
     inkscape:zoom="6.94"
     inkscape:cx="60.518862"
     inkscape:cy="-5.1954083"
     inkscape:window-x="1072"
     inkscape:window-y="673"
     inkscape:window-maximized="1"
     inkscape:current-layer="Layer_1"
     units="in"
     fit-margin-top="0"
     fit-margin-left="0"
     fit-margin-right="0"
     fit-margin-bottom="0" />
  <defs
     id="defs4">
    <style
       id="style2">.cls-1{fill:#73000a;}</style>
  </defs>
  <title
     id="title6">grid_uofsc_formal</title>
  <path
     d="m 42.141248,11.826685 v -1.42462 c 0,0 -1.563419,-1.908747 -3.748652,-1.908747 -1.673346,0 -2.442843,0.982686 -2.442843,0.982686 0,0 -0.770605,-0.982686 -2.442841,-0.982686 -2.185235,0 -3.748653,1.908747 -3.748653,1.908747 v 1.42462 c 0,0 1.783276,-2.89809 4.383793,-2.89809 0.983797,0 1.808813,0.880532 1.808813,0.880532 0,0 0.826124,-0.880532 1.808813,-0.880532 2.598294,0 4.38157,2.89809 4.38157,2.89809 z m -5.157729,2.154145 v 0 l 0.444155,-1.079292 h -0.444155 l 0.444155,-1.079292 h -0.444155 l 0.357545,-0.867209 c 0.888305,0.333114 1.505678,1.583407 1.505678,1.583407 v -1.0371 c -0.732851,-1.006009 -1.922073,-0.755061 -1.922073,-0.755061 l -0.444153,1.079299 h 0.444153 l -0.444153,1.079285 h 0.444153 l -0.444153,1.079293 h -0.01221 v 3.829712 l 0.740626,1.184775 h 0.540755 l -0.72841,-1.238071 h 1.135922 v -0.266489 h -1.173675 z m -0.02443,-4.073995 c 2.633827,0 3.442186,2.511686 3.442186,2.511686 V 11.077179 C 39.538509,9.966796 38.713493,9.744719 37.980642,9.735835 a 2.8869952,2.8869952 0 0 0 -1.021553,0.171 z m 4.293851,3.508811 0.222075,-0.511888 h -2.880332 l 0.222077,0.511888 z m 4.059558,2.442841 V 16.34484 H 44.313152 V 15.178936 H 43.801265 V 16.34484 H 42.80192 v -1.85323 h -0.511886 v 1.858778 h -1.042649 v -2.58164 h -2.442841 v 5.245448 h 0.511886 v -4.736888 h 1.417958 v 4.73356 h 0.511887 v -2.393991 h 1.04265 v 2.397319 h 0.511886 v -2.397319 h 0.999344 v 2.397319 h 0.511887 v -2.397319 h 0.999344 v 2.397319 h 0.512995 V 15.864042 Z M 35.948643,5.461978 c 0,-0.309799 1.298038,-2.958058 3.566551,-3.599863 V 0.648462 c -1.702217,0.433057 -3.566551,3.302283 -3.566551,4.441536 0,-1.134815 -1.864332,-4.00404 -3.566549,-4.441536 v 1.213653 c 2.268512,0.645133 3.566549,3.290064 3.566549,3.599863 z m 0,1.305806 c 0,0 1.527886,-3.119064 5.539701,-3.119064 V 2.41619 c -3.794178,0 -5.540812,3.870796 -5.540812,3.870796 0,0 -1.746631,-3.870796 -5.5397,-3.870796 v 1.23253 c 4.012925,0 5.540811,3.119064 5.540811,3.119064 z m -0.980468,6.133754 h 0.444153 l -0.444153,-1.079292 h 0.444153 l -0.444153,-1.079292 c 0,0 -1.188109,-0.250947 -1.922072,0.755062 v 1.040428 c 0,0 0.618482,-1.25473 1.505678,-1.583407 l 0.357544,0.867209 h -0.444154 l 0.444154,1.079292 h -0.444154 l 0.444154,1.079292 v 0 3.50992 h -1.162572 v 0.266497 h 1.12593 l -0.727302,1.238079 h 0.539647 l 0.740625,-1.18479 V 13.98083 h -0.0122 z M 31.630364,5.838387 c 2.52168,0 4.318279,2.098631 4.318279,2.098631 0,0 1.797711,-2.098631 4.318279,-2.098631 A 4.7813085,4.7813085 0 0 1 42.66646,6.461321 V 5.077778 c 0,0 -1.034876,-0.324231 -1.887651,-0.324231 -3.264526,0 -4.829056,2.802608 -4.829056,2.802608 0,0 -1.56786,-2.804819 -4.830166,-2.804819 -0.858324,0 -1.8932,0.324231 -1.8932,0.324231 v 1.383528 a 4.7857499,4.7857499 0 0 1 2.403977,-0.620708 z m 4.318279,-2.099732 c 0,0 0.02887,-1.88765 1.613385,-2.664918 C 37.569828,0.457483 37.569828,0 37.569828,0 c -1.56675,0.79059 -1.621159,2.868117 -1.621159,2.868117 0,0 -0.05442,-2.077527 -1.621159,-2.868117 0,0 0,0.457483 0.0089,1.073737 1.584518,0.773939 1.612277,2.662706 1.612277,2.662706 z m -5.304298,9.67921 h 2.442841 l 0.222077,-0.511881 h -2.885885 z m 3.275629,-3.67981 c -0.732852,0.01 -1.554534,0.229858 -2.420634,1.341342 v 1.341343 c 0,0 0.806137,-2.511678 3.442186,-2.511678 A 2.8869952,2.8869952 0 0 0 33.919974,9.735835 Z M 33.068312,7.557264 c 1.812143,0 2.880331,1.320247 2.880331,1.320247 0,0 1.068189,-1.325795 2.880334,-1.320247 2.621614,0.01993 4.547016,2.389545 4.547016,2.389545 V 8.226822 A 6.6423099,6.6423099 0 0 0 39.35974,6.906584 4.4215442,4.4215442 0 0 0 35.951974,8.537731 4.4215442,4.4215442 0 0 0 32.544208,6.906584 6.6456411,6.6456411 0 0 0 28.527955,8.226822 v 1.719987 c 0,0 1.919851,-2.369558 4.540357,-2.391763 z m -2.423967,8.795343 H 29.607246 V 14.49161 H 29.09536 v 1.858778 H 28.096016 V 15.18449 H 27.58302 v 1.165898 h -0.999344 v -0.486346 h -0.511887 v 3.150154 h 0.511887 v -2.397319 h 0.999344 v 2.397319 h 0.512996 v -2.397319 h 0.999344 v 2.397319 h 0.511886 v -2.397319 h 1.042651 v 2.397319 h 0.511886 v -4.736888 h 1.417959 v 4.73356 h 0.512996 v -5.24212 h -2.442841 z"
     id="path8"
     inkscape:connector-curvature="0"
     style="stroke-width:0.11103828" />
  <path
     d="m 18.034838,22.323137 0.02333,-0.179884 0.574069,0.01336 0.520768,-0.01336 0.02222,0.179884 -0.371981,0.05774 v 1.79549 c 0,0.5885 -0.238731,0.982685 -1.131478,1.193658 -0.942717,0 -1.27472,-0.479681 -1.27472,-1.193658 v -1.793271 l -0.380861,-0.05774 0.02219,-0.179883 0.614043,0.01336 0.660678,-0.01336 0.02222,0.179883 -0.35421,0.05774 v 1.835463 c 0,0.548527 0.233178,0.86721 0.730632,0.86721 0.463027,0 0.713976,-0.318683 0.713976,-0.880531 v -1.822142 z"
     id="path10"
     inkscape:connector-curvature="0"
     style="stroke-width:0.11103828" />
  <path
     d="m 20.583166,25.055789 0.358654,0.05888 -0.01776,0.178773 -0.484125,-0.01336 -0.529654,0.01336 -0.02222,-0.178773 0.380862,-0.05888 v -2.652705 l -0.367536,-0.07995 0.02219,-0.179884 0.395298,0.01336 0.398627,-0.01336 1.513451,2.05532 0.11104,0.318683 v -2.134159 l -0.359768,-0.05774 0.01776,-0.179883 0.485236,0.01336 0.529653,-0.01336 0.02222,0.179883 -0.381972,0.05774 v 2.916975 h -0.304245 l -1.674458,-2.331803 -0.08995,-0.355328 z"
     id="path12"
     inkscape:connector-curvature="0"
     style="stroke-width:0.11103828" />
  <path
     d="m 24.407326,25.280085 -0.641804,0.01336 -0.02333,-0.183211 0.381972,-0.05887 v -2.668253 l -0.381972,-0.05774 0.02333,-0.179876 0.641804,0.01336 0.6418,-0.01336 0.02222,0.179876 -0.381972,0.05774 v 2.664925 l 0.381972,0.05887 -0.02222,0.183219 z"
     id="path14"
     inkscape:connector-curvature="0"
     style="stroke-width:0.11103828" />
  <path
     d="m 27.224366,25.361142 -1.134812,-2.98471 -0.327564,-0.05329 0.02222,-0.179883 0.6951,0.01336 0.570737,-0.01336 0.02222,0.179883 -0.358653,0.05774 0.767277,2.140816 0.01333,0.269825 0.852773,-2.408422 -0.373087,-0.05774 0.02333,-0.179876 0.506335,0.01336 0.467469,-0.01336 0.02223,0.179876 -0.318681,0.05329 -1.094837,2.877 z"
     id="path16"
     inkscape:connector-curvature="0"
     style="stroke-width:0.11103828" />
  <path
     d="m 32.161127,22.143253 0.04442,0.830572 h -0.184325 l -0.259827,-0.584062 -1.127041,-0.01336 v 1.158131 l 0.579621,-0.01774 0.179883,-0.476352 h 0.187654 l -0.04442,0.584062 0.04442,0.619598 h -0.187654 l -0.179883,-0.47636 -0.579621,-0.01773 v 1.310252 l 1.175896,-0.01336 0.300913,-0.606261 h 0.20209 l -0.152122,0.852778 -1.831021,-0.01336 -0.619593,0.01336 -0.02222,-0.178774 0.38086,-0.05888 v -2.672691 l -0.38086,-0.05774 0.02222,-0.179884 0.619593,0.01336 z"
     id="path18"
     inkscape:connector-curvature="0"
     style="stroke-width:0.11103828" />
  <path
     d="m 33.93774,23.853246 v 1.202543 l 0.363095,0.05888 -0.02222,0.178773 -0.624033,-0.01336 -0.641802,0.01336 -0.02222,-0.178773 0.38086,-0.05888 v -2.672692 l -0.38086,-0.05774 0.02222,-0.179883 0.641802,0.01336 0.897188,-0.01336 c 0.566295,0 1.010449,0.255393 1.010449,0.777268 0,0.498566 -0.461919,0.749514 -0.951597,0.861662 l 0.386412,0.202089 0.72619,1.063743 0.229849,0.0677 -0.01887,0.174328 -0.421945,-0.01328 -0.333114,0.01328 -0.914955,-1.391303 -0.05441,-0.04891 z m 0,-0.228741 h 0.305355 c 0.411953,0 0.699542,-0.269825 0.699542,-0.666229 0,-0.396405 -0.264272,-0.606269 -0.606271,-0.610715 l -0.398626,0.0311 z"
     id="path20"
     inkscape:connector-curvature="0"
     style="stroke-width:0.11103828" />
  <path
     d="m 37.107883,24.800404 a 0.84611171,0.84611171 0 0 0 0.619594,0.29203 c 0.34977,0 0.565183,-0.215419 0.565183,-0.529655 0,-0.265388 -0.169887,-0.43527 -0.444151,-0.555192 l -0.542977,-0.250939 c -0.345331,-0.156576 -0.600718,-0.371988 -0.600718,-0.767282 0,-0.457475 0.394186,-0.767274 1.110382,-0.920505 a 1.5933993,1.5933993 0 0 1 0.8661,0.260933 v 0.646249 H 38.423687 L 38.29266,22.567419 a 0.66622969,0.66622969 0 0 0 -0.528541,-0.228733 c -0.341996,0 -0.539646,0.18432 -0.539646,0.444145 0,0.222084 0.157674,0.36754 0.390855,0.47525 l 0.547419,0.247612 c 0.417503,0.197651 0.66623,0.421946 0.66623,0.843893 0,0.461921 -0.340887,0.829461 -1.175895,1.018221 a 1.5334386,1.5334386 0 0 1 -0.941605,-0.305353 l -0.09883,-0.659572 h 0.34533 z"
     id="path22"
     inkscape:connector-curvature="0"
     style="stroke-width:0.11103828" />
  <path
     d="m 40.192526,25.280085 -0.6418,0.01336 -0.02333,-0.183211 0.38197,-0.05887 v -2.668253 l -0.38197,-0.05774 0.02333,-0.179876 0.6418,0.01336 0.641801,-0.01336 0.02222,0.179876 -0.381972,0.05774 v 2.664925 l 0.381972,0.05887 -0.02222,0.183219 z"
     id="path24"
     inkscape:connector-curvature="0"
     style="stroke-width:0.11103828" />
  <path
     d="m 43.642488,25.293415 -0.759504,-0.01336 -0.777268,0.01336 -0.02222,-0.178774 0.516327,-0.05888 v -2.672692 l -0.619591,0.0089 -0.215414,0.597385 H 41.567169 V 22.14546 l 1.324686,0.01336 1.305811,-0.01336 v 0.843894 h -0.202088 l -0.210973,-0.597385 -0.619594,-0.0089 v 2.674919 l 0.498562,0.05887 z"
     id="path26"
     inkscape:connector-curvature="0"
     style="stroke-width:0.11103828" />
  <path
     d="m 46.742674,24.06422 v 0.991569 l 0.503003,0.05888 -0.02333,0.178773 -0.762832,-0.01336 -0.777267,0.01336 -0.02222,-0.178773 0.52077,-0.05888 v -1.007118 l -0.992684,-1.678895 -0.327562,-0.05329 0.02222,-0.17543 0.63736,0.01336 0.624036,-0.01336 0.02222,0.17543 -0.358655,0.05774 0.749509,1.26584 0.02222,0.193205 0.777268,-1.459045 -0.368649,-0.05774 0.02222,-0.17543 0.516328,0.01336 0.480796,-0.01336 0.02222,0.17543 -0.327564,0.04891 z"
     id="path28"
     inkscape:connector-curvature="0"
     style="stroke-width:0.11103828" />
  <path
     d="m 53.437173,23.646711 c 0,0.991578 -0.498562,1.521226 -1.665575,1.723315 -0.937163,0 -1.561197,-0.672894 -1.561197,-1.580077 0,-0.99157 0.49745,-1.521219 1.660022,-1.723308 0.943824,0 1.56675,0.673996 1.56675,1.58007 z m -1.554536,1.4546 c 0.650683,0 0.929391,-0.570732 0.929391,-1.306916 0,-0.659565 -0.287591,-1.457937 -1.050422,-1.457937 -0.650686,0 -0.932723,0.565185 -0.932723,1.301369 0.0056,0.677333 0.300914,1.463484 1.059305,1.463484 z"
     id="path30"
     inkscape:connector-curvature="0"
     style="stroke-width:0.11103828" />
  <path
     d="m 54.110064,25.293415 -0.02333,-0.178774 0.381971,-0.05888 v -2.672692 l -0.381971,-0.05774 0.02333,-0.179884 0.618485,0.01336 1.831019,-0.01336 0.04552,0.843894 h -0.184322 l -0.259831,-0.597392 -1.125927,-0.01555 v 1.221429 l 0.579619,-0.01887 0.178771,-0.470797 h 0.188766 l -0.04442,0.582953 0.04442,0.61959 h -0.188766 l -0.178771,-0.47525 -0.579619,-0.01773 V 25.0558 l 0.538536,0.05887 -0.02222,0.178773 -0.821683,-0.01336 z"
     id="path32"
     inkscape:connector-curvature="0"
     style="stroke-width:0.11103828" />
  <path
     class="cls-1"
     d="m 1.2702778,33.641268 a 2.1385972,2.1385972 0 0 0 1.5767436,0.742849 c 0.8883063,0 1.4434977,-0.548534 1.4434977,-1.348007 0,-0.674005 -0.4341596,-1.110383 -1.1203763,-1.416845 L 1.7877162,30.97968 C 0.90829304,30.579946 0.25649846,30.031412 0.25649846,29.025412 c 0,-1.164796 1.00600664,-1.953166 2.83369684,-2.341805 a 4.0628908,4.0628908 0 0 1 2.2052203,0.66623 v 1.644485 H 4.6236339 L 4.2905192,27.955003 A 1.7077687,1.7077687 0 0 0 2.941404,27.372051 c -0.8672088,0 -1.3702124,0.468578 -1.3702124,1.142581 0,0.57185 0.3997378,0.937156 0.9993446,1.211427 l 1.3868681,0.625146 c 1.0626363,0.503004 1.7022159,1.073744 1.6911141,2.147481 0,1.177009 -0.8683203,2.109727 -2.9980346,2.593854 A 3.9163201,3.9163201 0 0 1 0.2509466,34.315272 L 0,32.636376 h 0.88164394 z"
     id="path34"
     inkscape:connector-curvature="0"
     style="fill:#73000a;stroke-width:0.11103828" />
  <path
     class="cls-1"
     d="m 11.710097,31.894637 c 0,1.77662 -1.177007,2.854794 -2.9136439,3.163477 -1.4967972,0 -2.5594336,-1.312473 -2.5594336,-2.900317 0,-1.805482 1.1770073,-2.854794 2.9136441,-3.174587 1.4967984,0 2.5594334,1.31248 2.5594334,2.911427 z m -2.5938536,2.553879 c 0.7661644,0 1.1881096,-0.947157 1.1881096,-2.204113 0,-1.587845 -0.6395812,-2.664918 -1.484582,-2.664918 -0.7772675,0 -1.1881112,0.947166 -1.1881112,2.204114 0,1.493464 0.6162633,2.669363 1.4845836,2.669363 z"
     id="path36"
     inkscape:connector-curvature="0"
     style="fill:#73000a;stroke-width:0.11103828" />
  <path
     class="cls-1"
     d="m 17.335296,33.375889 c 0,0.467468 0.05662,0.65068 0.14768,0.8339 h 0.526323 l 0.04553,0.456365 -1.645588,0.308683 -0.333114,-0.959371 -1.633372,1.039318 c -1.451272,0 -1.79438,-0.479688 -1.79438,-1.816585 v -3.318934 l -0.730631,0.05774 -0.05774,-0.502997 1.427953,-0.30869 0.686217,-0.04552 v 4.099539 c 0,0.547416 0.227629,0.799473 0.75395,0.799473 0.308686,0 0.69621,-0.228741 1.07374,-0.479689 l 0.216524,-0.148793 V 29.91928 l -0.639582,0.05774 -0.05662,-0.502996 1.324688,-0.308698 0.686216,-0.04552 z"
     id="path38"
     inkscape:connector-curvature="0"
     style="fill:#73000a;stroke-width:0.11103828" />
  <path
     class="cls-1"
     d="m 23.953177,34.315272 0.570736,0.12547 -0.05662,0.457483 -1.142585,-0.03442 -1.360218,0.03442 -0.05663,-0.457483 0.730633,-0.12547 v -6.623428 l -0.741736,0.02226 -0.06218,-0.456366 1.485691,-0.343108 0.628476,-0.04552 v 3.199004 l 1.702217,-1.08484 c 1.404636,0 1.724425,0.490792 1.724425,1.918748 v 3.413298 l 0.788373,0.12547 -0.05662,0.457483 -1.360218,-0.03442 -1.153689,0.03442 -0.05662,-0.457483 0.514106,-0.12547 v -3.527688 c 0,-0.536314 -0.252056,-0.777267 -0.674002,-0.777267 -0.333116,0 -0.731742,0.239851 -1.120375,0.479688 l -0.307577,0.194315 z"
     id="path40"
     inkscape:connector-curvature="0"
     style="fill:#73000a;stroke-width:0.11103828" />
  <path
     class="cls-1"
     d="m 37.862942,32.407628 -0.260937,1.827696 c -0.651796,0.297579 -1.612277,0.697319 -2.709336,0.857216 -1.736639,0 -3.853028,-1.416845 -3.853028,-4.067331 0,-2.612738 1.876548,-4.014042 4.138397,-4.341602 1.154798,0 1.998689,0.479682 2.538335,0.8339 v 1.725535 h -0.708426 l -0.366424,-1.085957 c -0.296473,-0.365315 -0.731744,-0.810576 -1.665576,-0.810576 -1.564529,0 -2.356231,1.199214 -2.356231,3.370018 0,1.896526 0.745065,3.690905 2.573867,3.690905 0.708423,0 1.040427,-0.377534 1.394641,-0.697319 l 0.594054,-1.302485 z"
     id="path42"
     inkscape:connector-curvature="0"
     style="fill:#73000a;stroke-width:0.11103828" />
  <path
     class="cls-1"
     d="m 40.726621,28.98321 c 1.520113,0 1.954273,0.387529 1.954273,1.793271 v 2.808155 c 0,0.479689 0.06774,0.674011 0.182104,0.856106 h 0.55519 l 0.05774,0.457483 -1.691114,0.159889 -0.365317,-0.982686 -1.332458,0.982686 c -1.01711,0 -1.736641,-0.570733 -1.736641,-1.496787 0,-0.44416 0.171001,-0.777267 0.444155,-1.097059 l 2.559432,-0.833908 v -0.933827 c 0,-0.685108 -0.111038,-1.006002 -0.628478,-1.006002 a 2.1952269,2.1952269 0 0 0 -0.833896,0.194315 l -0.182103,0.999344 h -1.177005 v -0.960479 z m 0.628477,3.126839 -1.451271,0.599611 a 1.0204418,1.0204418 0 0 0 -0.239841,0.697319 c 0,0.571849 0.319789,0.777268 0.617371,0.777268 a 1.2136484,1.2136484 0 0 0 0.674001,-0.26316 l 0.39974,-0.274263 z"
     id="path44"
     inkscape:connector-curvature="0"
     style="fill:#73000a;stroke-width:0.11103828" />
  <path
     class="cls-1"
     d="m 45.756655,30.753165 1.255844,-1.707774 h 1.13814 l -0.317569,1.332466 h -0.823903 c -0.274266,0.07995 -0.685108,0.421947 -0.993793,0.777267 l -0.190988,0.222077 v 2.911419 l 1.211431,0.111038 -0.05663,0.490792 -1.783275,-0.03442 -1.348004,0.03442 -0.05662,-0.457483 0.742846,-0.125469 v -4.388233 l -0.742846,0.05774 -0.05774,-0.468571 1.429063,-0.343116 0.525211,-0.04552 z"
     id="path46"
     inkscape:connector-curvature="0"
     style="fill:#73000a;stroke-width:0.11103828" />
  <path
     class="cls-1"
     d="m 53.480478,31.894637 c 0,1.77662 -1.177005,2.854794 -2.913644,3.163477 -1.495686,0 -2.553881,-1.312473 -2.553881,-2.900317 0,-1.805482 1.175895,-2.854794 2.912535,-3.174587 1.4868,0 2.55499,1.31248 2.55499,2.911427 z m -2.592744,2.553879 c 0.765053,0 1.188108,-0.947157 1.188108,-2.204113 0,-1.587845 -0.64069,-2.664918 -1.48569,-2.664918 -0.777269,0 -1.188112,0.947166 -1.188112,2.204114 -0.0056,1.493464 0.611822,2.669363 1.480142,2.669363 z"
     id="path48"
     inkscape:connector-curvature="0"
     style="fill:#73000a;stroke-width:0.11103828" />
  <path
     class="cls-1"
     d="m 54.952845,34.863798 -1.360218,0.03442 -0.05663,-0.457483 0.730632,-0.125469 v -6.623429 l -0.741736,0.02226 -0.05774,-0.467468 1.485689,-0.343109 0.628478,-0.04559 v 7.457321 l 0.788373,0.12547 -0.05774,0.457483 z"
     id="path50"
     inkscape:connector-curvature="0"
     style="fill:#73000a;stroke-width:0.11103828" />
  <path
     class="cls-1"
     d="m 58.300648,34.863798 -1.360217,0.03442 -0.05662,-0.457483 0.742845,-0.125469 v -4.407119 l -0.742845,0.04559 -0.05774,-0.456373 1.485691,-0.333115 0.628477,-0.04552 v 5.195481 l 0.777268,0.12547 -0.05662,0.457483 z m -0.617372,-7.883721 0.937163,-0.06884 0.341999,0.06884 0.06885,0.696217 -0.136577,0.591829 -0.926059,0.06884 -0.341997,-0.06884 -0.06885,-0.696202 z"
     id="path52"
     inkscape:connector-curvature="0"
     style="fill:#73000a;stroke-width:0.11103828" />
  <path
     class="cls-1"
     d="m 61.678434,34.863798 -1.35911,0.03442 -0.05774,-0.457483 0.742845,-0.125469 v -4.396007 l -0.753951,0.05774 -0.05663,-0.46857 1.484581,-0.343117 0.582952,-0.03442 0.03442,0.948267 1.713321,-1.095951 c 1.405745,0 1.736638,0.444154 1.736638,1.815477 v 3.516585 l 0.788373,0.12547 -0.05663,0.457483 -1.360217,-0.03442 -1.177005,0.03442 -0.05663,-0.457483 0.525213,-0.12547 v -3.527686 c 0,-0.536314 -0.239844,-0.777268 -0.685107,-0.777268 -0.377532,0 -0.742845,0.239844 -1.110383,0.479689 l -0.297582,0.205425 v 3.618733 l 0.555191,0.125469 -0.05774,0.457483 z"
     id="path54"
     inkscape:connector-curvature="0"
     style="fill:#73000a;stroke-width:0.11103828" />
  <path
     class="cls-1"
     d="m 69.116888,28.98321 c 1.520116,0 1.954273,0.387529 1.954273,1.793271 v 2.808155 c 0,0.479689 0.06774,0.674011 0.182103,0.856106 h 0.555193 l 0.05774,0.457483 -1.691113,0.159889 -0.365314,-0.982686 -1.332459,0.982686 c -1.017112,0 -1.736639,-0.570733 -1.736639,-1.496787 0,-0.44416 0.170999,-0.777267 0.444153,-1.097059 l 2.559432,-0.833908 v -0.933827 c 0,-0.685108 -0.111038,-1.006002 -0.628477,-1.006002 a 2.1952269,2.1952269 0 0 0 -0.833898,0.194315 L 68.09867,30.88419 h -1.174785 v -0.960479 z m 0.628476,3.126839 -1.451268,0.599611 a 1.0204418,1.0204418 0 0 0 -0.239845,0.697319 c 0,0.571849 0.319791,0.777268 0.617373,0.777268 a 1.2136484,1.2136484 0 0 0 0.674004,-0.26316 l 0.399736,-0.274263 z"
     id="path56"
     inkscape:connector-curvature="0"
     style="fill:#73000a;stroke-width:0.11103828" />
  <path
     class="cls-1"
     d="m 21.538096,33.93108 a 1.6289316,1.6289316 0 0 1 -0.721749,0.186548 c -0.43416,0 -0.594055,-0.333122 -0.594055,-0.696217 V 29.67942 h 1.315804 v -0.55519 h -1.326908 v -1.411291 h -0.399737 l -0.880534,0.788372 v 0.548526 h -0.515219 l -0.423054,0.439707 v 0.194322 h 0.916063 v 3.859686 c 0,1.110382 0.456368,1.518999 1.610058,1.518999 L 21.4637,34.546232 Z"
     id="path58"
     inkscape:connector-curvature="0"
     style="fill:#73000a;stroke-width:0.11103828" />
  <path
     d="m 46.463969,18.984215 0.09105,-0.01 v -0.44416 h -0.104374 l -0.03998,0.111046 h -0.0433 v -0.162123 h 0.25539 0.246505 v 0.162123 h -0.04219 l -0.04219,-0.111046 h -0.102162 v 0.44416 l 0.08883,0.01 v 0.04107 h -0.147681 -0.151014 z m 0.444153,0 0.06329,-0.01 v -0.44416 l -0.06441,-0.0089 v -0.04001 h 0.07884 0.136577 l 0.156564,0.376417 v 0.06884 l 0.174329,-0.444161 h 0.111039 0.09216 v 0.04001 l -0.06329,0.0089 v 0.444153 l 0.06107,0.01 v 0.04106 h -0.118818 -0.123251 v -0.04106 l 0.06441,-0.01 v -0.351985 l 0.01223,-0.09328 -0.192098,0.49412 h -0.07884 l -0.162115,-0.394185 -0.02443,-0.09549 v 0.44416 l 0.0633,0.01 v 0.04107 h -0.08993 -0.09105 z"
     id="path60"
     inkscape:connector-curvature="0"
     style="stroke-width:0.11103828" />
</svg>
