%TF.GenerationSoftware,KiCad,Pcbnew,(5.1.6)-1*%
%TF.CreationDate,2021-01-10T13:28:57-05:00*%
%TF.ProjectId,main_board,6d61696e-5f62-46f6-9172-642e6b696361,rev?*%
%TF.SameCoordinates,Original*%
%TF.FileFunction,Paste,Bot*%
%TF.FilePolarity,Positive*%
%FSLAX46Y46*%
G04 Gerber Fmt 4.6, Leading zero omitted, Abs format (unit mm)*
G04 Created by KiCad (PCBNEW (5.1.6)-1) date 2021-01-10 13:28:57*
%MOMM*%
%LPD*%
G01*
G04 APERTURE LIST*
%ADD10R,2.200000X0.200000*%
G04 APERTURE END LIST*
D10*
%TO.C,VT6Z12*%
X171803000Y-137360000D03*
X171803000Y-137760000D03*
X171803000Y-138160000D03*
X174728000Y-138160000D03*
X174728000Y-137760000D03*
X174728000Y-137350500D03*
%TD*%
%TO.C,VT6Z11*%
X165223000Y-137360000D03*
X165223000Y-137760000D03*
X165223000Y-138160000D03*
X168148000Y-138160000D03*
X168148000Y-137760000D03*
X168148000Y-137350500D03*
%TD*%
%TO.C,R6*%
G36*
G01*
X158125000Y-132420000D02*
X159375000Y-132420000D01*
G75*
G02*
X159625000Y-132670000I0J-250000D01*
G01*
X159625000Y-133595000D01*
G75*
G02*
X159375000Y-133845000I-250000J0D01*
G01*
X158125000Y-133845000D01*
G75*
G02*
X157875000Y-133595000I0J250000D01*
G01*
X157875000Y-132670000D01*
G75*
G02*
X158125000Y-132420000I250000J0D01*
G01*
G37*
G36*
G01*
X158124374Y-135395000D02*
X159375626Y-135395000D01*
G75*
G02*
X159625000Y-135644374I0J-249374D01*
G01*
X159625000Y-136570626D01*
G75*
G02*
X159375626Y-136820000I-249374J0D01*
G01*
X158124374Y-136820000D01*
G75*
G02*
X157875000Y-136570626I0J249374D01*
G01*
X157875000Y-135644374D01*
G75*
G02*
X158124374Y-135395000I249374J0D01*
G01*
G37*
%TD*%
%TO.C,U2*%
G36*
G01*
X159425000Y-131595000D02*
X159425000Y-131295000D01*
G75*
G02*
X159575000Y-131145000I150000J0D01*
G01*
X161325000Y-131145000D01*
G75*
G02*
X161475000Y-131295000I0J-150000D01*
G01*
X161475000Y-131595000D01*
G75*
G02*
X161325000Y-131745000I-150000J0D01*
G01*
X159575000Y-131745000D01*
G75*
G02*
X159425000Y-131595000I0J150000D01*
G01*
G37*
G36*
G01*
X159425000Y-130325000D02*
X159425000Y-130025000D01*
G75*
G02*
X159575000Y-129875000I150000J0D01*
G01*
X161325000Y-129875000D01*
G75*
G02*
X161475000Y-130025000I0J-150000D01*
G01*
X161475000Y-130325000D01*
G75*
G02*
X161325000Y-130475000I-150000J0D01*
G01*
X159575000Y-130475000D01*
G75*
G02*
X159425000Y-130325000I0J150000D01*
G01*
G37*
G36*
G01*
X159425000Y-129055000D02*
X159425000Y-128755000D01*
G75*
G02*
X159575000Y-128605000I150000J0D01*
G01*
X161325000Y-128605000D01*
G75*
G02*
X161475000Y-128755000I0J-150000D01*
G01*
X161475000Y-129055000D01*
G75*
G02*
X161325000Y-129205000I-150000J0D01*
G01*
X159575000Y-129205000D01*
G75*
G02*
X159425000Y-129055000I0J150000D01*
G01*
G37*
G36*
G01*
X159425000Y-127785000D02*
X159425000Y-127485000D01*
G75*
G02*
X159575000Y-127335000I150000J0D01*
G01*
X161325000Y-127335000D01*
G75*
G02*
X161475000Y-127485000I0J-150000D01*
G01*
X161475000Y-127785000D01*
G75*
G02*
X161325000Y-127935000I-150000J0D01*
G01*
X159575000Y-127935000D01*
G75*
G02*
X159425000Y-127785000I0J150000D01*
G01*
G37*
G36*
G01*
X159425000Y-126515000D02*
X159425000Y-126215000D01*
G75*
G02*
X159575000Y-126065000I150000J0D01*
G01*
X161325000Y-126065000D01*
G75*
G02*
X161475000Y-126215000I0J-150000D01*
G01*
X161475000Y-126515000D01*
G75*
G02*
X161325000Y-126665000I-150000J0D01*
G01*
X159575000Y-126665000D01*
G75*
G02*
X159425000Y-126515000I0J150000D01*
G01*
G37*
G36*
G01*
X159425000Y-125245000D02*
X159425000Y-124945000D01*
G75*
G02*
X159575000Y-124795000I150000J0D01*
G01*
X161325000Y-124795000D01*
G75*
G02*
X161475000Y-124945000I0J-150000D01*
G01*
X161475000Y-125245000D01*
G75*
G02*
X161325000Y-125395000I-150000J0D01*
G01*
X159575000Y-125395000D01*
G75*
G02*
X159425000Y-125245000I0J150000D01*
G01*
G37*
G36*
G01*
X159425000Y-123975000D02*
X159425000Y-123675000D01*
G75*
G02*
X159575000Y-123525000I150000J0D01*
G01*
X161325000Y-123525000D01*
G75*
G02*
X161475000Y-123675000I0J-150000D01*
G01*
X161475000Y-123975000D01*
G75*
G02*
X161325000Y-124125000I-150000J0D01*
G01*
X159575000Y-124125000D01*
G75*
G02*
X159425000Y-123975000I0J150000D01*
G01*
G37*
G36*
G01*
X159425000Y-122705000D02*
X159425000Y-122405000D01*
G75*
G02*
X159575000Y-122255000I150000J0D01*
G01*
X161325000Y-122255000D01*
G75*
G02*
X161475000Y-122405000I0J-150000D01*
G01*
X161475000Y-122705000D01*
G75*
G02*
X161325000Y-122855000I-150000J0D01*
G01*
X159575000Y-122855000D01*
G75*
G02*
X159425000Y-122705000I0J150000D01*
G01*
G37*
G36*
G01*
X168725000Y-122705000D02*
X168725000Y-122405000D01*
G75*
G02*
X168875000Y-122255000I150000J0D01*
G01*
X170625000Y-122255000D01*
G75*
G02*
X170775000Y-122405000I0J-150000D01*
G01*
X170775000Y-122705000D01*
G75*
G02*
X170625000Y-122855000I-150000J0D01*
G01*
X168875000Y-122855000D01*
G75*
G02*
X168725000Y-122705000I0J150000D01*
G01*
G37*
G36*
G01*
X168725000Y-123975000D02*
X168725000Y-123675000D01*
G75*
G02*
X168875000Y-123525000I150000J0D01*
G01*
X170625000Y-123525000D01*
G75*
G02*
X170775000Y-123675000I0J-150000D01*
G01*
X170775000Y-123975000D01*
G75*
G02*
X170625000Y-124125000I-150000J0D01*
G01*
X168875000Y-124125000D01*
G75*
G02*
X168725000Y-123975000I0J150000D01*
G01*
G37*
G36*
G01*
X168725000Y-125245000D02*
X168725000Y-124945000D01*
G75*
G02*
X168875000Y-124795000I150000J0D01*
G01*
X170625000Y-124795000D01*
G75*
G02*
X170775000Y-124945000I0J-150000D01*
G01*
X170775000Y-125245000D01*
G75*
G02*
X170625000Y-125395000I-150000J0D01*
G01*
X168875000Y-125395000D01*
G75*
G02*
X168725000Y-125245000I0J150000D01*
G01*
G37*
G36*
G01*
X168725000Y-126515000D02*
X168725000Y-126215000D01*
G75*
G02*
X168875000Y-126065000I150000J0D01*
G01*
X170625000Y-126065000D01*
G75*
G02*
X170775000Y-126215000I0J-150000D01*
G01*
X170775000Y-126515000D01*
G75*
G02*
X170625000Y-126665000I-150000J0D01*
G01*
X168875000Y-126665000D01*
G75*
G02*
X168725000Y-126515000I0J150000D01*
G01*
G37*
G36*
G01*
X168725000Y-127785000D02*
X168725000Y-127485000D01*
G75*
G02*
X168875000Y-127335000I150000J0D01*
G01*
X170625000Y-127335000D01*
G75*
G02*
X170775000Y-127485000I0J-150000D01*
G01*
X170775000Y-127785000D01*
G75*
G02*
X170625000Y-127935000I-150000J0D01*
G01*
X168875000Y-127935000D01*
G75*
G02*
X168725000Y-127785000I0J150000D01*
G01*
G37*
G36*
G01*
X168725000Y-129055000D02*
X168725000Y-128755000D01*
G75*
G02*
X168875000Y-128605000I150000J0D01*
G01*
X170625000Y-128605000D01*
G75*
G02*
X170775000Y-128755000I0J-150000D01*
G01*
X170775000Y-129055000D01*
G75*
G02*
X170625000Y-129205000I-150000J0D01*
G01*
X168875000Y-129205000D01*
G75*
G02*
X168725000Y-129055000I0J150000D01*
G01*
G37*
G36*
G01*
X168725000Y-130325000D02*
X168725000Y-130025000D01*
G75*
G02*
X168875000Y-129875000I150000J0D01*
G01*
X170625000Y-129875000D01*
G75*
G02*
X170775000Y-130025000I0J-150000D01*
G01*
X170775000Y-130325000D01*
G75*
G02*
X170625000Y-130475000I-150000J0D01*
G01*
X168875000Y-130475000D01*
G75*
G02*
X168725000Y-130325000I0J150000D01*
G01*
G37*
G36*
G01*
X168725000Y-131595000D02*
X168725000Y-131295000D01*
G75*
G02*
X168875000Y-131145000I150000J0D01*
G01*
X170625000Y-131145000D01*
G75*
G02*
X170775000Y-131295000I0J-150000D01*
G01*
X170775000Y-131595000D01*
G75*
G02*
X170625000Y-131745000I-150000J0D01*
G01*
X168875000Y-131745000D01*
G75*
G02*
X168725000Y-131595000I0J150000D01*
G01*
G37*
%TD*%
M02*
