%TF.GenerationSoftware,KiCad,Pcbnew,(5.1.6)-1*%
%TF.CreationDate,2021-01-10T13:28:57-05:00*%
%TF.ProjectId,main_board,6d61696e-5f62-46f6-9172-642e6b696361,rev?*%
%TF.SameCoordinates,Original*%
%TF.FileFunction,Paste,Top*%
%TF.FilePolarity,Positive*%
%FSLAX46Y46*%
G04 Gerber Fmt 4.6, Leading zero omitted, Abs format (unit mm)*
G04 Created by KiCad (PCBNEW (5.1.6)-1) date 2021-01-10 13:28:57*
%MOMM*%
%LPD*%
G01*
G04 APERTURE LIST*
%ADD10R,1.500000X2.000000*%
%ADD11R,3.800000X2.000000*%
%ADD12R,0.900000X0.800000*%
%ADD13R,0.800000X0.900000*%
G04 APERTURE END LIST*
%TO.C,C1*%
G36*
G01*
X175651000Y-130413600D02*
X176901000Y-130413600D01*
G75*
G02*
X177151000Y-130663600I0J-250000D01*
G01*
X177151000Y-131413600D01*
G75*
G02*
X176901000Y-131663600I-250000J0D01*
G01*
X175651000Y-131663600D01*
G75*
G02*
X175401000Y-131413600I0J250000D01*
G01*
X175401000Y-130663600D01*
G75*
G02*
X175651000Y-130413600I250000J0D01*
G01*
G37*
G36*
G01*
X175651000Y-133213600D02*
X176901000Y-133213600D01*
G75*
G02*
X177151000Y-133463600I0J-250000D01*
G01*
X177151000Y-134213600D01*
G75*
G02*
X176901000Y-134463600I-250000J0D01*
G01*
X175651000Y-134463600D01*
G75*
G02*
X175401000Y-134213600I0J250000D01*
G01*
X175401000Y-133463600D01*
G75*
G02*
X175651000Y-133213600I250000J0D01*
G01*
G37*
%TD*%
%TO.C,F1*%
G36*
G01*
X169415000Y-120887500D02*
X169415000Y-120412500D01*
G75*
G02*
X169652500Y-120175000I237500J0D01*
G01*
X170227500Y-120175000D01*
G75*
G02*
X170465000Y-120412500I0J-237500D01*
G01*
X170465000Y-120887500D01*
G75*
G02*
X170227500Y-121125000I-237500J0D01*
G01*
X169652500Y-121125000D01*
G75*
G02*
X169415000Y-120887500I0J237500D01*
G01*
G37*
G36*
G01*
X171165000Y-120887500D02*
X171165000Y-120412500D01*
G75*
G02*
X171402500Y-120175000I237500J0D01*
G01*
X171977500Y-120175000D01*
G75*
G02*
X172215000Y-120412500I0J-237500D01*
G01*
X172215000Y-120887500D01*
G75*
G02*
X171977500Y-121125000I-237500J0D01*
G01*
X171402500Y-121125000D01*
G75*
G02*
X171165000Y-120887500I0J237500D01*
G01*
G37*
%TD*%
%TO.C,R1*%
G36*
G01*
X142865000Y-88125000D02*
X141615000Y-88125000D01*
G75*
G02*
X141365000Y-87875000I0J250000D01*
G01*
X141365000Y-86950000D01*
G75*
G02*
X141615000Y-86700000I250000J0D01*
G01*
X142865000Y-86700000D01*
G75*
G02*
X143115000Y-86950000I0J-250000D01*
G01*
X143115000Y-87875000D01*
G75*
G02*
X142865000Y-88125000I-250000J0D01*
G01*
G37*
G36*
G01*
X142865000Y-91100000D02*
X141615000Y-91100000D01*
G75*
G02*
X141365000Y-90850000I0J250000D01*
G01*
X141365000Y-89925000D01*
G75*
G02*
X141615000Y-89675000I250000J0D01*
G01*
X142865000Y-89675000D01*
G75*
G02*
X143115000Y-89925000I0J-250000D01*
G01*
X143115000Y-90850000D01*
G75*
G02*
X142865000Y-91100000I-250000J0D01*
G01*
G37*
%TD*%
%TO.C,R2*%
G36*
G01*
X177155000Y-82410000D02*
X175905000Y-82410000D01*
G75*
G02*
X175655000Y-82160000I0J250000D01*
G01*
X175655000Y-81235000D01*
G75*
G02*
X175905000Y-80985000I250000J0D01*
G01*
X177155000Y-80985000D01*
G75*
G02*
X177405000Y-81235000I0J-250000D01*
G01*
X177405000Y-82160000D01*
G75*
G02*
X177155000Y-82410000I-250000J0D01*
G01*
G37*
G36*
G01*
X177155000Y-85385000D02*
X175905000Y-85385000D01*
G75*
G02*
X175655000Y-85135000I0J250000D01*
G01*
X175655000Y-84210000D01*
G75*
G02*
X175905000Y-83960000I250000J0D01*
G01*
X177155000Y-83960000D01*
G75*
G02*
X177405000Y-84210000I0J-250000D01*
G01*
X177405000Y-85135000D01*
G75*
G02*
X177155000Y-85385000I-250000J0D01*
G01*
G37*
%TD*%
%TO.C,R3*%
G36*
G01*
X174615000Y-85385000D02*
X173365000Y-85385000D01*
G75*
G02*
X173115000Y-85135000I0J250000D01*
G01*
X173115000Y-84210000D01*
G75*
G02*
X173365000Y-83960000I250000J0D01*
G01*
X174615000Y-83960000D01*
G75*
G02*
X174865000Y-84210000I0J-250000D01*
G01*
X174865000Y-85135000D01*
G75*
G02*
X174615000Y-85385000I-250000J0D01*
G01*
G37*
G36*
G01*
X174615000Y-82410000D02*
X173365000Y-82410000D01*
G75*
G02*
X173115000Y-82160000I0J250000D01*
G01*
X173115000Y-81235000D01*
G75*
G02*
X173365000Y-80985000I250000J0D01*
G01*
X174615000Y-80985000D01*
G75*
G02*
X174865000Y-81235000I0J-250000D01*
G01*
X174865000Y-82160000D01*
G75*
G02*
X174615000Y-82410000I-250000J0D01*
G01*
G37*
%TD*%
%TO.C,R4*%
G36*
G01*
X144135000Y-106340000D02*
X142885000Y-106340000D01*
G75*
G02*
X142635000Y-106090000I0J250000D01*
G01*
X142635000Y-105165000D01*
G75*
G02*
X142885000Y-104915000I250000J0D01*
G01*
X144135000Y-104915000D01*
G75*
G02*
X144385000Y-105165000I0J-250000D01*
G01*
X144385000Y-106090000D01*
G75*
G02*
X144135000Y-106340000I-250000J0D01*
G01*
G37*
G36*
G01*
X144135000Y-103365000D02*
X142885000Y-103365000D01*
G75*
G02*
X142635000Y-103115000I0J250000D01*
G01*
X142635000Y-102190000D01*
G75*
G02*
X142885000Y-101940000I250000J0D01*
G01*
X144135000Y-101940000D01*
G75*
G02*
X144385000Y-102190000I0J-250000D01*
G01*
X144385000Y-103115000D01*
G75*
G02*
X144135000Y-103365000I-250000J0D01*
G01*
G37*
%TD*%
%TO.C,R5*%
G36*
G01*
X165367000Y-134991000D02*
X165367000Y-133741000D01*
G75*
G02*
X165617000Y-133491000I250000J0D01*
G01*
X166542000Y-133491000D01*
G75*
G02*
X166792000Y-133741000I0J-250000D01*
G01*
X166792000Y-134991000D01*
G75*
G02*
X166542000Y-135241000I-250000J0D01*
G01*
X165617000Y-135241000D01*
G75*
G02*
X165367000Y-134991000I0J250000D01*
G01*
G37*
G36*
G01*
X162392000Y-134991000D02*
X162392000Y-133741000D01*
G75*
G02*
X162642000Y-133491000I250000J0D01*
G01*
X163567000Y-133491000D01*
G75*
G02*
X163817000Y-133741000I0J-250000D01*
G01*
X163817000Y-134991000D01*
G75*
G02*
X163567000Y-135241000I-250000J0D01*
G01*
X162642000Y-135241000D01*
G75*
G02*
X162392000Y-134991000I0J250000D01*
G01*
G37*
%TD*%
%TO.C,R7*%
G36*
G01*
X150000000Y-140960626D02*
X150000000Y-139709374D01*
G75*
G02*
X150249374Y-139460000I249374J0D01*
G01*
X151175626Y-139460000D01*
G75*
G02*
X151425000Y-139709374I0J-249374D01*
G01*
X151425000Y-140960626D01*
G75*
G02*
X151175626Y-141210000I-249374J0D01*
G01*
X150249374Y-141210000D01*
G75*
G02*
X150000000Y-140960626I0J249374D01*
G01*
G37*
G36*
G01*
X147025000Y-140960000D02*
X147025000Y-139710000D01*
G75*
G02*
X147275000Y-139460000I250000J0D01*
G01*
X148200000Y-139460000D01*
G75*
G02*
X148450000Y-139710000I0J-250000D01*
G01*
X148450000Y-140960000D01*
G75*
G02*
X148200000Y-141210000I-250000J0D01*
G01*
X147275000Y-141210000D01*
G75*
G02*
X147025000Y-140960000I0J250000D01*
G01*
G37*
%TD*%
%TO.C,R8*%
G36*
G01*
X153660000Y-122850000D02*
X152410000Y-122850000D01*
G75*
G02*
X152160000Y-122600000I0J250000D01*
G01*
X152160000Y-121675000D01*
G75*
G02*
X152410000Y-121425000I250000J0D01*
G01*
X153660000Y-121425000D01*
G75*
G02*
X153910000Y-121675000I0J-250000D01*
G01*
X153910000Y-122600000D01*
G75*
G02*
X153660000Y-122850000I-250000J0D01*
G01*
G37*
G36*
G01*
X153660000Y-119875000D02*
X152410000Y-119875000D01*
G75*
G02*
X152160000Y-119625000I0J250000D01*
G01*
X152160000Y-118700000D01*
G75*
G02*
X152410000Y-118450000I250000J0D01*
G01*
X153660000Y-118450000D01*
G75*
G02*
X153910000Y-118700000I0J-250000D01*
G01*
X153910000Y-119625000D01*
G75*
G02*
X153660000Y-119875000I-250000J0D01*
G01*
G37*
%TD*%
D10*
%TO.C,5V*%
X166610000Y-130150000D03*
X171210000Y-130150000D03*
X168910000Y-130150000D03*
D11*
X168910000Y-123850000D03*
%TD*%
D10*
%TO.C,3.3V*%
X158990000Y-130150000D03*
X163590000Y-130150000D03*
X161290000Y-130150000D03*
D11*
X161290000Y-123850000D03*
%TD*%
%TO.C,R9*%
G36*
G01*
X172380000Y-101610000D02*
X172380000Y-102860000D01*
G75*
G02*
X172130000Y-103110000I-250000J0D01*
G01*
X171205000Y-103110000D01*
G75*
G02*
X170955000Y-102860000I0J250000D01*
G01*
X170955000Y-101610000D01*
G75*
G02*
X171205000Y-101360000I250000J0D01*
G01*
X172130000Y-101360000D01*
G75*
G02*
X172380000Y-101610000I0J-250000D01*
G01*
G37*
G36*
G01*
X169405000Y-101610000D02*
X169405000Y-102860000D01*
G75*
G02*
X169155000Y-103110000I-250000J0D01*
G01*
X168230000Y-103110000D01*
G75*
G02*
X167980000Y-102860000I0J250000D01*
G01*
X167980000Y-101610000D01*
G75*
G02*
X168230000Y-101360000I250000J0D01*
G01*
X169155000Y-101360000D01*
G75*
G02*
X169405000Y-101610000I0J-250000D01*
G01*
G37*
%TD*%
%TO.C,R10*%
G36*
G01*
X170955000Y-106035000D02*
X170955000Y-104785000D01*
G75*
G02*
X171205000Y-104535000I250000J0D01*
G01*
X172130000Y-104535000D01*
G75*
G02*
X172380000Y-104785000I0J-250000D01*
G01*
X172380000Y-106035000D01*
G75*
G02*
X172130000Y-106285000I-250000J0D01*
G01*
X171205000Y-106285000D01*
G75*
G02*
X170955000Y-106035000I0J250000D01*
G01*
G37*
G36*
G01*
X167980000Y-106035000D02*
X167980000Y-104785000D01*
G75*
G02*
X168230000Y-104535000I250000J0D01*
G01*
X169155000Y-104535000D01*
G75*
G02*
X169405000Y-104785000I0J-250000D01*
G01*
X169405000Y-106035000D01*
G75*
G02*
X169155000Y-106285000I-250000J0D01*
G01*
X168230000Y-106285000D01*
G75*
G02*
X167980000Y-106035000I0J250000D01*
G01*
G37*
%TD*%
%TO.C,R11*%
G36*
G01*
X167762500Y-109210000D02*
X167762500Y-107960000D01*
G75*
G02*
X168012500Y-107710000I250000J0D01*
G01*
X168937500Y-107710000D01*
G75*
G02*
X169187500Y-107960000I0J-250000D01*
G01*
X169187500Y-109210000D01*
G75*
G02*
X168937500Y-109460000I-250000J0D01*
G01*
X168012500Y-109460000D01*
G75*
G02*
X167762500Y-109210000I0J250000D01*
G01*
G37*
G36*
G01*
X170737500Y-109210000D02*
X170737500Y-107960000D01*
G75*
G02*
X170987500Y-107710000I250000J0D01*
G01*
X171912500Y-107710000D01*
G75*
G02*
X172162500Y-107960000I0J-250000D01*
G01*
X172162500Y-109210000D01*
G75*
G02*
X171912500Y-109460000I-250000J0D01*
G01*
X170987500Y-109460000D01*
G75*
G02*
X170737500Y-109210000I0J250000D01*
G01*
G37*
%TD*%
%TO.C,U7*%
G36*
G01*
X160050000Y-103195000D02*
X160050000Y-103045000D01*
G75*
G02*
X160125000Y-102970000I75000J0D01*
G01*
X160725000Y-102970000D01*
G75*
G02*
X160800000Y-103045000I0J-75000D01*
G01*
X160800000Y-103195000D01*
G75*
G02*
X160725000Y-103270000I-75000J0D01*
G01*
X160125000Y-103270000D01*
G75*
G02*
X160050000Y-103195000I0J75000D01*
G01*
G37*
G36*
G01*
X160050000Y-103695000D02*
X160050000Y-103545000D01*
G75*
G02*
X160125000Y-103470000I75000J0D01*
G01*
X160725000Y-103470000D01*
G75*
G02*
X160800000Y-103545000I0J-75000D01*
G01*
X160800000Y-103695000D01*
G75*
G02*
X160725000Y-103770000I-75000J0D01*
G01*
X160125000Y-103770000D01*
G75*
G02*
X160050000Y-103695000I0J75000D01*
G01*
G37*
G36*
G01*
X160050000Y-104195000D02*
X160050000Y-104045000D01*
G75*
G02*
X160125000Y-103970000I75000J0D01*
G01*
X160725000Y-103970000D01*
G75*
G02*
X160800000Y-104045000I0J-75000D01*
G01*
X160800000Y-104195000D01*
G75*
G02*
X160725000Y-104270000I-75000J0D01*
G01*
X160125000Y-104270000D01*
G75*
G02*
X160050000Y-104195000I0J75000D01*
G01*
G37*
G36*
G01*
X160050000Y-104695000D02*
X160050000Y-104545000D01*
G75*
G02*
X160125000Y-104470000I75000J0D01*
G01*
X160725000Y-104470000D01*
G75*
G02*
X160800000Y-104545000I0J-75000D01*
G01*
X160800000Y-104695000D01*
G75*
G02*
X160725000Y-104770000I-75000J0D01*
G01*
X160125000Y-104770000D01*
G75*
G02*
X160050000Y-104695000I0J75000D01*
G01*
G37*
G36*
G01*
X162800000Y-104695000D02*
X162800000Y-104545000D01*
G75*
G02*
X162875000Y-104470000I75000J0D01*
G01*
X163475000Y-104470000D01*
G75*
G02*
X163550000Y-104545000I0J-75000D01*
G01*
X163550000Y-104695000D01*
G75*
G02*
X163475000Y-104770000I-75000J0D01*
G01*
X162875000Y-104770000D01*
G75*
G02*
X162800000Y-104695000I0J75000D01*
G01*
G37*
G36*
G01*
X162800000Y-104195000D02*
X162800000Y-104045000D01*
G75*
G02*
X162875000Y-103970000I75000J0D01*
G01*
X163475000Y-103970000D01*
G75*
G02*
X163550000Y-104045000I0J-75000D01*
G01*
X163550000Y-104195000D01*
G75*
G02*
X163475000Y-104270000I-75000J0D01*
G01*
X162875000Y-104270000D01*
G75*
G02*
X162800000Y-104195000I0J75000D01*
G01*
G37*
G36*
G01*
X162800000Y-103695000D02*
X162800000Y-103545000D01*
G75*
G02*
X162875000Y-103470000I75000J0D01*
G01*
X163475000Y-103470000D01*
G75*
G02*
X163550000Y-103545000I0J-75000D01*
G01*
X163550000Y-103695000D01*
G75*
G02*
X163475000Y-103770000I-75000J0D01*
G01*
X162875000Y-103770000D01*
G75*
G02*
X162800000Y-103695000I0J75000D01*
G01*
G37*
G36*
G01*
X162800000Y-103195000D02*
X162800000Y-103045000D01*
G75*
G02*
X162875000Y-102970000I75000J0D01*
G01*
X163475000Y-102970000D01*
G75*
G02*
X163550000Y-103045000I0J-75000D01*
G01*
X163550000Y-103195000D01*
G75*
G02*
X163475000Y-103270000I-75000J0D01*
G01*
X162875000Y-103270000D01*
G75*
G02*
X162800000Y-103195000I0J75000D01*
G01*
G37*
%TD*%
%TO.C,R16*%
G36*
G01*
X157744000Y-107528000D02*
X158994000Y-107528000D01*
G75*
G02*
X159244000Y-107778000I0J-250000D01*
G01*
X159244000Y-108703000D01*
G75*
G02*
X158994000Y-108953000I-250000J0D01*
G01*
X157744000Y-108953000D01*
G75*
G02*
X157494000Y-108703000I0J250000D01*
G01*
X157494000Y-107778000D01*
G75*
G02*
X157744000Y-107528000I250000J0D01*
G01*
G37*
G36*
G01*
X157744000Y-110503000D02*
X158994000Y-110503000D01*
G75*
G02*
X159244000Y-110753000I0J-250000D01*
G01*
X159244000Y-111678000D01*
G75*
G02*
X158994000Y-111928000I-250000J0D01*
G01*
X157744000Y-111928000D01*
G75*
G02*
X157494000Y-111678000I0J250000D01*
G01*
X157494000Y-110753000D01*
G75*
G02*
X157744000Y-110503000I250000J0D01*
G01*
G37*
%TD*%
%TO.C,R17*%
G36*
G01*
X157744000Y-115837000D02*
X158994000Y-115837000D01*
G75*
G02*
X159244000Y-116087000I0J-250000D01*
G01*
X159244000Y-117012000D01*
G75*
G02*
X158994000Y-117262000I-250000J0D01*
G01*
X157744000Y-117262000D01*
G75*
G02*
X157494000Y-117012000I0J250000D01*
G01*
X157494000Y-116087000D01*
G75*
G02*
X157744000Y-115837000I250000J0D01*
G01*
G37*
G36*
G01*
X157744000Y-112862000D02*
X158994000Y-112862000D01*
G75*
G02*
X159244000Y-113112000I0J-250000D01*
G01*
X159244000Y-114037000D01*
G75*
G02*
X158994000Y-114287000I-250000J0D01*
G01*
X157744000Y-114287000D01*
G75*
G02*
X157494000Y-114037000I0J250000D01*
G01*
X157494000Y-113112000D01*
G75*
G02*
X157744000Y-112862000I250000J0D01*
G01*
G37*
%TD*%
D12*
%TO.C,Q1*%
X162893500Y-88775500D03*
X162893500Y-90675500D03*
X164893500Y-89725500D03*
%TD*%
%TO.C,Q2*%
X164830000Y-95123000D03*
X162830000Y-96073000D03*
X162830000Y-94173000D03*
%TD*%
%TO.C,R12*%
G36*
G01*
X170955000Y-99431000D02*
X170955000Y-98181000D01*
G75*
G02*
X171205000Y-97931000I250000J0D01*
G01*
X172130000Y-97931000D01*
G75*
G02*
X172380000Y-98181000I0J-250000D01*
G01*
X172380000Y-99431000D01*
G75*
G02*
X172130000Y-99681000I-250000J0D01*
G01*
X171205000Y-99681000D01*
G75*
G02*
X170955000Y-99431000I0J250000D01*
G01*
G37*
G36*
G01*
X167980000Y-99431000D02*
X167980000Y-98181000D01*
G75*
G02*
X168230000Y-97931000I250000J0D01*
G01*
X169155000Y-97931000D01*
G75*
G02*
X169405000Y-98181000I0J-250000D01*
G01*
X169405000Y-99431000D01*
G75*
G02*
X169155000Y-99681000I-250000J0D01*
G01*
X168230000Y-99681000D01*
G75*
G02*
X167980000Y-99431000I0J250000D01*
G01*
G37*
%TD*%
%TO.C,R13*%
G36*
G01*
X168043500Y-96129000D02*
X168043500Y-94879000D01*
G75*
G02*
X168293500Y-94629000I250000J0D01*
G01*
X169218500Y-94629000D01*
G75*
G02*
X169468500Y-94879000I0J-250000D01*
G01*
X169468500Y-96129000D01*
G75*
G02*
X169218500Y-96379000I-250000J0D01*
G01*
X168293500Y-96379000D01*
G75*
G02*
X168043500Y-96129000I0J250000D01*
G01*
G37*
G36*
G01*
X171018500Y-96129000D02*
X171018500Y-94879000D01*
G75*
G02*
X171268500Y-94629000I250000J0D01*
G01*
X172193500Y-94629000D01*
G75*
G02*
X172443500Y-94879000I0J-250000D01*
G01*
X172443500Y-96129000D01*
G75*
G02*
X172193500Y-96379000I-250000J0D01*
G01*
X171268500Y-96379000D01*
G75*
G02*
X171018500Y-96129000I0J250000D01*
G01*
G37*
%TD*%
%TO.C,R14*%
G36*
G01*
X172443500Y-91577000D02*
X172443500Y-92827000D01*
G75*
G02*
X172193500Y-93077000I-250000J0D01*
G01*
X171268500Y-93077000D01*
G75*
G02*
X171018500Y-92827000I0J250000D01*
G01*
X171018500Y-91577000D01*
G75*
G02*
X171268500Y-91327000I250000J0D01*
G01*
X172193500Y-91327000D01*
G75*
G02*
X172443500Y-91577000I0J-250000D01*
G01*
G37*
G36*
G01*
X169468500Y-91577000D02*
X169468500Y-92827000D01*
G75*
G02*
X169218500Y-93077000I-250000J0D01*
G01*
X168293500Y-93077000D01*
G75*
G02*
X168043500Y-92827000I0J250000D01*
G01*
X168043500Y-91577000D01*
G75*
G02*
X168293500Y-91327000I250000J0D01*
G01*
X169218500Y-91327000D01*
G75*
G02*
X169468500Y-91577000I0J-250000D01*
G01*
G37*
%TD*%
%TO.C,R15*%
G36*
G01*
X169405000Y-87830500D02*
X169405000Y-89080500D01*
G75*
G02*
X169155000Y-89330500I-250000J0D01*
G01*
X168230000Y-89330500D01*
G75*
G02*
X167980000Y-89080500I0J250000D01*
G01*
X167980000Y-87830500D01*
G75*
G02*
X168230000Y-87580500I250000J0D01*
G01*
X169155000Y-87580500D01*
G75*
G02*
X169405000Y-87830500I0J-250000D01*
G01*
G37*
G36*
G01*
X172380000Y-87830500D02*
X172380000Y-89080500D01*
G75*
G02*
X172130000Y-89330500I-250000J0D01*
G01*
X171205000Y-89330500D01*
G75*
G02*
X170955000Y-89080500I0J250000D01*
G01*
X170955000Y-87830500D01*
G75*
G02*
X171205000Y-87580500I250000J0D01*
G01*
X172130000Y-87580500D01*
G75*
G02*
X172380000Y-87830500I0J-250000D01*
G01*
G37*
%TD*%
D13*
%TO.C,Q3*%
X139359600Y-140547600D03*
X141259600Y-140547600D03*
X140309600Y-138547600D03*
%TD*%
D12*
%TO.C,Q4*%
X144560800Y-120650000D03*
X142560800Y-121600000D03*
X142560800Y-119700000D03*
%TD*%
M02*
