%TF.GenerationSoftware,KiCad,Pcbnew,(5.1.6)-1*%
%TF.CreationDate,2021-10-22T11:30:52-04:00*%
%TF.ProjectId,main_board,6d61696e-5f62-46f6-9172-642e6b696361,rev?*%
%TF.SameCoordinates,Original*%
%TF.FileFunction,Legend,Bot*%
%TF.FilePolarity,Positive*%
%FSLAX46Y46*%
G04 Gerber Fmt 4.6, Leading zero omitted, Abs format (unit mm)*
G04 Created by KiCad (PCBNEW (5.1.6)-1) date 2021-10-22 11:30:52*
%MOMM*%
%LPD*%
G01*
G04 APERTURE LIST*
%ADD10C,0.120000*%
%ADD11C,0.010000*%
%ADD12C,0.150000*%
G04 APERTURE END LIST*
D10*
%TO.C,MICRO SD*%
X165798500Y-93408500D02*
X165798500Y-95948500D01*
X161988500Y-80708500D02*
X161988500Y-95948500D01*
X144208500Y-79378500D02*
X162108500Y-79378500D01*
X166433500Y-93408500D02*
X165798500Y-93408500D01*
X161988500Y-80708500D02*
X165163500Y-80708500D01*
X165163500Y-80708500D02*
X165163500Y-81343500D01*
X161988500Y-95948500D02*
X165798500Y-95948500D01*
X144208500Y-79378500D02*
X144208500Y-97278500D01*
X144208500Y-97278500D02*
X162108500Y-97278500D01*
X162108500Y-97278500D02*
X162108500Y-79378500D01*
X166433500Y-81343500D02*
X166433500Y-93408500D01*
X165163500Y-81343500D02*
X166433500Y-81343500D01*
D11*
%TO.C,G\u002A\u002A\u002A*%
G36*
X166449914Y-115341547D02*
G01*
X166463812Y-115433646D01*
X166532386Y-115565086D01*
X166648792Y-115717823D01*
X166656840Y-115726924D01*
X166755844Y-115852310D01*
X166817246Y-115957616D01*
X166827098Y-115994158D01*
X166847941Y-116064038D01*
X166893915Y-116054829D01*
X166940187Y-115976144D01*
X166948817Y-115947043D01*
X167004457Y-115832154D01*
X167103820Y-115701253D01*
X167132492Y-115670998D01*
X167222476Y-115555709D01*
X167276821Y-115438262D01*
X167287240Y-115346164D01*
X167245447Y-115306920D01*
X167242202Y-115306837D01*
X167162213Y-115351264D01*
X167066257Y-115469669D01*
X166971407Y-115639735D01*
X166948692Y-115690464D01*
X166862796Y-115892208D01*
X166824462Y-115754333D01*
X166764988Y-115609032D01*
X166677038Y-115466221D01*
X166582360Y-115355670D01*
X166502704Y-115307148D01*
X166497536Y-115306837D01*
X166449914Y-115341547D01*
G37*
X166449914Y-115341547D02*
X166463812Y-115433646D01*
X166532386Y-115565086D01*
X166648792Y-115717823D01*
X166656840Y-115726924D01*
X166755844Y-115852310D01*
X166817246Y-115957616D01*
X166827098Y-115994158D01*
X166847941Y-116064038D01*
X166893915Y-116054829D01*
X166940187Y-115976144D01*
X166948817Y-115947043D01*
X167004457Y-115832154D01*
X167103820Y-115701253D01*
X167132492Y-115670998D01*
X167222476Y-115555709D01*
X167276821Y-115438262D01*
X167287240Y-115346164D01*
X167245447Y-115306920D01*
X167242202Y-115306837D01*
X167162213Y-115351264D01*
X167066257Y-115469669D01*
X166971407Y-115639735D01*
X166948692Y-115690464D01*
X166862796Y-115892208D01*
X166824462Y-115754333D01*
X166764988Y-115609032D01*
X166677038Y-115466221D01*
X166582360Y-115355670D01*
X166502704Y-115307148D01*
X166497536Y-115306837D01*
X166449914Y-115341547D01*
G36*
X165927267Y-115502301D02*
G01*
X165910866Y-115606730D01*
X165933613Y-115724228D01*
X166016798Y-115780161D01*
X166031980Y-115784315D01*
X166155808Y-115845675D01*
X166314629Y-115964826D01*
X166482581Y-116117945D01*
X166633804Y-116281210D01*
X166742435Y-116430798D01*
X166751706Y-116447301D01*
X166829623Y-116578372D01*
X166884207Y-116620317D01*
X166932737Y-116577362D01*
X166971443Y-116501053D01*
X167058765Y-116362089D01*
X167196625Y-116196422D01*
X167357980Y-116031656D01*
X167515788Y-115895395D01*
X167643007Y-115815243D01*
X167643469Y-115815051D01*
X167755270Y-115744938D01*
X167793083Y-115639880D01*
X167794233Y-115606073D01*
X167785941Y-115503875D01*
X167749294Y-115468509D01*
X167666630Y-115498554D01*
X167531556Y-115584917D01*
X167420970Y-115681966D01*
X167290198Y-115828240D01*
X167157425Y-115998932D01*
X167040835Y-116169233D01*
X166958616Y-116314335D01*
X166928902Y-116407026D01*
X166912065Y-116473037D01*
X166865020Y-116448464D01*
X166792963Y-116338170D01*
X166737567Y-116227939D01*
X166649766Y-116081482D01*
X166521155Y-115915300D01*
X166371496Y-115749709D01*
X166220547Y-115605027D01*
X166088068Y-115501571D01*
X165993818Y-115459659D01*
X165990266Y-115459543D01*
X165927267Y-115502301D01*
G37*
X165927267Y-115502301D02*
X165910866Y-115606730D01*
X165933613Y-115724228D01*
X166016798Y-115780161D01*
X166031980Y-115784315D01*
X166155808Y-115845675D01*
X166314629Y-115964826D01*
X166482581Y-116117945D01*
X166633804Y-116281210D01*
X166742435Y-116430798D01*
X166751706Y-116447301D01*
X166829623Y-116578372D01*
X166884207Y-116620317D01*
X166932737Y-116577362D01*
X166971443Y-116501053D01*
X167058765Y-116362089D01*
X167196625Y-116196422D01*
X167357980Y-116031656D01*
X167515788Y-115895395D01*
X167643007Y-115815243D01*
X167643469Y-115815051D01*
X167755270Y-115744938D01*
X167793083Y-115639880D01*
X167794233Y-115606073D01*
X167785941Y-115503875D01*
X167749294Y-115468509D01*
X167666630Y-115498554D01*
X167531556Y-115584917D01*
X167420970Y-115681966D01*
X167290198Y-115828240D01*
X167157425Y-115998932D01*
X167040835Y-116169233D01*
X166958616Y-116314335D01*
X166928902Y-116407026D01*
X166912065Y-116473037D01*
X166865020Y-116448464D01*
X166792963Y-116338170D01*
X166737567Y-116227939D01*
X166649766Y-116081482D01*
X166521155Y-115915300D01*
X166371496Y-115749709D01*
X166220547Y-115605027D01*
X166088068Y-115501571D01*
X165993818Y-115459659D01*
X165990266Y-115459543D01*
X165927267Y-115502301D01*
G36*
X165453153Y-115928396D02*
G01*
X165408589Y-115977823D01*
X165401848Y-116063807D01*
X165409885Y-116151657D01*
X165451328Y-116200402D01*
X165552176Y-116228506D01*
X165654931Y-116243527D01*
X165921650Y-116310105D01*
X166200903Y-116431220D01*
X166457890Y-116587979D01*
X166657813Y-116761488D01*
X166698553Y-116810142D01*
X166854594Y-117014725D01*
X167108081Y-116756525D01*
X167432370Y-116488194D01*
X167786449Y-116315619D01*
X168093674Y-116244508D01*
X168246503Y-116220128D01*
X168323723Y-116187524D01*
X168351009Y-116128233D01*
X168354153Y-116057187D01*
X168348476Y-115962621D01*
X168312764Y-115922489D01*
X168218993Y-115920345D01*
X168135775Y-115929033D01*
X167939911Y-115969259D01*
X167742734Y-116036062D01*
X167715835Y-116048053D01*
X167574453Y-116135298D01*
X167406972Y-116268981D01*
X167237137Y-116426228D01*
X167088690Y-116584160D01*
X166985375Y-116719903D01*
X166954935Y-116781157D01*
X166918696Y-116861180D01*
X166873360Y-116870224D01*
X166806068Y-116801797D01*
X166708625Y-116656797D01*
X166521312Y-116422107D01*
X166283157Y-116214440D01*
X166019965Y-116050482D01*
X165757542Y-115946920D01*
X165567279Y-115918777D01*
X165453153Y-115928396D01*
G37*
X165453153Y-115928396D02*
X165408589Y-115977823D01*
X165401848Y-116063807D01*
X165409885Y-116151657D01*
X165451328Y-116200402D01*
X165552176Y-116228506D01*
X165654931Y-116243527D01*
X165921650Y-116310105D01*
X166200903Y-116431220D01*
X166457890Y-116587979D01*
X166657813Y-116761488D01*
X166698553Y-116810142D01*
X166854594Y-117014725D01*
X167108081Y-116756525D01*
X167432370Y-116488194D01*
X167786449Y-116315619D01*
X168093674Y-116244508D01*
X168246503Y-116220128D01*
X168323723Y-116187524D01*
X168351009Y-116128233D01*
X168354153Y-116057187D01*
X168348476Y-115962621D01*
X168312764Y-115922489D01*
X168218993Y-115920345D01*
X168135775Y-115929033D01*
X167939911Y-115969259D01*
X167742734Y-116036062D01*
X167715835Y-116048053D01*
X167574453Y-116135298D01*
X167406972Y-116268981D01*
X167237137Y-116426228D01*
X167088690Y-116584160D01*
X166985375Y-116719903D01*
X166954935Y-116781157D01*
X166918696Y-116861180D01*
X166873360Y-116870224D01*
X166806068Y-116801797D01*
X166708625Y-116656797D01*
X166521312Y-116422107D01*
X166283157Y-116214440D01*
X166019965Y-116050482D01*
X165757542Y-115946920D01*
X165567279Y-115918777D01*
X165453153Y-115928396D01*
G36*
X165255505Y-116560294D02*
G01*
X165147207Y-116594477D01*
X165103646Y-116661720D01*
X165096437Y-116769347D01*
X165104655Y-116885775D01*
X165138273Y-116922664D01*
X165185515Y-116912170D01*
X165408221Y-116851393D01*
X165659834Y-116820022D01*
X165886783Y-116823812D01*
X165936317Y-116831499D01*
X166164597Y-116888266D01*
X166354317Y-116968776D01*
X166550807Y-117094195D01*
X166638326Y-117159290D01*
X166768747Y-117256943D01*
X166862450Y-117323539D01*
X166895019Y-117342909D01*
X166937051Y-117309961D01*
X167017257Y-117229941D01*
X167023895Y-117222905D01*
X167238873Y-117053940D01*
X167516030Y-116921991D01*
X167818205Y-116841808D01*
X168027853Y-116824392D01*
X168214191Y-116833913D01*
X168371180Y-116856711D01*
X168448799Y-116880963D01*
X168573195Y-116930065D01*
X168638254Y-116901195D01*
X168659266Y-116785625D01*
X168659563Y-116760658D01*
X168653171Y-116653143D01*
X168615957Y-116596369D01*
X168520859Y-116566032D01*
X168425622Y-116550539D01*
X168025908Y-116536300D01*
X167660027Y-116617905D01*
X167329871Y-116794685D01*
X167069438Y-117029500D01*
X166887628Y-117230742D01*
X166612143Y-116963914D01*
X166297065Y-116719558D01*
X165956878Y-116573710D01*
X165588939Y-116525582D01*
X165255505Y-116560294D01*
G37*
X165255505Y-116560294D02*
X165147207Y-116594477D01*
X165103646Y-116661720D01*
X165096437Y-116769347D01*
X165104655Y-116885775D01*
X165138273Y-116922664D01*
X165185515Y-116912170D01*
X165408221Y-116851393D01*
X165659834Y-116820022D01*
X165886783Y-116823812D01*
X165936317Y-116831499D01*
X166164597Y-116888266D01*
X166354317Y-116968776D01*
X166550807Y-117094195D01*
X166638326Y-117159290D01*
X166768747Y-117256943D01*
X166862450Y-117323539D01*
X166895019Y-117342909D01*
X166937051Y-117309961D01*
X167017257Y-117229941D01*
X167023895Y-117222905D01*
X167238873Y-117053940D01*
X167516030Y-116921991D01*
X167818205Y-116841808D01*
X168027853Y-116824392D01*
X168214191Y-116833913D01*
X168371180Y-116856711D01*
X168448799Y-116880963D01*
X168573195Y-116930065D01*
X168638254Y-116901195D01*
X168659266Y-116785625D01*
X168659563Y-116760658D01*
X168653171Y-116653143D01*
X168615957Y-116596369D01*
X168520859Y-116566032D01*
X168425622Y-116550539D01*
X168025908Y-116536300D01*
X167660027Y-116617905D01*
X167329871Y-116794685D01*
X167069438Y-117029500D01*
X166887628Y-117230742D01*
X166612143Y-116963914D01*
X166297065Y-116719558D01*
X165956878Y-116573710D01*
X165588939Y-116525582D01*
X165255505Y-116560294D01*
G36*
X167488726Y-117139327D02*
G01*
X167176312Y-117275913D01*
X167067590Y-117351902D01*
X166875415Y-117502489D01*
X166726013Y-117376775D01*
X166439651Y-117199872D01*
X166113094Y-117109444D01*
X165761465Y-117106509D01*
X165399889Y-117192081D01*
X165207112Y-117274805D01*
X165049157Y-117357878D01*
X164960986Y-117424444D01*
X164920153Y-117501096D01*
X164904213Y-117614431D01*
X164902629Y-117635595D01*
X164902531Y-117786405D01*
X164936105Y-117842354D01*
X165010893Y-117806655D01*
X165100290Y-117719829D01*
X165329034Y-117531312D01*
X165615471Y-117378640D01*
X165876229Y-117293870D01*
X166193619Y-117272698D01*
X166496064Y-117350496D01*
X166713775Y-117478366D01*
X166880412Y-117604439D01*
X167027236Y-117480894D01*
X167265022Y-117342608D01*
X167548588Y-117275458D01*
X167844401Y-117286759D01*
X167882224Y-117294420D01*
X168181323Y-117396337D01*
X168461435Y-117554707D01*
X168655711Y-117719829D01*
X168767018Y-117823267D01*
X168831357Y-117837553D01*
X168856228Y-117759540D01*
X168853372Y-117636925D01*
X168838839Y-117515982D01*
X168802063Y-117435218D01*
X168720508Y-117367615D01*
X168571640Y-117286159D01*
X168552714Y-117276482D01*
X168190035Y-117138945D01*
X167831003Y-117093449D01*
X167488726Y-117139327D01*
G37*
X167488726Y-117139327D02*
X167176312Y-117275913D01*
X167067590Y-117351902D01*
X166875415Y-117502489D01*
X166726013Y-117376775D01*
X166439651Y-117199872D01*
X166113094Y-117109444D01*
X165761465Y-117106509D01*
X165399889Y-117192081D01*
X165207112Y-117274805D01*
X165049157Y-117357878D01*
X164960986Y-117424444D01*
X164920153Y-117501096D01*
X164904213Y-117614431D01*
X164902629Y-117635595D01*
X164902531Y-117786405D01*
X164936105Y-117842354D01*
X165010893Y-117806655D01*
X165100290Y-117719829D01*
X165329034Y-117531312D01*
X165615471Y-117378640D01*
X165876229Y-117293870D01*
X166193619Y-117272698D01*
X166496064Y-117350496D01*
X166713775Y-117478366D01*
X166880412Y-117604439D01*
X167027236Y-117480894D01*
X167265022Y-117342608D01*
X167548588Y-117275458D01*
X167844401Y-117286759D01*
X167882224Y-117294420D01*
X168181323Y-117396337D01*
X168461435Y-117554707D01*
X168655711Y-117719829D01*
X168767018Y-117823267D01*
X168831357Y-117837553D01*
X168856228Y-117759540D01*
X168853372Y-117636925D01*
X168838839Y-117515982D01*
X168802063Y-117435218D01*
X168720508Y-117367615D01*
X168571640Y-117286159D01*
X168552714Y-117276482D01*
X168190035Y-117138945D01*
X167831003Y-117093449D01*
X167488726Y-117139327D01*
G36*
X167373445Y-117522140D02*
G01*
X167211494Y-117573148D01*
X167047858Y-117649011D01*
X167043431Y-117651536D01*
X166935582Y-117708190D01*
X166857614Y-117717855D01*
X166763645Y-117678358D01*
X166688235Y-117634727D01*
X166458684Y-117549177D01*
X166189236Y-117523401D01*
X165922885Y-117558065D01*
X165758161Y-117620296D01*
X165518363Y-117759331D01*
X165362645Y-117883804D01*
X165277480Y-118008089D01*
X165249341Y-118146558D01*
X165249143Y-118161199D01*
X165249143Y-118356584D01*
X165483168Y-118106392D01*
X165731563Y-117886374D01*
X165994074Y-117733865D01*
X166254603Y-117653366D01*
X166497054Y-117649379D01*
X166705328Y-117726407D01*
X166743881Y-117753818D01*
X166878000Y-117859316D01*
X167012119Y-117753818D01*
X167210998Y-117658886D01*
X167447494Y-117645930D01*
X167705512Y-117710449D01*
X167968952Y-117847941D01*
X168221718Y-118053904D01*
X168272832Y-118106392D01*
X168506858Y-118356584D01*
X168506858Y-118184575D01*
X168490152Y-118064558D01*
X168426800Y-117958292D01*
X168296950Y-117832902D01*
X168291892Y-117828563D01*
X168074496Y-117681958D01*
X167824748Y-117574541D01*
X167577331Y-117517882D01*
X167373445Y-117522140D01*
G37*
X167373445Y-117522140D02*
X167211494Y-117573148D01*
X167047858Y-117649011D01*
X167043431Y-117651536D01*
X166935582Y-117708190D01*
X166857614Y-117717855D01*
X166763645Y-117678358D01*
X166688235Y-117634727D01*
X166458684Y-117549177D01*
X166189236Y-117523401D01*
X165922885Y-117558065D01*
X165758161Y-117620296D01*
X165518363Y-117759331D01*
X165362645Y-117883804D01*
X165277480Y-118008089D01*
X165249341Y-118146558D01*
X165249143Y-118161199D01*
X165249143Y-118356584D01*
X165483168Y-118106392D01*
X165731563Y-117886374D01*
X165994074Y-117733865D01*
X166254603Y-117653366D01*
X166497054Y-117649379D01*
X166705328Y-117726407D01*
X166743881Y-117753818D01*
X166878000Y-117859316D01*
X167012119Y-117753818D01*
X167210998Y-117658886D01*
X167447494Y-117645930D01*
X167705512Y-117710449D01*
X167968952Y-117847941D01*
X168221718Y-118053904D01*
X168272832Y-118106392D01*
X168506858Y-118356584D01*
X168506858Y-118184575D01*
X168490152Y-118064558D01*
X168426800Y-117958292D01*
X168296950Y-117832902D01*
X168291892Y-117828563D01*
X168074496Y-117681958D01*
X167824748Y-117574541D01*
X167577331Y-117517882D01*
X167373445Y-117522140D01*
G36*
X166132112Y-117884653D02*
G01*
X165938789Y-117970979D01*
X165794507Y-118097483D01*
X165720015Y-118248510D01*
X165716169Y-118335220D01*
X165732710Y-118471204D01*
X165825352Y-118313109D01*
X165965401Y-118138704D01*
X166166777Y-118004086D01*
X166356719Y-117924357D01*
X166547139Y-117856396D01*
X166353729Y-117854162D01*
X166132112Y-117884653D01*
G37*
X166132112Y-117884653D02*
X165938789Y-117970979D01*
X165794507Y-118097483D01*
X165720015Y-118248510D01*
X165716169Y-118335220D01*
X165732710Y-118471204D01*
X165825352Y-118313109D01*
X165965401Y-118138704D01*
X166166777Y-118004086D01*
X166356719Y-117924357D01*
X166547139Y-117856396D01*
X166353729Y-117854162D01*
X166132112Y-117884653D01*
G36*
X167208862Y-117856396D02*
G01*
X167391018Y-117921517D01*
X167642567Y-118040028D01*
X167837358Y-118206473D01*
X167924474Y-118314092D01*
X168048742Y-118482527D01*
X168048742Y-118328806D01*
X168001598Y-118158813D01*
X167874549Y-118012803D01*
X167689168Y-117906637D01*
X167467030Y-117856174D01*
X167403090Y-117854162D01*
X167208862Y-117856396D01*
G37*
X167208862Y-117856396D02*
X167391018Y-117921517D01*
X167642567Y-118040028D01*
X167837358Y-118206473D01*
X167924474Y-118314092D01*
X168048742Y-118482527D01*
X168048742Y-118328806D01*
X168001598Y-118158813D01*
X167874549Y-118012803D01*
X167689168Y-117906637D01*
X167467030Y-117856174D01*
X167403090Y-117854162D01*
X167208862Y-117856396D01*
G36*
X165589698Y-118669491D02*
G01*
X165478165Y-118681463D01*
X165432906Y-118706124D01*
X165434342Y-118742709D01*
X165483225Y-118788366D01*
X165597681Y-118812468D01*
X165780574Y-118819062D01*
X165951878Y-118813985D01*
X166079844Y-118800777D01*
X166131440Y-118785127D01*
X166164148Y-118728371D01*
X166121060Y-118691623D01*
X165993587Y-118671937D01*
X165785209Y-118666356D01*
X165589698Y-118669491D01*
G37*
X165589698Y-118669491D02*
X165478165Y-118681463D01*
X165432906Y-118706124D01*
X165434342Y-118742709D01*
X165483225Y-118788366D01*
X165597681Y-118812468D01*
X165780574Y-118819062D01*
X165951878Y-118813985D01*
X166079844Y-118800777D01*
X166131440Y-118785127D01*
X166164148Y-118728371D01*
X166121060Y-118691623D01*
X165993587Y-118671937D01*
X165785209Y-118666356D01*
X165589698Y-118669491D01*
G36*
X167744583Y-118671561D02*
G01*
X167635086Y-118688765D01*
X167601476Y-118720356D01*
X167603166Y-118729984D01*
X167666941Y-118770233D01*
X167820411Y-118798214D01*
X167963720Y-118808662D01*
X168149116Y-118812832D01*
X168253616Y-118802183D01*
X168297532Y-118772906D01*
X168303251Y-118745035D01*
X168284194Y-118702761D01*
X168214157Y-118678440D01*
X168073845Y-118667861D01*
X167942696Y-118666356D01*
X167744583Y-118671561D01*
G37*
X167744583Y-118671561D02*
X167635086Y-118688765D01*
X167601476Y-118720356D01*
X167603166Y-118729984D01*
X167666941Y-118770233D01*
X167820411Y-118798214D01*
X167963720Y-118808662D01*
X168149116Y-118812832D01*
X168253616Y-118802183D01*
X168297532Y-118772906D01*
X168303251Y-118745035D01*
X168284194Y-118702761D01*
X168214157Y-118678440D01*
X168073845Y-118667861D01*
X167942696Y-118666356D01*
X167744583Y-118671561D01*
G36*
X163789957Y-120210378D02*
G01*
X163783866Y-120270786D01*
X163789957Y-120278247D01*
X163820219Y-120271260D01*
X163823892Y-120244312D01*
X163805268Y-120202414D01*
X163789957Y-120210378D01*
G37*
X163789957Y-120210378D02*
X163783866Y-120270786D01*
X163789957Y-120278247D01*
X163820219Y-120271260D01*
X163823892Y-120244312D01*
X163805268Y-120202414D01*
X163789957Y-120210378D01*
G36*
X163891761Y-120210378D02*
G01*
X163885669Y-120270786D01*
X163891761Y-120278247D01*
X163922022Y-120271260D01*
X163925696Y-120244312D01*
X163907071Y-120202414D01*
X163891761Y-120210378D01*
G37*
X163891761Y-120210378D02*
X163885669Y-120270786D01*
X163891761Y-120278247D01*
X163922022Y-120271260D01*
X163925696Y-120244312D01*
X163907071Y-120202414D01*
X163891761Y-120210378D01*
G36*
X164043629Y-120183866D02*
G01*
X164037561Y-120263420D01*
X164047648Y-120281428D01*
X164070783Y-120266247D01*
X164074382Y-120214620D01*
X164061951Y-120160306D01*
X164043629Y-120183866D01*
G37*
X164043629Y-120183866D02*
X164037561Y-120263420D01*
X164047648Y-120281428D01*
X164070783Y-120266247D01*
X164074382Y-120214620D01*
X164061951Y-120160306D01*
X164043629Y-120183866D01*
G36*
X165452750Y-119251727D02*
G01*
X165450518Y-119429584D01*
X165437927Y-119528648D01*
X165406129Y-119571920D01*
X165346279Y-119582398D01*
X165325495Y-119582589D01*
X165246969Y-119573095D01*
X165209764Y-119526428D01*
X165198727Y-119415313D01*
X165198241Y-119353531D01*
X165188248Y-119202556D01*
X165154272Y-119133786D01*
X165121888Y-119124473D01*
X165071563Y-119154450D01*
X165048640Y-119256378D01*
X165045535Y-119353531D01*
X165040261Y-119494878D01*
X165014335Y-119561847D01*
X164952604Y-119581714D01*
X164918281Y-119582589D01*
X164827336Y-119566153D01*
X164794065Y-119496289D01*
X164791026Y-119429883D01*
X164768262Y-119308650D01*
X164714674Y-119277178D01*
X164654057Y-119322706D01*
X164638321Y-119429883D01*
X164624625Y-119539018D01*
X164566404Y-119578942D01*
X164511066Y-119582589D01*
X164415406Y-119565165D01*
X164383812Y-119531687D01*
X164345077Y-119482264D01*
X164332910Y-119480785D01*
X164307702Y-119528410D01*
X164289988Y-119658432D01*
X164282178Y-119851571D01*
X164282008Y-119888000D01*
X164287961Y-120089662D01*
X164304214Y-120231375D01*
X164328356Y-120293857D01*
X164332910Y-120295214D01*
X164360023Y-120248850D01*
X164378405Y-120127730D01*
X164383812Y-119989803D01*
X164386506Y-119820541D01*
X164401230Y-119729156D01*
X164437943Y-119691744D01*
X164506606Y-119684399D01*
X164511066Y-119684392D01*
X164581592Y-119690859D01*
X164619669Y-119726196D01*
X164635258Y-119814307D01*
X164638318Y-119979098D01*
X164638321Y-119989803D01*
X164644185Y-120167141D01*
X164664971Y-120262354D01*
X164705474Y-120294612D01*
X164714674Y-120295214D01*
X164759008Y-120271759D01*
X164782811Y-120188612D01*
X164790876Y-120026602D01*
X164791026Y-119989803D01*
X164793721Y-119820541D01*
X164808444Y-119729156D01*
X164845157Y-119691744D01*
X164913820Y-119684399D01*
X164918281Y-119684392D01*
X164988807Y-119690859D01*
X165026884Y-119726196D01*
X165042472Y-119814307D01*
X165045532Y-119979098D01*
X165045535Y-119989803D01*
X165051399Y-120167141D01*
X165072186Y-120262354D01*
X165112688Y-120294612D01*
X165121888Y-120295214D01*
X165166223Y-120271759D01*
X165190026Y-120188612D01*
X165198090Y-120026602D01*
X165198241Y-119989803D01*
X165200935Y-119820541D01*
X165215659Y-119729156D01*
X165252372Y-119691744D01*
X165321035Y-119684399D01*
X165325495Y-119684392D01*
X165396021Y-119690859D01*
X165434098Y-119726196D01*
X165449687Y-119814307D01*
X165452747Y-119979098D01*
X165452750Y-119989803D01*
X165458613Y-120167141D01*
X165479400Y-120262354D01*
X165519903Y-120294612D01*
X165529102Y-120295214D01*
X165561446Y-120280195D01*
X165583416Y-120224931D01*
X165596849Y-120114110D01*
X165603583Y-119932423D01*
X165605455Y-119664559D01*
X165605455Y-119022669D01*
X165961768Y-119022669D01*
X165961768Y-119658942D01*
X165963570Y-119928471D01*
X165970202Y-120111553D01*
X165983500Y-120223495D01*
X166005303Y-120279611D01*
X166037446Y-120295210D01*
X166038120Y-120295214D01*
X166069404Y-120280717D01*
X166091026Y-120227349D01*
X166104634Y-120120293D01*
X166111873Y-119944732D01*
X166114389Y-119685848D01*
X166114473Y-119608040D01*
X166114473Y-118920865D01*
X165452750Y-118920865D01*
X165452750Y-119251727D01*
G37*
X165452750Y-119251727D02*
X165450518Y-119429584D01*
X165437927Y-119528648D01*
X165406129Y-119571920D01*
X165346279Y-119582398D01*
X165325495Y-119582589D01*
X165246969Y-119573095D01*
X165209764Y-119526428D01*
X165198727Y-119415313D01*
X165198241Y-119353531D01*
X165188248Y-119202556D01*
X165154272Y-119133786D01*
X165121888Y-119124473D01*
X165071563Y-119154450D01*
X165048640Y-119256378D01*
X165045535Y-119353531D01*
X165040261Y-119494878D01*
X165014335Y-119561847D01*
X164952604Y-119581714D01*
X164918281Y-119582589D01*
X164827336Y-119566153D01*
X164794065Y-119496289D01*
X164791026Y-119429883D01*
X164768262Y-119308650D01*
X164714674Y-119277178D01*
X164654057Y-119322706D01*
X164638321Y-119429883D01*
X164624625Y-119539018D01*
X164566404Y-119578942D01*
X164511066Y-119582589D01*
X164415406Y-119565165D01*
X164383812Y-119531687D01*
X164345077Y-119482264D01*
X164332910Y-119480785D01*
X164307702Y-119528410D01*
X164289988Y-119658432D01*
X164282178Y-119851571D01*
X164282008Y-119888000D01*
X164287961Y-120089662D01*
X164304214Y-120231375D01*
X164328356Y-120293857D01*
X164332910Y-120295214D01*
X164360023Y-120248850D01*
X164378405Y-120127730D01*
X164383812Y-119989803D01*
X164386506Y-119820541D01*
X164401230Y-119729156D01*
X164437943Y-119691744D01*
X164506606Y-119684399D01*
X164511066Y-119684392D01*
X164581592Y-119690859D01*
X164619669Y-119726196D01*
X164635258Y-119814307D01*
X164638318Y-119979098D01*
X164638321Y-119989803D01*
X164644185Y-120167141D01*
X164664971Y-120262354D01*
X164705474Y-120294612D01*
X164714674Y-120295214D01*
X164759008Y-120271759D01*
X164782811Y-120188612D01*
X164790876Y-120026602D01*
X164791026Y-119989803D01*
X164793721Y-119820541D01*
X164808444Y-119729156D01*
X164845157Y-119691744D01*
X164913820Y-119684399D01*
X164918281Y-119684392D01*
X164988807Y-119690859D01*
X165026884Y-119726196D01*
X165042472Y-119814307D01*
X165045532Y-119979098D01*
X165045535Y-119989803D01*
X165051399Y-120167141D01*
X165072186Y-120262354D01*
X165112688Y-120294612D01*
X165121888Y-120295214D01*
X165166223Y-120271759D01*
X165190026Y-120188612D01*
X165198090Y-120026602D01*
X165198241Y-119989803D01*
X165200935Y-119820541D01*
X165215659Y-119729156D01*
X165252372Y-119691744D01*
X165321035Y-119684399D01*
X165325495Y-119684392D01*
X165396021Y-119690859D01*
X165434098Y-119726196D01*
X165449687Y-119814307D01*
X165452747Y-119979098D01*
X165452750Y-119989803D01*
X165458613Y-120167141D01*
X165479400Y-120262354D01*
X165519903Y-120294612D01*
X165529102Y-120295214D01*
X165561446Y-120280195D01*
X165583416Y-120224931D01*
X165596849Y-120114110D01*
X165603583Y-119932423D01*
X165605455Y-119664559D01*
X165605455Y-119022669D01*
X165961768Y-119022669D01*
X165961768Y-119658942D01*
X165963570Y-119928471D01*
X165970202Y-120111553D01*
X165983500Y-120223495D01*
X166005303Y-120279611D01*
X166037446Y-120295210D01*
X166038120Y-120295214D01*
X166069404Y-120280717D01*
X166091026Y-120227349D01*
X166104634Y-120120293D01*
X166111873Y-119944732D01*
X166114389Y-119685848D01*
X166114473Y-119608040D01*
X166114473Y-118920865D01*
X165452750Y-118920865D01*
X165452750Y-119251727D01*
G36*
X166348592Y-118139198D02*
G01*
X166209798Y-118222456D01*
X166125975Y-118333674D01*
X166114473Y-118391328D01*
X166118007Y-118463452D01*
X166140374Y-118478095D01*
X166199226Y-118429330D01*
X166293291Y-118331297D01*
X166400660Y-118230736D01*
X166482025Y-118178508D01*
X166508810Y-118178395D01*
X166530229Y-118245219D01*
X166548965Y-118382005D01*
X166559373Y-118529804D01*
X166568623Y-118723453D01*
X166581695Y-118976492D01*
X166596380Y-119246683D01*
X166603134Y-119366256D01*
X166633031Y-119888000D01*
X166475556Y-119888000D01*
X166366292Y-119902331D01*
X166318188Y-119937010D01*
X166318080Y-119938901D01*
X166361814Y-119976540D01*
X166451189Y-119989803D01*
X166541254Y-119995588D01*
X166552070Y-120031648D01*
X166502091Y-120115267D01*
X166435125Y-120228284D01*
X166429110Y-120281499D01*
X166482148Y-120295201D01*
X166485262Y-120295214D01*
X166553500Y-120255212D01*
X166631614Y-120157858D01*
X166637967Y-120147380D01*
X166680460Y-120049509D01*
X166707343Y-119914785D01*
X166721369Y-119721438D01*
X166725295Y-119456860D01*
X166719817Y-119208476D01*
X166704839Y-118998716D01*
X166682547Y-118852028D01*
X166667094Y-118805423D01*
X166635364Y-118712903D01*
X166664544Y-118678123D01*
X166694785Y-118620013D01*
X166674393Y-118539102D01*
X166655298Y-118433766D01*
X166681029Y-118401152D01*
X166707922Y-118351283D01*
X166681247Y-118264328D01*
X166620504Y-118174086D01*
X166545194Y-118114358D01*
X166510989Y-118106437D01*
X166348592Y-118139198D01*
G37*
X166348592Y-118139198D02*
X166209798Y-118222456D01*
X166125975Y-118333674D01*
X166114473Y-118391328D01*
X166118007Y-118463452D01*
X166140374Y-118478095D01*
X166199226Y-118429330D01*
X166293291Y-118331297D01*
X166400660Y-118230736D01*
X166482025Y-118178508D01*
X166508810Y-118178395D01*
X166530229Y-118245219D01*
X166548965Y-118382005D01*
X166559373Y-118529804D01*
X166568623Y-118723453D01*
X166581695Y-118976492D01*
X166596380Y-119246683D01*
X166603134Y-119366256D01*
X166633031Y-119888000D01*
X166475556Y-119888000D01*
X166366292Y-119902331D01*
X166318188Y-119937010D01*
X166318080Y-119938901D01*
X166361814Y-119976540D01*
X166451189Y-119989803D01*
X166541254Y-119995588D01*
X166552070Y-120031648D01*
X166502091Y-120115267D01*
X166435125Y-120228284D01*
X166429110Y-120281499D01*
X166482148Y-120295201D01*
X166485262Y-120295214D01*
X166553500Y-120255212D01*
X166631614Y-120157858D01*
X166637967Y-120147380D01*
X166680460Y-120049509D01*
X166707343Y-119914785D01*
X166721369Y-119721438D01*
X166725295Y-119456860D01*
X166719817Y-119208476D01*
X166704839Y-118998716D01*
X166682547Y-118852028D01*
X166667094Y-118805423D01*
X166635364Y-118712903D01*
X166664544Y-118678123D01*
X166694785Y-118620013D01*
X166674393Y-118539102D01*
X166655298Y-118433766D01*
X166681029Y-118401152D01*
X166707922Y-118351283D01*
X166681247Y-118264328D01*
X166620504Y-118174086D01*
X166545194Y-118114358D01*
X166510989Y-118106437D01*
X166348592Y-118139198D01*
G36*
X167155800Y-118141068D02*
G01*
X167087128Y-118222163D01*
X167047787Y-118315520D01*
X167055998Y-118386938D01*
X167078025Y-118402170D01*
X167104700Y-118449980D01*
X167075945Y-118524231D01*
X167046410Y-118618245D01*
X167081607Y-118666356D01*
X167117205Y-118723075D01*
X167086863Y-118809242D01*
X167063507Y-118902340D01*
X167044903Y-119070622D01*
X167033356Y-119287495D01*
X167030706Y-119456860D01*
X167034879Y-119727989D01*
X167049236Y-119919354D01*
X167076527Y-120052721D01*
X167118033Y-120147380D01*
X167201590Y-120258176D01*
X167268256Y-120300152D01*
X167299726Y-120273938D01*
X167277691Y-120180162D01*
X167259764Y-120142509D01*
X167210954Y-120039247D01*
X167219055Y-119997737D01*
X167293209Y-119989831D01*
X167309358Y-119989803D01*
X167405642Y-119972540D01*
X167437920Y-119938901D01*
X167393612Y-119903462D01*
X167286531Y-119888023D01*
X167281834Y-119888000D01*
X167125748Y-119888000D01*
X167151734Y-119366256D01*
X167164863Y-119102535D01*
X167178096Y-118836487D01*
X167189335Y-118610312D01*
X167193291Y-118530617D01*
X167207181Y-118359404D01*
X167227584Y-118230905D01*
X167246376Y-118179208D01*
X167298959Y-118191342D01*
X167393068Y-118263100D01*
X167462709Y-118331297D01*
X167567416Y-118439759D01*
X167620354Y-118479682D01*
X167639173Y-118456992D01*
X167641527Y-118391328D01*
X167595694Y-118273662D01*
X167478388Y-118174383D01*
X167319898Y-118114746D01*
X167235581Y-118106437D01*
X167155800Y-118141068D01*
G37*
X167155800Y-118141068D02*
X167087128Y-118222163D01*
X167047787Y-118315520D01*
X167055998Y-118386938D01*
X167078025Y-118402170D01*
X167104700Y-118449980D01*
X167075945Y-118524231D01*
X167046410Y-118618245D01*
X167081607Y-118666356D01*
X167117205Y-118723075D01*
X167086863Y-118809242D01*
X167063507Y-118902340D01*
X167044903Y-119070622D01*
X167033356Y-119287495D01*
X167030706Y-119456860D01*
X167034879Y-119727989D01*
X167049236Y-119919354D01*
X167076527Y-120052721D01*
X167118033Y-120147380D01*
X167201590Y-120258176D01*
X167268256Y-120300152D01*
X167299726Y-120273938D01*
X167277691Y-120180162D01*
X167259764Y-120142509D01*
X167210954Y-120039247D01*
X167219055Y-119997737D01*
X167293209Y-119989831D01*
X167309358Y-119989803D01*
X167405642Y-119972540D01*
X167437920Y-119938901D01*
X167393612Y-119903462D01*
X167286531Y-119888023D01*
X167281834Y-119888000D01*
X167125748Y-119888000D01*
X167151734Y-119366256D01*
X167164863Y-119102535D01*
X167178096Y-118836487D01*
X167189335Y-118610312D01*
X167193291Y-118530617D01*
X167207181Y-118359404D01*
X167227584Y-118230905D01*
X167246376Y-118179208D01*
X167298959Y-118191342D01*
X167393068Y-118263100D01*
X167462709Y-118331297D01*
X167567416Y-118439759D01*
X167620354Y-118479682D01*
X167639173Y-118456992D01*
X167641527Y-118391328D01*
X167595694Y-118273662D01*
X167478388Y-118174383D01*
X167319898Y-118114746D01*
X167235581Y-118106437D01*
X167155800Y-118141068D01*
G36*
X167641527Y-119608040D02*
G01*
X167646273Y-119918705D01*
X167658839Y-120136879D01*
X167676713Y-120261149D01*
X167697387Y-120290101D01*
X167718351Y-120222320D01*
X167737095Y-120056394D01*
X167751108Y-119790909D01*
X167754490Y-119671667D01*
X167768782Y-119048120D01*
X168125094Y-119048120D01*
X168139387Y-119671667D01*
X168148961Y-119923253D01*
X168164066Y-120122105D01*
X168183004Y-120251594D01*
X168203014Y-120295214D01*
X168229032Y-120248977D01*
X168246909Y-120128797D01*
X168252349Y-119989803D01*
X168252349Y-119684392D01*
X168557760Y-119684392D01*
X168557760Y-119989803D01*
X168563624Y-120167141D01*
X168584410Y-120262354D01*
X168624913Y-120294612D01*
X168634112Y-120295214D01*
X168678447Y-120271759D01*
X168702250Y-120188612D01*
X168710315Y-120026602D01*
X168710465Y-119989803D01*
X168713160Y-119820541D01*
X168727883Y-119729156D01*
X168764596Y-119691744D01*
X168833259Y-119684399D01*
X168837720Y-119684392D01*
X168908246Y-119690859D01*
X168946323Y-119726196D01*
X168961911Y-119814307D01*
X168964971Y-119979098D01*
X168964974Y-119989803D01*
X168972702Y-120152483D01*
X168992888Y-120262773D01*
X169015876Y-120295214D01*
X169042989Y-120248850D01*
X169061371Y-120127730D01*
X169066778Y-119989803D01*
X169066778Y-119684392D01*
X169372189Y-119684392D01*
X169372189Y-119989803D01*
X169379916Y-120152483D01*
X169400103Y-120262773D01*
X169423090Y-120295214D01*
X169448298Y-120247589D01*
X169466012Y-120117567D01*
X169473823Y-119924428D01*
X169473992Y-119888000D01*
X169468039Y-119686337D01*
X169451786Y-119544625D01*
X169427644Y-119482143D01*
X169423090Y-119480785D01*
X169373668Y-119519520D01*
X169372189Y-119531687D01*
X169327957Y-119567427D01*
X169221383Y-119582585D01*
X169219483Y-119582589D01*
X169111322Y-119569976D01*
X169071456Y-119510481D01*
X169066778Y-119429883D01*
X169052034Y-119322664D01*
X169016509Y-119277190D01*
X169015876Y-119277178D01*
X168980136Y-119321410D01*
X168964978Y-119427984D01*
X168964974Y-119429883D01*
X168951278Y-119539018D01*
X168893058Y-119578942D01*
X168837720Y-119582589D01*
X168759194Y-119573095D01*
X168721989Y-119526428D01*
X168710951Y-119415313D01*
X168710465Y-119353531D01*
X168700473Y-119202556D01*
X168666497Y-119133786D01*
X168634112Y-119124473D01*
X168583787Y-119154450D01*
X168560864Y-119256378D01*
X168557760Y-119353531D01*
X168552485Y-119494878D01*
X168526560Y-119561847D01*
X168464829Y-119581714D01*
X168430505Y-119582589D01*
X168343313Y-119568602D01*
X168308485Y-119506478D01*
X168303251Y-119410795D01*
X168293013Y-119233635D01*
X168271437Y-119079933D01*
X168248772Y-118991119D01*
X168208363Y-118943622D01*
X168123324Y-118924517D01*
X167966765Y-118920877D01*
X167940575Y-118920865D01*
X167641527Y-118920865D01*
X167641527Y-119608040D01*
G37*
X167641527Y-119608040D02*
X167646273Y-119918705D01*
X167658839Y-120136879D01*
X167676713Y-120261149D01*
X167697387Y-120290101D01*
X167718351Y-120222320D01*
X167737095Y-120056394D01*
X167751108Y-119790909D01*
X167754490Y-119671667D01*
X167768782Y-119048120D01*
X168125094Y-119048120D01*
X168139387Y-119671667D01*
X168148961Y-119923253D01*
X168164066Y-120122105D01*
X168183004Y-120251594D01*
X168203014Y-120295214D01*
X168229032Y-120248977D01*
X168246909Y-120128797D01*
X168252349Y-119989803D01*
X168252349Y-119684392D01*
X168557760Y-119684392D01*
X168557760Y-119989803D01*
X168563624Y-120167141D01*
X168584410Y-120262354D01*
X168624913Y-120294612D01*
X168634112Y-120295214D01*
X168678447Y-120271759D01*
X168702250Y-120188612D01*
X168710315Y-120026602D01*
X168710465Y-119989803D01*
X168713160Y-119820541D01*
X168727883Y-119729156D01*
X168764596Y-119691744D01*
X168833259Y-119684399D01*
X168837720Y-119684392D01*
X168908246Y-119690859D01*
X168946323Y-119726196D01*
X168961911Y-119814307D01*
X168964971Y-119979098D01*
X168964974Y-119989803D01*
X168972702Y-120152483D01*
X168992888Y-120262773D01*
X169015876Y-120295214D01*
X169042989Y-120248850D01*
X169061371Y-120127730D01*
X169066778Y-119989803D01*
X169066778Y-119684392D01*
X169372189Y-119684392D01*
X169372189Y-119989803D01*
X169379916Y-120152483D01*
X169400103Y-120262773D01*
X169423090Y-120295214D01*
X169448298Y-120247589D01*
X169466012Y-120117567D01*
X169473823Y-119924428D01*
X169473992Y-119888000D01*
X169468039Y-119686337D01*
X169451786Y-119544625D01*
X169427644Y-119482143D01*
X169423090Y-119480785D01*
X169373668Y-119519520D01*
X169372189Y-119531687D01*
X169327957Y-119567427D01*
X169221383Y-119582585D01*
X169219483Y-119582589D01*
X169111322Y-119569976D01*
X169071456Y-119510481D01*
X169066778Y-119429883D01*
X169052034Y-119322664D01*
X169016509Y-119277190D01*
X169015876Y-119277178D01*
X168980136Y-119321410D01*
X168964978Y-119427984D01*
X168964974Y-119429883D01*
X168951278Y-119539018D01*
X168893058Y-119578942D01*
X168837720Y-119582589D01*
X168759194Y-119573095D01*
X168721989Y-119526428D01*
X168710951Y-119415313D01*
X168710465Y-119353531D01*
X168700473Y-119202556D01*
X168666497Y-119133786D01*
X168634112Y-119124473D01*
X168583787Y-119154450D01*
X168560864Y-119256378D01*
X168557760Y-119353531D01*
X168552485Y-119494878D01*
X168526560Y-119561847D01*
X168464829Y-119581714D01*
X168430505Y-119582589D01*
X168343313Y-119568602D01*
X168308485Y-119506478D01*
X168303251Y-119410795D01*
X168293013Y-119233635D01*
X168271437Y-119079933D01*
X168248772Y-118991119D01*
X168208363Y-118943622D01*
X168123324Y-118924517D01*
X167966765Y-118920877D01*
X167940575Y-118920865D01*
X167641527Y-118920865D01*
X167641527Y-119608040D01*
G36*
X161450797Y-121131396D02*
G01*
X161435394Y-121214289D01*
X161435526Y-121218726D01*
X161446897Y-121286480D01*
X161465219Y-121275074D01*
X161528588Y-121232071D01*
X161649156Y-121211700D01*
X161664807Y-121211447D01*
X161782632Y-121220502D01*
X161830209Y-121265906D01*
X161838722Y-121364152D01*
X161822088Y-121476744D01*
X161761854Y-121515744D01*
X161741160Y-121516857D01*
X161647585Y-121487764D01*
X161617924Y-121453230D01*
X161600395Y-121453806D01*
X161589317Y-121535362D01*
X161588231Y-121564763D01*
X161589532Y-121675648D01*
X161607742Y-121698123D01*
X161652843Y-121646064D01*
X161728152Y-121586571D01*
X161780098Y-121588438D01*
X161831544Y-121671357D01*
X161830506Y-121789423D01*
X161781503Y-121893438D01*
X161749644Y-121919995D01*
X161707466Y-121954345D01*
X161746642Y-121969915D01*
X161838722Y-121973426D01*
X162016878Y-121974974D01*
X162016878Y-121160545D01*
X161804708Y-121160545D01*
X161650545Y-121153378D01*
X161531410Y-121135574D01*
X161512023Y-121129648D01*
X161450797Y-121131396D01*
G37*
X161450797Y-121131396D02*
X161435394Y-121214289D01*
X161435526Y-121218726D01*
X161446897Y-121286480D01*
X161465219Y-121275074D01*
X161528588Y-121232071D01*
X161649156Y-121211700D01*
X161664807Y-121211447D01*
X161782632Y-121220502D01*
X161830209Y-121265906D01*
X161838722Y-121364152D01*
X161822088Y-121476744D01*
X161761854Y-121515744D01*
X161741160Y-121516857D01*
X161647585Y-121487764D01*
X161617924Y-121453230D01*
X161600395Y-121453806D01*
X161589317Y-121535362D01*
X161588231Y-121564763D01*
X161589532Y-121675648D01*
X161607742Y-121698123D01*
X161652843Y-121646064D01*
X161728152Y-121586571D01*
X161780098Y-121588438D01*
X161831544Y-121671357D01*
X161830506Y-121789423D01*
X161781503Y-121893438D01*
X161749644Y-121919995D01*
X161707466Y-121954345D01*
X161746642Y-121969915D01*
X161838722Y-121973426D01*
X162016878Y-121974974D01*
X162016878Y-121160545D01*
X161804708Y-121160545D01*
X161650545Y-121153378D01*
X161531410Y-121135574D01*
X161512023Y-121129648D01*
X161450797Y-121131396D01*
G36*
X162438283Y-121172706D02*
G01*
X162376930Y-121228530D01*
X162272803Y-121396048D01*
X162247292Y-121589404D01*
X162302918Y-121772584D01*
X162335534Y-121819836D01*
X162476255Y-121921229D01*
X162660458Y-121963490D01*
X162845823Y-121942278D01*
X162958191Y-121883705D01*
X163047675Y-121779886D01*
X163081509Y-121638616D01*
X163083502Y-121573450D01*
X163076451Y-121535755D01*
X162907660Y-121535755D01*
X162878490Y-121720422D01*
X162802804Y-121851059D01*
X162698334Y-121916314D01*
X162582812Y-121904832D01*
X162477881Y-121810942D01*
X162412969Y-121654009D01*
X162412167Y-121487585D01*
X162466364Y-121339906D01*
X162566450Y-121239210D01*
X162671307Y-121211447D01*
X162807546Y-121245340D01*
X162884270Y-121352662D01*
X162907660Y-121535755D01*
X163076451Y-121535755D01*
X163044078Y-121362716D01*
X162925769Y-121216322D01*
X162728517Y-121134205D01*
X162692024Y-121127412D01*
X162547242Y-121120873D01*
X162438283Y-121172706D01*
G37*
X162438283Y-121172706D02*
X162376930Y-121228530D01*
X162272803Y-121396048D01*
X162247292Y-121589404D01*
X162302918Y-121772584D01*
X162335534Y-121819836D01*
X162476255Y-121921229D01*
X162660458Y-121963490D01*
X162845823Y-121942278D01*
X162958191Y-121883705D01*
X163047675Y-121779886D01*
X163081509Y-121638616D01*
X163083502Y-121573450D01*
X163076451Y-121535755D01*
X162907660Y-121535755D01*
X162878490Y-121720422D01*
X162802804Y-121851059D01*
X162698334Y-121916314D01*
X162582812Y-121904832D01*
X162477881Y-121810942D01*
X162412969Y-121654009D01*
X162412167Y-121487585D01*
X162466364Y-121339906D01*
X162566450Y-121239210D01*
X162671307Y-121211447D01*
X162807546Y-121245340D01*
X162884270Y-121352662D01*
X162907660Y-121535755D01*
X163076451Y-121535755D01*
X163044078Y-121362716D01*
X162925769Y-121216322D01*
X162728517Y-121134205D01*
X162692024Y-121127412D01*
X162547242Y-121120873D01*
X162438283Y-121172706D01*
G36*
X164229862Y-121143194D02*
G01*
X164213193Y-121187283D01*
X164204587Y-121268727D01*
X164152406Y-121388356D01*
X164139344Y-121410779D01*
X164041482Y-121571700D01*
X163971651Y-121404299D01*
X163927810Y-121278192D01*
X163912656Y-121190449D01*
X163913484Y-121184178D01*
X163881237Y-121141670D01*
X163823619Y-121131458D01*
X163740893Y-121136849D01*
X163722088Y-121144234D01*
X163746977Y-121190449D01*
X163811233Y-121296410D01*
X163874794Y-121397801D01*
X163979121Y-121597790D01*
X164023770Y-121765924D01*
X164006858Y-121886153D01*
X163938421Y-121939886D01*
X163929220Y-121953644D01*
X164004480Y-121962942D01*
X164078401Y-121965050D01*
X164199689Y-121961325D01*
X164251866Y-121949729D01*
X164243832Y-121941262D01*
X164191661Y-121870784D01*
X164184535Y-121740258D01*
X164219661Y-121579499D01*
X164292566Y-121421062D01*
X164371151Y-121302962D01*
X164432501Y-121229210D01*
X164445271Y-121219930D01*
X164487808Y-121180255D01*
X164443855Y-121145976D01*
X164337282Y-121129901D01*
X164229862Y-121143194D01*
G37*
X164229862Y-121143194D02*
X164213193Y-121187283D01*
X164204587Y-121268727D01*
X164152406Y-121388356D01*
X164139344Y-121410779D01*
X164041482Y-121571700D01*
X163971651Y-121404299D01*
X163927810Y-121278192D01*
X163912656Y-121190449D01*
X163913484Y-121184178D01*
X163881237Y-121141670D01*
X163823619Y-121131458D01*
X163740893Y-121136849D01*
X163722088Y-121144234D01*
X163746977Y-121190449D01*
X163811233Y-121296410D01*
X163874794Y-121397801D01*
X163979121Y-121597790D01*
X164023770Y-121765924D01*
X164006858Y-121886153D01*
X163938421Y-121939886D01*
X163929220Y-121953644D01*
X164004480Y-121962942D01*
X164078401Y-121965050D01*
X164199689Y-121961325D01*
X164251866Y-121949729D01*
X164243832Y-121941262D01*
X164191661Y-121870784D01*
X164184535Y-121740258D01*
X164219661Y-121579499D01*
X164292566Y-121421062D01*
X164371151Y-121302962D01*
X164432501Y-121229210D01*
X164445271Y-121219930D01*
X164487808Y-121180255D01*
X164443855Y-121145976D01*
X164337282Y-121129901D01*
X164229862Y-121143194D01*
G36*
X164748192Y-121149625D02*
G01*
X164702346Y-121177365D01*
X164690840Y-121231992D01*
X164690810Y-121262348D01*
X164697473Y-121348415D01*
X164725959Y-121342674D01*
X164760080Y-121300525D01*
X164841742Y-121218469D01*
X164897896Y-121225544D01*
X164930992Y-121325260D01*
X164943482Y-121521126D01*
X164943732Y-121563517D01*
X164934021Y-121788190D01*
X164904977Y-121914099D01*
X164880104Y-121941262D01*
X164886132Y-121956663D01*
X164972748Y-121967103D01*
X165045535Y-121969407D01*
X165177929Y-121966378D01*
X165220056Y-121950754D01*
X165185515Y-121919995D01*
X165133469Y-121845107D01*
X165100833Y-121712538D01*
X165087845Y-121552666D01*
X165094748Y-121395872D01*
X165121781Y-121272534D01*
X165169186Y-121213033D01*
X165179904Y-121211447D01*
X165276951Y-121248485D01*
X165334106Y-121300525D01*
X165385634Y-121357014D01*
X165396179Y-121325958D01*
X165390619Y-121270853D01*
X165375053Y-121207475D01*
X165331776Y-121170853D01*
X165237339Y-121152647D01*
X165068296Y-121144520D01*
X165032779Y-121143598D01*
X164850847Y-121140970D01*
X164748192Y-121149625D01*
G37*
X164748192Y-121149625D02*
X164702346Y-121177365D01*
X164690840Y-121231992D01*
X164690810Y-121262348D01*
X164697473Y-121348415D01*
X164725959Y-121342674D01*
X164760080Y-121300525D01*
X164841742Y-121218469D01*
X164897896Y-121225544D01*
X164930992Y-121325260D01*
X164943482Y-121521126D01*
X164943732Y-121563517D01*
X164934021Y-121788190D01*
X164904977Y-121914099D01*
X164880104Y-121941262D01*
X164886132Y-121956663D01*
X164972748Y-121967103D01*
X165045535Y-121969407D01*
X165177929Y-121966378D01*
X165220056Y-121950754D01*
X165185515Y-121919995D01*
X165133469Y-121845107D01*
X165100833Y-121712538D01*
X165087845Y-121552666D01*
X165094748Y-121395872D01*
X165121781Y-121272534D01*
X165169186Y-121213033D01*
X165179904Y-121211447D01*
X165276951Y-121248485D01*
X165334106Y-121300525D01*
X165385634Y-121357014D01*
X165396179Y-121325958D01*
X165390619Y-121270853D01*
X165375053Y-121207475D01*
X165331776Y-121170853D01*
X165237339Y-121152647D01*
X165068296Y-121144520D01*
X165032779Y-121143598D01*
X164850847Y-121140970D01*
X164748192Y-121149625D01*
G36*
X165770886Y-121147819D02*
G01*
X165701202Y-121161816D01*
X165659612Y-121193152D01*
X165638866Y-121263783D01*
X165631713Y-121395660D01*
X165630906Y-121571669D01*
X165630906Y-121974974D01*
X165781066Y-121974974D01*
X165878629Y-121966451D01*
X165888217Y-121935010D01*
X165870145Y-121913891D01*
X165839088Y-121838200D01*
X165818914Y-121704545D01*
X165810073Y-121544016D01*
X165813015Y-121387701D01*
X165828191Y-121266689D01*
X165856052Y-121212067D01*
X165859964Y-121211447D01*
X165909448Y-121179213D01*
X165910866Y-121169361D01*
X165867711Y-121145371D01*
X165770886Y-121147819D01*
G37*
X165770886Y-121147819D02*
X165701202Y-121161816D01*
X165659612Y-121193152D01*
X165638866Y-121263783D01*
X165631713Y-121395660D01*
X165630906Y-121571669D01*
X165630906Y-121974974D01*
X165781066Y-121974974D01*
X165878629Y-121966451D01*
X165888217Y-121935010D01*
X165870145Y-121913891D01*
X165839088Y-121838200D01*
X165818914Y-121704545D01*
X165810073Y-121544016D01*
X165813015Y-121387701D01*
X165828191Y-121266689D01*
X165856052Y-121212067D01*
X165859964Y-121211447D01*
X165909448Y-121179213D01*
X165910866Y-121169361D01*
X165867711Y-121145371D01*
X165770886Y-121147819D01*
G36*
X166277674Y-121132700D02*
G01*
X166189014Y-121196040D01*
X166166923Y-121276044D01*
X166173405Y-121352496D01*
X166199774Y-121334357D01*
X166220354Y-121300525D01*
X166295635Y-121236412D01*
X166397556Y-121212309D01*
X166486181Y-121229986D01*
X166521688Y-121287161D01*
X166481723Y-121357306D01*
X166380476Y-121448359D01*
X166318080Y-121491406D01*
X166167989Y-121615676D01*
X166118445Y-121734635D01*
X166169791Y-121846740D01*
X166227603Y-121895735D01*
X166353448Y-121952006D01*
X166496883Y-121974729D01*
X166612508Y-121958921D01*
X166640458Y-121941039D01*
X166668658Y-121866996D01*
X166674393Y-121804186D01*
X166669531Y-121737812D01*
X166640086Y-121742298D01*
X166567960Y-121815511D01*
X166451264Y-121899163D01*
X166349361Y-121901533D01*
X166285194Y-121824703D01*
X166277089Y-121789109D01*
X166292429Y-121702770D01*
X166379183Y-121626806D01*
X166455246Y-121586021D01*
X166607668Y-121480956D01*
X166666550Y-121366510D01*
X166629418Y-121253116D01*
X166550628Y-121183601D01*
X166407758Y-121126253D01*
X166277674Y-121132700D01*
G37*
X166277674Y-121132700D02*
X166189014Y-121196040D01*
X166166923Y-121276044D01*
X166173405Y-121352496D01*
X166199774Y-121334357D01*
X166220354Y-121300525D01*
X166295635Y-121236412D01*
X166397556Y-121212309D01*
X166486181Y-121229986D01*
X166521688Y-121287161D01*
X166481723Y-121357306D01*
X166380476Y-121448359D01*
X166318080Y-121491406D01*
X166167989Y-121615676D01*
X166118445Y-121734635D01*
X166169791Y-121846740D01*
X166227603Y-121895735D01*
X166353448Y-121952006D01*
X166496883Y-121974729D01*
X166612508Y-121958921D01*
X166640458Y-121941039D01*
X166668658Y-121866996D01*
X166674393Y-121804186D01*
X166669531Y-121737812D01*
X166640086Y-121742298D01*
X166567960Y-121815511D01*
X166451264Y-121899163D01*
X166349361Y-121901533D01*
X166285194Y-121824703D01*
X166277089Y-121789109D01*
X166292429Y-121702770D01*
X166379183Y-121626806D01*
X166455246Y-121586021D01*
X166607668Y-121480956D01*
X166666550Y-121366510D01*
X166629418Y-121253116D01*
X166550628Y-121183601D01*
X166407758Y-121126253D01*
X166277674Y-121132700D01*
G36*
X167341655Y-121148886D02*
G01*
X167197264Y-121167809D01*
X167086244Y-121196371D01*
X167052515Y-121214469D01*
X166985054Y-121319512D01*
X167017146Y-121434525D01*
X167078817Y-121500828D01*
X167134617Y-121555670D01*
X167142742Y-121607156D01*
X167097281Y-121685231D01*
X167023638Y-121780290D01*
X166936165Y-121896104D01*
X166909593Y-121954080D01*
X166938462Y-121973586D01*
X166968762Y-121974974D01*
X167062612Y-121931534D01*
X167172060Y-121815090D01*
X167202820Y-121771366D01*
X167287291Y-121652352D01*
X167350337Y-121579025D01*
X167367636Y-121567759D01*
X167382138Y-121612638D01*
X167381934Y-121724834D01*
X167378294Y-121771366D01*
X167370939Y-121901462D01*
X167394937Y-121959519D01*
X167469094Y-121974527D01*
X167510383Y-121974974D01*
X167608700Y-121966520D01*
X167619075Y-121935354D01*
X167600806Y-121913891D01*
X167569750Y-121838200D01*
X167549576Y-121704545D01*
X167540734Y-121544016D01*
X167543677Y-121387701D01*
X167546630Y-121364152D01*
X167387018Y-121364152D01*
X167359756Y-121483804D01*
X167289882Y-121516078D01*
X167195265Y-121454198D01*
X167183949Y-121441153D01*
X167143954Y-121334704D01*
X167184765Y-121246048D01*
X167283617Y-121211447D01*
X167359123Y-121234759D01*
X167385837Y-121322348D01*
X167387018Y-121364152D01*
X167546630Y-121364152D01*
X167558853Y-121266689D01*
X167586713Y-121212067D01*
X167590625Y-121211447D01*
X167640168Y-121182130D01*
X167641571Y-121173270D01*
X167597156Y-121149284D01*
X167486069Y-121141933D01*
X167341655Y-121148886D01*
G37*
X167341655Y-121148886D02*
X167197264Y-121167809D01*
X167086244Y-121196371D01*
X167052515Y-121214469D01*
X166985054Y-121319512D01*
X167017146Y-121434525D01*
X167078817Y-121500828D01*
X167134617Y-121555670D01*
X167142742Y-121607156D01*
X167097281Y-121685231D01*
X167023638Y-121780290D01*
X166936165Y-121896104D01*
X166909593Y-121954080D01*
X166938462Y-121973586D01*
X166968762Y-121974974D01*
X167062612Y-121931534D01*
X167172060Y-121815090D01*
X167202820Y-121771366D01*
X167287291Y-121652352D01*
X167350337Y-121579025D01*
X167367636Y-121567759D01*
X167382138Y-121612638D01*
X167381934Y-121724834D01*
X167378294Y-121771366D01*
X167370939Y-121901462D01*
X167394937Y-121959519D01*
X167469094Y-121974527D01*
X167510383Y-121974974D01*
X167608700Y-121966520D01*
X167619075Y-121935354D01*
X167600806Y-121913891D01*
X167569750Y-121838200D01*
X167549576Y-121704545D01*
X167540734Y-121544016D01*
X167543677Y-121387701D01*
X167546630Y-121364152D01*
X167387018Y-121364152D01*
X167359756Y-121483804D01*
X167289882Y-121516078D01*
X167195265Y-121454198D01*
X167183949Y-121441153D01*
X167143954Y-121334704D01*
X167184765Y-121246048D01*
X167283617Y-121211447D01*
X167359123Y-121234759D01*
X167385837Y-121322348D01*
X167387018Y-121364152D01*
X167546630Y-121364152D01*
X167558853Y-121266689D01*
X167586713Y-121212067D01*
X167590625Y-121211447D01*
X167640168Y-121182130D01*
X167641571Y-121173270D01*
X167597156Y-121149284D01*
X167486069Y-121141933D01*
X167341655Y-121148886D01*
G36*
X167924338Y-121133400D02*
G01*
X167882361Y-121207343D01*
X167878312Y-121290668D01*
X167900802Y-121313250D01*
X167945629Y-121274375D01*
X167946938Y-121262348D01*
X167991685Y-121228704D01*
X168101714Y-121211886D01*
X168125094Y-121211447D01*
X168245732Y-121221113D01*
X168295088Y-121263949D01*
X168303251Y-121335697D01*
X168277337Y-121456249D01*
X168213643Y-121500951D01*
X168133240Y-121458143D01*
X168117372Y-121438552D01*
X168072031Y-121386358D01*
X168053998Y-121409487D01*
X168052760Y-121519854D01*
X168061459Y-121617793D01*
X168077942Y-121639763D01*
X168082453Y-121631386D01*
X168148459Y-121578593D01*
X168208914Y-121567759D01*
X168277514Y-121585814D01*
X168297930Y-121658692D01*
X168293750Y-121733190D01*
X168266751Y-121852420D01*
X168198997Y-121903817D01*
X168142742Y-121914252D01*
X168004377Y-121890255D01*
X167922916Y-121812449D01*
X167838148Y-121695014D01*
X167854367Y-121822268D01*
X167871824Y-121893509D01*
X167917911Y-121933688D01*
X168017799Y-121953924D01*
X168175996Y-121964347D01*
X168481407Y-121979171D01*
X168481407Y-121160545D01*
X168303251Y-121159850D01*
X168147642Y-121151066D01*
X168019654Y-121130845D01*
X168017575Y-121130295D01*
X167924338Y-121133400D01*
G37*
X167924338Y-121133400D02*
X167882361Y-121207343D01*
X167878312Y-121290668D01*
X167900802Y-121313250D01*
X167945629Y-121274375D01*
X167946938Y-121262348D01*
X167991685Y-121228704D01*
X168101714Y-121211886D01*
X168125094Y-121211447D01*
X168245732Y-121221113D01*
X168295088Y-121263949D01*
X168303251Y-121335697D01*
X168277337Y-121456249D01*
X168213643Y-121500951D01*
X168133240Y-121458143D01*
X168117372Y-121438552D01*
X168072031Y-121386358D01*
X168053998Y-121409487D01*
X168052760Y-121519854D01*
X168061459Y-121617793D01*
X168077942Y-121639763D01*
X168082453Y-121631386D01*
X168148459Y-121578593D01*
X168208914Y-121567759D01*
X168277514Y-121585814D01*
X168297930Y-121658692D01*
X168293750Y-121733190D01*
X168266751Y-121852420D01*
X168198997Y-121903817D01*
X168142742Y-121914252D01*
X168004377Y-121890255D01*
X167922916Y-121812449D01*
X167838148Y-121695014D01*
X167854367Y-121822268D01*
X167871824Y-121893509D01*
X167917911Y-121933688D01*
X168017799Y-121953924D01*
X168175996Y-121964347D01*
X168481407Y-121979171D01*
X168481407Y-121160545D01*
X168303251Y-121159850D01*
X168147642Y-121151066D01*
X168019654Y-121130845D01*
X168017575Y-121130295D01*
X167924338Y-121133400D01*
G36*
X169408141Y-121146079D02*
G01*
X169315547Y-121188212D01*
X169287352Y-121237103D01*
X169270104Y-121321764D01*
X169226196Y-121461236D01*
X169195435Y-121545721D01*
X169103517Y-121786404D01*
X169008558Y-121537101D01*
X168958790Y-121383696D01*
X168935446Y-121264234D01*
X168937689Y-121224172D01*
X168918208Y-121171320D01*
X168869132Y-121160545D01*
X168827508Y-121168858D01*
X168814382Y-121205900D01*
X168832671Y-121289823D01*
X168885293Y-121438780D01*
X168934357Y-121566404D01*
X169011501Y-121750269D01*
X169081261Y-121891041D01*
X169132233Y-121966603D01*
X169144341Y-121973619D01*
X169185199Y-121930020D01*
X169248476Y-121812754D01*
X169322635Y-121644123D01*
X169347728Y-121580485D01*
X169419101Y-121395212D01*
X169476327Y-121248242D01*
X169509838Y-121164095D01*
X169513966Y-121154492D01*
X169483854Y-121138714D01*
X169408141Y-121146079D01*
G37*
X169408141Y-121146079D02*
X169315547Y-121188212D01*
X169287352Y-121237103D01*
X169270104Y-121321764D01*
X169226196Y-121461236D01*
X169195435Y-121545721D01*
X169103517Y-121786404D01*
X169008558Y-121537101D01*
X168958790Y-121383696D01*
X168935446Y-121264234D01*
X168937689Y-121224172D01*
X168918208Y-121171320D01*
X168869132Y-121160545D01*
X168827508Y-121168858D01*
X168814382Y-121205900D01*
X168832671Y-121289823D01*
X168885293Y-121438780D01*
X168934357Y-121566404D01*
X169011501Y-121750269D01*
X169081261Y-121891041D01*
X169132233Y-121966603D01*
X169144341Y-121973619D01*
X169185199Y-121930020D01*
X169248476Y-121812754D01*
X169322635Y-121644123D01*
X169347728Y-121580485D01*
X169419101Y-121395212D01*
X169476327Y-121248242D01*
X169509838Y-121164095D01*
X169513966Y-121154492D01*
X169483854Y-121138714D01*
X169408141Y-121146079D01*
G36*
X169832759Y-121174595D02*
G01*
X169808898Y-121189517D01*
X169817579Y-121194256D01*
X169853509Y-121256544D01*
X169874858Y-121386478D01*
X169881509Y-121550929D01*
X169873344Y-121716772D01*
X169850247Y-121850881D01*
X169820124Y-121913891D01*
X169799865Y-121955326D01*
X169859732Y-121972858D01*
X169932108Y-121974974D01*
X170042033Y-121967500D01*
X170064390Y-121940183D01*
X170044092Y-121913891D01*
X170008678Y-121830449D01*
X169988292Y-121688141D01*
X169982817Y-121520095D01*
X169992137Y-121359436D01*
X170016133Y-121239291D01*
X170046637Y-121194256D01*
X170045714Y-121177791D01*
X169963900Y-121169023D01*
X169932108Y-121168582D01*
X169832759Y-121174595D01*
G37*
X169832759Y-121174595D02*
X169808898Y-121189517D01*
X169817579Y-121194256D01*
X169853509Y-121256544D01*
X169874858Y-121386478D01*
X169881509Y-121550929D01*
X169873344Y-121716772D01*
X169850247Y-121850881D01*
X169820124Y-121913891D01*
X169799865Y-121955326D01*
X169859732Y-121972858D01*
X169932108Y-121974974D01*
X170042033Y-121967500D01*
X170064390Y-121940183D01*
X170044092Y-121913891D01*
X170008678Y-121830449D01*
X169988292Y-121688141D01*
X169982817Y-121520095D01*
X169992137Y-121359436D01*
X170016133Y-121239291D01*
X170046637Y-121194256D01*
X170045714Y-121177791D01*
X169963900Y-121169023D01*
X169932108Y-121168582D01*
X169832759Y-121174595D01*
G36*
X170913867Y-121164426D02*
G01*
X170810093Y-121267446D01*
X170710832Y-121401498D01*
X170598527Y-121551308D01*
X170527604Y-121608758D01*
X170493548Y-121572360D01*
X170491843Y-121440626D01*
X170502382Y-121332764D01*
X170504464Y-121210559D01*
X170466835Y-121163274D01*
X170443631Y-121160425D01*
X170404334Y-121175771D01*
X170382749Y-121234678D01*
X170375958Y-121356226D01*
X170381046Y-121559495D01*
X170381375Y-121567640D01*
X170393647Y-121756781D01*
X170411579Y-121899220D01*
X170431846Y-121970873D01*
X170437627Y-121974974D01*
X170483785Y-121936220D01*
X170569906Y-121833669D01*
X170678967Y-121687882D01*
X170700986Y-121656837D01*
X170924694Y-121338701D01*
X170940353Y-121613843D01*
X170938354Y-121812433D01*
X170903896Y-121918309D01*
X170889452Y-121931200D01*
X170869752Y-121963127D01*
X170947610Y-121974175D01*
X170950145Y-121974194D01*
X171013416Y-121970230D01*
X171051223Y-121943515D01*
X171070120Y-121873254D01*
X171076660Y-121738649D01*
X171077399Y-121570368D01*
X171074001Y-121362664D01*
X171061014Y-121235948D01*
X171034247Y-121169546D01*
X170990792Y-121143115D01*
X170913867Y-121164426D01*
G37*
X170913867Y-121164426D02*
X170810093Y-121267446D01*
X170710832Y-121401498D01*
X170598527Y-121551308D01*
X170527604Y-121608758D01*
X170493548Y-121572360D01*
X170491843Y-121440626D01*
X170502382Y-121332764D01*
X170504464Y-121210559D01*
X170466835Y-121163274D01*
X170443631Y-121160425D01*
X170404334Y-121175771D01*
X170382749Y-121234678D01*
X170375958Y-121356226D01*
X170381046Y-121559495D01*
X170381375Y-121567640D01*
X170393647Y-121756781D01*
X170411579Y-121899220D01*
X170431846Y-121970873D01*
X170437627Y-121974974D01*
X170483785Y-121936220D01*
X170569906Y-121833669D01*
X170678967Y-121687882D01*
X170700986Y-121656837D01*
X170924694Y-121338701D01*
X170940353Y-121613843D01*
X170938354Y-121812433D01*
X170903896Y-121918309D01*
X170889452Y-121931200D01*
X170869752Y-121963127D01*
X170947610Y-121974175D01*
X170950145Y-121974194D01*
X171013416Y-121970230D01*
X171051223Y-121943515D01*
X171070120Y-121873254D01*
X171076660Y-121738649D01*
X171077399Y-121570368D01*
X171074001Y-121362664D01*
X171061014Y-121235948D01*
X171034247Y-121169546D01*
X170990792Y-121143115D01*
X170913867Y-121164426D01*
G36*
X171496490Y-121145816D02*
G01*
X171435123Y-121164379D01*
X171403510Y-121206385D01*
X171395644Y-121296183D01*
X171405517Y-121458121D01*
X171409011Y-121500342D01*
X171435677Y-121708230D01*
X171477516Y-121836997D01*
X171534117Y-121903893D01*
X171679558Y-121964601D01*
X171836486Y-121964820D01*
X171960675Y-121905799D01*
X171974117Y-121891467D01*
X172015008Y-121798109D01*
X172050822Y-121640495D01*
X172070246Y-121488283D01*
X172082998Y-121314280D01*
X172078691Y-121216863D01*
X172049004Y-121171187D01*
X171985618Y-121152410D01*
X171956273Y-121147939D01*
X171855048Y-121145989D01*
X171815475Y-121169361D01*
X171854460Y-121210274D01*
X171866377Y-121211447D01*
X171896001Y-121256565D01*
X171912654Y-121370168D01*
X171915182Y-121519621D01*
X171902434Y-121672294D01*
X171885637Y-121756955D01*
X171815642Y-121864457D01*
X171703867Y-121909082D01*
X171589903Y-121875845D01*
X171583974Y-121871143D01*
X171546502Y-121796500D01*
X171521191Y-121665416D01*
X171509147Y-121509640D01*
X171511478Y-121360922D01*
X171529292Y-121251010D01*
X171560966Y-121211447D01*
X171610439Y-121177908D01*
X171611868Y-121167603D01*
X171569937Y-121141872D01*
X171496490Y-121145816D01*
G37*
X171496490Y-121145816D02*
X171435123Y-121164379D01*
X171403510Y-121206385D01*
X171395644Y-121296183D01*
X171405517Y-121458121D01*
X171409011Y-121500342D01*
X171435677Y-121708230D01*
X171477516Y-121836997D01*
X171534117Y-121903893D01*
X171679558Y-121964601D01*
X171836486Y-121964820D01*
X171960675Y-121905799D01*
X171974117Y-121891467D01*
X172015008Y-121798109D01*
X172050822Y-121640495D01*
X172070246Y-121488283D01*
X172082998Y-121314280D01*
X172078691Y-121216863D01*
X172049004Y-121171187D01*
X171985618Y-121152410D01*
X171956273Y-121147939D01*
X171855048Y-121145989D01*
X171815475Y-121169361D01*
X171854460Y-121210274D01*
X171866377Y-121211447D01*
X171896001Y-121256565D01*
X171912654Y-121370168D01*
X171915182Y-121519621D01*
X171902434Y-121672294D01*
X171885637Y-121756955D01*
X171815642Y-121864457D01*
X171703867Y-121909082D01*
X171589903Y-121875845D01*
X171583974Y-121871143D01*
X171546502Y-121796500D01*
X171521191Y-121665416D01*
X171509147Y-121509640D01*
X171511478Y-121360922D01*
X171529292Y-121251010D01*
X171560966Y-121211447D01*
X171610439Y-121177908D01*
X171611868Y-121167603D01*
X171569937Y-121141872D01*
X171496490Y-121145816D01*
G36*
X160788407Y-122472665D02*
G01*
X160769784Y-122584100D01*
X160796140Y-122702533D01*
X160884313Y-122757320D01*
X160999869Y-122784307D01*
X161058720Y-122780660D01*
X161092162Y-122755468D01*
X161117440Y-122683919D01*
X161126096Y-122583246D01*
X161101377Y-122471433D01*
X161013339Y-122423424D01*
X161009646Y-122422697D01*
X160863316Y-122415653D01*
X160788407Y-122472665D01*
G37*
X160788407Y-122472665D02*
X160769784Y-122584100D01*
X160796140Y-122702533D01*
X160884313Y-122757320D01*
X160999869Y-122784307D01*
X161058720Y-122780660D01*
X161092162Y-122755468D01*
X161117440Y-122683919D01*
X161126096Y-122583246D01*
X161101377Y-122471433D01*
X161013339Y-122423424D01*
X161009646Y-122422697D01*
X160863316Y-122415653D01*
X160788407Y-122472665D01*
G36*
X159230735Y-122973608D02*
G01*
X159123268Y-123057060D01*
X159113161Y-123067049D01*
X159059061Y-123127272D01*
X159023328Y-123193132D01*
X159002175Y-123286055D01*
X158991814Y-123427466D01*
X158988457Y-123638791D01*
X158988221Y-123773737D01*
X158986944Y-124025430D01*
X158981098Y-124193424D01*
X158967652Y-124295813D01*
X158943580Y-124350690D01*
X158905855Y-124376148D01*
X158886417Y-124382107D01*
X158803802Y-124426948D01*
X158784613Y-124464397D01*
X158832993Y-124496632D01*
X158969213Y-124515722D01*
X159115475Y-124520064D01*
X159301061Y-124514966D01*
X159404210Y-124496753D01*
X159443914Y-124461039D01*
X159446337Y-124443711D01*
X159418851Y-124375973D01*
X159395435Y-124367358D01*
X159372112Y-124318828D01*
X159355152Y-124182473D01*
X159345879Y-123972148D01*
X159344533Y-123834680D01*
X159346581Y-123591910D01*
X159354833Y-123431310D01*
X159372453Y-123333294D01*
X159402604Y-123278273D01*
X159438694Y-123251609D01*
X159541744Y-123232281D01*
X159679763Y-123280299D01*
X159705928Y-123293892D01*
X159879002Y-123386569D01*
X159893764Y-123861075D01*
X159897855Y-124093791D01*
X159891111Y-124244345D01*
X159871167Y-124332024D01*
X159835653Y-124376118D01*
X159830137Y-124379450D01*
X159755937Y-124440953D01*
X159780112Y-124485695D01*
X159900423Y-124512427D01*
X160082609Y-124520064D01*
X160274203Y-124511924D01*
X160387666Y-124489005D01*
X160413471Y-124464397D01*
X160370976Y-124408109D01*
X160311668Y-124382107D01*
X160267607Y-124363266D01*
X160238456Y-124322129D01*
X160221170Y-124240565D01*
X160212702Y-124100442D01*
X160210008Y-123883629D01*
X160209864Y-123776051D01*
X160211046Y-123525812D01*
X160216553Y-123360106D01*
X160229329Y-123261674D01*
X160252316Y-123213253D01*
X160288459Y-123197584D01*
X160308663Y-123196617D01*
X160404899Y-123175011D01*
X160436657Y-123149380D01*
X160435506Y-123110646D01*
X160369884Y-123076069D01*
X160225634Y-123040095D01*
X160095335Y-123015510D01*
X159971182Y-122999017D01*
X159917319Y-123019478D01*
X159904617Y-123091943D01*
X159904453Y-123114129D01*
X159904453Y-123246578D01*
X159657040Y-123094343D01*
X159471433Y-122990935D01*
X159338061Y-122951128D01*
X159230735Y-122973608D01*
G37*
X159230735Y-122973608D02*
X159123268Y-123057060D01*
X159113161Y-123067049D01*
X159059061Y-123127272D01*
X159023328Y-123193132D01*
X159002175Y-123286055D01*
X158991814Y-123427466D01*
X158988457Y-123638791D01*
X158988221Y-123773737D01*
X158986944Y-124025430D01*
X158981098Y-124193424D01*
X158967652Y-124295813D01*
X158943580Y-124350690D01*
X158905855Y-124376148D01*
X158886417Y-124382107D01*
X158803802Y-124426948D01*
X158784613Y-124464397D01*
X158832993Y-124496632D01*
X158969213Y-124515722D01*
X159115475Y-124520064D01*
X159301061Y-124514966D01*
X159404210Y-124496753D01*
X159443914Y-124461039D01*
X159446337Y-124443711D01*
X159418851Y-124375973D01*
X159395435Y-124367358D01*
X159372112Y-124318828D01*
X159355152Y-124182473D01*
X159345879Y-123972148D01*
X159344533Y-123834680D01*
X159346581Y-123591910D01*
X159354833Y-123431310D01*
X159372453Y-123333294D01*
X159402604Y-123278273D01*
X159438694Y-123251609D01*
X159541744Y-123232281D01*
X159679763Y-123280299D01*
X159705928Y-123293892D01*
X159879002Y-123386569D01*
X159893764Y-123861075D01*
X159897855Y-124093791D01*
X159891111Y-124244345D01*
X159871167Y-124332024D01*
X159835653Y-124376118D01*
X159830137Y-124379450D01*
X159755937Y-124440953D01*
X159780112Y-124485695D01*
X159900423Y-124512427D01*
X160082609Y-124520064D01*
X160274203Y-124511924D01*
X160387666Y-124489005D01*
X160413471Y-124464397D01*
X160370976Y-124408109D01*
X160311668Y-124382107D01*
X160267607Y-124363266D01*
X160238456Y-124322129D01*
X160221170Y-124240565D01*
X160212702Y-124100442D01*
X160210008Y-123883629D01*
X160209864Y-123776051D01*
X160211046Y-123525812D01*
X160216553Y-123360106D01*
X160229329Y-123261674D01*
X160252316Y-123213253D01*
X160288459Y-123197584D01*
X160308663Y-123196617D01*
X160404899Y-123175011D01*
X160436657Y-123149380D01*
X160435506Y-123110646D01*
X160369884Y-123076069D01*
X160225634Y-123040095D01*
X160095335Y-123015510D01*
X159971182Y-122999017D01*
X159917319Y-123019478D01*
X159904617Y-123091943D01*
X159904453Y-123114129D01*
X159904453Y-123246578D01*
X159657040Y-123094343D01*
X159471433Y-122990935D01*
X159338061Y-122951128D01*
X159230735Y-122973608D01*
G36*
X160828072Y-123013197D02*
G01*
X160791119Y-123085697D01*
X160774337Y-123222369D01*
X160769839Y-123436627D01*
X160769784Y-123674247D01*
X160768950Y-123949396D01*
X160764768Y-124139458D01*
X160754718Y-124261147D01*
X160736280Y-124331175D01*
X160706935Y-124366256D01*
X160664162Y-124383104D01*
X160662859Y-124383446D01*
X160592068Y-124425653D01*
X160589510Y-124465736D01*
X160652936Y-124494592D01*
X160780485Y-124512634D01*
X160941626Y-124519920D01*
X161105827Y-124516503D01*
X161242556Y-124502440D01*
X161321280Y-124477784D01*
X161329704Y-124464397D01*
X161287209Y-124408109D01*
X161227900Y-124382107D01*
X161183839Y-124363266D01*
X161154689Y-124322129D01*
X161137402Y-124240565D01*
X161128935Y-124100442D01*
X161126240Y-123883629D01*
X161126096Y-123776051D01*
X161127196Y-123526037D01*
X161132524Y-123360511D01*
X161145120Y-123262164D01*
X161168026Y-123213688D01*
X161204282Y-123197773D01*
X161227900Y-123196617D01*
X161316576Y-123179484D01*
X161319788Y-123137682D01*
X161246081Y-123085604D01*
X161138822Y-123046588D01*
X160994036Y-123007056D01*
X160893082Y-122991454D01*
X160828072Y-123013197D01*
G37*
X160828072Y-123013197D02*
X160791119Y-123085697D01*
X160774337Y-123222369D01*
X160769839Y-123436627D01*
X160769784Y-123674247D01*
X160768950Y-123949396D01*
X160764768Y-124139458D01*
X160754718Y-124261147D01*
X160736280Y-124331175D01*
X160706935Y-124366256D01*
X160664162Y-124383104D01*
X160662859Y-124383446D01*
X160592068Y-124425653D01*
X160589510Y-124465736D01*
X160652936Y-124494592D01*
X160780485Y-124512634D01*
X160941626Y-124519920D01*
X161105827Y-124516503D01*
X161242556Y-124502440D01*
X161321280Y-124477784D01*
X161329704Y-124464397D01*
X161287209Y-124408109D01*
X161227900Y-124382107D01*
X161183839Y-124363266D01*
X161154689Y-124322129D01*
X161137402Y-124240565D01*
X161128935Y-124100442D01*
X161126240Y-123883629D01*
X161126096Y-123776051D01*
X161127196Y-123526037D01*
X161132524Y-123360511D01*
X161145120Y-123262164D01*
X161168026Y-123213688D01*
X161204282Y-123197773D01*
X161227900Y-123196617D01*
X161316576Y-123179484D01*
X161319788Y-123137682D01*
X161246081Y-123085604D01*
X161138822Y-123046588D01*
X160994036Y-123007056D01*
X160893082Y-122991454D01*
X160828072Y-123013197D01*
G36*
X161774157Y-122392332D02*
G01*
X161729228Y-122437355D01*
X161702754Y-122534915D01*
X161689923Y-122696496D01*
X161685924Y-122933580D01*
X161685945Y-123257651D01*
X161686016Y-123368836D01*
X161685537Y-123709022D01*
X161683183Y-123961096D01*
X161677577Y-124138751D01*
X161667346Y-124255679D01*
X161651112Y-124325569D01*
X161627501Y-124362115D01*
X161595136Y-124379007D01*
X161584213Y-124382107D01*
X161501598Y-124426948D01*
X161482409Y-124464397D01*
X161531160Y-124496106D01*
X161669989Y-124515137D01*
X161838722Y-124520064D01*
X162028496Y-124513049D01*
X162153548Y-124493879D01*
X162195034Y-124467564D01*
X162154357Y-124405579D01*
X162118682Y-124385766D01*
X162090364Y-124360122D01*
X162069811Y-124299111D01*
X162055877Y-124189106D01*
X162047419Y-124016480D01*
X162043290Y-123767607D01*
X162042329Y-123477068D01*
X162042730Y-123158918D01*
X162045161Y-122927840D01*
X162051465Y-122769103D01*
X162063484Y-122667977D01*
X162083062Y-122609728D01*
X162112041Y-122579628D01*
X162152263Y-122562944D01*
X162156858Y-122561483D01*
X162218232Y-122535759D01*
X162206121Y-122510023D01*
X162109829Y-122471806D01*
X162067780Y-122457654D01*
X161938621Y-122413965D01*
X161842351Y-122388363D01*
X161774157Y-122392332D01*
G37*
X161774157Y-122392332D02*
X161729228Y-122437355D01*
X161702754Y-122534915D01*
X161689923Y-122696496D01*
X161685924Y-122933580D01*
X161685945Y-123257651D01*
X161686016Y-123368836D01*
X161685537Y-123709022D01*
X161683183Y-123961096D01*
X161677577Y-124138751D01*
X161667346Y-124255679D01*
X161651112Y-124325569D01*
X161627501Y-124362115D01*
X161595136Y-124379007D01*
X161584213Y-124382107D01*
X161501598Y-124426948D01*
X161482409Y-124464397D01*
X161531160Y-124496106D01*
X161669989Y-124515137D01*
X161838722Y-124520064D01*
X162028496Y-124513049D01*
X162153548Y-124493879D01*
X162195034Y-124467564D01*
X162154357Y-124405579D01*
X162118682Y-124385766D01*
X162090364Y-124360122D01*
X162069811Y-124299111D01*
X162055877Y-124189106D01*
X162047419Y-124016480D01*
X162043290Y-123767607D01*
X162042329Y-123477068D01*
X162042730Y-123158918D01*
X162045161Y-122927840D01*
X162051465Y-122769103D01*
X162063484Y-122667977D01*
X162083062Y-122609728D01*
X162112041Y-122579628D01*
X162152263Y-122562944D01*
X162156858Y-122561483D01*
X162218232Y-122535759D01*
X162206121Y-122510023D01*
X162109829Y-122471806D01*
X162067780Y-122457654D01*
X161938621Y-122413965D01*
X161842351Y-122388363D01*
X161774157Y-122392332D01*
G36*
X163703116Y-123015532D02*
G01*
X163671187Y-123065199D01*
X163703863Y-123215789D01*
X163796867Y-123291388D01*
X163849406Y-123298420D01*
X163959172Y-123332056D01*
X164089017Y-123415809D01*
X164123920Y-123446097D01*
X164205009Y-123528568D01*
X164252267Y-123607573D01*
X164274776Y-123713632D01*
X164281620Y-123877268D01*
X164282008Y-123977341D01*
X164282008Y-124360908D01*
X164116577Y-124376859D01*
X163984542Y-124399171D01*
X163944403Y-124427971D01*
X163986886Y-124458427D01*
X164102714Y-124485708D01*
X164282612Y-124504986D01*
X164371086Y-124509397D01*
X164605020Y-124511647D01*
X164743303Y-124498100D01*
X164790934Y-124468246D01*
X164791026Y-124466455D01*
X164748508Y-124408482D01*
X164689223Y-124382107D01*
X164645162Y-124363266D01*
X164616011Y-124322129D01*
X164598725Y-124240565D01*
X164590257Y-124100442D01*
X164587563Y-123883629D01*
X164587419Y-123776051D01*
X164588519Y-123526037D01*
X164593847Y-123360511D01*
X164606443Y-123262164D01*
X164629348Y-123213688D01*
X164665605Y-123197773D01*
X164689223Y-123196617D01*
X164777899Y-123179484D01*
X164781111Y-123137682D01*
X164707404Y-123085604D01*
X164600145Y-123046588D01*
X164431813Y-123005438D01*
X164336802Y-123007695D01*
X164291824Y-123064664D01*
X164273589Y-123187651D01*
X164272210Y-123205780D01*
X164256557Y-123418550D01*
X164109655Y-123205780D01*
X164000224Y-123068929D01*
X163901968Y-123005219D01*
X163816969Y-122993010D01*
X163703116Y-123015532D01*
G37*
X163703116Y-123015532D02*
X163671187Y-123065199D01*
X163703863Y-123215789D01*
X163796867Y-123291388D01*
X163849406Y-123298420D01*
X163959172Y-123332056D01*
X164089017Y-123415809D01*
X164123920Y-123446097D01*
X164205009Y-123528568D01*
X164252267Y-123607573D01*
X164274776Y-123713632D01*
X164281620Y-123877268D01*
X164282008Y-123977341D01*
X164282008Y-124360908D01*
X164116577Y-124376859D01*
X163984542Y-124399171D01*
X163944403Y-124427971D01*
X163986886Y-124458427D01*
X164102714Y-124485708D01*
X164282612Y-124504986D01*
X164371086Y-124509397D01*
X164605020Y-124511647D01*
X164743303Y-124498100D01*
X164790934Y-124468246D01*
X164791026Y-124466455D01*
X164748508Y-124408482D01*
X164689223Y-124382107D01*
X164645162Y-124363266D01*
X164616011Y-124322129D01*
X164598725Y-124240565D01*
X164590257Y-124100442D01*
X164587563Y-123883629D01*
X164587419Y-123776051D01*
X164588519Y-123526037D01*
X164593847Y-123360511D01*
X164606443Y-123262164D01*
X164629348Y-123213688D01*
X164665605Y-123197773D01*
X164689223Y-123196617D01*
X164777899Y-123179484D01*
X164781111Y-123137682D01*
X164707404Y-123085604D01*
X164600145Y-123046588D01*
X164431813Y-123005438D01*
X164336802Y-123007695D01*
X164291824Y-123064664D01*
X164273589Y-123187651D01*
X164272210Y-123205780D01*
X164256557Y-123418550D01*
X164109655Y-123205780D01*
X164000224Y-123068929D01*
X163901968Y-123005219D01*
X163816969Y-122993010D01*
X163703116Y-123015532D01*
G36*
X170088975Y-122406085D02*
G01*
X170082203Y-122409253D01*
X170058857Y-122471196D01*
X170041715Y-122607242D01*
X170034044Y-122789735D01*
X170033912Y-122817857D01*
X170030637Y-122999553D01*
X170021979Y-123133651D01*
X170009689Y-123195173D01*
X170007370Y-123196617D01*
X169952853Y-123170922D01*
X169844872Y-123105767D01*
X169781397Y-123064640D01*
X169592255Y-122977722D01*
X169416159Y-122964897D01*
X169276215Y-123024893D01*
X169219060Y-123095604D01*
X169198808Y-123182690D01*
X169182431Y-123346845D01*
X169171771Y-123563355D01*
X169168581Y-123772704D01*
X169167310Y-124024654D01*
X169161481Y-124192889D01*
X169148075Y-124295483D01*
X169124074Y-124350515D01*
X169086456Y-124376059D01*
X169066778Y-124382107D01*
X168984163Y-124426948D01*
X168964974Y-124464397D01*
X169013354Y-124496632D01*
X169149574Y-124515722D01*
X169295836Y-124520064D01*
X169483735Y-124509967D01*
X169599355Y-124482888D01*
X169633563Y-124443649D01*
X169577222Y-124397069D01*
X169550345Y-124385766D01*
X169513756Y-124350960D01*
X169490512Y-124268814D01*
X169478107Y-124121974D01*
X169474039Y-123893082D01*
X169473992Y-123856530D01*
X169480126Y-123574926D01*
X169502762Y-123383728D01*
X169548255Y-123272046D01*
X169622959Y-123228988D01*
X169733227Y-123243665D01*
X169814116Y-123273559D01*
X169934853Y-123322126D01*
X170007970Y-123348009D01*
X170014677Y-123349322D01*
X170022752Y-123396631D01*
X170029157Y-123524190D01*
X170033079Y-123710451D01*
X170033912Y-123858340D01*
X170029073Y-124094805D01*
X170015532Y-124265765D01*
X169994758Y-124356554D01*
X169983010Y-124367358D01*
X169937851Y-124408587D01*
X169932108Y-124443711D01*
X169954197Y-124486538D01*
X170033124Y-124510342D01*
X170187881Y-124519505D01*
X170262970Y-124520064D01*
X170454564Y-124511924D01*
X170568026Y-124489005D01*
X170593832Y-124464397D01*
X170551337Y-124408109D01*
X170492028Y-124382107D01*
X170455244Y-124367412D01*
X170428572Y-124335827D01*
X170410393Y-124272857D01*
X170399088Y-124164006D01*
X170393039Y-123994779D01*
X170390626Y-123750680D01*
X170390225Y-123470640D01*
X170390738Y-123151320D01*
X170393355Y-122919740D01*
X170399694Y-122761840D01*
X170411373Y-122663558D01*
X170430010Y-122610832D01*
X170457223Y-122589600D01*
X170492028Y-122585795D01*
X170574780Y-122566986D01*
X170593832Y-122540936D01*
X170549413Y-122502871D01*
X170440381Y-122461001D01*
X170303073Y-122424678D01*
X170173825Y-122403255D01*
X170088975Y-122406085D01*
G37*
X170088975Y-122406085D02*
X170082203Y-122409253D01*
X170058857Y-122471196D01*
X170041715Y-122607242D01*
X170034044Y-122789735D01*
X170033912Y-122817857D01*
X170030637Y-122999553D01*
X170021979Y-123133651D01*
X170009689Y-123195173D01*
X170007370Y-123196617D01*
X169952853Y-123170922D01*
X169844872Y-123105767D01*
X169781397Y-123064640D01*
X169592255Y-122977722D01*
X169416159Y-122964897D01*
X169276215Y-123024893D01*
X169219060Y-123095604D01*
X169198808Y-123182690D01*
X169182431Y-123346845D01*
X169171771Y-123563355D01*
X169168581Y-123772704D01*
X169167310Y-124024654D01*
X169161481Y-124192889D01*
X169148075Y-124295483D01*
X169124074Y-124350515D01*
X169086456Y-124376059D01*
X169066778Y-124382107D01*
X168984163Y-124426948D01*
X168964974Y-124464397D01*
X169013354Y-124496632D01*
X169149574Y-124515722D01*
X169295836Y-124520064D01*
X169483735Y-124509967D01*
X169599355Y-124482888D01*
X169633563Y-124443649D01*
X169577222Y-124397069D01*
X169550345Y-124385766D01*
X169513756Y-124350960D01*
X169490512Y-124268814D01*
X169478107Y-124121974D01*
X169474039Y-123893082D01*
X169473992Y-123856530D01*
X169480126Y-123574926D01*
X169502762Y-123383728D01*
X169548255Y-123272046D01*
X169622959Y-123228988D01*
X169733227Y-123243665D01*
X169814116Y-123273559D01*
X169934853Y-123322126D01*
X170007970Y-123348009D01*
X170014677Y-123349322D01*
X170022752Y-123396631D01*
X170029157Y-123524190D01*
X170033079Y-123710451D01*
X170033912Y-123858340D01*
X170029073Y-124094805D01*
X170015532Y-124265765D01*
X169994758Y-124356554D01*
X169983010Y-124367358D01*
X169937851Y-124408587D01*
X169932108Y-124443711D01*
X169954197Y-124486538D01*
X170033124Y-124510342D01*
X170187881Y-124519505D01*
X170262970Y-124520064D01*
X170454564Y-124511924D01*
X170568026Y-124489005D01*
X170593832Y-124464397D01*
X170551337Y-124408109D01*
X170492028Y-124382107D01*
X170455244Y-124367412D01*
X170428572Y-124335827D01*
X170410393Y-124272857D01*
X170399088Y-124164006D01*
X170393039Y-123994779D01*
X170390626Y-123750680D01*
X170390225Y-123470640D01*
X170390738Y-123151320D01*
X170393355Y-122919740D01*
X170399694Y-122761840D01*
X170411373Y-122663558D01*
X170430010Y-122610832D01*
X170457223Y-122589600D01*
X170492028Y-122585795D01*
X170574780Y-122566986D01*
X170593832Y-122540936D01*
X170549413Y-122502871D01*
X170440381Y-122461001D01*
X170303073Y-122424678D01*
X170173825Y-122403255D01*
X170088975Y-122406085D01*
G36*
X157911060Y-122961691D02*
G01*
X157856685Y-122974531D01*
X157740704Y-123024105D01*
X157658955Y-123105988D01*
X157605990Y-123235991D01*
X157576360Y-123429928D01*
X157564618Y-123703612D01*
X157563721Y-123824929D01*
X157561970Y-124069141D01*
X157555314Y-124230166D01*
X157540455Y-124326607D01*
X157514095Y-124377068D01*
X157472937Y-124400153D01*
X157461167Y-124403511D01*
X157371954Y-124449344D01*
X157376072Y-124497367D01*
X157470604Y-124520724D01*
X157473892Y-124520759D01*
X157622233Y-124535258D01*
X157700642Y-124551543D01*
X157789437Y-124553905D01*
X157836865Y-124482075D01*
X157846140Y-124449044D01*
X157875275Y-124355226D01*
X157915254Y-124326173D01*
X157990084Y-124361385D01*
X158101964Y-124443711D01*
X158225746Y-124532180D01*
X158311163Y-124563199D01*
X158398956Y-124543399D01*
X158479203Y-124505098D01*
X158627138Y-124384213D01*
X158699362Y-124224106D01*
X158687369Y-124082487D01*
X158377399Y-124082487D01*
X158343284Y-124234972D01*
X158248539Y-124309769D01*
X158104564Y-124301133D01*
X158017740Y-124263764D01*
X157958964Y-124192038D01*
X157923568Y-124075017D01*
X157914266Y-123948249D01*
X157933773Y-123847285D01*
X157982910Y-123807629D01*
X158082957Y-123836299D01*
X158205064Y-123905428D01*
X158313884Y-123990388D01*
X158374072Y-124066553D01*
X158377399Y-124082487D01*
X158687369Y-124082487D01*
X158684810Y-124052274D01*
X158672862Y-124023771D01*
X158608760Y-123934285D01*
X158497662Y-123861460D01*
X158314902Y-123789980D01*
X158275595Y-123777074D01*
X157944734Y-123670356D01*
X157944734Y-123171166D01*
X158120595Y-123171166D01*
X158246188Y-123184641D01*
X158306956Y-123239528D01*
X158326203Y-123298420D01*
X158375280Y-123395032D01*
X158482697Y-123437084D01*
X158519379Y-123441625D01*
X158632368Y-123442779D01*
X158676493Y-123401889D01*
X158682810Y-123332824D01*
X158668479Y-123259687D01*
X158612287Y-123197685D01*
X158494437Y-123130931D01*
X158352331Y-123067616D01*
X158158632Y-122991819D01*
X158022261Y-122958524D01*
X157911060Y-122961691D01*
G37*
X157911060Y-122961691D02*
X157856685Y-122974531D01*
X157740704Y-123024105D01*
X157658955Y-123105988D01*
X157605990Y-123235991D01*
X157576360Y-123429928D01*
X157564618Y-123703612D01*
X157563721Y-123824929D01*
X157561970Y-124069141D01*
X157555314Y-124230166D01*
X157540455Y-124326607D01*
X157514095Y-124377068D01*
X157472937Y-124400153D01*
X157461167Y-124403511D01*
X157371954Y-124449344D01*
X157376072Y-124497367D01*
X157470604Y-124520724D01*
X157473892Y-124520759D01*
X157622233Y-124535258D01*
X157700642Y-124551543D01*
X157789437Y-124553905D01*
X157836865Y-124482075D01*
X157846140Y-124449044D01*
X157875275Y-124355226D01*
X157915254Y-124326173D01*
X157990084Y-124361385D01*
X158101964Y-124443711D01*
X158225746Y-124532180D01*
X158311163Y-124563199D01*
X158398956Y-124543399D01*
X158479203Y-124505098D01*
X158627138Y-124384213D01*
X158699362Y-124224106D01*
X158687369Y-124082487D01*
X158377399Y-124082487D01*
X158343284Y-124234972D01*
X158248539Y-124309769D01*
X158104564Y-124301133D01*
X158017740Y-124263764D01*
X157958964Y-124192038D01*
X157923568Y-124075017D01*
X157914266Y-123948249D01*
X157933773Y-123847285D01*
X157982910Y-123807629D01*
X158082957Y-123836299D01*
X158205064Y-123905428D01*
X158313884Y-123990388D01*
X158374072Y-124066553D01*
X158377399Y-124082487D01*
X158687369Y-124082487D01*
X158684810Y-124052274D01*
X158672862Y-124023771D01*
X158608760Y-123934285D01*
X158497662Y-123861460D01*
X158314902Y-123789980D01*
X158275595Y-123777074D01*
X157944734Y-123670356D01*
X157944734Y-123171166D01*
X158120595Y-123171166D01*
X158246188Y-123184641D01*
X158306956Y-123239528D01*
X158326203Y-123298420D01*
X158375280Y-123395032D01*
X158482697Y-123437084D01*
X158519379Y-123441625D01*
X158632368Y-123442779D01*
X158676493Y-123401889D01*
X158682810Y-123332824D01*
X158668479Y-123259687D01*
X158612287Y-123197685D01*
X158494437Y-123130931D01*
X158352331Y-123067616D01*
X158158632Y-122991819D01*
X158022261Y-122958524D01*
X157911060Y-122961691D01*
G36*
X162784108Y-122962699D02*
G01*
X162676633Y-123008662D01*
X162642831Y-123027948D01*
X162500393Y-123138323D01*
X162370676Y-123280724D01*
X162356133Y-123301173D01*
X162285241Y-123426647D01*
X162254656Y-123555586D01*
X162255023Y-123732436D01*
X162257454Y-123769946D01*
X162306303Y-124041331D01*
X162416805Y-124243051D01*
X162600500Y-124394060D01*
X162656036Y-124424491D01*
X162870594Y-124517691D01*
X163039824Y-124546319D01*
X163194552Y-124513364D01*
X163260354Y-124483058D01*
X163475825Y-124318753D01*
X163613451Y-124094890D01*
X163668263Y-123823000D01*
X163663166Y-123757155D01*
X163313860Y-123757155D01*
X163277018Y-123983677D01*
X163237981Y-124096542D01*
X163128384Y-124291964D01*
X163005314Y-124392978D01*
X162874300Y-124397021D01*
X162757793Y-124319296D01*
X162663067Y-124166749D01*
X162614652Y-123964334D01*
X162609257Y-123737953D01*
X162643590Y-123513507D01*
X162714358Y-123316896D01*
X162818270Y-123174022D01*
X162910291Y-123119429D01*
X163048810Y-123119667D01*
X163164596Y-123201956D01*
X163251480Y-123347898D01*
X163303291Y-123539097D01*
X163313860Y-123757155D01*
X163663166Y-123757155D01*
X163649487Y-123580474D01*
X163564880Y-123378734D01*
X163403726Y-123194606D01*
X163191071Y-123052284D01*
X163043979Y-122995548D01*
X162890438Y-122959629D01*
X162784108Y-122962699D01*
G37*
X162784108Y-122962699D02*
X162676633Y-123008662D01*
X162642831Y-123027948D01*
X162500393Y-123138323D01*
X162370676Y-123280724D01*
X162356133Y-123301173D01*
X162285241Y-123426647D01*
X162254656Y-123555586D01*
X162255023Y-123732436D01*
X162257454Y-123769946D01*
X162306303Y-124041331D01*
X162416805Y-124243051D01*
X162600500Y-124394060D01*
X162656036Y-124424491D01*
X162870594Y-124517691D01*
X163039824Y-124546319D01*
X163194552Y-124513364D01*
X163260354Y-124483058D01*
X163475825Y-124318753D01*
X163613451Y-124094890D01*
X163668263Y-123823000D01*
X163663166Y-123757155D01*
X163313860Y-123757155D01*
X163277018Y-123983677D01*
X163237981Y-124096542D01*
X163128384Y-124291964D01*
X163005314Y-124392978D01*
X162874300Y-124397021D01*
X162757793Y-124319296D01*
X162663067Y-124166749D01*
X162614652Y-123964334D01*
X162609257Y-123737953D01*
X162643590Y-123513507D01*
X162714358Y-123316896D01*
X162818270Y-123174022D01*
X162910291Y-123119429D01*
X163048810Y-123119667D01*
X163164596Y-123201956D01*
X163251480Y-123347898D01*
X163303291Y-123539097D01*
X163313860Y-123757155D01*
X163663166Y-123757155D01*
X163649487Y-123580474D01*
X163564880Y-123378734D01*
X163403726Y-123194606D01*
X163191071Y-123052284D01*
X163043979Y-122995548D01*
X162890438Y-122959629D01*
X162784108Y-122962699D01*
G36*
X165416036Y-122966522D02*
G01*
X165290991Y-123003449D01*
X165202662Y-123070400D01*
X165145081Y-123182908D01*
X165112279Y-123356503D01*
X165098287Y-123606715D01*
X165096437Y-123798079D01*
X165095149Y-124049039D01*
X165089249Y-124216350D01*
X165075688Y-124318154D01*
X165051416Y-124372591D01*
X165013380Y-124397806D01*
X164994633Y-124403511D01*
X164905110Y-124443430D01*
X164911699Y-124485204D01*
X165009157Y-124521168D01*
X165083712Y-124533734D01*
X165258521Y-124526195D01*
X165371022Y-124443619D01*
X165416006Y-124350336D01*
X165462160Y-124345606D01*
X165558508Y-124395077D01*
X165613528Y-124433907D01*
X165741627Y-124524863D01*
X165829818Y-124560150D01*
X165915313Y-124550554D01*
X165961768Y-124534854D01*
X166122966Y-124430097D01*
X166206944Y-124272728D01*
X166215497Y-124194038D01*
X166204676Y-124089238D01*
X165890822Y-124089238D01*
X165880395Y-124208175D01*
X165857937Y-124242547D01*
X165746531Y-124310956D01*
X165599107Y-124286752D01*
X165551207Y-124263764D01*
X165479798Y-124188713D01*
X165453513Y-124049898D01*
X165452750Y-124009255D01*
X165455934Y-123875485D01*
X165482143Y-123820548D01*
X165556366Y-123830047D01*
X165678538Y-123879144D01*
X165819604Y-123971596D01*
X165890822Y-124089238D01*
X166204676Y-124089238D01*
X166200774Y-124051459D01*
X166145702Y-123949499D01*
X166031416Y-123869350D01*
X165839054Y-123792206D01*
X165798742Y-123778542D01*
X165478201Y-123671516D01*
X165478201Y-123171166D01*
X165656357Y-123171166D01*
X165778512Y-123181634D01*
X165833065Y-123229074D01*
X165850620Y-123311146D01*
X165879846Y-123412687D01*
X165957743Y-123448517D01*
X166016051Y-123451126D01*
X166123581Y-123436721D01*
X166162217Y-123375845D01*
X166165375Y-123323230D01*
X166149964Y-123244195D01*
X166089848Y-123178435D01*
X165964202Y-123107622D01*
X165872690Y-123065652D01*
X165647924Y-122982665D01*
X165475734Y-122959963D01*
X165416036Y-122966522D01*
G37*
X165416036Y-122966522D02*
X165290991Y-123003449D01*
X165202662Y-123070400D01*
X165145081Y-123182908D01*
X165112279Y-123356503D01*
X165098287Y-123606715D01*
X165096437Y-123798079D01*
X165095149Y-124049039D01*
X165089249Y-124216350D01*
X165075688Y-124318154D01*
X165051416Y-124372591D01*
X165013380Y-124397806D01*
X164994633Y-124403511D01*
X164905110Y-124443430D01*
X164911699Y-124485204D01*
X165009157Y-124521168D01*
X165083712Y-124533734D01*
X165258521Y-124526195D01*
X165371022Y-124443619D01*
X165416006Y-124350336D01*
X165462160Y-124345606D01*
X165558508Y-124395077D01*
X165613528Y-124433907D01*
X165741627Y-124524863D01*
X165829818Y-124560150D01*
X165915313Y-124550554D01*
X165961768Y-124534854D01*
X166122966Y-124430097D01*
X166206944Y-124272728D01*
X166215497Y-124194038D01*
X166204676Y-124089238D01*
X165890822Y-124089238D01*
X165880395Y-124208175D01*
X165857937Y-124242547D01*
X165746531Y-124310956D01*
X165599107Y-124286752D01*
X165551207Y-124263764D01*
X165479798Y-124188713D01*
X165453513Y-124049898D01*
X165452750Y-124009255D01*
X165455934Y-123875485D01*
X165482143Y-123820548D01*
X165556366Y-123830047D01*
X165678538Y-123879144D01*
X165819604Y-123971596D01*
X165890822Y-124089238D01*
X166204676Y-124089238D01*
X166200774Y-124051459D01*
X166145702Y-123949499D01*
X166031416Y-123869350D01*
X165839054Y-123792206D01*
X165798742Y-123778542D01*
X165478201Y-123671516D01*
X165478201Y-123171166D01*
X165656357Y-123171166D01*
X165778512Y-123181634D01*
X165833065Y-123229074D01*
X165850620Y-123311146D01*
X165879846Y-123412687D01*
X165957743Y-123448517D01*
X166016051Y-123451126D01*
X166123581Y-123436721D01*
X166162217Y-123375845D01*
X166165375Y-123323230D01*
X166149964Y-123244195D01*
X166089848Y-123178435D01*
X165964202Y-123107622D01*
X165872690Y-123065652D01*
X165647924Y-122982665D01*
X165475734Y-122959963D01*
X165416036Y-122966522D01*
G36*
X166847076Y-122382155D02*
G01*
X166610766Y-122455164D01*
X166490734Y-122521662D01*
X166435570Y-122594677D01*
X166420373Y-122715248D01*
X166419884Y-122769751D01*
X166427382Y-122911511D01*
X166457167Y-122977466D01*
X166516169Y-122993010D01*
X166606487Y-122946980D01*
X166644040Y-122867164D01*
X166736136Y-122685923D01*
X166900336Y-122573595D01*
X167129733Y-122534894D01*
X167130781Y-122534893D01*
X167366595Y-122569042D01*
X167542160Y-122674730D01*
X167660884Y-122856821D01*
X167726173Y-123120179D01*
X167742213Y-123407917D01*
X167712488Y-123764721D01*
X167626458Y-124040567D01*
X167485288Y-124233697D01*
X167290140Y-124342355D01*
X167107058Y-124367358D01*
X166881529Y-124331601D01*
X166722208Y-124220677D01*
X166623439Y-124036339D01*
X166554101Y-123900623D01*
X166466237Y-123858340D01*
X166406142Y-123870384D01*
X166385397Y-123924284D01*
X166395825Y-124046696D01*
X166399878Y-124074673D01*
X166438083Y-124233581D01*
X166510899Y-124342954D01*
X166640472Y-124423615D01*
X166848178Y-124496157D01*
X167064827Y-124550451D01*
X167232225Y-124562181D01*
X167393166Y-124532277D01*
X167463371Y-124509550D01*
X167743501Y-124361458D01*
X167956089Y-124142143D01*
X168093897Y-123862401D01*
X168149691Y-123533026D01*
X168150545Y-123484322D01*
X168138106Y-123288983D01*
X168106298Y-123108360D01*
X168081319Y-123029551D01*
X167926026Y-122782888D01*
X167702286Y-122585962D01*
X167432768Y-122447629D01*
X167140142Y-122376741D01*
X166847076Y-122382155D01*
G37*
X166847076Y-122382155D02*
X166610766Y-122455164D01*
X166490734Y-122521662D01*
X166435570Y-122594677D01*
X166420373Y-122715248D01*
X166419884Y-122769751D01*
X166427382Y-122911511D01*
X166457167Y-122977466D01*
X166516169Y-122993010D01*
X166606487Y-122946980D01*
X166644040Y-122867164D01*
X166736136Y-122685923D01*
X166900336Y-122573595D01*
X167129733Y-122534894D01*
X167130781Y-122534893D01*
X167366595Y-122569042D01*
X167542160Y-122674730D01*
X167660884Y-122856821D01*
X167726173Y-123120179D01*
X167742213Y-123407917D01*
X167712488Y-123764721D01*
X167626458Y-124040567D01*
X167485288Y-124233697D01*
X167290140Y-124342355D01*
X167107058Y-124367358D01*
X166881529Y-124331601D01*
X166722208Y-124220677D01*
X166623439Y-124036339D01*
X166554101Y-123900623D01*
X166466237Y-123858340D01*
X166406142Y-123870384D01*
X166385397Y-123924284D01*
X166395825Y-124046696D01*
X166399878Y-124074673D01*
X166438083Y-124233581D01*
X166510899Y-124342954D01*
X166640472Y-124423615D01*
X166848178Y-124496157D01*
X167064827Y-124550451D01*
X167232225Y-124562181D01*
X167393166Y-124532277D01*
X167463371Y-124509550D01*
X167743501Y-124361458D01*
X167956089Y-124142143D01*
X168093897Y-123862401D01*
X168149691Y-123533026D01*
X168150545Y-123484322D01*
X168138106Y-123288983D01*
X168106298Y-123108360D01*
X168081319Y-123029551D01*
X167926026Y-122782888D01*
X167702286Y-122585962D01*
X167432768Y-122447629D01*
X167140142Y-122376741D01*
X166847076Y-122382155D01*
G36*
X171070819Y-122682066D02*
G01*
X171052200Y-122797389D01*
X171051948Y-122814853D01*
X171044068Y-122934259D01*
X170999612Y-122983229D01*
X170887352Y-122992987D01*
X170873792Y-122993010D01*
X170742024Y-123009567D01*
X170695958Y-123062408D01*
X170695635Y-123069362D01*
X170734269Y-123125834D01*
X170857566Y-123145577D01*
X170873792Y-123145715D01*
X171051948Y-123145715D01*
X171051948Y-123673951D01*
X171045807Y-123954238D01*
X171024097Y-124145446D01*
X170981892Y-124259741D01*
X170914266Y-124309292D01*
X170816290Y-124306266D01*
X170797710Y-124301779D01*
X170713335Y-124301532D01*
X170697131Y-124348581D01*
X170743385Y-124420185D01*
X170845813Y-124493306D01*
X170972200Y-124552503D01*
X171060120Y-124563302D01*
X171159751Y-124527369D01*
X171204391Y-124505215D01*
X171279396Y-124451877D01*
X171332706Y-124369088D01*
X171368071Y-124240488D01*
X171389243Y-124049713D01*
X171399970Y-123780404D01*
X171402238Y-123642008D01*
X171406530Y-123413669D01*
X171415403Y-123268501D01*
X171432905Y-123187874D01*
X171463084Y-123153156D01*
X171509987Y-123145715D01*
X171510064Y-123145715D01*
X171596772Y-123123262D01*
X171599762Y-123070559D01*
X171522699Y-123009589D01*
X171484613Y-122993010D01*
X171389948Y-122933765D01*
X171357359Y-122874904D01*
X171318078Y-122783905D01*
X171228381Y-122691602D01*
X171130488Y-122638911D01*
X171111567Y-122636697D01*
X171070819Y-122682066D01*
G37*
X171070819Y-122682066D02*
X171052200Y-122797389D01*
X171051948Y-122814853D01*
X171044068Y-122934259D01*
X170999612Y-122983229D01*
X170887352Y-122992987D01*
X170873792Y-122993010D01*
X170742024Y-123009567D01*
X170695958Y-123062408D01*
X170695635Y-123069362D01*
X170734269Y-123125834D01*
X170857566Y-123145577D01*
X170873792Y-123145715D01*
X171051948Y-123145715D01*
X171051948Y-123673951D01*
X171045807Y-123954238D01*
X171024097Y-124145446D01*
X170981892Y-124259741D01*
X170914266Y-124309292D01*
X170816290Y-124306266D01*
X170797710Y-124301779D01*
X170713335Y-124301532D01*
X170697131Y-124348581D01*
X170743385Y-124420185D01*
X170845813Y-124493306D01*
X170972200Y-124552503D01*
X171060120Y-124563302D01*
X171159751Y-124527369D01*
X171204391Y-124505215D01*
X171279396Y-124451877D01*
X171332706Y-124369088D01*
X171368071Y-124240488D01*
X171389243Y-124049713D01*
X171399970Y-123780404D01*
X171402238Y-123642008D01*
X171406530Y-123413669D01*
X171415403Y-123268501D01*
X171432905Y-123187874D01*
X171463084Y-123153156D01*
X171509987Y-123145715D01*
X171510064Y-123145715D01*
X171596772Y-123123262D01*
X171599762Y-123070559D01*
X171522699Y-123009589D01*
X171484613Y-122993010D01*
X171389948Y-122933765D01*
X171357359Y-122874904D01*
X171318078Y-122783905D01*
X171228381Y-122691602D01*
X171130488Y-122638911D01*
X171111567Y-122636697D01*
X171070819Y-122682066D01*
G36*
X171815475Y-123620986D02*
G01*
X171814246Y-123888459D01*
X171808808Y-124072092D01*
X171796532Y-124189834D01*
X171774791Y-124259636D01*
X171740958Y-124299449D01*
X171713672Y-124316457D01*
X171625358Y-124383384D01*
X171636368Y-124437739D01*
X171747562Y-124480944D01*
X171821774Y-124495677D01*
X171978168Y-124507716D01*
X172070982Y-124467008D01*
X172131041Y-124358904D01*
X172135462Y-124346599D01*
X172183819Y-124343925D01*
X172290803Y-124386392D01*
X172382545Y-124435677D01*
X172532818Y-124520047D01*
X172631739Y-124557700D01*
X172714551Y-124555447D01*
X172816497Y-124520096D01*
X172817458Y-124519708D01*
X172908907Y-124465239D01*
X172971893Y-124377045D01*
X173011122Y-124238310D01*
X173031295Y-124032222D01*
X173037116Y-123741965D01*
X173037118Y-123734432D01*
X173038380Y-123495121D01*
X173044430Y-123339660D01*
X173058665Y-123250103D01*
X173084482Y-123208506D01*
X173125276Y-123196926D01*
X173138922Y-123196617D01*
X173223542Y-123170409D01*
X173237648Y-123113749D01*
X173202549Y-123077323D01*
X173133101Y-123056406D01*
X173000610Y-123030196D01*
X172924201Y-123017879D01*
X172684028Y-122981934D01*
X172669692Y-123611019D01*
X172663045Y-123872990D01*
X172654817Y-124050357D01*
X172641380Y-124160295D01*
X172619109Y-124219983D01*
X172584377Y-124246598D01*
X172533556Y-124257319D01*
X172533229Y-124257365D01*
X172392617Y-124246666D01*
X172291446Y-124210587D01*
X172235277Y-124173799D01*
X172200108Y-124121877D01*
X172181059Y-124032834D01*
X172173246Y-123884682D01*
X172171788Y-123671583D01*
X172174598Y-123443423D01*
X172184871Y-123299781D01*
X172205367Y-123223479D01*
X172238848Y-123197341D01*
X172248141Y-123196617D01*
X172316729Y-123164326D01*
X172310071Y-123099609D01*
X172281462Y-123074226D01*
X172207589Y-123050067D01*
X172075392Y-123022062D01*
X172026953Y-123013815D01*
X171815475Y-122979998D01*
X171815475Y-123620986D01*
G37*
X171815475Y-123620986D02*
X171814246Y-123888459D01*
X171808808Y-124072092D01*
X171796532Y-124189834D01*
X171774791Y-124259636D01*
X171740958Y-124299449D01*
X171713672Y-124316457D01*
X171625358Y-124383384D01*
X171636368Y-124437739D01*
X171747562Y-124480944D01*
X171821774Y-124495677D01*
X171978168Y-124507716D01*
X172070982Y-124467008D01*
X172131041Y-124358904D01*
X172135462Y-124346599D01*
X172183819Y-124343925D01*
X172290803Y-124386392D01*
X172382545Y-124435677D01*
X172532818Y-124520047D01*
X172631739Y-124557700D01*
X172714551Y-124555447D01*
X172816497Y-124520096D01*
X172817458Y-124519708D01*
X172908907Y-124465239D01*
X172971893Y-124377045D01*
X173011122Y-124238310D01*
X173031295Y-124032222D01*
X173037116Y-123741965D01*
X173037118Y-123734432D01*
X173038380Y-123495121D01*
X173044430Y-123339660D01*
X173058665Y-123250103D01*
X173084482Y-123208506D01*
X173125276Y-123196926D01*
X173138922Y-123196617D01*
X173223542Y-123170409D01*
X173237648Y-123113749D01*
X173202549Y-123077323D01*
X173133101Y-123056406D01*
X173000610Y-123030196D01*
X172924201Y-123017879D01*
X172684028Y-122981934D01*
X172669692Y-123611019D01*
X172663045Y-123872990D01*
X172654817Y-124050357D01*
X172641380Y-124160295D01*
X172619109Y-124219983D01*
X172584377Y-124246598D01*
X172533556Y-124257319D01*
X172533229Y-124257365D01*
X172392617Y-124246666D01*
X172291446Y-124210587D01*
X172235277Y-124173799D01*
X172200108Y-124121877D01*
X172181059Y-124032834D01*
X172173246Y-123884682D01*
X172171788Y-123671583D01*
X172174598Y-123443423D01*
X172184871Y-123299781D01*
X172205367Y-123223479D01*
X172238848Y-123197341D01*
X172248141Y-123196617D01*
X172316729Y-123164326D01*
X172310071Y-123099609D01*
X172281462Y-123074226D01*
X172207589Y-123050067D01*
X172075392Y-123022062D01*
X172026953Y-123013815D01*
X171815475Y-122979998D01*
X171815475Y-123620986D01*
G36*
X173654045Y-123054116D02*
G01*
X173479744Y-123225029D01*
X173406157Y-123347382D01*
X173313137Y-123592151D01*
X173303628Y-123815191D01*
X173377169Y-124052325D01*
X173396511Y-124093760D01*
X173495628Y-124251348D01*
X173634436Y-124369188D01*
X173762818Y-124440693D01*
X173948432Y-124526401D01*
X174081466Y-124562201D01*
X174196802Y-124550279D01*
X174329323Y-124492821D01*
X174357427Y-124477954D01*
X174545973Y-124321357D01*
X174668509Y-124096990D01*
X174716505Y-123821108D01*
X174716878Y-123792979D01*
X174697904Y-123663233D01*
X174360565Y-123663233D01*
X174338776Y-123925178D01*
X174279310Y-124141782D01*
X174191020Y-124301976D01*
X174082760Y-124394691D01*
X173963383Y-124408860D01*
X173841742Y-124333415D01*
X173832444Y-124323470D01*
X173722919Y-124134182D01*
X173671393Y-123894983D01*
X173677765Y-123639561D01*
X173741933Y-123401602D01*
X173835689Y-123245401D01*
X173974517Y-123129315D01*
X174105607Y-123107128D01*
X174219059Y-123170957D01*
X174304971Y-123312921D01*
X174353442Y-123525138D01*
X174360565Y-123663233D01*
X174697904Y-123663233D01*
X174674018Y-123499903D01*
X174547491Y-123264093D01*
X174340374Y-123089528D01*
X174096426Y-122990416D01*
X173862623Y-122974351D01*
X173654045Y-123054116D01*
G37*
X173654045Y-123054116D02*
X173479744Y-123225029D01*
X173406157Y-123347382D01*
X173313137Y-123592151D01*
X173303628Y-123815191D01*
X173377169Y-124052325D01*
X173396511Y-124093760D01*
X173495628Y-124251348D01*
X173634436Y-124369188D01*
X173762818Y-124440693D01*
X173948432Y-124526401D01*
X174081466Y-124562201D01*
X174196802Y-124550279D01*
X174329323Y-124492821D01*
X174357427Y-124477954D01*
X174545973Y-124321357D01*
X174668509Y-124096990D01*
X174716505Y-123821108D01*
X174716878Y-123792979D01*
X174697904Y-123663233D01*
X174360565Y-123663233D01*
X174338776Y-123925178D01*
X174279310Y-124141782D01*
X174191020Y-124301976D01*
X174082760Y-124394691D01*
X173963383Y-124408860D01*
X173841742Y-124333415D01*
X173832444Y-124323470D01*
X173722919Y-124134182D01*
X173671393Y-123894983D01*
X173677765Y-123639561D01*
X173741933Y-123401602D01*
X173835689Y-123245401D01*
X173974517Y-123129315D01*
X174105607Y-123107128D01*
X174219059Y-123170957D01*
X174304971Y-123312921D01*
X174353442Y-123525138D01*
X174360565Y-123663233D01*
X174697904Y-123663233D01*
X174674018Y-123499903D01*
X174547491Y-123264093D01*
X174340374Y-123089528D01*
X174096426Y-122990416D01*
X173862623Y-122974351D01*
X173654045Y-123054116D01*
G36*
X175187720Y-122427753D02*
G01*
X175083442Y-122481343D01*
X175035551Y-122551538D01*
X175022587Y-122676147D01*
X175022289Y-122719225D01*
X175041295Y-122866781D01*
X175087556Y-122941998D01*
X175144937Y-122936550D01*
X175197302Y-122842110D01*
X175205292Y-122813666D01*
X175284961Y-122673226D01*
X175423422Y-122576490D01*
X175590252Y-122530606D01*
X175755031Y-122542723D01*
X175887338Y-122619990D01*
X175910184Y-122648023D01*
X175976533Y-122790979D01*
X175960195Y-122921665D01*
X175856217Y-123047004D01*
X175659650Y-123173916D01*
X175468553Y-123265536D01*
X175212413Y-123395737D01*
X175044366Y-123528150D01*
X174951438Y-123677181D01*
X174920652Y-123857238D01*
X174920485Y-123874045D01*
X174943664Y-124065268D01*
X175023322Y-124208097D01*
X175040746Y-124227747D01*
X175272002Y-124411287D01*
X175542733Y-124519821D01*
X175826423Y-124546302D01*
X176059424Y-124498488D01*
X176213053Y-124435139D01*
X176297549Y-124367709D01*
X176341009Y-124261940D01*
X176365280Y-124125575D01*
X176381271Y-123990521D01*
X176366773Y-123927916D01*
X176309583Y-123910060D01*
X176269985Y-123909242D01*
X176165882Y-123936674D01*
X176142128Y-123989510D01*
X176108239Y-124074253D01*
X176023852Y-124186346D01*
X175993339Y-124218568D01*
X175825338Y-124334921D01*
X175648157Y-124375935D01*
X175484057Y-124347510D01*
X175355301Y-124255548D01*
X175284150Y-124105949D01*
X175276798Y-124028636D01*
X175311084Y-123880947D01*
X175420539Y-123747534D01*
X175615060Y-123618820D01*
X175786329Y-123535569D01*
X176049093Y-123393192D01*
X176216842Y-123239408D01*
X176296280Y-123067008D01*
X176305014Y-122977750D01*
X176281456Y-122785593D01*
X176199001Y-122642570D01*
X176039977Y-122523646D01*
X175952109Y-122477770D01*
X175652930Y-122376791D01*
X175370283Y-122374553D01*
X175187720Y-122427753D01*
G37*
X175187720Y-122427753D02*
X175083442Y-122481343D01*
X175035551Y-122551538D01*
X175022587Y-122676147D01*
X175022289Y-122719225D01*
X175041295Y-122866781D01*
X175087556Y-122941998D01*
X175144937Y-122936550D01*
X175197302Y-122842110D01*
X175205292Y-122813666D01*
X175284961Y-122673226D01*
X175423422Y-122576490D01*
X175590252Y-122530606D01*
X175755031Y-122542723D01*
X175887338Y-122619990D01*
X175910184Y-122648023D01*
X175976533Y-122790979D01*
X175960195Y-122921665D01*
X175856217Y-123047004D01*
X175659650Y-123173916D01*
X175468553Y-123265536D01*
X175212413Y-123395737D01*
X175044366Y-123528150D01*
X174951438Y-123677181D01*
X174920652Y-123857238D01*
X174920485Y-123874045D01*
X174943664Y-124065268D01*
X175023322Y-124208097D01*
X175040746Y-124227747D01*
X175272002Y-124411287D01*
X175542733Y-124519821D01*
X175826423Y-124546302D01*
X176059424Y-124498488D01*
X176213053Y-124435139D01*
X176297549Y-124367709D01*
X176341009Y-124261940D01*
X176365280Y-124125575D01*
X176381271Y-123990521D01*
X176366773Y-123927916D01*
X176309583Y-123910060D01*
X176269985Y-123909242D01*
X176165882Y-123936674D01*
X176142128Y-123989510D01*
X176108239Y-124074253D01*
X176023852Y-124186346D01*
X175993339Y-124218568D01*
X175825338Y-124334921D01*
X175648157Y-124375935D01*
X175484057Y-124347510D01*
X175355301Y-124255548D01*
X175284150Y-124105949D01*
X175276798Y-124028636D01*
X175311084Y-123880947D01*
X175420539Y-123747534D01*
X175615060Y-123618820D01*
X175786329Y-123535569D01*
X176049093Y-123393192D01*
X176216842Y-123239408D01*
X176296280Y-123067008D01*
X176305014Y-122977750D01*
X176281456Y-122785593D01*
X176199001Y-122642570D01*
X176039977Y-122523646D01*
X175952109Y-122477770D01*
X175652930Y-122376791D01*
X175370283Y-122374553D01*
X175187720Y-122427753D01*
D10*
%TO.C,nRF24L01+1*%
X144081500Y-97726500D02*
X173291500Y-97726500D01*
X144081500Y-112966500D02*
X144081500Y-97726500D01*
X173291500Y-112966500D02*
X144081500Y-112966500D01*
X173291500Y-97726500D02*
X173291500Y-112966500D01*
%TO.C,MICRO SD*%
D12*
X152122619Y-88399880D02*
X152122619Y-87399880D01*
X152455952Y-88114166D01*
X152789285Y-87399880D01*
X152789285Y-88399880D01*
X153265476Y-88399880D02*
X153265476Y-87399880D01*
X154313095Y-88304642D02*
X154265476Y-88352261D01*
X154122619Y-88399880D01*
X154027380Y-88399880D01*
X153884523Y-88352261D01*
X153789285Y-88257023D01*
X153741666Y-88161785D01*
X153694047Y-87971309D01*
X153694047Y-87828452D01*
X153741666Y-87637976D01*
X153789285Y-87542738D01*
X153884523Y-87447500D01*
X154027380Y-87399880D01*
X154122619Y-87399880D01*
X154265476Y-87447500D01*
X154313095Y-87495119D01*
X155313095Y-88399880D02*
X154979761Y-87923690D01*
X154741666Y-88399880D02*
X154741666Y-87399880D01*
X155122619Y-87399880D01*
X155217857Y-87447500D01*
X155265476Y-87495119D01*
X155313095Y-87590357D01*
X155313095Y-87733214D01*
X155265476Y-87828452D01*
X155217857Y-87876071D01*
X155122619Y-87923690D01*
X154741666Y-87923690D01*
X155932142Y-87399880D02*
X156122619Y-87399880D01*
X156217857Y-87447500D01*
X156313095Y-87542738D01*
X156360714Y-87733214D01*
X156360714Y-88066547D01*
X156313095Y-88257023D01*
X156217857Y-88352261D01*
X156122619Y-88399880D01*
X155932142Y-88399880D01*
X155836904Y-88352261D01*
X155741666Y-88257023D01*
X155694047Y-88066547D01*
X155694047Y-87733214D01*
X155741666Y-87542738D01*
X155836904Y-87447500D01*
X155932142Y-87399880D01*
X157503571Y-88352261D02*
X157646428Y-88399880D01*
X157884523Y-88399880D01*
X157979761Y-88352261D01*
X158027380Y-88304642D01*
X158075000Y-88209404D01*
X158075000Y-88114166D01*
X158027380Y-88018928D01*
X157979761Y-87971309D01*
X157884523Y-87923690D01*
X157694047Y-87876071D01*
X157598809Y-87828452D01*
X157551190Y-87780833D01*
X157503571Y-87685595D01*
X157503571Y-87590357D01*
X157551190Y-87495119D01*
X157598809Y-87447500D01*
X157694047Y-87399880D01*
X157932142Y-87399880D01*
X158075000Y-87447500D01*
X158503571Y-88399880D02*
X158503571Y-87399880D01*
X158741666Y-87399880D01*
X158884523Y-87447500D01*
X158979761Y-87542738D01*
X159027380Y-87637976D01*
X159075000Y-87828452D01*
X159075000Y-87971309D01*
X159027380Y-88161785D01*
X158979761Y-88257023D01*
X158884523Y-88352261D01*
X158741666Y-88399880D01*
X158503571Y-88399880D01*
X147717071Y-92590880D02*
X147717071Y-91590880D01*
X148050404Y-92305166D01*
X148383738Y-91590880D01*
X148383738Y-92590880D01*
X148859928Y-92590880D02*
X148859928Y-91590880D01*
X149288500Y-92543261D02*
X149431357Y-92590880D01*
X149669452Y-92590880D01*
X149764690Y-92543261D01*
X149812309Y-92495642D01*
X149859928Y-92400404D01*
X149859928Y-92305166D01*
X149812309Y-92209928D01*
X149764690Y-92162309D01*
X149669452Y-92114690D01*
X149478976Y-92067071D01*
X149383738Y-92019452D01*
X149336119Y-91971833D01*
X149288500Y-91876595D01*
X149288500Y-91781357D01*
X149336119Y-91686119D01*
X149383738Y-91638500D01*
X149478976Y-91590880D01*
X149717071Y-91590880D01*
X149859928Y-91638500D01*
X150478976Y-91590880D02*
X150669452Y-91590880D01*
X150764690Y-91638500D01*
X150859928Y-91733738D01*
X150907547Y-91924214D01*
X150907547Y-92257547D01*
X150859928Y-92448023D01*
X150764690Y-92543261D01*
X150669452Y-92590880D01*
X150478976Y-92590880D01*
X150383738Y-92543261D01*
X150288500Y-92448023D01*
X150240880Y-92257547D01*
X150240880Y-91924214D01*
X150288500Y-91733738D01*
X150383738Y-91638500D01*
X150478976Y-91590880D01*
X149121833Y-84875642D02*
X149074214Y-84923261D01*
X148931357Y-84970880D01*
X148836119Y-84970880D01*
X148693261Y-84923261D01*
X148598023Y-84828023D01*
X148550404Y-84732785D01*
X148502785Y-84542309D01*
X148502785Y-84399452D01*
X148550404Y-84208976D01*
X148598023Y-84113738D01*
X148693261Y-84018500D01*
X148836119Y-83970880D01*
X148931357Y-83970880D01*
X149074214Y-84018500D01*
X149121833Y-84066119D01*
X149502785Y-84923261D02*
X149645642Y-84970880D01*
X149883738Y-84970880D01*
X149978976Y-84923261D01*
X150026595Y-84875642D01*
X150074214Y-84780404D01*
X150074214Y-84685166D01*
X150026595Y-84589928D01*
X149978976Y-84542309D01*
X149883738Y-84494690D01*
X149693261Y-84447071D01*
X149598023Y-84399452D01*
X149550404Y-84351833D01*
X149502785Y-84256595D01*
X149502785Y-84161357D01*
X149550404Y-84066119D01*
X149598023Y-84018500D01*
X149693261Y-83970880D01*
X149931357Y-83970880D01*
X150074214Y-84018500D01*
X147717071Y-87510880D02*
X147717071Y-86510880D01*
X148050404Y-87225166D01*
X148383738Y-86510880D01*
X148383738Y-87510880D01*
X149050404Y-86510880D02*
X149240880Y-86510880D01*
X149336119Y-86558500D01*
X149431357Y-86653738D01*
X149478976Y-86844214D01*
X149478976Y-87177547D01*
X149431357Y-87368023D01*
X149336119Y-87463261D01*
X149240880Y-87510880D01*
X149050404Y-87510880D01*
X148955166Y-87463261D01*
X148859928Y-87368023D01*
X148812309Y-87177547D01*
X148812309Y-86844214D01*
X148859928Y-86653738D01*
X148955166Y-86558500D01*
X149050404Y-86510880D01*
X149859928Y-87463261D02*
X150002785Y-87510880D01*
X150240880Y-87510880D01*
X150336119Y-87463261D01*
X150383738Y-87415642D01*
X150431357Y-87320404D01*
X150431357Y-87225166D01*
X150383738Y-87129928D01*
X150336119Y-87082309D01*
X150240880Y-87034690D01*
X150050404Y-86987071D01*
X149955166Y-86939452D01*
X149907547Y-86891833D01*
X149859928Y-86796595D01*
X149859928Y-86701357D01*
X149907547Y-86606119D01*
X149955166Y-86558500D01*
X150050404Y-86510880D01*
X150288500Y-86510880D01*
X150431357Y-86558500D01*
X150859928Y-87510880D02*
X150859928Y-86510880D01*
X147812309Y-81430880D02*
X148431357Y-81430880D01*
X148098023Y-81811833D01*
X148240880Y-81811833D01*
X148336119Y-81859452D01*
X148383738Y-81907071D01*
X148431357Y-82002309D01*
X148431357Y-82240404D01*
X148383738Y-82335642D01*
X148336119Y-82383261D01*
X148240880Y-82430880D01*
X147955166Y-82430880D01*
X147859928Y-82383261D01*
X147812309Y-82335642D01*
X148859928Y-82335642D02*
X148907547Y-82383261D01*
X148859928Y-82430880D01*
X148812309Y-82383261D01*
X148859928Y-82335642D01*
X148859928Y-82430880D01*
X149240880Y-81430880D02*
X149859928Y-81430880D01*
X149526595Y-81811833D01*
X149669452Y-81811833D01*
X149764690Y-81859452D01*
X149812309Y-81907071D01*
X149859928Y-82002309D01*
X149859928Y-82240404D01*
X149812309Y-82335642D01*
X149764690Y-82383261D01*
X149669452Y-82430880D01*
X149383738Y-82430880D01*
X149288500Y-82383261D01*
X149240880Y-82335642D01*
X150145642Y-81430880D02*
X150478976Y-82430880D01*
X150812309Y-81430880D01*
X148002785Y-90003261D02*
X148145642Y-90050880D01*
X148383738Y-90050880D01*
X148478976Y-90003261D01*
X148526595Y-89955642D01*
X148574214Y-89860404D01*
X148574214Y-89765166D01*
X148526595Y-89669928D01*
X148478976Y-89622309D01*
X148383738Y-89574690D01*
X148193261Y-89527071D01*
X148098023Y-89479452D01*
X148050404Y-89431833D01*
X148002785Y-89336595D01*
X148002785Y-89241357D01*
X148050404Y-89146119D01*
X148098023Y-89098500D01*
X148193261Y-89050880D01*
X148431357Y-89050880D01*
X148574214Y-89098500D01*
X149574214Y-89955642D02*
X149526595Y-90003261D01*
X149383738Y-90050880D01*
X149288500Y-90050880D01*
X149145642Y-90003261D01*
X149050404Y-89908023D01*
X149002785Y-89812785D01*
X148955166Y-89622309D01*
X148955166Y-89479452D01*
X149002785Y-89288976D01*
X149050404Y-89193738D01*
X149145642Y-89098500D01*
X149288500Y-89050880D01*
X149383738Y-89050880D01*
X149526595Y-89098500D01*
X149574214Y-89146119D01*
X150002785Y-90050880D02*
X150002785Y-89050880D01*
X150574214Y-90050880D02*
X150145642Y-89479452D01*
X150574214Y-89050880D02*
X150002785Y-89622309D01*
X148526595Y-94178500D02*
X148431357Y-94130880D01*
X148288500Y-94130880D01*
X148145642Y-94178500D01*
X148050404Y-94273738D01*
X148002785Y-94368976D01*
X147955166Y-94559452D01*
X147955166Y-94702309D01*
X148002785Y-94892785D01*
X148050404Y-94988023D01*
X148145642Y-95083261D01*
X148288500Y-95130880D01*
X148383738Y-95130880D01*
X148526595Y-95083261D01*
X148574214Y-95035642D01*
X148574214Y-94702309D01*
X148383738Y-94702309D01*
X149002785Y-95130880D02*
X149002785Y-94130880D01*
X149574214Y-95130880D01*
X149574214Y-94130880D01*
X150050404Y-95130880D02*
X150050404Y-94130880D01*
X150288500Y-94130880D01*
X150431357Y-94178500D01*
X150526595Y-94273738D01*
X150574214Y-94368976D01*
X150621833Y-94559452D01*
X150621833Y-94702309D01*
X150574214Y-94892785D01*
X150526595Y-94988023D01*
X150431357Y-95083261D01*
X150288500Y-95130880D01*
X150050404Y-95130880D01*
%TO.C,nRF24L01+1*%
X158520380Y-105132214D02*
X158520380Y-105798880D01*
X158520380Y-105227452D02*
X158568000Y-105179833D01*
X158663238Y-105132214D01*
X158806095Y-105132214D01*
X158901333Y-105179833D01*
X158948952Y-105275071D01*
X158948952Y-105798880D01*
X159996571Y-105798880D02*
X159663238Y-105322690D01*
X159425142Y-105798880D02*
X159425142Y-104798880D01*
X159806095Y-104798880D01*
X159901333Y-104846500D01*
X159948952Y-104894119D01*
X159996571Y-104989357D01*
X159996571Y-105132214D01*
X159948952Y-105227452D01*
X159901333Y-105275071D01*
X159806095Y-105322690D01*
X159425142Y-105322690D01*
X160758476Y-105275071D02*
X160425142Y-105275071D01*
X160425142Y-105798880D02*
X160425142Y-104798880D01*
X160901333Y-104798880D01*
X161234666Y-104894119D02*
X161282285Y-104846500D01*
X161377523Y-104798880D01*
X161615619Y-104798880D01*
X161710857Y-104846500D01*
X161758476Y-104894119D01*
X161806095Y-104989357D01*
X161806095Y-105084595D01*
X161758476Y-105227452D01*
X161187047Y-105798880D01*
X161806095Y-105798880D01*
X162663238Y-105132214D02*
X162663238Y-105798880D01*
X162425142Y-104751261D02*
X162187047Y-105465547D01*
X162806095Y-105465547D01*
X163663238Y-105798880D02*
X163187047Y-105798880D01*
X163187047Y-104798880D01*
X164187047Y-104798880D02*
X164282285Y-104798880D01*
X164377523Y-104846500D01*
X164425142Y-104894119D01*
X164472761Y-104989357D01*
X164520380Y-105179833D01*
X164520380Y-105417928D01*
X164472761Y-105608404D01*
X164425142Y-105703642D01*
X164377523Y-105751261D01*
X164282285Y-105798880D01*
X164187047Y-105798880D01*
X164091809Y-105751261D01*
X164044190Y-105703642D01*
X163996571Y-105608404D01*
X163948952Y-105417928D01*
X163948952Y-105179833D01*
X163996571Y-104989357D01*
X164044190Y-104894119D01*
X164091809Y-104846500D01*
X164187047Y-104798880D01*
X165472761Y-105798880D02*
X164901333Y-105798880D01*
X165187047Y-105798880D02*
X165187047Y-104798880D01*
X165091809Y-104941738D01*
X164996571Y-105036976D01*
X164901333Y-105084595D01*
X165901333Y-105417928D02*
X166663238Y-105417928D01*
X166282285Y-105798880D02*
X166282285Y-105036976D01*
X167663238Y-105798880D02*
X167091809Y-105798880D01*
X167377523Y-105798880D02*
X167377523Y-104798880D01*
X167282285Y-104941738D01*
X167187047Y-105036976D01*
X167091809Y-105084595D01*
%TD*%
M02*
