%TF.GenerationSoftware,KiCad,Pcbnew,(5.1.6)-1*%
%TF.CreationDate,2021-01-10T13:28:57-05:00*%
%TF.ProjectId,main_board,6d61696e-5f62-46f6-9172-642e6b696361,rev?*%
%TF.SameCoordinates,Original*%
%TF.FileFunction,Legend,Bot*%
%TF.FilePolarity,Positive*%
%FSLAX46Y46*%
G04 Gerber Fmt 4.6, Leading zero omitted, Abs format (unit mm)*
G04 Created by KiCad (PCBNEW (5.1.6)-1) date 2021-01-10 13:28:57*
%MOMM*%
%LPD*%
G01*
G04 APERTURE LIST*
%ADD10C,0.150000*%
%ADD11C,0.010000*%
%ADD12C,0.050000*%
%ADD13C,0.120000*%
G04 APERTURE END LIST*
D10*
X167742857Y-127452380D02*
X167742857Y-126452380D01*
X167504761Y-126452380D01*
X167361904Y-126500000D01*
X167266666Y-126595238D01*
X167219047Y-126690476D01*
X167171428Y-126880952D01*
X167171428Y-127023809D01*
X167219047Y-127214285D01*
X167266666Y-127309523D01*
X167361904Y-127404761D01*
X167504761Y-127452380D01*
X167742857Y-127452380D01*
X166790476Y-127404761D02*
X166647619Y-127452380D01*
X166409523Y-127452380D01*
X166314285Y-127404761D01*
X166266666Y-127357142D01*
X166219047Y-127261904D01*
X166219047Y-127166666D01*
X166266666Y-127071428D01*
X166314285Y-127023809D01*
X166409523Y-126976190D01*
X166600000Y-126928571D01*
X166695238Y-126880952D01*
X166742857Y-126833333D01*
X166790476Y-126738095D01*
X166790476Y-126642857D01*
X166742857Y-126547619D01*
X166695238Y-126500000D01*
X166600000Y-126452380D01*
X166361904Y-126452380D01*
X166219047Y-126500000D01*
X165885714Y-126452380D02*
X165266666Y-126452380D01*
X165600000Y-126833333D01*
X165457142Y-126833333D01*
X165361904Y-126880952D01*
X165314285Y-126928571D01*
X165266666Y-127023809D01*
X165266666Y-127261904D01*
X165314285Y-127357142D01*
X165361904Y-127404761D01*
X165457142Y-127452380D01*
X165742857Y-127452380D01*
X165838095Y-127404761D01*
X165885714Y-127357142D01*
X164885714Y-126547619D02*
X164838095Y-126500000D01*
X164742857Y-126452380D01*
X164504761Y-126452380D01*
X164409523Y-126500000D01*
X164361904Y-126547619D01*
X164314285Y-126642857D01*
X164314285Y-126738095D01*
X164361904Y-126880952D01*
X164933333Y-127452380D01*
X164314285Y-127452380D01*
X163980952Y-126452380D02*
X163361904Y-126452380D01*
X163695238Y-126833333D01*
X163552380Y-126833333D01*
X163457142Y-126880952D01*
X163409523Y-126928571D01*
X163361904Y-127023809D01*
X163361904Y-127261904D01*
X163409523Y-127357142D01*
X163457142Y-127404761D01*
X163552380Y-127452380D01*
X163838095Y-127452380D01*
X163933333Y-127404761D01*
X163980952Y-127357142D01*
X162409523Y-127452380D02*
X162980952Y-127452380D01*
X162695238Y-127452380D02*
X162695238Y-126452380D01*
X162790476Y-126595238D01*
X162885714Y-126690476D01*
X162980952Y-126738095D01*
D11*
%TO.C,G\u002A\u002A\u002A*%
G36*
X163503720Y-142493753D02*
G01*
X163399442Y-142547343D01*
X163351551Y-142617538D01*
X163338587Y-142742147D01*
X163338289Y-142785225D01*
X163357295Y-142932781D01*
X163403556Y-143007998D01*
X163460937Y-143002550D01*
X163513302Y-142908110D01*
X163521292Y-142879666D01*
X163600961Y-142739226D01*
X163739422Y-142642490D01*
X163906252Y-142596606D01*
X164071031Y-142608723D01*
X164203338Y-142685990D01*
X164226184Y-142714023D01*
X164292533Y-142856979D01*
X164276195Y-142987665D01*
X164172217Y-143113004D01*
X163975650Y-143239916D01*
X163784553Y-143331536D01*
X163528413Y-143461737D01*
X163360366Y-143594150D01*
X163267438Y-143743181D01*
X163236652Y-143923238D01*
X163236485Y-143940045D01*
X163259664Y-144131268D01*
X163339322Y-144274097D01*
X163356746Y-144293747D01*
X163588002Y-144477287D01*
X163858733Y-144585821D01*
X164142423Y-144612302D01*
X164375424Y-144564488D01*
X164529053Y-144501139D01*
X164613549Y-144433709D01*
X164657009Y-144327940D01*
X164681280Y-144191575D01*
X164697271Y-144056521D01*
X164682773Y-143993916D01*
X164625583Y-143976060D01*
X164585985Y-143975242D01*
X164481882Y-144002674D01*
X164458128Y-144055510D01*
X164424239Y-144140253D01*
X164339852Y-144252346D01*
X164309339Y-144284568D01*
X164141338Y-144400921D01*
X163964157Y-144441935D01*
X163800057Y-144413510D01*
X163671301Y-144321548D01*
X163600150Y-144171949D01*
X163592798Y-144094636D01*
X163627084Y-143946947D01*
X163736539Y-143813534D01*
X163931060Y-143684820D01*
X164102329Y-143601569D01*
X164365093Y-143459192D01*
X164532842Y-143305408D01*
X164612280Y-143133008D01*
X164621014Y-143043750D01*
X164597456Y-142851593D01*
X164515001Y-142708570D01*
X164355977Y-142589646D01*
X164268109Y-142543770D01*
X163968930Y-142442791D01*
X163686283Y-142440553D01*
X163503720Y-142493753D01*
G37*
X163503720Y-142493753D02*
X163399442Y-142547343D01*
X163351551Y-142617538D01*
X163338587Y-142742147D01*
X163338289Y-142785225D01*
X163357295Y-142932781D01*
X163403556Y-143007998D01*
X163460937Y-143002550D01*
X163513302Y-142908110D01*
X163521292Y-142879666D01*
X163600961Y-142739226D01*
X163739422Y-142642490D01*
X163906252Y-142596606D01*
X164071031Y-142608723D01*
X164203338Y-142685990D01*
X164226184Y-142714023D01*
X164292533Y-142856979D01*
X164276195Y-142987665D01*
X164172217Y-143113004D01*
X163975650Y-143239916D01*
X163784553Y-143331536D01*
X163528413Y-143461737D01*
X163360366Y-143594150D01*
X163267438Y-143743181D01*
X163236652Y-143923238D01*
X163236485Y-143940045D01*
X163259664Y-144131268D01*
X163339322Y-144274097D01*
X163356746Y-144293747D01*
X163588002Y-144477287D01*
X163858733Y-144585821D01*
X164142423Y-144612302D01*
X164375424Y-144564488D01*
X164529053Y-144501139D01*
X164613549Y-144433709D01*
X164657009Y-144327940D01*
X164681280Y-144191575D01*
X164697271Y-144056521D01*
X164682773Y-143993916D01*
X164625583Y-143976060D01*
X164585985Y-143975242D01*
X164481882Y-144002674D01*
X164458128Y-144055510D01*
X164424239Y-144140253D01*
X164339852Y-144252346D01*
X164309339Y-144284568D01*
X164141338Y-144400921D01*
X163964157Y-144441935D01*
X163800057Y-144413510D01*
X163671301Y-144321548D01*
X163600150Y-144171949D01*
X163592798Y-144094636D01*
X163627084Y-143946947D01*
X163736539Y-143813534D01*
X163931060Y-143684820D01*
X164102329Y-143601569D01*
X164365093Y-143459192D01*
X164532842Y-143305408D01*
X164612280Y-143133008D01*
X164621014Y-143043750D01*
X164597456Y-142851593D01*
X164515001Y-142708570D01*
X164355977Y-142589646D01*
X164268109Y-142543770D01*
X163968930Y-142442791D01*
X163686283Y-142440553D01*
X163503720Y-142493753D01*
G36*
X161970045Y-143120116D02*
G01*
X161795744Y-143291029D01*
X161722157Y-143413382D01*
X161629137Y-143658151D01*
X161619628Y-143881191D01*
X161693169Y-144118325D01*
X161712511Y-144159760D01*
X161811628Y-144317348D01*
X161950436Y-144435188D01*
X162078818Y-144506693D01*
X162264432Y-144592401D01*
X162397466Y-144628201D01*
X162512802Y-144616279D01*
X162645323Y-144558821D01*
X162673427Y-144543954D01*
X162861973Y-144387357D01*
X162984509Y-144162990D01*
X163032505Y-143887108D01*
X163032878Y-143858979D01*
X163013904Y-143729233D01*
X162676565Y-143729233D01*
X162654776Y-143991178D01*
X162595310Y-144207782D01*
X162507020Y-144367976D01*
X162398760Y-144460691D01*
X162279383Y-144474860D01*
X162157742Y-144399415D01*
X162148444Y-144389470D01*
X162038919Y-144200182D01*
X161987393Y-143960983D01*
X161993765Y-143705561D01*
X162057933Y-143467602D01*
X162151689Y-143311401D01*
X162290517Y-143195315D01*
X162421607Y-143173128D01*
X162535059Y-143236957D01*
X162620971Y-143378921D01*
X162669442Y-143591138D01*
X162676565Y-143729233D01*
X163013904Y-143729233D01*
X162990018Y-143565903D01*
X162863491Y-143330093D01*
X162656374Y-143155528D01*
X162412426Y-143056416D01*
X162178623Y-143040351D01*
X161970045Y-143120116D01*
G37*
X161970045Y-143120116D02*
X161795744Y-143291029D01*
X161722157Y-143413382D01*
X161629137Y-143658151D01*
X161619628Y-143881191D01*
X161693169Y-144118325D01*
X161712511Y-144159760D01*
X161811628Y-144317348D01*
X161950436Y-144435188D01*
X162078818Y-144506693D01*
X162264432Y-144592401D01*
X162397466Y-144628201D01*
X162512802Y-144616279D01*
X162645323Y-144558821D01*
X162673427Y-144543954D01*
X162861973Y-144387357D01*
X162984509Y-144162990D01*
X163032505Y-143887108D01*
X163032878Y-143858979D01*
X163013904Y-143729233D01*
X162676565Y-143729233D01*
X162654776Y-143991178D01*
X162595310Y-144207782D01*
X162507020Y-144367976D01*
X162398760Y-144460691D01*
X162279383Y-144474860D01*
X162157742Y-144399415D01*
X162148444Y-144389470D01*
X162038919Y-144200182D01*
X161987393Y-143960983D01*
X161993765Y-143705561D01*
X162057933Y-143467602D01*
X162151689Y-143311401D01*
X162290517Y-143195315D01*
X162421607Y-143173128D01*
X162535059Y-143236957D01*
X162620971Y-143378921D01*
X162669442Y-143591138D01*
X162676565Y-143729233D01*
X163013904Y-143729233D01*
X162990018Y-143565903D01*
X162863491Y-143330093D01*
X162656374Y-143155528D01*
X162412426Y-143056416D01*
X162178623Y-143040351D01*
X161970045Y-143120116D01*
G36*
X160131475Y-143686986D02*
G01*
X160130246Y-143954459D01*
X160124808Y-144138092D01*
X160112532Y-144255834D01*
X160090791Y-144325636D01*
X160056958Y-144365449D01*
X160029672Y-144382457D01*
X159941358Y-144449384D01*
X159952368Y-144503739D01*
X160063562Y-144546944D01*
X160137774Y-144561677D01*
X160294168Y-144573716D01*
X160386982Y-144533008D01*
X160447041Y-144424904D01*
X160451462Y-144412599D01*
X160499819Y-144409925D01*
X160606803Y-144452392D01*
X160698545Y-144501677D01*
X160848818Y-144586047D01*
X160947739Y-144623700D01*
X161030551Y-144621447D01*
X161132497Y-144586096D01*
X161133458Y-144585708D01*
X161224907Y-144531239D01*
X161287893Y-144443045D01*
X161327122Y-144304310D01*
X161347295Y-144098222D01*
X161353116Y-143807965D01*
X161353118Y-143800432D01*
X161354380Y-143561121D01*
X161360430Y-143405660D01*
X161374665Y-143316103D01*
X161400482Y-143274506D01*
X161441276Y-143262926D01*
X161454922Y-143262617D01*
X161539542Y-143236409D01*
X161553648Y-143179749D01*
X161518549Y-143143323D01*
X161449101Y-143122406D01*
X161316610Y-143096196D01*
X161240201Y-143083879D01*
X161000028Y-143047934D01*
X160985692Y-143677019D01*
X160979045Y-143938990D01*
X160970817Y-144116357D01*
X160957380Y-144226295D01*
X160935109Y-144285983D01*
X160900377Y-144312598D01*
X160849556Y-144323319D01*
X160849229Y-144323365D01*
X160708617Y-144312666D01*
X160607446Y-144276587D01*
X160551277Y-144239799D01*
X160516108Y-144187877D01*
X160497059Y-144098834D01*
X160489246Y-143950682D01*
X160487788Y-143737583D01*
X160490598Y-143509423D01*
X160500871Y-143365781D01*
X160521367Y-143289479D01*
X160554848Y-143263341D01*
X160564141Y-143262617D01*
X160632729Y-143230326D01*
X160626071Y-143165609D01*
X160597462Y-143140226D01*
X160523589Y-143116067D01*
X160391392Y-143088062D01*
X160342953Y-143079815D01*
X160131475Y-143045998D01*
X160131475Y-143686986D01*
G37*
X160131475Y-143686986D02*
X160130246Y-143954459D01*
X160124808Y-144138092D01*
X160112532Y-144255834D01*
X160090791Y-144325636D01*
X160056958Y-144365449D01*
X160029672Y-144382457D01*
X159941358Y-144449384D01*
X159952368Y-144503739D01*
X160063562Y-144546944D01*
X160137774Y-144561677D01*
X160294168Y-144573716D01*
X160386982Y-144533008D01*
X160447041Y-144424904D01*
X160451462Y-144412599D01*
X160499819Y-144409925D01*
X160606803Y-144452392D01*
X160698545Y-144501677D01*
X160848818Y-144586047D01*
X160947739Y-144623700D01*
X161030551Y-144621447D01*
X161132497Y-144586096D01*
X161133458Y-144585708D01*
X161224907Y-144531239D01*
X161287893Y-144443045D01*
X161327122Y-144304310D01*
X161347295Y-144098222D01*
X161353116Y-143807965D01*
X161353118Y-143800432D01*
X161354380Y-143561121D01*
X161360430Y-143405660D01*
X161374665Y-143316103D01*
X161400482Y-143274506D01*
X161441276Y-143262926D01*
X161454922Y-143262617D01*
X161539542Y-143236409D01*
X161553648Y-143179749D01*
X161518549Y-143143323D01*
X161449101Y-143122406D01*
X161316610Y-143096196D01*
X161240201Y-143083879D01*
X161000028Y-143047934D01*
X160985692Y-143677019D01*
X160979045Y-143938990D01*
X160970817Y-144116357D01*
X160957380Y-144226295D01*
X160935109Y-144285983D01*
X160900377Y-144312598D01*
X160849556Y-144323319D01*
X160849229Y-144323365D01*
X160708617Y-144312666D01*
X160607446Y-144276587D01*
X160551277Y-144239799D01*
X160516108Y-144187877D01*
X160497059Y-144098834D01*
X160489246Y-143950682D01*
X160487788Y-143737583D01*
X160490598Y-143509423D01*
X160500871Y-143365781D01*
X160521367Y-143289479D01*
X160554848Y-143263341D01*
X160564141Y-143262617D01*
X160632729Y-143230326D01*
X160626071Y-143165609D01*
X160597462Y-143140226D01*
X160523589Y-143116067D01*
X160391392Y-143088062D01*
X160342953Y-143079815D01*
X160131475Y-143045998D01*
X160131475Y-143686986D01*
G36*
X159386819Y-142748066D02*
G01*
X159368200Y-142863389D01*
X159367948Y-142880853D01*
X159360068Y-143000259D01*
X159315612Y-143049229D01*
X159203352Y-143058987D01*
X159189792Y-143059010D01*
X159058024Y-143075567D01*
X159011958Y-143128408D01*
X159011635Y-143135362D01*
X159050269Y-143191834D01*
X159173566Y-143211577D01*
X159189792Y-143211715D01*
X159367948Y-143211715D01*
X159367948Y-143739951D01*
X159361807Y-144020238D01*
X159340097Y-144211446D01*
X159297892Y-144325741D01*
X159230266Y-144375292D01*
X159132290Y-144372266D01*
X159113710Y-144367779D01*
X159029335Y-144367532D01*
X159013131Y-144414581D01*
X159059385Y-144486185D01*
X159161813Y-144559306D01*
X159288200Y-144618503D01*
X159376120Y-144629302D01*
X159475751Y-144593369D01*
X159520391Y-144571215D01*
X159595396Y-144517877D01*
X159648706Y-144435088D01*
X159684071Y-144306488D01*
X159705243Y-144115713D01*
X159715970Y-143846404D01*
X159718238Y-143708008D01*
X159722530Y-143479669D01*
X159731403Y-143334501D01*
X159748905Y-143253874D01*
X159779084Y-143219156D01*
X159825987Y-143211715D01*
X159826064Y-143211715D01*
X159912772Y-143189262D01*
X159915762Y-143136559D01*
X159838699Y-143075589D01*
X159800613Y-143059010D01*
X159705948Y-142999765D01*
X159673359Y-142940904D01*
X159634078Y-142849905D01*
X159544381Y-142757602D01*
X159446488Y-142704911D01*
X159427567Y-142702697D01*
X159386819Y-142748066D01*
G37*
X159386819Y-142748066D02*
X159368200Y-142863389D01*
X159367948Y-142880853D01*
X159360068Y-143000259D01*
X159315612Y-143049229D01*
X159203352Y-143058987D01*
X159189792Y-143059010D01*
X159058024Y-143075567D01*
X159011958Y-143128408D01*
X159011635Y-143135362D01*
X159050269Y-143191834D01*
X159173566Y-143211577D01*
X159189792Y-143211715D01*
X159367948Y-143211715D01*
X159367948Y-143739951D01*
X159361807Y-144020238D01*
X159340097Y-144211446D01*
X159297892Y-144325741D01*
X159230266Y-144375292D01*
X159132290Y-144372266D01*
X159113710Y-144367779D01*
X159029335Y-144367532D01*
X159013131Y-144414581D01*
X159059385Y-144486185D01*
X159161813Y-144559306D01*
X159288200Y-144618503D01*
X159376120Y-144629302D01*
X159475751Y-144593369D01*
X159520391Y-144571215D01*
X159595396Y-144517877D01*
X159648706Y-144435088D01*
X159684071Y-144306488D01*
X159705243Y-144115713D01*
X159715970Y-143846404D01*
X159718238Y-143708008D01*
X159722530Y-143479669D01*
X159731403Y-143334501D01*
X159748905Y-143253874D01*
X159779084Y-143219156D01*
X159825987Y-143211715D01*
X159826064Y-143211715D01*
X159912772Y-143189262D01*
X159915762Y-143136559D01*
X159838699Y-143075589D01*
X159800613Y-143059010D01*
X159705948Y-142999765D01*
X159673359Y-142940904D01*
X159634078Y-142849905D01*
X159544381Y-142757602D01*
X159446488Y-142704911D01*
X159427567Y-142702697D01*
X159386819Y-142748066D01*
G36*
X155163076Y-142448155D02*
G01*
X154926766Y-142521164D01*
X154806734Y-142587662D01*
X154751570Y-142660677D01*
X154736373Y-142781248D01*
X154735884Y-142835751D01*
X154743382Y-142977511D01*
X154773167Y-143043466D01*
X154832169Y-143059010D01*
X154922487Y-143012980D01*
X154960040Y-142933164D01*
X155052136Y-142751923D01*
X155216336Y-142639595D01*
X155445733Y-142600894D01*
X155446781Y-142600893D01*
X155682595Y-142635042D01*
X155858160Y-142740730D01*
X155976884Y-142922821D01*
X156042173Y-143186179D01*
X156058213Y-143473917D01*
X156028488Y-143830721D01*
X155942458Y-144106567D01*
X155801288Y-144299697D01*
X155606140Y-144408355D01*
X155423058Y-144433358D01*
X155197529Y-144397601D01*
X155038208Y-144286677D01*
X154939439Y-144102339D01*
X154870101Y-143966623D01*
X154782237Y-143924340D01*
X154722142Y-143936384D01*
X154701397Y-143990284D01*
X154711825Y-144112696D01*
X154715878Y-144140673D01*
X154754083Y-144299581D01*
X154826899Y-144408954D01*
X154956472Y-144489615D01*
X155164178Y-144562157D01*
X155380827Y-144616451D01*
X155548225Y-144628181D01*
X155709166Y-144598277D01*
X155779371Y-144575550D01*
X156059501Y-144427458D01*
X156272089Y-144208143D01*
X156409897Y-143928401D01*
X156465691Y-143599026D01*
X156466545Y-143550322D01*
X156454106Y-143354983D01*
X156422298Y-143174360D01*
X156397319Y-143095551D01*
X156242026Y-142848888D01*
X156018286Y-142651962D01*
X155748768Y-142513629D01*
X155456142Y-142442741D01*
X155163076Y-142448155D01*
G37*
X155163076Y-142448155D02*
X154926766Y-142521164D01*
X154806734Y-142587662D01*
X154751570Y-142660677D01*
X154736373Y-142781248D01*
X154735884Y-142835751D01*
X154743382Y-142977511D01*
X154773167Y-143043466D01*
X154832169Y-143059010D01*
X154922487Y-143012980D01*
X154960040Y-142933164D01*
X155052136Y-142751923D01*
X155216336Y-142639595D01*
X155445733Y-142600894D01*
X155446781Y-142600893D01*
X155682595Y-142635042D01*
X155858160Y-142740730D01*
X155976884Y-142922821D01*
X156042173Y-143186179D01*
X156058213Y-143473917D01*
X156028488Y-143830721D01*
X155942458Y-144106567D01*
X155801288Y-144299697D01*
X155606140Y-144408355D01*
X155423058Y-144433358D01*
X155197529Y-144397601D01*
X155038208Y-144286677D01*
X154939439Y-144102339D01*
X154870101Y-143966623D01*
X154782237Y-143924340D01*
X154722142Y-143936384D01*
X154701397Y-143990284D01*
X154711825Y-144112696D01*
X154715878Y-144140673D01*
X154754083Y-144299581D01*
X154826899Y-144408954D01*
X154956472Y-144489615D01*
X155164178Y-144562157D01*
X155380827Y-144616451D01*
X155548225Y-144628181D01*
X155709166Y-144598277D01*
X155779371Y-144575550D01*
X156059501Y-144427458D01*
X156272089Y-144208143D01*
X156409897Y-143928401D01*
X156465691Y-143599026D01*
X156466545Y-143550322D01*
X156454106Y-143354983D01*
X156422298Y-143174360D01*
X156397319Y-143095551D01*
X156242026Y-142848888D01*
X156018286Y-142651962D01*
X155748768Y-142513629D01*
X155456142Y-142442741D01*
X155163076Y-142448155D01*
G36*
X153732036Y-143032522D02*
G01*
X153606991Y-143069449D01*
X153518662Y-143136400D01*
X153461081Y-143248908D01*
X153428279Y-143422503D01*
X153414287Y-143672715D01*
X153412437Y-143864079D01*
X153411149Y-144115039D01*
X153405249Y-144282350D01*
X153391688Y-144384154D01*
X153367416Y-144438591D01*
X153329380Y-144463806D01*
X153310633Y-144469511D01*
X153221110Y-144509430D01*
X153227699Y-144551204D01*
X153325157Y-144587168D01*
X153399712Y-144599734D01*
X153574521Y-144592195D01*
X153687022Y-144509619D01*
X153732006Y-144416336D01*
X153778160Y-144411606D01*
X153874508Y-144461077D01*
X153929528Y-144499907D01*
X154057627Y-144590863D01*
X154145818Y-144626150D01*
X154231313Y-144616554D01*
X154277768Y-144600854D01*
X154438966Y-144496097D01*
X154522944Y-144338728D01*
X154531497Y-144260038D01*
X154520676Y-144155238D01*
X154206822Y-144155238D01*
X154196395Y-144274175D01*
X154173937Y-144308547D01*
X154062531Y-144376956D01*
X153915107Y-144352752D01*
X153867207Y-144329764D01*
X153795798Y-144254713D01*
X153769513Y-144115898D01*
X153768750Y-144075255D01*
X153771934Y-143941485D01*
X153798143Y-143886548D01*
X153872366Y-143896047D01*
X153994538Y-143945144D01*
X154135604Y-144037596D01*
X154206822Y-144155238D01*
X154520676Y-144155238D01*
X154516774Y-144117459D01*
X154461702Y-144015499D01*
X154347416Y-143935350D01*
X154155054Y-143858206D01*
X154114742Y-143844542D01*
X153794201Y-143737516D01*
X153794201Y-143237166D01*
X153972357Y-143237166D01*
X154094512Y-143247634D01*
X154149065Y-143295074D01*
X154166620Y-143377146D01*
X154195846Y-143478687D01*
X154273743Y-143514517D01*
X154332051Y-143517126D01*
X154439581Y-143502721D01*
X154478217Y-143441845D01*
X154481375Y-143389230D01*
X154465964Y-143310195D01*
X154405848Y-143244435D01*
X154280202Y-143173622D01*
X154188690Y-143131652D01*
X153963924Y-143048665D01*
X153791734Y-143025963D01*
X153732036Y-143032522D01*
G37*
X153732036Y-143032522D02*
X153606991Y-143069449D01*
X153518662Y-143136400D01*
X153461081Y-143248908D01*
X153428279Y-143422503D01*
X153414287Y-143672715D01*
X153412437Y-143864079D01*
X153411149Y-144115039D01*
X153405249Y-144282350D01*
X153391688Y-144384154D01*
X153367416Y-144438591D01*
X153329380Y-144463806D01*
X153310633Y-144469511D01*
X153221110Y-144509430D01*
X153227699Y-144551204D01*
X153325157Y-144587168D01*
X153399712Y-144599734D01*
X153574521Y-144592195D01*
X153687022Y-144509619D01*
X153732006Y-144416336D01*
X153778160Y-144411606D01*
X153874508Y-144461077D01*
X153929528Y-144499907D01*
X154057627Y-144590863D01*
X154145818Y-144626150D01*
X154231313Y-144616554D01*
X154277768Y-144600854D01*
X154438966Y-144496097D01*
X154522944Y-144338728D01*
X154531497Y-144260038D01*
X154520676Y-144155238D01*
X154206822Y-144155238D01*
X154196395Y-144274175D01*
X154173937Y-144308547D01*
X154062531Y-144376956D01*
X153915107Y-144352752D01*
X153867207Y-144329764D01*
X153795798Y-144254713D01*
X153769513Y-144115898D01*
X153768750Y-144075255D01*
X153771934Y-143941485D01*
X153798143Y-143886548D01*
X153872366Y-143896047D01*
X153994538Y-143945144D01*
X154135604Y-144037596D01*
X154206822Y-144155238D01*
X154520676Y-144155238D01*
X154516774Y-144117459D01*
X154461702Y-144015499D01*
X154347416Y-143935350D01*
X154155054Y-143858206D01*
X154114742Y-143844542D01*
X153794201Y-143737516D01*
X153794201Y-143237166D01*
X153972357Y-143237166D01*
X154094512Y-143247634D01*
X154149065Y-143295074D01*
X154166620Y-143377146D01*
X154195846Y-143478687D01*
X154273743Y-143514517D01*
X154332051Y-143517126D01*
X154439581Y-143502721D01*
X154478217Y-143441845D01*
X154481375Y-143389230D01*
X154465964Y-143310195D01*
X154405848Y-143244435D01*
X154280202Y-143173622D01*
X154188690Y-143131652D01*
X153963924Y-143048665D01*
X153791734Y-143025963D01*
X153732036Y-143032522D01*
G36*
X151100108Y-143028699D02*
G01*
X150992633Y-143074662D01*
X150958831Y-143093948D01*
X150816393Y-143204323D01*
X150686676Y-143346724D01*
X150672133Y-143367173D01*
X150601241Y-143492647D01*
X150570656Y-143621586D01*
X150571023Y-143798436D01*
X150573454Y-143835946D01*
X150622303Y-144107331D01*
X150732805Y-144309051D01*
X150916500Y-144460060D01*
X150972036Y-144490491D01*
X151186594Y-144583691D01*
X151355824Y-144612319D01*
X151510552Y-144579364D01*
X151576354Y-144549058D01*
X151791825Y-144384753D01*
X151929451Y-144160890D01*
X151984263Y-143889000D01*
X151979166Y-143823155D01*
X151629860Y-143823155D01*
X151593018Y-144049677D01*
X151553981Y-144162542D01*
X151444384Y-144357964D01*
X151321314Y-144458978D01*
X151190300Y-144463021D01*
X151073793Y-144385296D01*
X150979067Y-144232749D01*
X150930652Y-144030334D01*
X150925257Y-143803953D01*
X150959590Y-143579507D01*
X151030358Y-143382896D01*
X151134270Y-143240022D01*
X151226291Y-143185429D01*
X151364810Y-143185667D01*
X151480596Y-143267956D01*
X151567480Y-143413898D01*
X151619291Y-143605097D01*
X151629860Y-143823155D01*
X151979166Y-143823155D01*
X151965487Y-143646474D01*
X151880880Y-143444734D01*
X151719726Y-143260606D01*
X151507071Y-143118284D01*
X151359979Y-143061548D01*
X151206438Y-143025629D01*
X151100108Y-143028699D01*
G37*
X151100108Y-143028699D02*
X150992633Y-143074662D01*
X150958831Y-143093948D01*
X150816393Y-143204323D01*
X150686676Y-143346724D01*
X150672133Y-143367173D01*
X150601241Y-143492647D01*
X150570656Y-143621586D01*
X150571023Y-143798436D01*
X150573454Y-143835946D01*
X150622303Y-144107331D01*
X150732805Y-144309051D01*
X150916500Y-144460060D01*
X150972036Y-144490491D01*
X151186594Y-144583691D01*
X151355824Y-144612319D01*
X151510552Y-144579364D01*
X151576354Y-144549058D01*
X151791825Y-144384753D01*
X151929451Y-144160890D01*
X151984263Y-143889000D01*
X151979166Y-143823155D01*
X151629860Y-143823155D01*
X151593018Y-144049677D01*
X151553981Y-144162542D01*
X151444384Y-144357964D01*
X151321314Y-144458978D01*
X151190300Y-144463021D01*
X151073793Y-144385296D01*
X150979067Y-144232749D01*
X150930652Y-144030334D01*
X150925257Y-143803953D01*
X150959590Y-143579507D01*
X151030358Y-143382896D01*
X151134270Y-143240022D01*
X151226291Y-143185429D01*
X151364810Y-143185667D01*
X151480596Y-143267956D01*
X151567480Y-143413898D01*
X151619291Y-143605097D01*
X151629860Y-143823155D01*
X151979166Y-143823155D01*
X151965487Y-143646474D01*
X151880880Y-143444734D01*
X151719726Y-143260606D01*
X151507071Y-143118284D01*
X151359979Y-143061548D01*
X151206438Y-143025629D01*
X151100108Y-143028699D01*
G36*
X146227060Y-143027691D02*
G01*
X146172685Y-143040531D01*
X146056704Y-143090105D01*
X145974955Y-143171988D01*
X145921990Y-143301991D01*
X145892360Y-143495928D01*
X145880618Y-143769612D01*
X145879721Y-143890929D01*
X145877970Y-144135141D01*
X145871314Y-144296166D01*
X145856455Y-144392607D01*
X145830095Y-144443068D01*
X145788937Y-144466153D01*
X145777167Y-144469511D01*
X145687954Y-144515344D01*
X145692072Y-144563367D01*
X145786604Y-144586724D01*
X145789892Y-144586759D01*
X145938233Y-144601258D01*
X146016642Y-144617543D01*
X146105437Y-144619905D01*
X146152865Y-144548075D01*
X146162140Y-144515044D01*
X146191275Y-144421226D01*
X146231254Y-144392173D01*
X146306084Y-144427385D01*
X146417964Y-144509711D01*
X146541746Y-144598180D01*
X146627163Y-144629199D01*
X146714956Y-144609399D01*
X146795203Y-144571098D01*
X146943138Y-144450213D01*
X147015362Y-144290106D01*
X147003369Y-144148487D01*
X146693399Y-144148487D01*
X146659284Y-144300972D01*
X146564539Y-144375769D01*
X146420564Y-144367133D01*
X146333740Y-144329764D01*
X146274964Y-144258038D01*
X146239568Y-144141017D01*
X146230266Y-144014249D01*
X146249773Y-143913285D01*
X146298910Y-143873629D01*
X146398957Y-143902299D01*
X146521064Y-143971428D01*
X146629884Y-144056388D01*
X146690072Y-144132553D01*
X146693399Y-144148487D01*
X147003369Y-144148487D01*
X147000810Y-144118274D01*
X146988862Y-144089771D01*
X146924760Y-144000285D01*
X146813662Y-143927460D01*
X146630902Y-143855980D01*
X146591595Y-143843074D01*
X146260734Y-143736356D01*
X146260734Y-143237166D01*
X146436595Y-143237166D01*
X146562188Y-143250641D01*
X146622956Y-143305528D01*
X146642203Y-143364420D01*
X146691280Y-143461032D01*
X146798697Y-143503084D01*
X146835379Y-143507625D01*
X146948368Y-143508779D01*
X146992493Y-143467889D01*
X146998810Y-143398824D01*
X146984479Y-143325687D01*
X146928287Y-143263685D01*
X146810437Y-143196931D01*
X146668331Y-143133616D01*
X146474632Y-143057819D01*
X146338261Y-143024524D01*
X146227060Y-143027691D01*
G37*
X146227060Y-143027691D02*
X146172685Y-143040531D01*
X146056704Y-143090105D01*
X145974955Y-143171988D01*
X145921990Y-143301991D01*
X145892360Y-143495928D01*
X145880618Y-143769612D01*
X145879721Y-143890929D01*
X145877970Y-144135141D01*
X145871314Y-144296166D01*
X145856455Y-144392607D01*
X145830095Y-144443068D01*
X145788937Y-144466153D01*
X145777167Y-144469511D01*
X145687954Y-144515344D01*
X145692072Y-144563367D01*
X145786604Y-144586724D01*
X145789892Y-144586759D01*
X145938233Y-144601258D01*
X146016642Y-144617543D01*
X146105437Y-144619905D01*
X146152865Y-144548075D01*
X146162140Y-144515044D01*
X146191275Y-144421226D01*
X146231254Y-144392173D01*
X146306084Y-144427385D01*
X146417964Y-144509711D01*
X146541746Y-144598180D01*
X146627163Y-144629199D01*
X146714956Y-144609399D01*
X146795203Y-144571098D01*
X146943138Y-144450213D01*
X147015362Y-144290106D01*
X147003369Y-144148487D01*
X146693399Y-144148487D01*
X146659284Y-144300972D01*
X146564539Y-144375769D01*
X146420564Y-144367133D01*
X146333740Y-144329764D01*
X146274964Y-144258038D01*
X146239568Y-144141017D01*
X146230266Y-144014249D01*
X146249773Y-143913285D01*
X146298910Y-143873629D01*
X146398957Y-143902299D01*
X146521064Y-143971428D01*
X146629884Y-144056388D01*
X146690072Y-144132553D01*
X146693399Y-144148487D01*
X147003369Y-144148487D01*
X147000810Y-144118274D01*
X146988862Y-144089771D01*
X146924760Y-144000285D01*
X146813662Y-143927460D01*
X146630902Y-143855980D01*
X146591595Y-143843074D01*
X146260734Y-143736356D01*
X146260734Y-143237166D01*
X146436595Y-143237166D01*
X146562188Y-143250641D01*
X146622956Y-143305528D01*
X146642203Y-143364420D01*
X146691280Y-143461032D01*
X146798697Y-143503084D01*
X146835379Y-143507625D01*
X146948368Y-143508779D01*
X146992493Y-143467889D01*
X146998810Y-143398824D01*
X146984479Y-143325687D01*
X146928287Y-143263685D01*
X146810437Y-143196931D01*
X146668331Y-143133616D01*
X146474632Y-143057819D01*
X146338261Y-143024524D01*
X146227060Y-143027691D01*
G36*
X158404975Y-142472085D02*
G01*
X158398203Y-142475253D01*
X158374857Y-142537196D01*
X158357715Y-142673242D01*
X158350044Y-142855735D01*
X158349912Y-142883857D01*
X158346637Y-143065553D01*
X158337979Y-143199651D01*
X158325689Y-143261173D01*
X158323370Y-143262617D01*
X158268853Y-143236922D01*
X158160872Y-143171767D01*
X158097397Y-143130640D01*
X157908255Y-143043722D01*
X157732159Y-143030897D01*
X157592215Y-143090893D01*
X157535060Y-143161604D01*
X157514808Y-143248690D01*
X157498431Y-143412845D01*
X157487771Y-143629355D01*
X157484581Y-143838704D01*
X157483310Y-144090654D01*
X157477481Y-144258889D01*
X157464075Y-144361483D01*
X157440074Y-144416515D01*
X157402456Y-144442059D01*
X157382778Y-144448107D01*
X157300163Y-144492948D01*
X157280974Y-144530397D01*
X157329354Y-144562632D01*
X157465574Y-144581722D01*
X157611836Y-144586064D01*
X157799735Y-144575967D01*
X157915355Y-144548888D01*
X157949563Y-144509649D01*
X157893222Y-144463069D01*
X157866345Y-144451766D01*
X157829756Y-144416960D01*
X157806512Y-144334814D01*
X157794107Y-144187974D01*
X157790039Y-143959082D01*
X157789992Y-143922530D01*
X157796126Y-143640926D01*
X157818762Y-143449728D01*
X157864255Y-143338046D01*
X157938959Y-143294988D01*
X158049227Y-143309665D01*
X158130116Y-143339559D01*
X158250853Y-143388126D01*
X158323970Y-143414009D01*
X158330677Y-143415322D01*
X158338752Y-143462631D01*
X158345157Y-143590190D01*
X158349079Y-143776451D01*
X158349912Y-143924340D01*
X158345073Y-144160805D01*
X158331532Y-144331765D01*
X158310758Y-144422554D01*
X158299010Y-144433358D01*
X158253851Y-144474587D01*
X158248108Y-144509711D01*
X158270197Y-144552538D01*
X158349124Y-144576342D01*
X158503881Y-144585505D01*
X158578970Y-144586064D01*
X158770564Y-144577924D01*
X158884026Y-144555005D01*
X158909832Y-144530397D01*
X158867337Y-144474109D01*
X158808028Y-144448107D01*
X158771244Y-144433412D01*
X158744572Y-144401827D01*
X158726393Y-144338857D01*
X158715088Y-144230006D01*
X158709039Y-144060779D01*
X158706626Y-143816680D01*
X158706225Y-143536640D01*
X158706738Y-143217320D01*
X158709355Y-142985740D01*
X158715694Y-142827840D01*
X158727373Y-142729558D01*
X158746010Y-142676832D01*
X158773223Y-142655600D01*
X158808028Y-142651795D01*
X158890780Y-142632986D01*
X158909832Y-142606936D01*
X158865413Y-142568871D01*
X158756381Y-142527001D01*
X158619073Y-142490678D01*
X158489825Y-142469255D01*
X158404975Y-142472085D01*
G37*
X158404975Y-142472085D02*
X158398203Y-142475253D01*
X158374857Y-142537196D01*
X158357715Y-142673242D01*
X158350044Y-142855735D01*
X158349912Y-142883857D01*
X158346637Y-143065553D01*
X158337979Y-143199651D01*
X158325689Y-143261173D01*
X158323370Y-143262617D01*
X158268853Y-143236922D01*
X158160872Y-143171767D01*
X158097397Y-143130640D01*
X157908255Y-143043722D01*
X157732159Y-143030897D01*
X157592215Y-143090893D01*
X157535060Y-143161604D01*
X157514808Y-143248690D01*
X157498431Y-143412845D01*
X157487771Y-143629355D01*
X157484581Y-143838704D01*
X157483310Y-144090654D01*
X157477481Y-144258889D01*
X157464075Y-144361483D01*
X157440074Y-144416515D01*
X157402456Y-144442059D01*
X157382778Y-144448107D01*
X157300163Y-144492948D01*
X157280974Y-144530397D01*
X157329354Y-144562632D01*
X157465574Y-144581722D01*
X157611836Y-144586064D01*
X157799735Y-144575967D01*
X157915355Y-144548888D01*
X157949563Y-144509649D01*
X157893222Y-144463069D01*
X157866345Y-144451766D01*
X157829756Y-144416960D01*
X157806512Y-144334814D01*
X157794107Y-144187974D01*
X157790039Y-143959082D01*
X157789992Y-143922530D01*
X157796126Y-143640926D01*
X157818762Y-143449728D01*
X157864255Y-143338046D01*
X157938959Y-143294988D01*
X158049227Y-143309665D01*
X158130116Y-143339559D01*
X158250853Y-143388126D01*
X158323970Y-143414009D01*
X158330677Y-143415322D01*
X158338752Y-143462631D01*
X158345157Y-143590190D01*
X158349079Y-143776451D01*
X158349912Y-143924340D01*
X158345073Y-144160805D01*
X158331532Y-144331765D01*
X158310758Y-144422554D01*
X158299010Y-144433358D01*
X158253851Y-144474587D01*
X158248108Y-144509711D01*
X158270197Y-144552538D01*
X158349124Y-144576342D01*
X158503881Y-144585505D01*
X158578970Y-144586064D01*
X158770564Y-144577924D01*
X158884026Y-144555005D01*
X158909832Y-144530397D01*
X158867337Y-144474109D01*
X158808028Y-144448107D01*
X158771244Y-144433412D01*
X158744572Y-144401827D01*
X158726393Y-144338857D01*
X158715088Y-144230006D01*
X158709039Y-144060779D01*
X158706626Y-143816680D01*
X158706225Y-143536640D01*
X158706738Y-143217320D01*
X158709355Y-142985740D01*
X158715694Y-142827840D01*
X158727373Y-142729558D01*
X158746010Y-142676832D01*
X158773223Y-142655600D01*
X158808028Y-142651795D01*
X158890780Y-142632986D01*
X158909832Y-142606936D01*
X158865413Y-142568871D01*
X158756381Y-142527001D01*
X158619073Y-142490678D01*
X158489825Y-142469255D01*
X158404975Y-142472085D01*
G36*
X152019116Y-143081532D02*
G01*
X151987187Y-143131199D01*
X152019863Y-143281789D01*
X152112867Y-143357388D01*
X152165406Y-143364420D01*
X152275172Y-143398056D01*
X152405017Y-143481809D01*
X152439920Y-143512097D01*
X152521009Y-143594568D01*
X152568267Y-143673573D01*
X152590776Y-143779632D01*
X152597620Y-143943268D01*
X152598008Y-144043341D01*
X152598008Y-144426908D01*
X152432577Y-144442859D01*
X152300542Y-144465171D01*
X152260403Y-144493971D01*
X152302886Y-144524427D01*
X152418714Y-144551708D01*
X152598612Y-144570986D01*
X152687086Y-144575397D01*
X152921020Y-144577647D01*
X153059303Y-144564100D01*
X153106934Y-144534246D01*
X153107026Y-144532455D01*
X153064508Y-144474482D01*
X153005223Y-144448107D01*
X152961162Y-144429266D01*
X152932011Y-144388129D01*
X152914725Y-144306565D01*
X152906257Y-144166442D01*
X152903563Y-143949629D01*
X152903419Y-143842051D01*
X152904519Y-143592037D01*
X152909847Y-143426511D01*
X152922443Y-143328164D01*
X152945348Y-143279688D01*
X152981605Y-143263773D01*
X153005223Y-143262617D01*
X153093899Y-143245484D01*
X153097111Y-143203682D01*
X153023404Y-143151604D01*
X152916145Y-143112588D01*
X152747813Y-143071438D01*
X152652802Y-143073695D01*
X152607824Y-143130664D01*
X152589589Y-143253651D01*
X152588210Y-143271780D01*
X152572557Y-143484550D01*
X152425655Y-143271780D01*
X152316224Y-143134929D01*
X152217968Y-143071219D01*
X152132969Y-143059010D01*
X152019116Y-143081532D01*
G37*
X152019116Y-143081532D02*
X151987187Y-143131199D01*
X152019863Y-143281789D01*
X152112867Y-143357388D01*
X152165406Y-143364420D01*
X152275172Y-143398056D01*
X152405017Y-143481809D01*
X152439920Y-143512097D01*
X152521009Y-143594568D01*
X152568267Y-143673573D01*
X152590776Y-143779632D01*
X152597620Y-143943268D01*
X152598008Y-144043341D01*
X152598008Y-144426908D01*
X152432577Y-144442859D01*
X152300542Y-144465171D01*
X152260403Y-144493971D01*
X152302886Y-144524427D01*
X152418714Y-144551708D01*
X152598612Y-144570986D01*
X152687086Y-144575397D01*
X152921020Y-144577647D01*
X153059303Y-144564100D01*
X153106934Y-144534246D01*
X153107026Y-144532455D01*
X153064508Y-144474482D01*
X153005223Y-144448107D01*
X152961162Y-144429266D01*
X152932011Y-144388129D01*
X152914725Y-144306565D01*
X152906257Y-144166442D01*
X152903563Y-143949629D01*
X152903419Y-143842051D01*
X152904519Y-143592037D01*
X152909847Y-143426511D01*
X152922443Y-143328164D01*
X152945348Y-143279688D01*
X152981605Y-143263773D01*
X153005223Y-143262617D01*
X153093899Y-143245484D01*
X153097111Y-143203682D01*
X153023404Y-143151604D01*
X152916145Y-143112588D01*
X152747813Y-143071438D01*
X152652802Y-143073695D01*
X152607824Y-143130664D01*
X152589589Y-143253651D01*
X152588210Y-143271780D01*
X152572557Y-143484550D01*
X152425655Y-143271780D01*
X152316224Y-143134929D01*
X152217968Y-143071219D01*
X152132969Y-143059010D01*
X152019116Y-143081532D01*
G36*
X150090157Y-142458332D02*
G01*
X150045228Y-142503355D01*
X150018754Y-142600915D01*
X150005923Y-142762496D01*
X150001924Y-142999580D01*
X150001945Y-143323651D01*
X150002016Y-143434836D01*
X150001537Y-143775022D01*
X149999183Y-144027096D01*
X149993577Y-144204751D01*
X149983346Y-144321679D01*
X149967112Y-144391569D01*
X149943501Y-144428115D01*
X149911136Y-144445007D01*
X149900213Y-144448107D01*
X149817598Y-144492948D01*
X149798409Y-144530397D01*
X149847160Y-144562106D01*
X149985989Y-144581137D01*
X150154722Y-144586064D01*
X150344496Y-144579049D01*
X150469548Y-144559879D01*
X150511034Y-144533564D01*
X150470357Y-144471579D01*
X150434682Y-144451766D01*
X150406364Y-144426122D01*
X150385811Y-144365111D01*
X150371877Y-144255106D01*
X150363419Y-144082480D01*
X150359290Y-143833607D01*
X150358329Y-143543068D01*
X150358730Y-143224918D01*
X150361161Y-142993840D01*
X150367465Y-142835103D01*
X150379484Y-142733977D01*
X150399062Y-142675728D01*
X150428041Y-142645628D01*
X150468263Y-142628944D01*
X150472858Y-142627483D01*
X150534232Y-142601759D01*
X150522121Y-142576023D01*
X150425829Y-142537806D01*
X150383780Y-142523654D01*
X150254621Y-142479965D01*
X150158351Y-142454363D01*
X150090157Y-142458332D01*
G37*
X150090157Y-142458332D02*
X150045228Y-142503355D01*
X150018754Y-142600915D01*
X150005923Y-142762496D01*
X150001924Y-142999580D01*
X150001945Y-143323651D01*
X150002016Y-143434836D01*
X150001537Y-143775022D01*
X149999183Y-144027096D01*
X149993577Y-144204751D01*
X149983346Y-144321679D01*
X149967112Y-144391569D01*
X149943501Y-144428115D01*
X149911136Y-144445007D01*
X149900213Y-144448107D01*
X149817598Y-144492948D01*
X149798409Y-144530397D01*
X149847160Y-144562106D01*
X149985989Y-144581137D01*
X150154722Y-144586064D01*
X150344496Y-144579049D01*
X150469548Y-144559879D01*
X150511034Y-144533564D01*
X150470357Y-144471579D01*
X150434682Y-144451766D01*
X150406364Y-144426122D01*
X150385811Y-144365111D01*
X150371877Y-144255106D01*
X150363419Y-144082480D01*
X150359290Y-143833607D01*
X150358329Y-143543068D01*
X150358730Y-143224918D01*
X150361161Y-142993840D01*
X150367465Y-142835103D01*
X150379484Y-142733977D01*
X150399062Y-142675728D01*
X150428041Y-142645628D01*
X150468263Y-142628944D01*
X150472858Y-142627483D01*
X150534232Y-142601759D01*
X150522121Y-142576023D01*
X150425829Y-142537806D01*
X150383780Y-142523654D01*
X150254621Y-142479965D01*
X150158351Y-142454363D01*
X150090157Y-142458332D01*
G36*
X149144072Y-143079197D02*
G01*
X149107119Y-143151697D01*
X149090337Y-143288369D01*
X149085839Y-143502627D01*
X149085784Y-143740247D01*
X149084950Y-144015396D01*
X149080768Y-144205458D01*
X149070718Y-144327147D01*
X149052280Y-144397175D01*
X149022935Y-144432256D01*
X148980162Y-144449104D01*
X148978859Y-144449446D01*
X148908068Y-144491653D01*
X148905510Y-144531736D01*
X148968936Y-144560592D01*
X149096485Y-144578634D01*
X149257626Y-144585920D01*
X149421827Y-144582503D01*
X149558556Y-144568440D01*
X149637280Y-144543784D01*
X149645704Y-144530397D01*
X149603209Y-144474109D01*
X149543900Y-144448107D01*
X149499839Y-144429266D01*
X149470689Y-144388129D01*
X149453402Y-144306565D01*
X149444935Y-144166442D01*
X149442240Y-143949629D01*
X149442096Y-143842051D01*
X149443196Y-143592037D01*
X149448524Y-143426511D01*
X149461120Y-143328164D01*
X149484026Y-143279688D01*
X149520282Y-143263773D01*
X149543900Y-143262617D01*
X149632576Y-143245484D01*
X149635788Y-143203682D01*
X149562081Y-143151604D01*
X149454822Y-143112588D01*
X149310036Y-143073056D01*
X149209082Y-143057454D01*
X149144072Y-143079197D01*
G37*
X149144072Y-143079197D02*
X149107119Y-143151697D01*
X149090337Y-143288369D01*
X149085839Y-143502627D01*
X149085784Y-143740247D01*
X149084950Y-144015396D01*
X149080768Y-144205458D01*
X149070718Y-144327147D01*
X149052280Y-144397175D01*
X149022935Y-144432256D01*
X148980162Y-144449104D01*
X148978859Y-144449446D01*
X148908068Y-144491653D01*
X148905510Y-144531736D01*
X148968936Y-144560592D01*
X149096485Y-144578634D01*
X149257626Y-144585920D01*
X149421827Y-144582503D01*
X149558556Y-144568440D01*
X149637280Y-144543784D01*
X149645704Y-144530397D01*
X149603209Y-144474109D01*
X149543900Y-144448107D01*
X149499839Y-144429266D01*
X149470689Y-144388129D01*
X149453402Y-144306565D01*
X149444935Y-144166442D01*
X149442240Y-143949629D01*
X149442096Y-143842051D01*
X149443196Y-143592037D01*
X149448524Y-143426511D01*
X149461120Y-143328164D01*
X149484026Y-143279688D01*
X149520282Y-143263773D01*
X149543900Y-143262617D01*
X149632576Y-143245484D01*
X149635788Y-143203682D01*
X149562081Y-143151604D01*
X149454822Y-143112588D01*
X149310036Y-143073056D01*
X149209082Y-143057454D01*
X149144072Y-143079197D01*
G36*
X147546735Y-143039608D02*
G01*
X147439268Y-143123060D01*
X147429161Y-143133049D01*
X147375061Y-143193272D01*
X147339328Y-143259132D01*
X147318175Y-143352055D01*
X147307814Y-143493466D01*
X147304457Y-143704791D01*
X147304221Y-143839737D01*
X147302944Y-144091430D01*
X147297098Y-144259424D01*
X147283652Y-144361813D01*
X147259580Y-144416690D01*
X147221855Y-144442148D01*
X147202417Y-144448107D01*
X147119802Y-144492948D01*
X147100613Y-144530397D01*
X147148993Y-144562632D01*
X147285213Y-144581722D01*
X147431475Y-144586064D01*
X147617061Y-144580966D01*
X147720210Y-144562753D01*
X147759914Y-144527039D01*
X147762337Y-144509711D01*
X147734851Y-144441973D01*
X147711435Y-144433358D01*
X147688112Y-144384828D01*
X147671152Y-144248473D01*
X147661879Y-144038148D01*
X147660533Y-143900680D01*
X147662581Y-143657910D01*
X147670833Y-143497310D01*
X147688453Y-143399294D01*
X147718604Y-143344273D01*
X147754694Y-143317609D01*
X147857744Y-143298281D01*
X147995763Y-143346299D01*
X148021928Y-143359892D01*
X148195002Y-143452569D01*
X148209764Y-143927075D01*
X148213855Y-144159791D01*
X148207111Y-144310345D01*
X148187167Y-144398024D01*
X148151653Y-144442118D01*
X148146137Y-144445450D01*
X148071937Y-144506953D01*
X148096112Y-144551695D01*
X148216423Y-144578427D01*
X148398609Y-144586064D01*
X148590203Y-144577924D01*
X148703666Y-144555005D01*
X148729471Y-144530397D01*
X148686976Y-144474109D01*
X148627668Y-144448107D01*
X148583607Y-144429266D01*
X148554456Y-144388129D01*
X148537170Y-144306565D01*
X148528702Y-144166442D01*
X148526008Y-143949629D01*
X148525864Y-143842051D01*
X148527046Y-143591812D01*
X148532553Y-143426106D01*
X148545329Y-143327674D01*
X148568316Y-143279253D01*
X148604459Y-143263584D01*
X148624663Y-143262617D01*
X148720899Y-143241011D01*
X148752657Y-143215380D01*
X148751506Y-143176646D01*
X148685884Y-143142069D01*
X148541634Y-143106095D01*
X148411335Y-143081510D01*
X148287182Y-143065017D01*
X148233319Y-143085478D01*
X148220617Y-143157943D01*
X148220453Y-143180129D01*
X148220453Y-143312578D01*
X147973040Y-143160343D01*
X147787433Y-143056935D01*
X147654061Y-143017128D01*
X147546735Y-143039608D01*
G37*
X147546735Y-143039608D02*
X147439268Y-143123060D01*
X147429161Y-143133049D01*
X147375061Y-143193272D01*
X147339328Y-143259132D01*
X147318175Y-143352055D01*
X147307814Y-143493466D01*
X147304457Y-143704791D01*
X147304221Y-143839737D01*
X147302944Y-144091430D01*
X147297098Y-144259424D01*
X147283652Y-144361813D01*
X147259580Y-144416690D01*
X147221855Y-144442148D01*
X147202417Y-144448107D01*
X147119802Y-144492948D01*
X147100613Y-144530397D01*
X147148993Y-144562632D01*
X147285213Y-144581722D01*
X147431475Y-144586064D01*
X147617061Y-144580966D01*
X147720210Y-144562753D01*
X147759914Y-144527039D01*
X147762337Y-144509711D01*
X147734851Y-144441973D01*
X147711435Y-144433358D01*
X147688112Y-144384828D01*
X147671152Y-144248473D01*
X147661879Y-144038148D01*
X147660533Y-143900680D01*
X147662581Y-143657910D01*
X147670833Y-143497310D01*
X147688453Y-143399294D01*
X147718604Y-143344273D01*
X147754694Y-143317609D01*
X147857744Y-143298281D01*
X147995763Y-143346299D01*
X148021928Y-143359892D01*
X148195002Y-143452569D01*
X148209764Y-143927075D01*
X148213855Y-144159791D01*
X148207111Y-144310345D01*
X148187167Y-144398024D01*
X148151653Y-144442118D01*
X148146137Y-144445450D01*
X148071937Y-144506953D01*
X148096112Y-144551695D01*
X148216423Y-144578427D01*
X148398609Y-144586064D01*
X148590203Y-144577924D01*
X148703666Y-144555005D01*
X148729471Y-144530397D01*
X148686976Y-144474109D01*
X148627668Y-144448107D01*
X148583607Y-144429266D01*
X148554456Y-144388129D01*
X148537170Y-144306565D01*
X148528702Y-144166442D01*
X148526008Y-143949629D01*
X148525864Y-143842051D01*
X148527046Y-143591812D01*
X148532553Y-143426106D01*
X148545329Y-143327674D01*
X148568316Y-143279253D01*
X148604459Y-143263584D01*
X148624663Y-143262617D01*
X148720899Y-143241011D01*
X148752657Y-143215380D01*
X148751506Y-143176646D01*
X148685884Y-143142069D01*
X148541634Y-143106095D01*
X148411335Y-143081510D01*
X148287182Y-143065017D01*
X148233319Y-143085478D01*
X148220617Y-143157943D01*
X148220453Y-143180129D01*
X148220453Y-143312578D01*
X147973040Y-143160343D01*
X147787433Y-143056935D01*
X147654061Y-143017128D01*
X147546735Y-143039608D01*
G36*
X149104407Y-142538665D02*
G01*
X149085784Y-142650100D01*
X149112140Y-142768533D01*
X149200313Y-142823320D01*
X149315869Y-142850307D01*
X149374720Y-142846660D01*
X149408162Y-142821468D01*
X149433440Y-142749919D01*
X149442096Y-142649246D01*
X149417377Y-142537433D01*
X149329339Y-142489424D01*
X149325646Y-142488697D01*
X149179316Y-142481653D01*
X149104407Y-142538665D01*
G37*
X149104407Y-142538665D02*
X149085784Y-142650100D01*
X149112140Y-142768533D01*
X149200313Y-142823320D01*
X149315869Y-142850307D01*
X149374720Y-142846660D01*
X149408162Y-142821468D01*
X149433440Y-142749919D01*
X149442096Y-142649246D01*
X149417377Y-142537433D01*
X149329339Y-142489424D01*
X149325646Y-142488697D01*
X149179316Y-142481653D01*
X149104407Y-142538665D01*
G36*
X159812490Y-141211816D02*
G01*
X159751123Y-141230379D01*
X159719510Y-141272385D01*
X159711644Y-141362183D01*
X159721517Y-141524121D01*
X159725011Y-141566342D01*
X159751677Y-141774230D01*
X159793516Y-141902997D01*
X159850117Y-141969893D01*
X159995558Y-142030601D01*
X160152486Y-142030820D01*
X160276675Y-141971799D01*
X160290117Y-141957467D01*
X160331008Y-141864109D01*
X160366822Y-141706495D01*
X160386246Y-141554283D01*
X160398998Y-141380280D01*
X160394691Y-141282863D01*
X160365004Y-141237187D01*
X160301618Y-141218410D01*
X160272273Y-141213939D01*
X160171048Y-141211989D01*
X160131475Y-141235361D01*
X160170460Y-141276274D01*
X160182377Y-141277447D01*
X160212001Y-141322565D01*
X160228654Y-141436168D01*
X160231182Y-141585621D01*
X160218434Y-141738294D01*
X160201637Y-141822955D01*
X160131642Y-141930457D01*
X160019867Y-141975082D01*
X159905903Y-141941845D01*
X159899974Y-141937143D01*
X159862502Y-141862500D01*
X159837191Y-141731416D01*
X159825147Y-141575640D01*
X159827478Y-141426922D01*
X159845292Y-141317010D01*
X159876966Y-141277447D01*
X159926439Y-141243908D01*
X159927868Y-141233603D01*
X159885937Y-141207872D01*
X159812490Y-141211816D01*
G37*
X159812490Y-141211816D02*
X159751123Y-141230379D01*
X159719510Y-141272385D01*
X159711644Y-141362183D01*
X159721517Y-141524121D01*
X159725011Y-141566342D01*
X159751677Y-141774230D01*
X159793516Y-141902997D01*
X159850117Y-141969893D01*
X159995558Y-142030601D01*
X160152486Y-142030820D01*
X160276675Y-141971799D01*
X160290117Y-141957467D01*
X160331008Y-141864109D01*
X160366822Y-141706495D01*
X160386246Y-141554283D01*
X160398998Y-141380280D01*
X160394691Y-141282863D01*
X160365004Y-141237187D01*
X160301618Y-141218410D01*
X160272273Y-141213939D01*
X160171048Y-141211989D01*
X160131475Y-141235361D01*
X160170460Y-141276274D01*
X160182377Y-141277447D01*
X160212001Y-141322565D01*
X160228654Y-141436168D01*
X160231182Y-141585621D01*
X160218434Y-141738294D01*
X160201637Y-141822955D01*
X160131642Y-141930457D01*
X160019867Y-141975082D01*
X159905903Y-141941845D01*
X159899974Y-141937143D01*
X159862502Y-141862500D01*
X159837191Y-141731416D01*
X159825147Y-141575640D01*
X159827478Y-141426922D01*
X159845292Y-141317010D01*
X159876966Y-141277447D01*
X159926439Y-141243908D01*
X159927868Y-141233603D01*
X159885937Y-141207872D01*
X159812490Y-141211816D01*
G36*
X159229867Y-141230426D02*
G01*
X159126093Y-141333446D01*
X159026832Y-141467498D01*
X158914527Y-141617308D01*
X158843604Y-141674758D01*
X158809548Y-141638360D01*
X158807843Y-141506626D01*
X158818382Y-141398764D01*
X158820464Y-141276559D01*
X158782835Y-141229274D01*
X158759631Y-141226425D01*
X158720334Y-141241771D01*
X158698749Y-141300678D01*
X158691958Y-141422226D01*
X158697046Y-141625495D01*
X158697375Y-141633640D01*
X158709647Y-141822781D01*
X158727579Y-141965220D01*
X158747846Y-142036873D01*
X158753627Y-142040974D01*
X158799785Y-142002220D01*
X158885906Y-141899669D01*
X158994967Y-141753882D01*
X159016986Y-141722837D01*
X159240694Y-141404701D01*
X159256353Y-141679843D01*
X159254354Y-141878433D01*
X159219896Y-141984309D01*
X159205452Y-141997200D01*
X159185752Y-142029127D01*
X159263610Y-142040175D01*
X159266145Y-142040194D01*
X159329416Y-142036230D01*
X159367223Y-142009515D01*
X159386120Y-141939254D01*
X159392660Y-141804649D01*
X159393399Y-141636368D01*
X159390001Y-141428664D01*
X159377014Y-141301948D01*
X159350247Y-141235546D01*
X159306792Y-141209115D01*
X159229867Y-141230426D01*
G37*
X159229867Y-141230426D02*
X159126093Y-141333446D01*
X159026832Y-141467498D01*
X158914527Y-141617308D01*
X158843604Y-141674758D01*
X158809548Y-141638360D01*
X158807843Y-141506626D01*
X158818382Y-141398764D01*
X158820464Y-141276559D01*
X158782835Y-141229274D01*
X158759631Y-141226425D01*
X158720334Y-141241771D01*
X158698749Y-141300678D01*
X158691958Y-141422226D01*
X158697046Y-141625495D01*
X158697375Y-141633640D01*
X158709647Y-141822781D01*
X158727579Y-141965220D01*
X158747846Y-142036873D01*
X158753627Y-142040974D01*
X158799785Y-142002220D01*
X158885906Y-141899669D01*
X158994967Y-141753882D01*
X159016986Y-141722837D01*
X159240694Y-141404701D01*
X159256353Y-141679843D01*
X159254354Y-141878433D01*
X159219896Y-141984309D01*
X159205452Y-141997200D01*
X159185752Y-142029127D01*
X159263610Y-142040175D01*
X159266145Y-142040194D01*
X159329416Y-142036230D01*
X159367223Y-142009515D01*
X159386120Y-141939254D01*
X159392660Y-141804649D01*
X159393399Y-141636368D01*
X159390001Y-141428664D01*
X159377014Y-141301948D01*
X159350247Y-141235546D01*
X159306792Y-141209115D01*
X159229867Y-141230426D01*
G36*
X158148759Y-141240595D02*
G01*
X158124898Y-141255517D01*
X158133579Y-141260256D01*
X158169509Y-141322544D01*
X158190858Y-141452478D01*
X158197509Y-141616929D01*
X158189344Y-141782772D01*
X158166247Y-141916881D01*
X158136124Y-141979891D01*
X158115865Y-142021326D01*
X158175732Y-142038858D01*
X158248108Y-142040974D01*
X158358033Y-142033500D01*
X158380390Y-142006183D01*
X158360092Y-141979891D01*
X158324678Y-141896449D01*
X158304292Y-141754141D01*
X158298817Y-141586095D01*
X158308137Y-141425436D01*
X158332133Y-141305291D01*
X158362637Y-141260256D01*
X158361714Y-141243791D01*
X158279900Y-141235023D01*
X158248108Y-141234582D01*
X158148759Y-141240595D01*
G37*
X158148759Y-141240595D02*
X158124898Y-141255517D01*
X158133579Y-141260256D01*
X158169509Y-141322544D01*
X158190858Y-141452478D01*
X158197509Y-141616929D01*
X158189344Y-141782772D01*
X158166247Y-141916881D01*
X158136124Y-141979891D01*
X158115865Y-142021326D01*
X158175732Y-142038858D01*
X158248108Y-142040974D01*
X158358033Y-142033500D01*
X158380390Y-142006183D01*
X158360092Y-141979891D01*
X158324678Y-141896449D01*
X158304292Y-141754141D01*
X158298817Y-141586095D01*
X158308137Y-141425436D01*
X158332133Y-141305291D01*
X158362637Y-141260256D01*
X158361714Y-141243791D01*
X158279900Y-141235023D01*
X158248108Y-141234582D01*
X158148759Y-141240595D01*
G36*
X157724141Y-141212079D02*
G01*
X157631547Y-141254212D01*
X157603352Y-141303103D01*
X157586104Y-141387764D01*
X157542196Y-141527236D01*
X157511435Y-141611721D01*
X157419517Y-141852404D01*
X157324558Y-141603101D01*
X157274790Y-141449696D01*
X157251446Y-141330234D01*
X157253689Y-141290172D01*
X157234208Y-141237320D01*
X157185132Y-141226545D01*
X157143508Y-141234858D01*
X157130382Y-141271900D01*
X157148671Y-141355823D01*
X157201293Y-141504780D01*
X157250357Y-141632404D01*
X157327501Y-141816269D01*
X157397261Y-141957041D01*
X157448233Y-142032603D01*
X157460341Y-142039619D01*
X157501199Y-141996020D01*
X157564476Y-141878754D01*
X157638635Y-141710123D01*
X157663728Y-141646485D01*
X157735101Y-141461212D01*
X157792327Y-141314242D01*
X157825838Y-141230095D01*
X157829966Y-141220492D01*
X157799854Y-141204714D01*
X157724141Y-141212079D01*
G37*
X157724141Y-141212079D02*
X157631547Y-141254212D01*
X157603352Y-141303103D01*
X157586104Y-141387764D01*
X157542196Y-141527236D01*
X157511435Y-141611721D01*
X157419517Y-141852404D01*
X157324558Y-141603101D01*
X157274790Y-141449696D01*
X157251446Y-141330234D01*
X157253689Y-141290172D01*
X157234208Y-141237320D01*
X157185132Y-141226545D01*
X157143508Y-141234858D01*
X157130382Y-141271900D01*
X157148671Y-141355823D01*
X157201293Y-141504780D01*
X157250357Y-141632404D01*
X157327501Y-141816269D01*
X157397261Y-141957041D01*
X157448233Y-142032603D01*
X157460341Y-142039619D01*
X157501199Y-141996020D01*
X157564476Y-141878754D01*
X157638635Y-141710123D01*
X157663728Y-141646485D01*
X157735101Y-141461212D01*
X157792327Y-141314242D01*
X157825838Y-141230095D01*
X157829966Y-141220492D01*
X157799854Y-141204714D01*
X157724141Y-141212079D01*
G36*
X156240338Y-141199400D02*
G01*
X156198361Y-141273343D01*
X156194312Y-141356668D01*
X156216802Y-141379250D01*
X156261629Y-141340375D01*
X156262938Y-141328348D01*
X156307685Y-141294704D01*
X156417714Y-141277886D01*
X156441094Y-141277447D01*
X156561732Y-141287113D01*
X156611088Y-141329949D01*
X156619251Y-141401697D01*
X156593337Y-141522249D01*
X156529643Y-141566951D01*
X156449240Y-141524143D01*
X156433372Y-141504552D01*
X156388031Y-141452358D01*
X156369998Y-141475487D01*
X156368760Y-141585854D01*
X156377459Y-141683793D01*
X156393942Y-141705763D01*
X156398453Y-141697386D01*
X156464459Y-141644593D01*
X156524914Y-141633759D01*
X156593514Y-141651814D01*
X156613930Y-141724692D01*
X156609750Y-141799190D01*
X156582751Y-141918420D01*
X156514997Y-141969817D01*
X156458742Y-141980252D01*
X156320377Y-141956255D01*
X156238916Y-141878449D01*
X156154148Y-141761014D01*
X156170367Y-141888268D01*
X156187824Y-141959509D01*
X156233911Y-141999688D01*
X156333799Y-142019924D01*
X156491996Y-142030347D01*
X156797407Y-142045171D01*
X156797407Y-141226545D01*
X156619251Y-141225850D01*
X156463642Y-141217066D01*
X156335654Y-141196845D01*
X156333575Y-141196295D01*
X156240338Y-141199400D01*
G37*
X156240338Y-141199400D02*
X156198361Y-141273343D01*
X156194312Y-141356668D01*
X156216802Y-141379250D01*
X156261629Y-141340375D01*
X156262938Y-141328348D01*
X156307685Y-141294704D01*
X156417714Y-141277886D01*
X156441094Y-141277447D01*
X156561732Y-141287113D01*
X156611088Y-141329949D01*
X156619251Y-141401697D01*
X156593337Y-141522249D01*
X156529643Y-141566951D01*
X156449240Y-141524143D01*
X156433372Y-141504552D01*
X156388031Y-141452358D01*
X156369998Y-141475487D01*
X156368760Y-141585854D01*
X156377459Y-141683793D01*
X156393942Y-141705763D01*
X156398453Y-141697386D01*
X156464459Y-141644593D01*
X156524914Y-141633759D01*
X156593514Y-141651814D01*
X156613930Y-141724692D01*
X156609750Y-141799190D01*
X156582751Y-141918420D01*
X156514997Y-141969817D01*
X156458742Y-141980252D01*
X156320377Y-141956255D01*
X156238916Y-141878449D01*
X156154148Y-141761014D01*
X156170367Y-141888268D01*
X156187824Y-141959509D01*
X156233911Y-141999688D01*
X156333799Y-142019924D01*
X156491996Y-142030347D01*
X156797407Y-142045171D01*
X156797407Y-141226545D01*
X156619251Y-141225850D01*
X156463642Y-141217066D01*
X156335654Y-141196845D01*
X156333575Y-141196295D01*
X156240338Y-141199400D01*
G36*
X155657655Y-141214886D02*
G01*
X155513264Y-141233809D01*
X155402244Y-141262371D01*
X155368515Y-141280469D01*
X155301054Y-141385512D01*
X155333146Y-141500525D01*
X155394817Y-141566828D01*
X155450617Y-141621670D01*
X155458742Y-141673156D01*
X155413281Y-141751231D01*
X155339638Y-141846290D01*
X155252165Y-141962104D01*
X155225593Y-142020080D01*
X155254462Y-142039586D01*
X155284762Y-142040974D01*
X155378612Y-141997534D01*
X155488060Y-141881090D01*
X155518820Y-141837366D01*
X155603291Y-141718352D01*
X155666337Y-141645025D01*
X155683636Y-141633759D01*
X155698138Y-141678638D01*
X155697934Y-141790834D01*
X155694294Y-141837366D01*
X155686939Y-141967462D01*
X155710937Y-142025519D01*
X155785094Y-142040527D01*
X155826383Y-142040974D01*
X155924700Y-142032520D01*
X155935075Y-142001354D01*
X155916806Y-141979891D01*
X155885750Y-141904200D01*
X155865576Y-141770545D01*
X155856734Y-141610016D01*
X155859677Y-141453701D01*
X155862630Y-141430152D01*
X155703018Y-141430152D01*
X155675756Y-141549804D01*
X155605882Y-141582078D01*
X155511265Y-141520198D01*
X155499949Y-141507153D01*
X155459954Y-141400704D01*
X155500765Y-141312048D01*
X155599617Y-141277447D01*
X155675123Y-141300759D01*
X155701837Y-141388348D01*
X155703018Y-141430152D01*
X155862630Y-141430152D01*
X155874853Y-141332689D01*
X155902713Y-141278067D01*
X155906625Y-141277447D01*
X155956168Y-141248130D01*
X155957571Y-141239270D01*
X155913156Y-141215284D01*
X155802069Y-141207933D01*
X155657655Y-141214886D01*
G37*
X155657655Y-141214886D02*
X155513264Y-141233809D01*
X155402244Y-141262371D01*
X155368515Y-141280469D01*
X155301054Y-141385512D01*
X155333146Y-141500525D01*
X155394817Y-141566828D01*
X155450617Y-141621670D01*
X155458742Y-141673156D01*
X155413281Y-141751231D01*
X155339638Y-141846290D01*
X155252165Y-141962104D01*
X155225593Y-142020080D01*
X155254462Y-142039586D01*
X155284762Y-142040974D01*
X155378612Y-141997534D01*
X155488060Y-141881090D01*
X155518820Y-141837366D01*
X155603291Y-141718352D01*
X155666337Y-141645025D01*
X155683636Y-141633759D01*
X155698138Y-141678638D01*
X155697934Y-141790834D01*
X155694294Y-141837366D01*
X155686939Y-141967462D01*
X155710937Y-142025519D01*
X155785094Y-142040527D01*
X155826383Y-142040974D01*
X155924700Y-142032520D01*
X155935075Y-142001354D01*
X155916806Y-141979891D01*
X155885750Y-141904200D01*
X155865576Y-141770545D01*
X155856734Y-141610016D01*
X155859677Y-141453701D01*
X155862630Y-141430152D01*
X155703018Y-141430152D01*
X155675756Y-141549804D01*
X155605882Y-141582078D01*
X155511265Y-141520198D01*
X155499949Y-141507153D01*
X155459954Y-141400704D01*
X155500765Y-141312048D01*
X155599617Y-141277447D01*
X155675123Y-141300759D01*
X155701837Y-141388348D01*
X155703018Y-141430152D01*
X155862630Y-141430152D01*
X155874853Y-141332689D01*
X155902713Y-141278067D01*
X155906625Y-141277447D01*
X155956168Y-141248130D01*
X155957571Y-141239270D01*
X155913156Y-141215284D01*
X155802069Y-141207933D01*
X155657655Y-141214886D01*
G36*
X154593674Y-141198700D02*
G01*
X154505014Y-141262040D01*
X154482923Y-141342044D01*
X154489405Y-141418496D01*
X154515774Y-141400357D01*
X154536354Y-141366525D01*
X154611635Y-141302412D01*
X154713556Y-141278309D01*
X154802181Y-141295986D01*
X154837688Y-141353161D01*
X154797723Y-141423306D01*
X154696476Y-141514359D01*
X154634080Y-141557406D01*
X154483989Y-141681676D01*
X154434445Y-141800635D01*
X154485791Y-141912740D01*
X154543603Y-141961735D01*
X154669448Y-142018006D01*
X154812883Y-142040729D01*
X154928508Y-142024921D01*
X154956458Y-142007039D01*
X154984658Y-141932996D01*
X154990393Y-141870186D01*
X154985531Y-141803812D01*
X154956086Y-141808298D01*
X154883960Y-141881511D01*
X154767264Y-141965163D01*
X154665361Y-141967533D01*
X154601194Y-141890703D01*
X154593089Y-141855109D01*
X154608429Y-141768770D01*
X154695183Y-141692806D01*
X154771246Y-141652021D01*
X154923668Y-141546956D01*
X154982550Y-141432510D01*
X154945418Y-141319116D01*
X154866628Y-141249601D01*
X154723758Y-141192253D01*
X154593674Y-141198700D01*
G37*
X154593674Y-141198700D02*
X154505014Y-141262040D01*
X154482923Y-141342044D01*
X154489405Y-141418496D01*
X154515774Y-141400357D01*
X154536354Y-141366525D01*
X154611635Y-141302412D01*
X154713556Y-141278309D01*
X154802181Y-141295986D01*
X154837688Y-141353161D01*
X154797723Y-141423306D01*
X154696476Y-141514359D01*
X154634080Y-141557406D01*
X154483989Y-141681676D01*
X154434445Y-141800635D01*
X154485791Y-141912740D01*
X154543603Y-141961735D01*
X154669448Y-142018006D01*
X154812883Y-142040729D01*
X154928508Y-142024921D01*
X154956458Y-142007039D01*
X154984658Y-141932996D01*
X154990393Y-141870186D01*
X154985531Y-141803812D01*
X154956086Y-141808298D01*
X154883960Y-141881511D01*
X154767264Y-141965163D01*
X154665361Y-141967533D01*
X154601194Y-141890703D01*
X154593089Y-141855109D01*
X154608429Y-141768770D01*
X154695183Y-141692806D01*
X154771246Y-141652021D01*
X154923668Y-141546956D01*
X154982550Y-141432510D01*
X154945418Y-141319116D01*
X154866628Y-141249601D01*
X154723758Y-141192253D01*
X154593674Y-141198700D01*
G36*
X154086886Y-141213819D02*
G01*
X154017202Y-141227816D01*
X153975612Y-141259152D01*
X153954866Y-141329783D01*
X153947713Y-141461660D01*
X153946906Y-141637669D01*
X153946906Y-142040974D01*
X154097066Y-142040974D01*
X154194629Y-142032451D01*
X154204217Y-142001010D01*
X154186145Y-141979891D01*
X154155088Y-141904200D01*
X154134914Y-141770545D01*
X154126073Y-141610016D01*
X154129015Y-141453701D01*
X154144191Y-141332689D01*
X154172052Y-141278067D01*
X154175964Y-141277447D01*
X154225448Y-141245213D01*
X154226866Y-141235361D01*
X154183711Y-141211371D01*
X154086886Y-141213819D01*
G37*
X154086886Y-141213819D02*
X154017202Y-141227816D01*
X153975612Y-141259152D01*
X153954866Y-141329783D01*
X153947713Y-141461660D01*
X153946906Y-141637669D01*
X153946906Y-142040974D01*
X154097066Y-142040974D01*
X154194629Y-142032451D01*
X154204217Y-142001010D01*
X154186145Y-141979891D01*
X154155088Y-141904200D01*
X154134914Y-141770545D01*
X154126073Y-141610016D01*
X154129015Y-141453701D01*
X154144191Y-141332689D01*
X154172052Y-141278067D01*
X154175964Y-141277447D01*
X154225448Y-141245213D01*
X154226866Y-141235361D01*
X154183711Y-141211371D01*
X154086886Y-141213819D01*
G36*
X153064192Y-141215625D02*
G01*
X153018346Y-141243365D01*
X153006840Y-141297992D01*
X153006810Y-141328348D01*
X153013473Y-141414415D01*
X153041959Y-141408674D01*
X153076080Y-141366525D01*
X153157742Y-141284469D01*
X153213896Y-141291544D01*
X153246992Y-141391260D01*
X153259482Y-141587126D01*
X153259732Y-141629517D01*
X153250021Y-141854190D01*
X153220977Y-141980099D01*
X153196104Y-142007262D01*
X153202132Y-142022663D01*
X153288748Y-142033103D01*
X153361535Y-142035407D01*
X153493929Y-142032378D01*
X153536056Y-142016754D01*
X153501515Y-141985995D01*
X153449469Y-141911107D01*
X153416833Y-141778538D01*
X153403845Y-141618666D01*
X153410748Y-141461872D01*
X153437781Y-141338534D01*
X153485186Y-141279033D01*
X153495904Y-141277447D01*
X153592951Y-141314485D01*
X153650106Y-141366525D01*
X153701634Y-141423014D01*
X153712179Y-141391958D01*
X153706619Y-141336853D01*
X153691053Y-141273475D01*
X153647776Y-141236853D01*
X153553339Y-141218647D01*
X153384296Y-141210520D01*
X153348779Y-141209598D01*
X153166847Y-141206970D01*
X153064192Y-141215625D01*
G37*
X153064192Y-141215625D02*
X153018346Y-141243365D01*
X153006840Y-141297992D01*
X153006810Y-141328348D01*
X153013473Y-141414415D01*
X153041959Y-141408674D01*
X153076080Y-141366525D01*
X153157742Y-141284469D01*
X153213896Y-141291544D01*
X153246992Y-141391260D01*
X153259482Y-141587126D01*
X153259732Y-141629517D01*
X153250021Y-141854190D01*
X153220977Y-141980099D01*
X153196104Y-142007262D01*
X153202132Y-142022663D01*
X153288748Y-142033103D01*
X153361535Y-142035407D01*
X153493929Y-142032378D01*
X153536056Y-142016754D01*
X153501515Y-141985995D01*
X153449469Y-141911107D01*
X153416833Y-141778538D01*
X153403845Y-141618666D01*
X153410748Y-141461872D01*
X153437781Y-141338534D01*
X153485186Y-141279033D01*
X153495904Y-141277447D01*
X153592951Y-141314485D01*
X153650106Y-141366525D01*
X153701634Y-141423014D01*
X153712179Y-141391958D01*
X153706619Y-141336853D01*
X153691053Y-141273475D01*
X153647776Y-141236853D01*
X153553339Y-141218647D01*
X153384296Y-141210520D01*
X153348779Y-141209598D01*
X153166847Y-141206970D01*
X153064192Y-141215625D01*
G36*
X152545862Y-141209194D02*
G01*
X152529193Y-141253283D01*
X152520587Y-141334727D01*
X152468406Y-141454356D01*
X152455344Y-141476779D01*
X152357482Y-141637700D01*
X152287651Y-141470299D01*
X152243810Y-141344192D01*
X152228656Y-141256449D01*
X152229484Y-141250178D01*
X152197237Y-141207670D01*
X152139619Y-141197458D01*
X152056893Y-141202849D01*
X152038088Y-141210234D01*
X152062977Y-141256449D01*
X152127233Y-141362410D01*
X152190794Y-141463801D01*
X152295121Y-141663790D01*
X152339770Y-141831924D01*
X152322858Y-141952153D01*
X152254421Y-142005886D01*
X152245220Y-142019644D01*
X152320480Y-142028942D01*
X152394401Y-142031050D01*
X152515689Y-142027325D01*
X152567866Y-142015729D01*
X152559832Y-142007262D01*
X152507661Y-141936784D01*
X152500535Y-141806258D01*
X152535661Y-141645499D01*
X152608566Y-141487062D01*
X152687151Y-141368962D01*
X152748501Y-141295210D01*
X152761271Y-141285930D01*
X152803808Y-141246255D01*
X152759855Y-141211976D01*
X152653282Y-141195901D01*
X152545862Y-141209194D01*
G37*
X152545862Y-141209194D02*
X152529193Y-141253283D01*
X152520587Y-141334727D01*
X152468406Y-141454356D01*
X152455344Y-141476779D01*
X152357482Y-141637700D01*
X152287651Y-141470299D01*
X152243810Y-141344192D01*
X152228656Y-141256449D01*
X152229484Y-141250178D01*
X152197237Y-141207670D01*
X152139619Y-141197458D01*
X152056893Y-141202849D01*
X152038088Y-141210234D01*
X152062977Y-141256449D01*
X152127233Y-141362410D01*
X152190794Y-141463801D01*
X152295121Y-141663790D01*
X152339770Y-141831924D01*
X152322858Y-141952153D01*
X152254421Y-142005886D01*
X152245220Y-142019644D01*
X152320480Y-142028942D01*
X152394401Y-142031050D01*
X152515689Y-142027325D01*
X152567866Y-142015729D01*
X152559832Y-142007262D01*
X152507661Y-141936784D01*
X152500535Y-141806258D01*
X152535661Y-141645499D01*
X152608566Y-141487062D01*
X152687151Y-141368962D01*
X152748501Y-141295210D01*
X152761271Y-141285930D01*
X152803808Y-141246255D01*
X152759855Y-141211976D01*
X152653282Y-141195901D01*
X152545862Y-141209194D01*
G36*
X150754283Y-141238706D02*
G01*
X150692930Y-141294530D01*
X150588803Y-141462048D01*
X150563292Y-141655404D01*
X150618918Y-141838584D01*
X150651534Y-141885836D01*
X150792255Y-141987229D01*
X150976458Y-142029490D01*
X151161823Y-142008278D01*
X151274191Y-141949705D01*
X151363675Y-141845886D01*
X151397509Y-141704616D01*
X151399502Y-141639450D01*
X151392451Y-141601755D01*
X151223660Y-141601755D01*
X151194490Y-141786422D01*
X151118804Y-141917059D01*
X151014334Y-141982314D01*
X150898812Y-141970832D01*
X150793881Y-141876942D01*
X150728969Y-141720009D01*
X150728167Y-141553585D01*
X150782364Y-141405906D01*
X150882450Y-141305210D01*
X150987307Y-141277447D01*
X151123546Y-141311340D01*
X151200270Y-141418662D01*
X151223660Y-141601755D01*
X151392451Y-141601755D01*
X151360078Y-141428716D01*
X151241769Y-141282322D01*
X151044517Y-141200205D01*
X151008024Y-141193412D01*
X150863242Y-141186873D01*
X150754283Y-141238706D01*
G37*
X150754283Y-141238706D02*
X150692930Y-141294530D01*
X150588803Y-141462048D01*
X150563292Y-141655404D01*
X150618918Y-141838584D01*
X150651534Y-141885836D01*
X150792255Y-141987229D01*
X150976458Y-142029490D01*
X151161823Y-142008278D01*
X151274191Y-141949705D01*
X151363675Y-141845886D01*
X151397509Y-141704616D01*
X151399502Y-141639450D01*
X151392451Y-141601755D01*
X151223660Y-141601755D01*
X151194490Y-141786422D01*
X151118804Y-141917059D01*
X151014334Y-141982314D01*
X150898812Y-141970832D01*
X150793881Y-141876942D01*
X150728969Y-141720009D01*
X150728167Y-141553585D01*
X150782364Y-141405906D01*
X150882450Y-141305210D01*
X150987307Y-141277447D01*
X151123546Y-141311340D01*
X151200270Y-141418662D01*
X151223660Y-141601755D01*
X151392451Y-141601755D01*
X151360078Y-141428716D01*
X151241769Y-141282322D01*
X151044517Y-141200205D01*
X151008024Y-141193412D01*
X150863242Y-141186873D01*
X150754283Y-141238706D01*
G36*
X149766797Y-141197396D02*
G01*
X149751394Y-141280289D01*
X149751526Y-141284726D01*
X149762897Y-141352480D01*
X149781219Y-141341074D01*
X149844588Y-141298071D01*
X149965156Y-141277700D01*
X149980807Y-141277447D01*
X150098632Y-141286502D01*
X150146209Y-141331906D01*
X150154722Y-141430152D01*
X150138088Y-141542744D01*
X150077854Y-141581744D01*
X150057160Y-141582857D01*
X149963585Y-141553764D01*
X149933924Y-141519230D01*
X149916395Y-141519806D01*
X149905317Y-141601362D01*
X149904231Y-141630763D01*
X149905532Y-141741648D01*
X149923742Y-141764123D01*
X149968843Y-141712064D01*
X150044152Y-141652571D01*
X150096098Y-141654438D01*
X150147544Y-141737357D01*
X150146506Y-141855423D01*
X150097503Y-141959438D01*
X150065644Y-141985995D01*
X150023466Y-142020345D01*
X150062642Y-142035915D01*
X150154722Y-142039426D01*
X150332878Y-142040974D01*
X150332878Y-141226545D01*
X150120708Y-141226545D01*
X149966545Y-141219378D01*
X149847410Y-141201574D01*
X149828023Y-141195648D01*
X149766797Y-141197396D01*
G37*
X149766797Y-141197396D02*
X149751394Y-141280289D01*
X149751526Y-141284726D01*
X149762897Y-141352480D01*
X149781219Y-141341074D01*
X149844588Y-141298071D01*
X149965156Y-141277700D01*
X149980807Y-141277447D01*
X150098632Y-141286502D01*
X150146209Y-141331906D01*
X150154722Y-141430152D01*
X150138088Y-141542744D01*
X150077854Y-141581744D01*
X150057160Y-141582857D01*
X149963585Y-141553764D01*
X149933924Y-141519230D01*
X149916395Y-141519806D01*
X149905317Y-141601362D01*
X149904231Y-141630763D01*
X149905532Y-141741648D01*
X149923742Y-141764123D01*
X149968843Y-141712064D01*
X150044152Y-141652571D01*
X150096098Y-141654438D01*
X150147544Y-141737357D01*
X150146506Y-141855423D01*
X150097503Y-141959438D01*
X150065644Y-141985995D01*
X150023466Y-142020345D01*
X150062642Y-142035915D01*
X150154722Y-142039426D01*
X150332878Y-142040974D01*
X150332878Y-141226545D01*
X150120708Y-141226545D01*
X149966545Y-141219378D01*
X149847410Y-141201574D01*
X149828023Y-141195648D01*
X149766797Y-141197396D01*
G36*
X155957527Y-139674040D02*
G01*
X155962273Y-139984705D01*
X155974839Y-140202879D01*
X155992713Y-140327149D01*
X156013387Y-140356101D01*
X156034351Y-140288320D01*
X156053095Y-140122394D01*
X156067108Y-139856909D01*
X156070490Y-139737667D01*
X156084782Y-139114120D01*
X156441094Y-139114120D01*
X156455387Y-139737667D01*
X156464961Y-139989253D01*
X156480066Y-140188105D01*
X156499004Y-140317594D01*
X156519014Y-140361214D01*
X156545032Y-140314977D01*
X156562909Y-140194797D01*
X156568349Y-140055803D01*
X156568349Y-139750392D01*
X156873760Y-139750392D01*
X156873760Y-140055803D01*
X156879624Y-140233141D01*
X156900410Y-140328354D01*
X156940913Y-140360612D01*
X156950112Y-140361214D01*
X156994447Y-140337759D01*
X157018250Y-140254612D01*
X157026315Y-140092602D01*
X157026465Y-140055803D01*
X157029160Y-139886541D01*
X157043883Y-139795156D01*
X157080596Y-139757744D01*
X157149259Y-139750399D01*
X157153720Y-139750392D01*
X157224246Y-139756859D01*
X157262323Y-139792196D01*
X157277911Y-139880307D01*
X157280971Y-140045098D01*
X157280974Y-140055803D01*
X157288702Y-140218483D01*
X157308888Y-140328773D01*
X157331876Y-140361214D01*
X157358989Y-140314850D01*
X157377371Y-140193730D01*
X157382778Y-140055803D01*
X157382778Y-139750392D01*
X157688189Y-139750392D01*
X157688189Y-140055803D01*
X157695916Y-140218483D01*
X157716103Y-140328773D01*
X157739090Y-140361214D01*
X157764298Y-140313589D01*
X157782012Y-140183567D01*
X157789823Y-139990428D01*
X157789992Y-139954000D01*
X157784039Y-139752337D01*
X157767786Y-139610625D01*
X157743644Y-139548143D01*
X157739090Y-139546785D01*
X157689668Y-139585520D01*
X157688189Y-139597687D01*
X157643957Y-139633427D01*
X157537383Y-139648585D01*
X157535483Y-139648589D01*
X157427322Y-139635976D01*
X157387456Y-139576481D01*
X157382778Y-139495883D01*
X157368034Y-139388664D01*
X157332509Y-139343190D01*
X157331876Y-139343178D01*
X157296136Y-139387410D01*
X157280978Y-139493984D01*
X157280974Y-139495883D01*
X157267278Y-139605018D01*
X157209058Y-139644942D01*
X157153720Y-139648589D01*
X157075194Y-139639095D01*
X157037989Y-139592428D01*
X157026951Y-139481313D01*
X157026465Y-139419531D01*
X157016473Y-139268556D01*
X156982497Y-139199786D01*
X156950112Y-139190473D01*
X156899787Y-139220450D01*
X156876864Y-139322378D01*
X156873760Y-139419531D01*
X156868485Y-139560878D01*
X156842560Y-139627847D01*
X156780829Y-139647714D01*
X156746505Y-139648589D01*
X156659313Y-139634602D01*
X156624485Y-139572478D01*
X156619251Y-139476795D01*
X156609013Y-139299635D01*
X156587437Y-139145933D01*
X156564772Y-139057119D01*
X156524363Y-139009622D01*
X156439324Y-138990517D01*
X156282765Y-138986877D01*
X156256575Y-138986865D01*
X155957527Y-138986865D01*
X155957527Y-139674040D01*
G37*
X155957527Y-139674040D02*
X155962273Y-139984705D01*
X155974839Y-140202879D01*
X155992713Y-140327149D01*
X156013387Y-140356101D01*
X156034351Y-140288320D01*
X156053095Y-140122394D01*
X156067108Y-139856909D01*
X156070490Y-139737667D01*
X156084782Y-139114120D01*
X156441094Y-139114120D01*
X156455387Y-139737667D01*
X156464961Y-139989253D01*
X156480066Y-140188105D01*
X156499004Y-140317594D01*
X156519014Y-140361214D01*
X156545032Y-140314977D01*
X156562909Y-140194797D01*
X156568349Y-140055803D01*
X156568349Y-139750392D01*
X156873760Y-139750392D01*
X156873760Y-140055803D01*
X156879624Y-140233141D01*
X156900410Y-140328354D01*
X156940913Y-140360612D01*
X156950112Y-140361214D01*
X156994447Y-140337759D01*
X157018250Y-140254612D01*
X157026315Y-140092602D01*
X157026465Y-140055803D01*
X157029160Y-139886541D01*
X157043883Y-139795156D01*
X157080596Y-139757744D01*
X157149259Y-139750399D01*
X157153720Y-139750392D01*
X157224246Y-139756859D01*
X157262323Y-139792196D01*
X157277911Y-139880307D01*
X157280971Y-140045098D01*
X157280974Y-140055803D01*
X157288702Y-140218483D01*
X157308888Y-140328773D01*
X157331876Y-140361214D01*
X157358989Y-140314850D01*
X157377371Y-140193730D01*
X157382778Y-140055803D01*
X157382778Y-139750392D01*
X157688189Y-139750392D01*
X157688189Y-140055803D01*
X157695916Y-140218483D01*
X157716103Y-140328773D01*
X157739090Y-140361214D01*
X157764298Y-140313589D01*
X157782012Y-140183567D01*
X157789823Y-139990428D01*
X157789992Y-139954000D01*
X157784039Y-139752337D01*
X157767786Y-139610625D01*
X157743644Y-139548143D01*
X157739090Y-139546785D01*
X157689668Y-139585520D01*
X157688189Y-139597687D01*
X157643957Y-139633427D01*
X157537383Y-139648585D01*
X157535483Y-139648589D01*
X157427322Y-139635976D01*
X157387456Y-139576481D01*
X157382778Y-139495883D01*
X157368034Y-139388664D01*
X157332509Y-139343190D01*
X157331876Y-139343178D01*
X157296136Y-139387410D01*
X157280978Y-139493984D01*
X157280974Y-139495883D01*
X157267278Y-139605018D01*
X157209058Y-139644942D01*
X157153720Y-139648589D01*
X157075194Y-139639095D01*
X157037989Y-139592428D01*
X157026951Y-139481313D01*
X157026465Y-139419531D01*
X157016473Y-139268556D01*
X156982497Y-139199786D01*
X156950112Y-139190473D01*
X156899787Y-139220450D01*
X156876864Y-139322378D01*
X156873760Y-139419531D01*
X156868485Y-139560878D01*
X156842560Y-139627847D01*
X156780829Y-139647714D01*
X156746505Y-139648589D01*
X156659313Y-139634602D01*
X156624485Y-139572478D01*
X156619251Y-139476795D01*
X156609013Y-139299635D01*
X156587437Y-139145933D01*
X156564772Y-139057119D01*
X156524363Y-139009622D01*
X156439324Y-138990517D01*
X156282765Y-138986877D01*
X156256575Y-138986865D01*
X155957527Y-138986865D01*
X155957527Y-139674040D01*
G36*
X155471800Y-138207068D02*
G01*
X155403128Y-138288163D01*
X155363787Y-138381520D01*
X155371998Y-138452938D01*
X155394025Y-138468170D01*
X155420700Y-138515980D01*
X155391945Y-138590231D01*
X155362410Y-138684245D01*
X155397607Y-138732356D01*
X155433205Y-138789075D01*
X155402863Y-138875242D01*
X155379507Y-138968340D01*
X155360903Y-139136622D01*
X155349356Y-139353495D01*
X155346706Y-139522860D01*
X155350879Y-139793989D01*
X155365236Y-139985354D01*
X155392527Y-140118721D01*
X155434033Y-140213380D01*
X155517590Y-140324176D01*
X155584256Y-140366152D01*
X155615726Y-140339938D01*
X155593691Y-140246162D01*
X155575764Y-140208509D01*
X155526954Y-140105247D01*
X155535055Y-140063737D01*
X155609209Y-140055831D01*
X155625358Y-140055803D01*
X155721642Y-140038540D01*
X155753920Y-140004901D01*
X155709612Y-139969462D01*
X155602531Y-139954023D01*
X155597834Y-139954000D01*
X155441748Y-139954000D01*
X155467734Y-139432256D01*
X155480863Y-139168535D01*
X155494096Y-138902487D01*
X155505335Y-138676312D01*
X155509291Y-138596617D01*
X155523181Y-138425404D01*
X155543584Y-138296905D01*
X155562376Y-138245208D01*
X155614959Y-138257342D01*
X155709068Y-138329100D01*
X155778709Y-138397297D01*
X155883416Y-138505759D01*
X155936354Y-138545682D01*
X155955173Y-138522992D01*
X155957527Y-138457328D01*
X155911694Y-138339662D01*
X155794388Y-138240383D01*
X155635898Y-138180746D01*
X155551581Y-138172437D01*
X155471800Y-138207068D01*
G37*
X155471800Y-138207068D02*
X155403128Y-138288163D01*
X155363787Y-138381520D01*
X155371998Y-138452938D01*
X155394025Y-138468170D01*
X155420700Y-138515980D01*
X155391945Y-138590231D01*
X155362410Y-138684245D01*
X155397607Y-138732356D01*
X155433205Y-138789075D01*
X155402863Y-138875242D01*
X155379507Y-138968340D01*
X155360903Y-139136622D01*
X155349356Y-139353495D01*
X155346706Y-139522860D01*
X155350879Y-139793989D01*
X155365236Y-139985354D01*
X155392527Y-140118721D01*
X155434033Y-140213380D01*
X155517590Y-140324176D01*
X155584256Y-140366152D01*
X155615726Y-140339938D01*
X155593691Y-140246162D01*
X155575764Y-140208509D01*
X155526954Y-140105247D01*
X155535055Y-140063737D01*
X155609209Y-140055831D01*
X155625358Y-140055803D01*
X155721642Y-140038540D01*
X155753920Y-140004901D01*
X155709612Y-139969462D01*
X155602531Y-139954023D01*
X155597834Y-139954000D01*
X155441748Y-139954000D01*
X155467734Y-139432256D01*
X155480863Y-139168535D01*
X155494096Y-138902487D01*
X155505335Y-138676312D01*
X155509291Y-138596617D01*
X155523181Y-138425404D01*
X155543584Y-138296905D01*
X155562376Y-138245208D01*
X155614959Y-138257342D01*
X155709068Y-138329100D01*
X155778709Y-138397297D01*
X155883416Y-138505759D01*
X155936354Y-138545682D01*
X155955173Y-138522992D01*
X155957527Y-138457328D01*
X155911694Y-138339662D01*
X155794388Y-138240383D01*
X155635898Y-138180746D01*
X155551581Y-138172437D01*
X155471800Y-138207068D01*
G36*
X154664592Y-138205198D02*
G01*
X154525798Y-138288456D01*
X154441975Y-138399674D01*
X154430473Y-138457328D01*
X154434007Y-138529452D01*
X154456374Y-138544095D01*
X154515226Y-138495330D01*
X154609291Y-138397297D01*
X154716660Y-138296736D01*
X154798025Y-138244508D01*
X154824810Y-138244395D01*
X154846229Y-138311219D01*
X154864965Y-138448005D01*
X154875373Y-138595804D01*
X154884623Y-138789453D01*
X154897695Y-139042492D01*
X154912380Y-139312683D01*
X154919134Y-139432256D01*
X154949031Y-139954000D01*
X154791556Y-139954000D01*
X154682292Y-139968331D01*
X154634188Y-140003010D01*
X154634080Y-140004901D01*
X154677814Y-140042540D01*
X154767189Y-140055803D01*
X154857254Y-140061588D01*
X154868070Y-140097648D01*
X154818091Y-140181267D01*
X154751125Y-140294284D01*
X154745110Y-140347499D01*
X154798148Y-140361201D01*
X154801262Y-140361214D01*
X154869500Y-140321212D01*
X154947614Y-140223858D01*
X154953967Y-140213380D01*
X154996460Y-140115509D01*
X155023343Y-139980785D01*
X155037369Y-139787438D01*
X155041295Y-139522860D01*
X155035817Y-139274476D01*
X155020839Y-139064716D01*
X154998547Y-138918028D01*
X154983094Y-138871423D01*
X154951364Y-138778903D01*
X154980544Y-138744123D01*
X155010785Y-138686013D01*
X154990393Y-138605102D01*
X154971298Y-138499766D01*
X154997029Y-138467152D01*
X155023922Y-138417283D01*
X154997247Y-138330328D01*
X154936504Y-138240086D01*
X154861194Y-138180358D01*
X154826989Y-138172437D01*
X154664592Y-138205198D01*
G37*
X154664592Y-138205198D02*
X154525798Y-138288456D01*
X154441975Y-138399674D01*
X154430473Y-138457328D01*
X154434007Y-138529452D01*
X154456374Y-138544095D01*
X154515226Y-138495330D01*
X154609291Y-138397297D01*
X154716660Y-138296736D01*
X154798025Y-138244508D01*
X154824810Y-138244395D01*
X154846229Y-138311219D01*
X154864965Y-138448005D01*
X154875373Y-138595804D01*
X154884623Y-138789453D01*
X154897695Y-139042492D01*
X154912380Y-139312683D01*
X154919134Y-139432256D01*
X154949031Y-139954000D01*
X154791556Y-139954000D01*
X154682292Y-139968331D01*
X154634188Y-140003010D01*
X154634080Y-140004901D01*
X154677814Y-140042540D01*
X154767189Y-140055803D01*
X154857254Y-140061588D01*
X154868070Y-140097648D01*
X154818091Y-140181267D01*
X154751125Y-140294284D01*
X154745110Y-140347499D01*
X154798148Y-140361201D01*
X154801262Y-140361214D01*
X154869500Y-140321212D01*
X154947614Y-140223858D01*
X154953967Y-140213380D01*
X154996460Y-140115509D01*
X155023343Y-139980785D01*
X155037369Y-139787438D01*
X155041295Y-139522860D01*
X155035817Y-139274476D01*
X155020839Y-139064716D01*
X154998547Y-138918028D01*
X154983094Y-138871423D01*
X154951364Y-138778903D01*
X154980544Y-138744123D01*
X155010785Y-138686013D01*
X154990393Y-138605102D01*
X154971298Y-138499766D01*
X154997029Y-138467152D01*
X155023922Y-138417283D01*
X154997247Y-138330328D01*
X154936504Y-138240086D01*
X154861194Y-138180358D01*
X154826989Y-138172437D01*
X154664592Y-138205198D01*
G36*
X153768750Y-139317727D02*
G01*
X153766518Y-139495584D01*
X153753927Y-139594648D01*
X153722129Y-139637920D01*
X153662279Y-139648398D01*
X153641495Y-139648589D01*
X153562969Y-139639095D01*
X153525764Y-139592428D01*
X153514727Y-139481313D01*
X153514241Y-139419531D01*
X153504248Y-139268556D01*
X153470272Y-139199786D01*
X153437888Y-139190473D01*
X153387563Y-139220450D01*
X153364640Y-139322378D01*
X153361535Y-139419531D01*
X153356261Y-139560878D01*
X153330335Y-139627847D01*
X153268604Y-139647714D01*
X153234281Y-139648589D01*
X153143336Y-139632153D01*
X153110065Y-139562289D01*
X153107026Y-139495883D01*
X153084262Y-139374650D01*
X153030674Y-139343178D01*
X152970057Y-139388706D01*
X152954321Y-139495883D01*
X152940625Y-139605018D01*
X152882404Y-139644942D01*
X152827066Y-139648589D01*
X152731406Y-139631165D01*
X152699812Y-139597687D01*
X152661077Y-139548264D01*
X152648910Y-139546785D01*
X152623702Y-139594410D01*
X152605988Y-139724432D01*
X152598178Y-139917571D01*
X152598008Y-139954000D01*
X152603961Y-140155662D01*
X152620214Y-140297375D01*
X152644356Y-140359857D01*
X152648910Y-140361214D01*
X152676023Y-140314850D01*
X152694405Y-140193730D01*
X152699812Y-140055803D01*
X152702506Y-139886541D01*
X152717230Y-139795156D01*
X152753943Y-139757744D01*
X152822606Y-139750399D01*
X152827066Y-139750392D01*
X152897592Y-139756859D01*
X152935669Y-139792196D01*
X152951258Y-139880307D01*
X152954318Y-140045098D01*
X152954321Y-140055803D01*
X152960185Y-140233141D01*
X152980971Y-140328354D01*
X153021474Y-140360612D01*
X153030674Y-140361214D01*
X153075008Y-140337759D01*
X153098811Y-140254612D01*
X153106876Y-140092602D01*
X153107026Y-140055803D01*
X153109721Y-139886541D01*
X153124444Y-139795156D01*
X153161157Y-139757744D01*
X153229820Y-139750399D01*
X153234281Y-139750392D01*
X153304807Y-139756859D01*
X153342884Y-139792196D01*
X153358472Y-139880307D01*
X153361532Y-140045098D01*
X153361535Y-140055803D01*
X153367399Y-140233141D01*
X153388186Y-140328354D01*
X153428688Y-140360612D01*
X153437888Y-140361214D01*
X153482223Y-140337759D01*
X153506026Y-140254612D01*
X153514090Y-140092602D01*
X153514241Y-140055803D01*
X153516935Y-139886541D01*
X153531659Y-139795156D01*
X153568372Y-139757744D01*
X153637035Y-139750399D01*
X153641495Y-139750392D01*
X153712021Y-139756859D01*
X153750098Y-139792196D01*
X153765687Y-139880307D01*
X153768747Y-140045098D01*
X153768750Y-140055803D01*
X153774613Y-140233141D01*
X153795400Y-140328354D01*
X153835903Y-140360612D01*
X153845102Y-140361214D01*
X153877446Y-140346195D01*
X153899416Y-140290931D01*
X153912849Y-140180110D01*
X153919583Y-139998423D01*
X153921455Y-139730559D01*
X153921455Y-139088669D01*
X154277768Y-139088669D01*
X154277768Y-139724942D01*
X154279570Y-139994471D01*
X154286202Y-140177553D01*
X154299500Y-140289495D01*
X154321303Y-140345611D01*
X154353446Y-140361210D01*
X154354120Y-140361214D01*
X154385404Y-140346717D01*
X154407026Y-140293349D01*
X154420634Y-140186293D01*
X154427873Y-140010732D01*
X154430389Y-139751848D01*
X154430473Y-139674040D01*
X154430473Y-138986865D01*
X153768750Y-138986865D01*
X153768750Y-139317727D01*
G37*
X153768750Y-139317727D02*
X153766518Y-139495584D01*
X153753927Y-139594648D01*
X153722129Y-139637920D01*
X153662279Y-139648398D01*
X153641495Y-139648589D01*
X153562969Y-139639095D01*
X153525764Y-139592428D01*
X153514727Y-139481313D01*
X153514241Y-139419531D01*
X153504248Y-139268556D01*
X153470272Y-139199786D01*
X153437888Y-139190473D01*
X153387563Y-139220450D01*
X153364640Y-139322378D01*
X153361535Y-139419531D01*
X153356261Y-139560878D01*
X153330335Y-139627847D01*
X153268604Y-139647714D01*
X153234281Y-139648589D01*
X153143336Y-139632153D01*
X153110065Y-139562289D01*
X153107026Y-139495883D01*
X153084262Y-139374650D01*
X153030674Y-139343178D01*
X152970057Y-139388706D01*
X152954321Y-139495883D01*
X152940625Y-139605018D01*
X152882404Y-139644942D01*
X152827066Y-139648589D01*
X152731406Y-139631165D01*
X152699812Y-139597687D01*
X152661077Y-139548264D01*
X152648910Y-139546785D01*
X152623702Y-139594410D01*
X152605988Y-139724432D01*
X152598178Y-139917571D01*
X152598008Y-139954000D01*
X152603961Y-140155662D01*
X152620214Y-140297375D01*
X152644356Y-140359857D01*
X152648910Y-140361214D01*
X152676023Y-140314850D01*
X152694405Y-140193730D01*
X152699812Y-140055803D01*
X152702506Y-139886541D01*
X152717230Y-139795156D01*
X152753943Y-139757744D01*
X152822606Y-139750399D01*
X152827066Y-139750392D01*
X152897592Y-139756859D01*
X152935669Y-139792196D01*
X152951258Y-139880307D01*
X152954318Y-140045098D01*
X152954321Y-140055803D01*
X152960185Y-140233141D01*
X152980971Y-140328354D01*
X153021474Y-140360612D01*
X153030674Y-140361214D01*
X153075008Y-140337759D01*
X153098811Y-140254612D01*
X153106876Y-140092602D01*
X153107026Y-140055803D01*
X153109721Y-139886541D01*
X153124444Y-139795156D01*
X153161157Y-139757744D01*
X153229820Y-139750399D01*
X153234281Y-139750392D01*
X153304807Y-139756859D01*
X153342884Y-139792196D01*
X153358472Y-139880307D01*
X153361532Y-140045098D01*
X153361535Y-140055803D01*
X153367399Y-140233141D01*
X153388186Y-140328354D01*
X153428688Y-140360612D01*
X153437888Y-140361214D01*
X153482223Y-140337759D01*
X153506026Y-140254612D01*
X153514090Y-140092602D01*
X153514241Y-140055803D01*
X153516935Y-139886541D01*
X153531659Y-139795156D01*
X153568372Y-139757744D01*
X153637035Y-139750399D01*
X153641495Y-139750392D01*
X153712021Y-139756859D01*
X153750098Y-139792196D01*
X153765687Y-139880307D01*
X153768747Y-140045098D01*
X153768750Y-140055803D01*
X153774613Y-140233141D01*
X153795400Y-140328354D01*
X153835903Y-140360612D01*
X153845102Y-140361214D01*
X153877446Y-140346195D01*
X153899416Y-140290931D01*
X153912849Y-140180110D01*
X153919583Y-139998423D01*
X153921455Y-139730559D01*
X153921455Y-139088669D01*
X154277768Y-139088669D01*
X154277768Y-139724942D01*
X154279570Y-139994471D01*
X154286202Y-140177553D01*
X154299500Y-140289495D01*
X154321303Y-140345611D01*
X154353446Y-140361210D01*
X154354120Y-140361214D01*
X154385404Y-140346717D01*
X154407026Y-140293349D01*
X154420634Y-140186293D01*
X154427873Y-140010732D01*
X154430389Y-139751848D01*
X154430473Y-139674040D01*
X154430473Y-138986865D01*
X153768750Y-138986865D01*
X153768750Y-139317727D01*
G36*
X152359629Y-140249866D02*
G01*
X152353561Y-140329420D01*
X152363648Y-140347428D01*
X152386783Y-140332247D01*
X152390382Y-140280620D01*
X152377951Y-140226306D01*
X152359629Y-140249866D01*
G37*
X152359629Y-140249866D02*
X152353561Y-140329420D01*
X152363648Y-140347428D01*
X152386783Y-140332247D01*
X152390382Y-140280620D01*
X152377951Y-140226306D01*
X152359629Y-140249866D01*
G36*
X152207761Y-140276378D02*
G01*
X152201669Y-140336786D01*
X152207761Y-140344247D01*
X152238022Y-140337260D01*
X152241696Y-140310312D01*
X152223071Y-140268414D01*
X152207761Y-140276378D01*
G37*
X152207761Y-140276378D02*
X152201669Y-140336786D01*
X152207761Y-140344247D01*
X152238022Y-140337260D01*
X152241696Y-140310312D01*
X152223071Y-140268414D01*
X152207761Y-140276378D01*
G36*
X152105957Y-140276378D02*
G01*
X152099866Y-140336786D01*
X152105957Y-140344247D01*
X152136219Y-140337260D01*
X152139892Y-140310312D01*
X152121268Y-140268414D01*
X152105957Y-140276378D01*
G37*
X152105957Y-140276378D02*
X152099866Y-140336786D01*
X152105957Y-140344247D01*
X152136219Y-140337260D01*
X152139892Y-140310312D01*
X152121268Y-140268414D01*
X152105957Y-140276378D01*
G36*
X156060583Y-138737561D02*
G01*
X155951086Y-138754765D01*
X155917476Y-138786356D01*
X155919166Y-138795984D01*
X155982941Y-138836233D01*
X156136411Y-138864214D01*
X156279720Y-138874662D01*
X156465116Y-138878832D01*
X156569616Y-138868183D01*
X156613532Y-138838906D01*
X156619251Y-138811035D01*
X156600194Y-138768761D01*
X156530157Y-138744440D01*
X156389845Y-138733861D01*
X156258696Y-138732356D01*
X156060583Y-138737561D01*
G37*
X156060583Y-138737561D02*
X155951086Y-138754765D01*
X155917476Y-138786356D01*
X155919166Y-138795984D01*
X155982941Y-138836233D01*
X156136411Y-138864214D01*
X156279720Y-138874662D01*
X156465116Y-138878832D01*
X156569616Y-138868183D01*
X156613532Y-138838906D01*
X156619251Y-138811035D01*
X156600194Y-138768761D01*
X156530157Y-138744440D01*
X156389845Y-138733861D01*
X156258696Y-138732356D01*
X156060583Y-138737561D01*
G36*
X153905698Y-138735491D02*
G01*
X153794165Y-138747463D01*
X153748906Y-138772124D01*
X153750342Y-138808709D01*
X153799225Y-138854366D01*
X153913681Y-138878468D01*
X154096574Y-138885062D01*
X154267878Y-138879985D01*
X154395844Y-138866777D01*
X154447440Y-138851127D01*
X154480148Y-138794371D01*
X154437060Y-138757623D01*
X154309587Y-138737937D01*
X154101209Y-138732356D01*
X153905698Y-138735491D01*
G37*
X153905698Y-138735491D02*
X153794165Y-138747463D01*
X153748906Y-138772124D01*
X153750342Y-138808709D01*
X153799225Y-138854366D01*
X153913681Y-138878468D01*
X154096574Y-138885062D01*
X154267878Y-138879985D01*
X154395844Y-138866777D01*
X154447440Y-138851127D01*
X154480148Y-138794371D01*
X154437060Y-138757623D01*
X154309587Y-138737937D01*
X154101209Y-138732356D01*
X153905698Y-138735491D01*
G36*
X155524862Y-137922396D02*
G01*
X155707018Y-137987517D01*
X155958567Y-138106028D01*
X156153358Y-138272473D01*
X156240474Y-138380092D01*
X156364742Y-138548527D01*
X156364742Y-138394806D01*
X156317598Y-138224813D01*
X156190549Y-138078803D01*
X156005168Y-137972637D01*
X155783030Y-137922174D01*
X155719090Y-137920162D01*
X155524862Y-137922396D01*
G37*
X155524862Y-137922396D02*
X155707018Y-137987517D01*
X155958567Y-138106028D01*
X156153358Y-138272473D01*
X156240474Y-138380092D01*
X156364742Y-138548527D01*
X156364742Y-138394806D01*
X156317598Y-138224813D01*
X156190549Y-138078803D01*
X156005168Y-137972637D01*
X155783030Y-137922174D01*
X155719090Y-137920162D01*
X155524862Y-137922396D01*
G36*
X154448112Y-137950653D02*
G01*
X154254789Y-138036979D01*
X154110507Y-138163483D01*
X154036015Y-138314510D01*
X154032169Y-138401220D01*
X154048710Y-138537204D01*
X154141352Y-138379109D01*
X154281401Y-138204704D01*
X154482777Y-138070086D01*
X154672719Y-137990357D01*
X154863139Y-137922396D01*
X154669729Y-137920162D01*
X154448112Y-137950653D01*
G37*
X154448112Y-137950653D02*
X154254789Y-138036979D01*
X154110507Y-138163483D01*
X154036015Y-138314510D01*
X154032169Y-138401220D01*
X154048710Y-138537204D01*
X154141352Y-138379109D01*
X154281401Y-138204704D01*
X154482777Y-138070086D01*
X154672719Y-137990357D01*
X154863139Y-137922396D01*
X154669729Y-137920162D01*
X154448112Y-137950653D01*
G36*
X155689445Y-137588140D02*
G01*
X155527494Y-137639148D01*
X155363858Y-137715011D01*
X155359431Y-137717536D01*
X155251582Y-137774190D01*
X155173614Y-137783855D01*
X155079645Y-137744358D01*
X155004235Y-137700727D01*
X154774684Y-137615177D01*
X154505236Y-137589401D01*
X154238885Y-137624065D01*
X154074161Y-137686296D01*
X153834363Y-137825331D01*
X153678645Y-137949804D01*
X153593480Y-138074089D01*
X153565341Y-138212558D01*
X153565143Y-138227199D01*
X153565143Y-138422584D01*
X153799168Y-138172392D01*
X154047563Y-137952374D01*
X154310074Y-137799865D01*
X154570603Y-137719366D01*
X154813054Y-137715379D01*
X155021328Y-137792407D01*
X155059881Y-137819818D01*
X155194000Y-137925316D01*
X155328119Y-137819818D01*
X155526998Y-137724886D01*
X155763494Y-137711930D01*
X156021512Y-137776449D01*
X156284952Y-137913941D01*
X156537718Y-138119904D01*
X156588832Y-138172392D01*
X156822858Y-138422584D01*
X156822858Y-138250575D01*
X156806152Y-138130558D01*
X156742800Y-138024292D01*
X156612950Y-137898902D01*
X156607892Y-137894563D01*
X156390496Y-137747958D01*
X156140748Y-137640541D01*
X155893331Y-137583882D01*
X155689445Y-137588140D01*
G37*
X155689445Y-137588140D02*
X155527494Y-137639148D01*
X155363858Y-137715011D01*
X155359431Y-137717536D01*
X155251582Y-137774190D01*
X155173614Y-137783855D01*
X155079645Y-137744358D01*
X155004235Y-137700727D01*
X154774684Y-137615177D01*
X154505236Y-137589401D01*
X154238885Y-137624065D01*
X154074161Y-137686296D01*
X153834363Y-137825331D01*
X153678645Y-137949804D01*
X153593480Y-138074089D01*
X153565341Y-138212558D01*
X153565143Y-138227199D01*
X153565143Y-138422584D01*
X153799168Y-138172392D01*
X154047563Y-137952374D01*
X154310074Y-137799865D01*
X154570603Y-137719366D01*
X154813054Y-137715379D01*
X155021328Y-137792407D01*
X155059881Y-137819818D01*
X155194000Y-137925316D01*
X155328119Y-137819818D01*
X155526998Y-137724886D01*
X155763494Y-137711930D01*
X156021512Y-137776449D01*
X156284952Y-137913941D01*
X156537718Y-138119904D01*
X156588832Y-138172392D01*
X156822858Y-138422584D01*
X156822858Y-138250575D01*
X156806152Y-138130558D01*
X156742800Y-138024292D01*
X156612950Y-137898902D01*
X156607892Y-137894563D01*
X156390496Y-137747958D01*
X156140748Y-137640541D01*
X155893331Y-137583882D01*
X155689445Y-137588140D01*
G36*
X155804726Y-137205327D02*
G01*
X155492312Y-137341913D01*
X155383590Y-137417902D01*
X155191415Y-137568489D01*
X155042013Y-137442775D01*
X154755651Y-137265872D01*
X154429094Y-137175444D01*
X154077465Y-137172509D01*
X153715889Y-137258081D01*
X153523112Y-137340805D01*
X153365157Y-137423878D01*
X153276986Y-137490444D01*
X153236153Y-137567096D01*
X153220213Y-137680431D01*
X153218629Y-137701595D01*
X153218531Y-137852405D01*
X153252105Y-137908354D01*
X153326893Y-137872655D01*
X153416290Y-137785829D01*
X153645034Y-137597312D01*
X153931471Y-137444640D01*
X154192229Y-137359870D01*
X154509619Y-137338698D01*
X154812064Y-137416496D01*
X155029775Y-137544366D01*
X155196412Y-137670439D01*
X155343236Y-137546894D01*
X155581022Y-137408608D01*
X155864588Y-137341458D01*
X156160401Y-137352759D01*
X156198224Y-137360420D01*
X156497323Y-137462337D01*
X156777435Y-137620707D01*
X156971711Y-137785829D01*
X157083018Y-137889267D01*
X157147357Y-137903553D01*
X157172228Y-137825540D01*
X157169372Y-137702925D01*
X157154839Y-137581982D01*
X157118063Y-137501218D01*
X157036508Y-137433615D01*
X156887640Y-137352159D01*
X156868714Y-137342482D01*
X156506035Y-137204945D01*
X156147003Y-137159449D01*
X155804726Y-137205327D01*
G37*
X155804726Y-137205327D02*
X155492312Y-137341913D01*
X155383590Y-137417902D01*
X155191415Y-137568489D01*
X155042013Y-137442775D01*
X154755651Y-137265872D01*
X154429094Y-137175444D01*
X154077465Y-137172509D01*
X153715889Y-137258081D01*
X153523112Y-137340805D01*
X153365157Y-137423878D01*
X153276986Y-137490444D01*
X153236153Y-137567096D01*
X153220213Y-137680431D01*
X153218629Y-137701595D01*
X153218531Y-137852405D01*
X153252105Y-137908354D01*
X153326893Y-137872655D01*
X153416290Y-137785829D01*
X153645034Y-137597312D01*
X153931471Y-137444640D01*
X154192229Y-137359870D01*
X154509619Y-137338698D01*
X154812064Y-137416496D01*
X155029775Y-137544366D01*
X155196412Y-137670439D01*
X155343236Y-137546894D01*
X155581022Y-137408608D01*
X155864588Y-137341458D01*
X156160401Y-137352759D01*
X156198224Y-137360420D01*
X156497323Y-137462337D01*
X156777435Y-137620707D01*
X156971711Y-137785829D01*
X157083018Y-137889267D01*
X157147357Y-137903553D01*
X157172228Y-137825540D01*
X157169372Y-137702925D01*
X157154839Y-137581982D01*
X157118063Y-137501218D01*
X157036508Y-137433615D01*
X156887640Y-137352159D01*
X156868714Y-137342482D01*
X156506035Y-137204945D01*
X156147003Y-137159449D01*
X155804726Y-137205327D01*
G36*
X153571505Y-136626294D02*
G01*
X153463207Y-136660477D01*
X153419646Y-136727720D01*
X153412437Y-136835347D01*
X153420655Y-136951775D01*
X153454273Y-136988664D01*
X153501515Y-136978170D01*
X153724221Y-136917393D01*
X153975834Y-136886022D01*
X154202783Y-136889812D01*
X154252317Y-136897499D01*
X154480597Y-136954266D01*
X154670317Y-137034776D01*
X154866807Y-137160195D01*
X154954326Y-137225290D01*
X155084747Y-137322943D01*
X155178450Y-137389539D01*
X155211019Y-137408909D01*
X155253051Y-137375961D01*
X155333257Y-137295941D01*
X155339895Y-137288905D01*
X155554873Y-137119940D01*
X155832030Y-136987991D01*
X156134205Y-136907808D01*
X156343853Y-136890392D01*
X156530191Y-136899913D01*
X156687180Y-136922711D01*
X156764799Y-136946963D01*
X156889195Y-136996065D01*
X156954254Y-136967195D01*
X156975266Y-136851625D01*
X156975563Y-136826658D01*
X156969171Y-136719143D01*
X156931957Y-136662369D01*
X156836859Y-136632032D01*
X156741622Y-136616539D01*
X156341908Y-136602300D01*
X155976027Y-136683905D01*
X155645871Y-136860685D01*
X155385438Y-137095500D01*
X155203628Y-137296742D01*
X154928143Y-137029914D01*
X154613065Y-136785558D01*
X154272878Y-136639710D01*
X153904939Y-136591582D01*
X153571505Y-136626294D01*
G37*
X153571505Y-136626294D02*
X153463207Y-136660477D01*
X153419646Y-136727720D01*
X153412437Y-136835347D01*
X153420655Y-136951775D01*
X153454273Y-136988664D01*
X153501515Y-136978170D01*
X153724221Y-136917393D01*
X153975834Y-136886022D01*
X154202783Y-136889812D01*
X154252317Y-136897499D01*
X154480597Y-136954266D01*
X154670317Y-137034776D01*
X154866807Y-137160195D01*
X154954326Y-137225290D01*
X155084747Y-137322943D01*
X155178450Y-137389539D01*
X155211019Y-137408909D01*
X155253051Y-137375961D01*
X155333257Y-137295941D01*
X155339895Y-137288905D01*
X155554873Y-137119940D01*
X155832030Y-136987991D01*
X156134205Y-136907808D01*
X156343853Y-136890392D01*
X156530191Y-136899913D01*
X156687180Y-136922711D01*
X156764799Y-136946963D01*
X156889195Y-136996065D01*
X156954254Y-136967195D01*
X156975266Y-136851625D01*
X156975563Y-136826658D01*
X156969171Y-136719143D01*
X156931957Y-136662369D01*
X156836859Y-136632032D01*
X156741622Y-136616539D01*
X156341908Y-136602300D01*
X155976027Y-136683905D01*
X155645871Y-136860685D01*
X155385438Y-137095500D01*
X155203628Y-137296742D01*
X154928143Y-137029914D01*
X154613065Y-136785558D01*
X154272878Y-136639710D01*
X153904939Y-136591582D01*
X153571505Y-136626294D01*
G36*
X153769153Y-135994396D02*
G01*
X153724589Y-136043823D01*
X153717848Y-136129807D01*
X153725885Y-136217657D01*
X153767328Y-136266402D01*
X153868176Y-136294506D01*
X153970931Y-136309527D01*
X154237650Y-136376105D01*
X154516903Y-136497220D01*
X154773890Y-136653979D01*
X154973813Y-136827488D01*
X155014553Y-136876142D01*
X155170594Y-137080725D01*
X155424081Y-136822525D01*
X155748370Y-136554194D01*
X156102449Y-136381619D01*
X156409674Y-136310508D01*
X156562503Y-136286128D01*
X156639723Y-136253524D01*
X156667009Y-136194233D01*
X156670153Y-136123187D01*
X156664476Y-136028621D01*
X156628764Y-135988489D01*
X156534993Y-135986345D01*
X156451775Y-135995033D01*
X156255911Y-136035259D01*
X156058734Y-136102062D01*
X156031835Y-136114053D01*
X155890453Y-136201298D01*
X155722972Y-136334981D01*
X155553137Y-136492228D01*
X155404690Y-136650160D01*
X155301375Y-136785903D01*
X155270935Y-136847157D01*
X155234696Y-136927180D01*
X155189360Y-136936224D01*
X155122068Y-136867797D01*
X155024625Y-136722797D01*
X154837312Y-136488107D01*
X154599157Y-136280440D01*
X154335965Y-136116482D01*
X154073542Y-136012920D01*
X153883279Y-135984777D01*
X153769153Y-135994396D01*
G37*
X153769153Y-135994396D02*
X153724589Y-136043823D01*
X153717848Y-136129807D01*
X153725885Y-136217657D01*
X153767328Y-136266402D01*
X153868176Y-136294506D01*
X153970931Y-136309527D01*
X154237650Y-136376105D01*
X154516903Y-136497220D01*
X154773890Y-136653979D01*
X154973813Y-136827488D01*
X155014553Y-136876142D01*
X155170594Y-137080725D01*
X155424081Y-136822525D01*
X155748370Y-136554194D01*
X156102449Y-136381619D01*
X156409674Y-136310508D01*
X156562503Y-136286128D01*
X156639723Y-136253524D01*
X156667009Y-136194233D01*
X156670153Y-136123187D01*
X156664476Y-136028621D01*
X156628764Y-135988489D01*
X156534993Y-135986345D01*
X156451775Y-135995033D01*
X156255911Y-136035259D01*
X156058734Y-136102062D01*
X156031835Y-136114053D01*
X155890453Y-136201298D01*
X155722972Y-136334981D01*
X155553137Y-136492228D01*
X155404690Y-136650160D01*
X155301375Y-136785903D01*
X155270935Y-136847157D01*
X155234696Y-136927180D01*
X155189360Y-136936224D01*
X155122068Y-136867797D01*
X155024625Y-136722797D01*
X154837312Y-136488107D01*
X154599157Y-136280440D01*
X154335965Y-136116482D01*
X154073542Y-136012920D01*
X153883279Y-135984777D01*
X153769153Y-135994396D01*
G36*
X154243267Y-135568301D02*
G01*
X154226866Y-135672730D01*
X154249613Y-135790228D01*
X154332798Y-135846161D01*
X154347980Y-135850315D01*
X154471808Y-135911675D01*
X154630629Y-136030826D01*
X154798581Y-136183945D01*
X154949804Y-136347210D01*
X155058435Y-136496798D01*
X155067706Y-136513301D01*
X155145623Y-136644372D01*
X155200207Y-136686317D01*
X155248737Y-136643362D01*
X155287443Y-136567053D01*
X155374765Y-136428089D01*
X155512625Y-136262422D01*
X155673980Y-136097656D01*
X155831788Y-135961395D01*
X155959007Y-135881243D01*
X155959469Y-135881051D01*
X156071270Y-135810938D01*
X156109083Y-135705880D01*
X156110233Y-135672073D01*
X156101941Y-135569875D01*
X156065294Y-135534509D01*
X155982630Y-135564554D01*
X155847556Y-135650917D01*
X155736970Y-135747966D01*
X155606198Y-135894240D01*
X155473425Y-136064932D01*
X155356835Y-136235233D01*
X155274616Y-136380335D01*
X155244902Y-136473026D01*
X155228065Y-136539037D01*
X155181020Y-136514464D01*
X155108963Y-136404170D01*
X155053567Y-136293939D01*
X154965766Y-136147482D01*
X154837155Y-135981300D01*
X154687496Y-135815709D01*
X154536547Y-135671027D01*
X154404068Y-135567571D01*
X154309818Y-135525659D01*
X154306266Y-135525543D01*
X154243267Y-135568301D01*
G37*
X154243267Y-135568301D02*
X154226866Y-135672730D01*
X154249613Y-135790228D01*
X154332798Y-135846161D01*
X154347980Y-135850315D01*
X154471808Y-135911675D01*
X154630629Y-136030826D01*
X154798581Y-136183945D01*
X154949804Y-136347210D01*
X155058435Y-136496798D01*
X155067706Y-136513301D01*
X155145623Y-136644372D01*
X155200207Y-136686317D01*
X155248737Y-136643362D01*
X155287443Y-136567053D01*
X155374765Y-136428089D01*
X155512625Y-136262422D01*
X155673980Y-136097656D01*
X155831788Y-135961395D01*
X155959007Y-135881243D01*
X155959469Y-135881051D01*
X156071270Y-135810938D01*
X156109083Y-135705880D01*
X156110233Y-135672073D01*
X156101941Y-135569875D01*
X156065294Y-135534509D01*
X155982630Y-135564554D01*
X155847556Y-135650917D01*
X155736970Y-135747966D01*
X155606198Y-135894240D01*
X155473425Y-136064932D01*
X155356835Y-136235233D01*
X155274616Y-136380335D01*
X155244902Y-136473026D01*
X155228065Y-136539037D01*
X155181020Y-136514464D01*
X155108963Y-136404170D01*
X155053567Y-136293939D01*
X154965766Y-136147482D01*
X154837155Y-135981300D01*
X154687496Y-135815709D01*
X154536547Y-135671027D01*
X154404068Y-135567571D01*
X154309818Y-135525659D01*
X154306266Y-135525543D01*
X154243267Y-135568301D01*
G36*
X154765914Y-135407547D02*
G01*
X154779812Y-135499646D01*
X154848386Y-135631086D01*
X154964792Y-135783823D01*
X154972840Y-135792924D01*
X155071844Y-135918310D01*
X155133246Y-136023616D01*
X155143098Y-136060158D01*
X155163941Y-136130038D01*
X155209915Y-136120829D01*
X155256187Y-136042144D01*
X155264817Y-136013043D01*
X155320457Y-135898154D01*
X155419820Y-135767253D01*
X155448492Y-135736998D01*
X155538476Y-135621709D01*
X155592821Y-135504262D01*
X155603240Y-135412164D01*
X155561447Y-135372920D01*
X155558202Y-135372837D01*
X155478213Y-135417264D01*
X155382257Y-135535669D01*
X155287407Y-135705735D01*
X155264692Y-135756464D01*
X155178796Y-135958208D01*
X155140462Y-135820333D01*
X155080988Y-135675032D01*
X154993038Y-135532221D01*
X154898360Y-135421670D01*
X154818704Y-135373148D01*
X154813536Y-135372837D01*
X154765914Y-135407547D01*
G37*
X154765914Y-135407547D02*
X154779812Y-135499646D01*
X154848386Y-135631086D01*
X154964792Y-135783823D01*
X154972840Y-135792924D01*
X155071844Y-135918310D01*
X155133246Y-136023616D01*
X155143098Y-136060158D01*
X155163941Y-136130038D01*
X155209915Y-136120829D01*
X155256187Y-136042144D01*
X155264817Y-136013043D01*
X155320457Y-135898154D01*
X155419820Y-135767253D01*
X155448492Y-135736998D01*
X155538476Y-135621709D01*
X155592821Y-135504262D01*
X155603240Y-135412164D01*
X155561447Y-135372920D01*
X155558202Y-135372837D01*
X155478213Y-135417264D01*
X155382257Y-135535669D01*
X155287407Y-135705735D01*
X155264692Y-135756464D01*
X155178796Y-135958208D01*
X155140462Y-135820333D01*
X155080988Y-135675032D01*
X154993038Y-135532221D01*
X154898360Y-135421670D01*
X154818704Y-135373148D01*
X154813536Y-135372837D01*
X154765914Y-135407547D01*
D12*
%TO.C,VT6Z12*%
X172778000Y-137160000D02*
X173728000Y-137160000D01*
X173728000Y-137160000D02*
X173728000Y-138360000D01*
X173728000Y-138360000D02*
X172778000Y-138360000D01*
X172778000Y-137160000D02*
X172778000Y-138360000D01*
%TO.C,VT6Z11*%
X166198000Y-137160000D02*
X167148000Y-137160000D01*
X167148000Y-137160000D02*
X167148000Y-138360000D01*
X167148000Y-138360000D02*
X166198000Y-138360000D01*
X166198000Y-137160000D02*
X166198000Y-138360000D01*
D13*
%TO.C,CR-1025*%
X149860000Y-118110000D02*
X149860000Y-118745000D01*
X146050000Y-118110000D02*
X149860000Y-118110000D01*
X146050000Y-118745000D02*
X146050000Y-118110000D01*
X149860000Y-138430000D02*
X149860000Y-137795000D01*
X146050000Y-138430000D02*
X149860000Y-138430000D01*
X146050000Y-137795000D02*
X146050000Y-138430000D01*
X149860000Y-118745000D02*
X149860000Y-122555000D01*
X146050000Y-122555000D02*
X146050000Y-118745000D01*
X149860000Y-137795000D02*
X149860000Y-133985000D01*
X146050000Y-133985000D02*
X146050000Y-137795000D01*
X142240000Y-133985000D02*
X150495000Y-133985000D01*
X147955000Y-122555000D02*
X150495000Y-122555000D01*
X153670000Y-125730000D02*
X150495000Y-122555000D01*
X153670000Y-130810000D02*
X150495000Y-133985000D01*
X153670000Y-125730000D02*
X153670000Y-130810000D01*
X153670000Y-128270000D02*
X153670000Y-125730000D01*
X142240000Y-122555000D02*
X142240000Y-123825000D01*
X142240000Y-133985000D02*
X142240000Y-132715000D01*
X147955000Y-122555000D02*
X142240000Y-122555000D01*
X142239999Y-132714999D02*
G75*
G03*
X142239999Y-123825001I-4444999J4444999D01*
G01*
%TO.C,Micro SD*%
X145415000Y-84395000D02*
X145415000Y-102295000D01*
X145415000Y-102295000D02*
X163315000Y-102295000D01*
X145415000Y-84395000D02*
X163315000Y-84395000D01*
X163315000Y-102295000D02*
X163315000Y-84395000D01*
X163195000Y-85725000D02*
X163195000Y-100965000D01*
X163195000Y-85725000D02*
X166370000Y-85725000D01*
X163195000Y-100965000D02*
X167005000Y-100965000D01*
X166370000Y-85725000D02*
X166370000Y-86360000D01*
X167640000Y-86360000D02*
X167640000Y-98425000D01*
X167005000Y-98425000D02*
X167005000Y-100965000D01*
X167640000Y-98425000D02*
X167005000Y-98425000D01*
X166370000Y-86360000D02*
X167640000Y-86360000D01*
%TO.C,nRF24L01+1*%
X172720000Y-102235000D02*
X172720000Y-117475000D01*
X172720000Y-117475000D02*
X143510000Y-117475000D01*
X143510000Y-117475000D02*
X143510000Y-102235000D01*
X143510000Y-102235000D02*
X172720000Y-102235000D01*
%TO.C,R6*%
X159660000Y-134017936D02*
X159660000Y-135222064D01*
X157840000Y-134017936D02*
X157840000Y-135222064D01*
%TO.C,U2*%
X161240000Y-132005000D02*
X159425000Y-132005000D01*
X161240000Y-132260000D02*
X161240000Y-132005000D01*
X165100000Y-132260000D02*
X161240000Y-132260000D01*
X168960000Y-132260000D02*
X168960000Y-132005000D01*
X165100000Y-132260000D02*
X168960000Y-132260000D01*
X161240000Y-121740000D02*
X161240000Y-121995000D01*
X165100000Y-121740000D02*
X161240000Y-121740000D01*
X168960000Y-121740000D02*
X168960000Y-121995000D01*
X165100000Y-121740000D02*
X168960000Y-121740000D01*
%TO.C,VT6Z12*%
D12*
X172704190Y-136800476D02*
X172770857Y-137000476D01*
X172837523Y-136800476D01*
X172875619Y-136800476D02*
X172989904Y-136800476D01*
X172932761Y-137000476D02*
X172932761Y-136800476D01*
X173142285Y-136800476D02*
X173104190Y-136800476D01*
X173085142Y-136810000D01*
X173075619Y-136819523D01*
X173056571Y-136848095D01*
X173047047Y-136886190D01*
X173047047Y-136962380D01*
X173056571Y-136981428D01*
X173066095Y-136990952D01*
X173085142Y-137000476D01*
X173123238Y-137000476D01*
X173142285Y-136990952D01*
X173151809Y-136981428D01*
X173161333Y-136962380D01*
X173161333Y-136914761D01*
X173151809Y-136895714D01*
X173142285Y-136886190D01*
X173123238Y-136876666D01*
X173085142Y-136876666D01*
X173066095Y-136886190D01*
X173056571Y-136895714D01*
X173047047Y-136914761D01*
X173228000Y-136800476D02*
X173361333Y-136800476D01*
X173228000Y-137000476D01*
X173361333Y-137000476D01*
X173542285Y-137000476D02*
X173428000Y-137000476D01*
X173485142Y-137000476D02*
X173485142Y-136800476D01*
X173466095Y-136829047D01*
X173447047Y-136848095D01*
X173428000Y-136857619D01*
X173618476Y-136819523D02*
X173628000Y-136810000D01*
X173647047Y-136800476D01*
X173694666Y-136800476D01*
X173713714Y-136810000D01*
X173723238Y-136819523D01*
X173732761Y-136838571D01*
X173732761Y-136857619D01*
X173723238Y-136886190D01*
X173608952Y-137000476D01*
X173732761Y-137000476D01*
%TO.C,VT6Z11*%
X166124190Y-136800476D02*
X166190857Y-137000476D01*
X166257523Y-136800476D01*
X166295619Y-136800476D02*
X166409904Y-136800476D01*
X166352761Y-137000476D02*
X166352761Y-136800476D01*
X166562285Y-136800476D02*
X166524190Y-136800476D01*
X166505142Y-136810000D01*
X166495619Y-136819523D01*
X166476571Y-136848095D01*
X166467047Y-136886190D01*
X166467047Y-136962380D01*
X166476571Y-136981428D01*
X166486095Y-136990952D01*
X166505142Y-137000476D01*
X166543238Y-137000476D01*
X166562285Y-136990952D01*
X166571809Y-136981428D01*
X166581333Y-136962380D01*
X166581333Y-136914761D01*
X166571809Y-136895714D01*
X166562285Y-136886190D01*
X166543238Y-136876666D01*
X166505142Y-136876666D01*
X166486095Y-136886190D01*
X166476571Y-136895714D01*
X166467047Y-136914761D01*
X166648000Y-136800476D02*
X166781333Y-136800476D01*
X166648000Y-137000476D01*
X166781333Y-137000476D01*
X166962285Y-137000476D02*
X166848000Y-137000476D01*
X166905142Y-137000476D02*
X166905142Y-136800476D01*
X166886095Y-136829047D01*
X166867047Y-136848095D01*
X166848000Y-136857619D01*
X167152761Y-137000476D02*
X167038476Y-137000476D01*
X167095619Y-137000476D02*
X167095619Y-136800476D01*
X167076571Y-136829047D01*
X167057523Y-136848095D01*
X167038476Y-136857619D01*
%TO.C,CR-1025*%
D10*
X142343142Y-125301714D02*
X142390761Y-125254095D01*
X142438380Y-125111238D01*
X142438380Y-125016000D01*
X142390761Y-124873142D01*
X142295523Y-124777904D01*
X142200285Y-124730285D01*
X142009809Y-124682666D01*
X141866952Y-124682666D01*
X141676476Y-124730285D01*
X141581238Y-124777904D01*
X141486000Y-124873142D01*
X141438380Y-125016000D01*
X141438380Y-125111238D01*
X141486000Y-125254095D01*
X141533619Y-125301714D01*
X142438380Y-126301714D02*
X141962190Y-125968380D01*
X142438380Y-125730285D02*
X141438380Y-125730285D01*
X141438380Y-126111238D01*
X141486000Y-126206476D01*
X141533619Y-126254095D01*
X141628857Y-126301714D01*
X141771714Y-126301714D01*
X141866952Y-126254095D01*
X141914571Y-126206476D01*
X141962190Y-126111238D01*
X141962190Y-125730285D01*
X142057428Y-126730285D02*
X142057428Y-127492190D01*
X142438380Y-128492190D02*
X142438380Y-127920761D01*
X142438380Y-128206476D02*
X141438380Y-128206476D01*
X141581238Y-128111238D01*
X141676476Y-128016000D01*
X141724095Y-127920761D01*
X141438380Y-129111238D02*
X141438380Y-129206476D01*
X141486000Y-129301714D01*
X141533619Y-129349333D01*
X141628857Y-129396952D01*
X141819333Y-129444571D01*
X142057428Y-129444571D01*
X142247904Y-129396952D01*
X142343142Y-129349333D01*
X142390761Y-129301714D01*
X142438380Y-129206476D01*
X142438380Y-129111238D01*
X142390761Y-129016000D01*
X142343142Y-128968380D01*
X142247904Y-128920761D01*
X142057428Y-128873142D01*
X141819333Y-128873142D01*
X141628857Y-128920761D01*
X141533619Y-128968380D01*
X141486000Y-129016000D01*
X141438380Y-129111238D01*
X141533619Y-129825523D02*
X141486000Y-129873142D01*
X141438380Y-129968380D01*
X141438380Y-130206476D01*
X141486000Y-130301714D01*
X141533619Y-130349333D01*
X141628857Y-130396952D01*
X141724095Y-130396952D01*
X141866952Y-130349333D01*
X142438380Y-129777904D01*
X142438380Y-130396952D01*
X141438380Y-131301714D02*
X141438380Y-130825523D01*
X141914571Y-130777904D01*
X141866952Y-130825523D01*
X141819333Y-130920761D01*
X141819333Y-131158857D01*
X141866952Y-131254095D01*
X141914571Y-131301714D01*
X142009809Y-131349333D01*
X142247904Y-131349333D01*
X142343142Y-131301714D01*
X142390761Y-131254095D01*
X142438380Y-131158857D01*
X142438380Y-130920761D01*
X142390761Y-130825523D01*
X142343142Y-130777904D01*
%TO.C,Micro SD*%
X156001980Y-89108352D02*
X155001980Y-89108352D01*
X155716266Y-89441685D01*
X155001980Y-89775019D01*
X156001980Y-89775019D01*
X156001980Y-90251209D02*
X155335314Y-90251209D01*
X155001980Y-90251209D02*
X155049600Y-90203590D01*
X155097219Y-90251209D01*
X155049600Y-90298828D01*
X155001980Y-90251209D01*
X155097219Y-90251209D01*
X155954361Y-91155971D02*
X156001980Y-91060733D01*
X156001980Y-90870257D01*
X155954361Y-90775019D01*
X155906742Y-90727400D01*
X155811504Y-90679780D01*
X155525790Y-90679780D01*
X155430552Y-90727400D01*
X155382933Y-90775019D01*
X155335314Y-90870257D01*
X155335314Y-91060733D01*
X155382933Y-91155971D01*
X156001980Y-91584542D02*
X155335314Y-91584542D01*
X155525790Y-91584542D02*
X155430552Y-91632161D01*
X155382933Y-91679780D01*
X155335314Y-91775019D01*
X155335314Y-91870257D01*
X156001980Y-92346447D02*
X155954361Y-92251209D01*
X155906742Y-92203590D01*
X155811504Y-92155971D01*
X155525790Y-92155971D01*
X155430552Y-92203590D01*
X155382933Y-92251209D01*
X155335314Y-92346447D01*
X155335314Y-92489304D01*
X155382933Y-92584542D01*
X155430552Y-92632161D01*
X155525790Y-92679780D01*
X155811504Y-92679780D01*
X155906742Y-92632161D01*
X155954361Y-92584542D01*
X156001980Y-92489304D01*
X156001980Y-92346447D01*
X155954361Y-93822638D02*
X156001980Y-93965495D01*
X156001980Y-94203590D01*
X155954361Y-94298828D01*
X155906742Y-94346447D01*
X155811504Y-94394066D01*
X155716266Y-94394066D01*
X155621028Y-94346447D01*
X155573409Y-94298828D01*
X155525790Y-94203590D01*
X155478171Y-94013114D01*
X155430552Y-93917876D01*
X155382933Y-93870257D01*
X155287695Y-93822638D01*
X155192457Y-93822638D01*
X155097219Y-93870257D01*
X155049600Y-93917876D01*
X155001980Y-94013114D01*
X155001980Y-94251209D01*
X155049600Y-94394066D01*
X156001980Y-94822638D02*
X155001980Y-94822638D01*
X155001980Y-95060733D01*
X155049600Y-95203590D01*
X155144838Y-95298828D01*
X155240076Y-95346447D01*
X155430552Y-95394066D01*
X155573409Y-95394066D01*
X155763885Y-95346447D01*
X155859123Y-95298828D01*
X155954361Y-95203590D01*
X156001980Y-95060733D01*
X156001980Y-94822638D01*
X149018809Y-99147380D02*
X149637857Y-99147380D01*
X149304523Y-99528333D01*
X149447380Y-99528333D01*
X149542619Y-99575952D01*
X149590238Y-99623571D01*
X149637857Y-99718809D01*
X149637857Y-99956904D01*
X149590238Y-100052142D01*
X149542619Y-100099761D01*
X149447380Y-100147380D01*
X149161666Y-100147380D01*
X149066428Y-100099761D01*
X149018809Y-100052142D01*
X150114047Y-100099761D02*
X150114047Y-100147380D01*
X150066428Y-100242619D01*
X150018809Y-100290238D01*
X150447380Y-99147380D02*
X151066428Y-99147380D01*
X150733095Y-99528333D01*
X150875952Y-99528333D01*
X150971190Y-99575952D01*
X151018809Y-99623571D01*
X151066428Y-99718809D01*
X151066428Y-99956904D01*
X151018809Y-100052142D01*
X150971190Y-100099761D01*
X150875952Y-100147380D01*
X150590238Y-100147380D01*
X150495000Y-100099761D01*
X150447380Y-100052142D01*
X151352142Y-99147380D02*
X151685476Y-100147380D01*
X152018809Y-99147380D01*
X150328333Y-97512142D02*
X150280714Y-97559761D01*
X150137857Y-97607380D01*
X150042619Y-97607380D01*
X149899761Y-97559761D01*
X149804523Y-97464523D01*
X149756904Y-97369285D01*
X149709285Y-97178809D01*
X149709285Y-97035952D01*
X149756904Y-96845476D01*
X149804523Y-96750238D01*
X149899761Y-96655000D01*
X150042619Y-96607380D01*
X150137857Y-96607380D01*
X150280714Y-96655000D01*
X150328333Y-96702619D01*
X150709285Y-97559761D02*
X150852142Y-97607380D01*
X151090238Y-97607380D01*
X151185476Y-97559761D01*
X151233095Y-97512142D01*
X151280714Y-97416904D01*
X151280714Y-97321666D01*
X151233095Y-97226428D01*
X151185476Y-97178809D01*
X151090238Y-97131190D01*
X150899761Y-97083571D01*
X150804523Y-97035952D01*
X150756904Y-96988333D01*
X150709285Y-96893095D01*
X150709285Y-96797857D01*
X150756904Y-96702619D01*
X150804523Y-96655000D01*
X150899761Y-96607380D01*
X151137857Y-96607380D01*
X151280714Y-96655000D01*
X148923571Y-95067380D02*
X148923571Y-94067380D01*
X149256904Y-94781666D01*
X149590238Y-94067380D01*
X149590238Y-95067380D01*
X150256904Y-94067380D02*
X150447380Y-94067380D01*
X150542619Y-94115000D01*
X150637857Y-94210238D01*
X150685476Y-94400714D01*
X150685476Y-94734047D01*
X150637857Y-94924523D01*
X150542619Y-95019761D01*
X150447380Y-95067380D01*
X150256904Y-95067380D01*
X150161666Y-95019761D01*
X150066428Y-94924523D01*
X150018809Y-94734047D01*
X150018809Y-94400714D01*
X150066428Y-94210238D01*
X150161666Y-94115000D01*
X150256904Y-94067380D01*
X151066428Y-95019761D02*
X151209285Y-95067380D01*
X151447380Y-95067380D01*
X151542619Y-95019761D01*
X151590238Y-94972142D01*
X151637857Y-94876904D01*
X151637857Y-94781666D01*
X151590238Y-94686428D01*
X151542619Y-94638809D01*
X151447380Y-94591190D01*
X151256904Y-94543571D01*
X151161666Y-94495952D01*
X151114047Y-94448333D01*
X151066428Y-94353095D01*
X151066428Y-94257857D01*
X151114047Y-94162619D01*
X151161666Y-94115000D01*
X151256904Y-94067380D01*
X151495000Y-94067380D01*
X151637857Y-94115000D01*
X152066428Y-95067380D02*
X152066428Y-94067380D01*
X149209285Y-92479761D02*
X149352142Y-92527380D01*
X149590238Y-92527380D01*
X149685476Y-92479761D01*
X149733095Y-92432142D01*
X149780714Y-92336904D01*
X149780714Y-92241666D01*
X149733095Y-92146428D01*
X149685476Y-92098809D01*
X149590238Y-92051190D01*
X149399761Y-92003571D01*
X149304523Y-91955952D01*
X149256904Y-91908333D01*
X149209285Y-91813095D01*
X149209285Y-91717857D01*
X149256904Y-91622619D01*
X149304523Y-91575000D01*
X149399761Y-91527380D01*
X149637857Y-91527380D01*
X149780714Y-91575000D01*
X150780714Y-92432142D02*
X150733095Y-92479761D01*
X150590238Y-92527380D01*
X150495000Y-92527380D01*
X150352142Y-92479761D01*
X150256904Y-92384523D01*
X150209285Y-92289285D01*
X150161666Y-92098809D01*
X150161666Y-91955952D01*
X150209285Y-91765476D01*
X150256904Y-91670238D01*
X150352142Y-91575000D01*
X150495000Y-91527380D01*
X150590238Y-91527380D01*
X150733095Y-91575000D01*
X150780714Y-91622619D01*
X151209285Y-92527380D02*
X151209285Y-91527380D01*
X151780714Y-92527380D02*
X151352142Y-91955952D01*
X151780714Y-91527380D02*
X151209285Y-92098809D01*
X148923571Y-89987380D02*
X148923571Y-88987380D01*
X149256904Y-89701666D01*
X149590238Y-88987380D01*
X149590238Y-89987380D01*
X150066428Y-89987380D02*
X150066428Y-88987380D01*
X150495000Y-89939761D02*
X150637857Y-89987380D01*
X150875952Y-89987380D01*
X150971190Y-89939761D01*
X151018809Y-89892142D01*
X151066428Y-89796904D01*
X151066428Y-89701666D01*
X151018809Y-89606428D01*
X150971190Y-89558809D01*
X150875952Y-89511190D01*
X150685476Y-89463571D01*
X150590238Y-89415952D01*
X150542619Y-89368333D01*
X150495000Y-89273095D01*
X150495000Y-89177857D01*
X150542619Y-89082619D01*
X150590238Y-89035000D01*
X150685476Y-88987380D01*
X150923571Y-88987380D01*
X151066428Y-89035000D01*
X151685476Y-88987380D02*
X151875952Y-88987380D01*
X151971190Y-89035000D01*
X152066428Y-89130238D01*
X152114047Y-89320714D01*
X152114047Y-89654047D01*
X152066428Y-89844523D01*
X151971190Y-89939761D01*
X151875952Y-89987380D01*
X151685476Y-89987380D01*
X151590238Y-89939761D01*
X151495000Y-89844523D01*
X151447380Y-89654047D01*
X151447380Y-89320714D01*
X151495000Y-89130238D01*
X151590238Y-89035000D01*
X151685476Y-88987380D01*
X149733095Y-86495000D02*
X149637857Y-86447380D01*
X149495000Y-86447380D01*
X149352142Y-86495000D01*
X149256904Y-86590238D01*
X149209285Y-86685476D01*
X149161666Y-86875952D01*
X149161666Y-87018809D01*
X149209285Y-87209285D01*
X149256904Y-87304523D01*
X149352142Y-87399761D01*
X149495000Y-87447380D01*
X149590238Y-87447380D01*
X149733095Y-87399761D01*
X149780714Y-87352142D01*
X149780714Y-87018809D01*
X149590238Y-87018809D01*
X150209285Y-87447380D02*
X150209285Y-86447380D01*
X150780714Y-87447380D01*
X150780714Y-86447380D01*
X151256904Y-87447380D02*
X151256904Y-86447380D01*
X151495000Y-86447380D01*
X151637857Y-86495000D01*
X151733095Y-86590238D01*
X151780714Y-86685476D01*
X151828333Y-86875952D01*
X151828333Y-87018809D01*
X151780714Y-87209285D01*
X151733095Y-87304523D01*
X151637857Y-87399761D01*
X151495000Y-87447380D01*
X151256904Y-87447380D01*
%TO.C,nRF24L01+1*%
X157265714Y-105307380D02*
X157932380Y-105307380D01*
X157360952Y-105307380D02*
X157313333Y-105355000D01*
X157265714Y-105450238D01*
X157265714Y-105593095D01*
X157313333Y-105688333D01*
X157408571Y-105735952D01*
X157932380Y-105735952D01*
X157932380Y-106783571D02*
X157456190Y-106450238D01*
X157932380Y-106212142D02*
X156932380Y-106212142D01*
X156932380Y-106593095D01*
X156980000Y-106688333D01*
X157027619Y-106735952D01*
X157122857Y-106783571D01*
X157265714Y-106783571D01*
X157360952Y-106735952D01*
X157408571Y-106688333D01*
X157456190Y-106593095D01*
X157456190Y-106212142D01*
X157408571Y-107545476D02*
X157408571Y-107212142D01*
X157932380Y-107212142D02*
X156932380Y-107212142D01*
X156932380Y-107688333D01*
X157027619Y-108021666D02*
X156980000Y-108069285D01*
X156932380Y-108164523D01*
X156932380Y-108402619D01*
X156980000Y-108497857D01*
X157027619Y-108545476D01*
X157122857Y-108593095D01*
X157218095Y-108593095D01*
X157360952Y-108545476D01*
X157932380Y-107974047D01*
X157932380Y-108593095D01*
X157265714Y-109450238D02*
X157932380Y-109450238D01*
X156884761Y-109212142D02*
X157599047Y-108974047D01*
X157599047Y-109593095D01*
X157932380Y-110450238D02*
X157932380Y-109974047D01*
X156932380Y-109974047D01*
X156932380Y-110974047D02*
X156932380Y-111069285D01*
X156980000Y-111164523D01*
X157027619Y-111212142D01*
X157122857Y-111259761D01*
X157313333Y-111307380D01*
X157551428Y-111307380D01*
X157741904Y-111259761D01*
X157837142Y-111212142D01*
X157884761Y-111164523D01*
X157932380Y-111069285D01*
X157932380Y-110974047D01*
X157884761Y-110878809D01*
X157837142Y-110831190D01*
X157741904Y-110783571D01*
X157551428Y-110735952D01*
X157313333Y-110735952D01*
X157122857Y-110783571D01*
X157027619Y-110831190D01*
X156980000Y-110878809D01*
X156932380Y-110974047D01*
X157932380Y-112259761D02*
X157932380Y-111688333D01*
X157932380Y-111974047D02*
X156932380Y-111974047D01*
X157075238Y-111878809D01*
X157170476Y-111783571D01*
X157218095Y-111688333D01*
X157551428Y-112688333D02*
X157551428Y-113450238D01*
X157932380Y-113069285D02*
X157170476Y-113069285D01*
X157932380Y-114450238D02*
X157932380Y-113878809D01*
X157932380Y-114164523D02*
X156932380Y-114164523D01*
X157075238Y-114069285D01*
X157170476Y-113974047D01*
X157218095Y-113878809D01*
%TO.C,R6*%
X157382380Y-134453333D02*
X156906190Y-134120000D01*
X157382380Y-133881904D02*
X156382380Y-133881904D01*
X156382380Y-134262857D01*
X156430000Y-134358095D01*
X156477619Y-134405714D01*
X156572857Y-134453333D01*
X156715714Y-134453333D01*
X156810952Y-134405714D01*
X156858571Y-134358095D01*
X156906190Y-134262857D01*
X156906190Y-133881904D01*
X156382380Y-135310476D02*
X156382380Y-135120000D01*
X156430000Y-135024761D01*
X156477619Y-134977142D01*
X156620476Y-134881904D01*
X156810952Y-134834285D01*
X157191904Y-134834285D01*
X157287142Y-134881904D01*
X157334761Y-134929523D01*
X157382380Y-135024761D01*
X157382380Y-135215238D01*
X157334761Y-135310476D01*
X157287142Y-135358095D01*
X157191904Y-135405714D01*
X156953809Y-135405714D01*
X156858571Y-135358095D01*
X156810952Y-135310476D01*
X156763333Y-135215238D01*
X156763333Y-135024761D01*
X156810952Y-134929523D01*
X156858571Y-134881904D01*
X156953809Y-134834285D01*
%TD*%
M02*
